# Blender 3.6.4
# www.blender.org
mtllib Bench_2.mtl
o Bench_2
v -15.135938 0.390761 8.397922
v -14.480437 0.390761 8.397922
v -15.135938 0.446428 8.406991
v -14.480437 0.446428 8.406991
v -15.135938 0.474261 8.411526
v -14.480437 0.474261 8.411525
v -15.135938 0.529928 8.420595
v -14.480437 0.529928 8.420595
v -15.135938 0.359872 8.412140
v -15.135938 0.362928 8.393387
v -14.480437 0.359872 8.412140
v -14.480437 0.362928 8.393387
v -14.480437 0.304205 8.403070
v -15.135938 0.304205 8.403070
v -14.480437 0.387706 8.416675
v -15.135938 0.387706 8.416675
v -14.480437 0.443373 8.425744
v -15.135938 0.443373 8.425744
v -15.135938 0.471206 8.430279
v -14.480437 0.471206 8.430278
v -15.135938 0.307261 8.384317
v -14.480437 0.307261 8.384317
v -15.135938 0.526873 8.439348
v -14.480437 0.526873 8.439348
v -14.480437 0.189670 8.354336
v -15.135938 0.189670 8.354336
v -14.480437 0.208670 8.354336
v -15.135938 0.208670 8.354336
v -15.135938 0.189670 8.298240
v -14.480437 0.189670 8.298240
v -15.135938 0.208669 8.298240
v -14.480437 0.208669 8.298240
v -15.135938 0.189669 8.129953
v -14.480437 0.189669 8.129953
v -15.135938 0.208669 8.129953
v -14.480437 0.208669 8.129953
v -15.135938 0.189669 8.214097
v -15.135938 0.189669 8.270192
v -14.480437 0.189669 8.214096
v -14.480437 0.189669 8.270192
v -15.135938 0.208669 8.214097
v -14.480437 0.208669 8.214096
v -15.135938 0.208669 8.186049
v -14.480437 0.208669 8.186049
v -15.135938 0.208669 8.270192
v -14.480437 0.208669 8.270192
v -14.480437 0.189669 8.186049
v -15.135938 0.189669 8.186049
v -15.135938 0.208669 8.129953
v -15.192938 0.208669 8.129953
v -15.135938 0.275169 8.129953
v -15.192938 0.275169 8.129953
v -15.192938 0.208670 8.354336
v -15.135938 0.208670 8.354336
v -15.192938 0.275170 8.365170
v -15.135938 0.275170 8.365170
v -15.192938 0.326288 8.373498
v -15.135938 0.326288 8.373498
v -15.192938 0.548955 8.409776
v -15.135938 0.548955 8.409776
v -15.192938 0.548955 8.422180
v -15.135938 0.548955 8.422180
v -15.192938 0.326288 8.129953
v -15.135938 0.326288 8.129953
v -15.135938 0.000000 8.129953
v -15.135938 0.157552 8.129953
v -15.135938 0.000000 8.078835
v -15.135938 0.157552 8.354336
v -15.135938 0.000000 8.354336
v -15.135938 0.319439 8.104394
v -15.135938 0.300729 8.085684
v -15.135938 0.275169 8.078835
v -15.135938 0.208670 8.405453
v -15.135938 0.000000 8.405454
v -15.135938 0.543619 8.440149
v -15.135938 0.533532 8.450064
v -15.135938 0.510746 8.454669
v -15.192938 0.000000 8.354336
v -15.192938 0.000000 8.405454
v -15.192938 0.000000 8.078835
v -15.192938 0.275169 8.078835
v -15.192938 0.157552 8.354336
v -15.192938 0.000000 8.129953
v -15.192938 0.208670 8.405453
v -15.192938 0.157552 8.129953
v -15.192938 0.510746 8.454669
v -15.192938 0.300729 8.085684
v -15.192938 0.319439 8.104394
v -15.192938 0.543619 8.440149
v -15.192938 0.533532 8.450064
v -14.423437 0.208669 8.129953
v -14.480437 0.208669 8.129953
v -14.423437 0.275169 8.129952
v -14.480437 0.275169 8.129953
v -14.480437 0.208670 8.354336
v -14.423437 0.208670 8.354336
v -14.480437 0.275170 8.365170
v -14.423437 0.275170 8.365170
v -14.480437 0.326288 8.373498
v -14.423437 0.326288 8.373498
v -14.480437 0.548955 8.409775
v -14.423437 0.548955 8.409775
v -14.480437 0.548955 8.422180
v -14.423437 0.548955 8.422180
v -14.480437 0.326288 8.129952
v -14.423437 0.326288 8.129952
v -14.423437 0.000000 8.129953
v -14.423437 0.157552 8.129953
v -14.423437 0.000000 8.078835
v -14.423437 0.157552 8.354336
v -14.423437 0.000000 8.354336
v -14.423437 0.319439 8.104394
v -14.423437 0.300729 8.085684
v -14.423437 0.275169 8.078835
v -14.423437 0.208670 8.405453
v -14.423437 0.000000 8.405453
v -14.423437 0.543619 8.440148
v -14.423437 0.533532 8.450064
v -14.423437 0.510746 8.454669
v -14.480437 0.000000 8.354336
v -14.480437 0.000000 8.405453
v -14.480437 0.000000 8.078835
v -14.480437 0.275169 8.078835
v -14.480437 0.157552 8.354336
v -14.480437 0.000000 8.129953
v -14.480437 0.208670 8.405453
v -14.480437 0.157552 8.129953
v -14.480437 0.510746 8.454669
v -14.480437 0.300729 8.085684
v -14.480437 0.319439 8.104394
v -14.480437 0.543619 8.440148
v -14.480437 0.533532 8.450064
vn -0.0000 0.1608 -0.9870
vn -0.0000 0.9870 0.1608
vn -0.0000 -0.1608 0.9870
vn -0.0000 -0.9870 -0.1608
vn -0.0000 -0.0000 1.0000
vn -0.0000 -0.0000 -1.0000
vn -0.0000 -1.0000 -0.0000
vn -0.0000 1.0000 -0.0000
vn -0.0000 0.9896 0.1438
vn 0.0001 0.9914 -0.1305
vn -0.0000 0.9914 -0.1305
vn 1.0000 -0.0000 -0.0000
vn -0.0678 -0.0000 -0.9977
vn -0.0000 0.1305 -0.9914
vn -0.0000 -0.0807 0.9967
vn -0.0000 0.0189 0.9998
vn -0.0000 -0.0806 0.9967
vn 0.0001 0.0189 0.9998
vn -1.0000 -0.0000 -0.0000
vn 0.1346 -0.0000 0.9909
vn -0.0000 0.8660 -0.5000
vn -0.0000 0.5000 -0.8660
vn -0.0001 0.5000 -0.8660
vn -0.0000 0.8570 0.5153
vn -0.0000 0.4690 0.8832
vn 0.0001 0.9896 0.1438
vn -0.0001 0.8570 0.5153
vn -0.0000 0.4689 0.8832
vn -0.0000 0.0190 0.9998
vn -0.0678 -0.0000 0.9977
vn 0.0678 -0.0000 -0.9977
vt 0.093750 0.401015
vt 0.093750 0.351692
vt 0.093750 0.475000
vt 0.093750 0.425676
vt 0.093750 0.324323
vt 0.093750 0.327031
vt 0.093750 0.275000
vt 0.093750 0.398308
vt 0.093750 0.348985
vt 0.093750 0.422969
vt 0.093750 0.277707
vt 0.093750 0.472293
vt 0.843750 0.125252
vt 0.843750 0.101024
vt 0.843750 0.225000
vt 0.843750 0.143876
vt 0.843750 0.025000
vt 0.843750 0.082401
vt 0.843750 0.141381
vt 0.843750 0.134564
vt 0.843750 0.223056
vt 0.843750 0.219381
vt 0.843750 0.211079
s 0
usemtl colormap.024
f 3/1/1 2/2/1 1/2/1
f 2/2/1 3/1/1 4/1/1
f 7/3/1 6/4/1 5/4/1
f 6/4/1 7/3/1 8/3/1
f 11/5/2 10/6/2 9/5/2
f 10/6/2 11/5/2 12/6/2
f 11/5/3 14/7/3 13/7/3
f 14/7/3 11/5/3 9/5/3
f 17/8/3 16/9/3 15/9/3
f 16/9/3 17/8/3 18/8/3
f 6/4/4 19/10/4 5/4/4
f 19/10/4 6/4/4 20/10/4
f 22/11/4 14/7/4 21/11/4
f 14/7/4 22/11/4 13/7/4
f 17/8/2 3/1/2 18/8/2
f 3/1/2 17/8/2 4/1/2
f 24/12/2 7/3/2 23/12/2
f 7/3/2 24/12/2 8/3/2
f 2/2/4 16/9/4 1/2/4
f 16/9/4 2/2/4 15/9/4
f 24/12/3 19/10/3 20/10/3
f 19/10/3 24/12/3 23/12/3
f 10/6/1 22/11/1 21/11/1
f 22/11/1 10/6/1 12/6/1
f 27/3/5 26/7/5 25/7/5
f 26/7/5 27/3/5 28/3/5
f 31/3/6 30/7/6 29/7/6
f 30/7/6 31/3/6 32/3/6
f 30/7/7 26/7/7 29/7/7
f 26/7/7 30/7/7 25/7/7
f 27/3/8 31/3/8 28/3/8
f 31/3/8 27/3/8 32/3/8
f 35/3/6 34/7/6 33/7/6
f 34/7/6 35/3/6 36/3/6
f 39/7/7 38/7/7 37/7/7
f 38/7/7 39/7/7 40/7/7
f 41/3/6 39/7/6 37/7/6
f 39/7/6 41/3/6 42/3/6
f 44/3/8 35/3/8 43/3/8
f 35/3/8 44/3/8 36/3/8
f 46/3/8 41/3/8 45/3/8
f 41/3/8 46/3/8 42/3/8
f 44/3/5 48/7/5 47/7/5
f 48/7/5 44/3/5 43/3/5
f 46/3/5 38/7/5 40/7/5
f 38/7/5 46/3/5 45/3/5
f 34/7/7 48/7/7 33/7/7
f 48/7/7 34/7/7 47/7/7
f 51/13/5 50/14/5 49/14/5
f 50/14/5 51/13/5 52/13/5
f 55/13/1 54/14/1 53/14/1
f 54/14/1 55/13/1 56/13/1
f 59/15/1 58/16/1 57/16/1
f 58/16/1 59/15/1 60/15/1
f 62/15/9 59/15/8 61/15/9
f 59/15/8 62/15/9 60/15/8
f 58/16/8 63/16/10 57/16/8
f 63/16/11 58/16/8 64/16/11
f 67/17/12 66/18/12 65/17/12
f 66/18/12 67/17/12 49/14/12
f 54/14/12 66/18/12 49/14/12
f 54/14/12 68/18/12 66/18/12
f 54/14/13 69/17/13 68/18/13
f 49/14/12 67/17/12 51/13/12
f 56/13/12 69/17/12 54/14/12
f 64/16/12 56/13/12 51/13/12
f 51/13/12 67/17/12 64/16/12
f 64/16/12 67/17/12 70/19/12
f 70/19/12 67/17/12 71/20/12
f 71/20/12 67/17/12 72/13/12
f 56/13/12 64/16/12 58/16/12
f 58/16/12 69/17/12 56/13/12
f 73/14/12 69/17/12 58/16/12
f 69/17/12 73/14/12 74/17/12
f 60/15/12 73/14/12 58/16/12
f 62/15/12 73/14/12 60/15/12
f 75/21/12 73/14/12 62/15/12
f 76/22/12 73/14/12 75/21/12
f 73/14/12 76/22/12 77/23/12
f 54/14/8 50/14/8 53/14/8
f 50/14/8 54/14/8 49/14/8
f 69/17/7 79/17/7 78/17/7
f 79/17/7 69/17/7 74/17/7
f 81/13/14 67/17/6 80/17/6
f 67/17/6 81/13/14 72/13/14
f 82/18/6 69/17/6 78/17/6
f 69/17/6 82/18/6 68/18/6
f 67/17/7 83/17/7 80/17/7
f 83/17/7 67/17/7 65/17/7
f 73/14/15 79/17/5 74/17/5
f 79/17/5 73/14/15 84/14/15
f 66/18/5 83/17/5 65/17/5
f 83/17/5 66/18/5 85/18/5
f 66/18/7 82/18/7 85/18/7
f 82/18/7 66/18/7 68/18/7
f 77/23/16 84/14/17 73/14/17
f 84/14/17 77/23/16 86/23/18
f 80/17/19 87/20/19 81/13/19
f 80/17/19 88/19/19 87/20/19
f 83/17/19 88/19/19 80/17/19
f 85/18/19 88/19/19 83/17/19
f 50/14/19 88/19/19 85/18/19
f 82/18/19 50/14/19 85/18/19
f 52/13/19 88/19/19 50/14/19
f 50/14/19 82/18/19 53/14/19
f 52/13/19 63/16/19 88/19/19
f 78/17/20 53/14/20 82/18/20
f 55/13/19 63/16/19 52/13/19
f 78/17/19 55/13/19 53/14/19
f 63/16/19 55/13/19 57/16/19
f 78/17/19 57/16/19 55/13/19
f 79/17/19 57/16/19 78/17/19
f 84/14/19 57/16/19 79/17/19
f 84/14/19 59/15/19 57/16/19
f 84/14/19 61/15/19 59/15/19
f 84/14/19 89/21/19 61/15/19
f 84/14/19 90/22/19 89/21/19
f 90/22/19 84/14/19 86/23/19
f 51/13/7 55/13/7 52/13/7
f 55/13/7 51/13/7 56/13/7
f 64/16/11 88/19/21 63/16/11
f 88/19/21 64/16/11 70/19/21
f 88/19/21 71/20/22 87/20/22
f 71/20/22 88/19/21 70/19/21
f 87/20/22 72/13/14 81/13/14
f 72/13/14 87/20/22 71/20/23
f 75/21/24 90/22/25 76/22/25
f 90/22/25 75/21/24 89/21/24
f 75/21/24 61/15/26 89/21/24
f 61/15/9 75/21/27 62/15/9
f 76/22/28 86/23/29 77/23/29
f 86/23/29 76/22/28 90/22/28
f 93/13/5 92/14/5 91/14/5
f 92/14/5 93/13/5 94/13/5
f 97/13/1 96/14/1 95/14/1
f 96/14/1 97/13/1 98/13/1
f 101/15/1 100/16/1 99/16/1
f 100/16/1 101/15/1 102/15/1
f 104/15/9 101/15/8 103/15/9
f 101/15/8 104/15/9 102/15/8
f 100/16/8 105/16/10 99/16/8
f 105/16/11 100/16/8 106/16/11
f 109/17/12 108/18/12 107/17/12
f 108/18/12 109/17/12 91/14/12
f 96/14/12 108/18/12 91/14/12
f 96/14/12 110/18/12 108/18/12
f 96/14/30 111/17/30 110/18/30
f 91/14/12 109/17/12 93/13/12
f 98/13/12 111/17/12 96/14/12
f 106/16/12 98/13/12 93/13/12
f 93/13/12 109/17/12 106/16/12
f 106/16/12 109/17/12 112/19/12
f 112/19/12 109/17/12 113/20/12
f 113/20/12 109/17/12 114/13/12
f 98/13/12 106/16/12 100/16/12
f 100/16/12 111/17/12 98/13/12
f 115/14/12 111/17/12 100/16/12
f 111/17/12 115/14/12 116/17/12
f 102/15/12 115/14/12 100/16/12
f 104/15/12 115/14/12 102/15/12
f 117/21/12 115/14/12 104/15/12
f 118/22/12 115/14/12 117/21/12
f 115/14/12 118/22/12 119/23/12
f 96/14/8 92/14/8 95/14/8
f 92/14/8 96/14/8 91/14/8
f 111/17/7 121/17/7 120/17/7
f 121/17/7 111/17/7 116/17/7
f 123/13/14 109/17/6 122/17/6
f 109/17/6 123/13/14 114/13/14
f 124/18/6 111/17/6 120/17/6
f 111/17/6 124/18/6 110/18/6
f 109/17/7 125/17/7 122/17/7
f 125/17/7 109/17/7 107/17/7
f 115/14/15 121/17/5 116/17/5
f 121/17/5 115/14/15 126/14/15
f 108/18/5 125/17/5 107/17/5
f 125/17/5 108/18/5 127/18/5
f 108/18/7 124/18/7 127/18/7
f 124/18/7 108/18/7 110/18/7
f 119/23/16 126/14/17 115/14/17
f 126/14/17 119/23/16 128/23/18
f 122/17/19 129/20/19 123/13/19
f 122/17/19 130/19/19 129/20/19
f 125/17/19 130/19/19 122/17/19
f 127/18/19 130/19/19 125/17/19
f 92/14/19 130/19/19 127/18/19
f 124/18/19 92/14/19 127/18/19
f 94/13/19 130/19/19 92/14/19
f 92/14/19 124/18/19 95/14/19
f 94/13/19 105/16/19 130/19/19
f 120/17/31 95/14/31 124/18/31
f 97/13/19 105/16/19 94/13/19
f 120/17/19 97/13/19 95/14/19
f 105/16/19 97/13/19 99/16/19
f 120/17/19 99/16/19 97/13/19
f 121/17/19 99/16/19 120/17/19
f 126/14/19 99/16/19 121/17/19
f 126/14/19 101/15/19 99/16/19
f 126/14/19 103/15/19 101/15/19
f 126/14/19 131/21/19 103/15/19
f 126/14/19 132/22/19 131/21/19
f 132/22/19 126/14/19 128/23/19
f 93/13/7 97/13/7 94/13/7
f 97/13/7 93/13/7 98/13/7
f 106/16/11 130/19/21 105/16/11
f 130/19/21 106/16/11 112/19/21
f 130/19/21 113/20/22 129/20/22
f 113/20/22 130/19/21 112/19/21
f 129/20/22 114/13/14 123/13/14
f 114/13/14 129/20/22 113/20/22
f 117/21/24 132/22/25 118/22/25
f 132/22/25 117/21/24 131/21/24
f 117/21/24 103/15/9 131/21/24
f 103/15/9 117/21/24 104/15/9
f 118/22/28 128/23/29 119/23/29
f 128/23/29 118/22/28 132/22/28
f 3/1/1 2/2/1 1/2/1
f 2/2/1 3/1/1 4/1/1
f 7/3/1 6/4/1 5/4/1
f 6/4/1 7/3/1 8/3/1
f 11/5/2 10/6/2 9/5/2
f 10/6/2 11/5/2 12/6/2
f 11/5/3 14/7/3 13/7/3
f 14/7/3 11/5/3 9/5/3
f 17/8/3 16/9/3 15/9/3
f 16/9/3 17/8/3 18/8/3
f 6/4/4 19/10/4 5/4/4
f 19/10/4 6/4/4 20/10/4
f 22/11/4 14/7/4 21/11/4
f 14/7/4 22/11/4 13/7/4
f 17/8/2 3/1/2 18/8/2
f 3/1/2 17/8/2 4/1/2
f 24/12/2 7/3/2 23/12/2
f 7/3/2 24/12/2 8/3/2
f 2/2/4 16/9/4 1/2/4
f 16/9/4 2/2/4 15/9/4
f 24/12/3 19/10/3 20/10/3
f 19/10/3 24/12/3 23/12/3
f 10/6/1 22/11/1 21/11/1
f 22/11/1 10/6/1 12/6/1
f 27/3/5 26/7/5 25/7/5
f 26/7/5 27/3/5 28/3/5
f 31/3/6 30/7/6 29/7/6
f 30/7/6 31/3/6 32/3/6
f 30/7/7 26/7/7 29/7/7
f 26/7/7 30/7/7 25/7/7
f 27/3/8 31/3/8 28/3/8
f 31/3/8 27/3/8 32/3/8
f 35/3/6 34/7/6 33/7/6
f 34/7/6 35/3/6 36/3/6
f 39/7/7 38/7/7 37/7/7
f 38/7/7 39/7/7 40/7/7
f 41/3/6 39/7/6 37/7/6
f 39/7/6 41/3/6 42/3/6
f 44/3/8 35/3/8 43/3/8
f 35/3/8 44/3/8 36/3/8
f 46/3/8 41/3/8 45/3/8
f 41/3/8 46/3/8 42/3/8
f 44/3/5 48/7/5 47/7/5
f 48/7/5 44/3/5 43/3/5
f 46/3/5 38/7/5 40/7/5
f 38/7/5 46/3/5 45/3/5
f 34/7/7 48/7/7 33/7/7
f 48/7/7 34/7/7 47/7/7
f 51/13/5 50/14/5 49/14/5
f 50/14/5 51/13/5 52/13/5
f 55/13/1 54/14/1 53/14/1
f 54/14/1 55/13/1 56/13/1
f 59/15/1 58/16/1 57/16/1
f 58/16/1 59/15/1 60/15/1
f 62/15/9 59/15/8 61/15/9
f 59/15/8 62/15/9 60/15/8
f 58/16/8 63/16/10 57/16/8
f 63/16/11 58/16/8 64/16/11
f 67/17/12 66/18/12 65/17/12
f 66/18/12 67/17/12 49/14/12
f 54/14/12 66/18/12 49/14/12
f 54/14/12 68/18/12 66/18/12
f 54/14/13 69/17/13 68/18/13
f 49/14/12 67/17/12 51/13/12
f 56/13/12 69/17/12 54/14/12
f 64/16/12 56/13/12 51/13/12
f 51/13/12 67/17/12 64/16/12
f 64/16/12 67/17/12 70/19/12
f 70/19/12 67/17/12 71/20/12
f 71/20/12 67/17/12 72/13/12
f 56/13/12 64/16/12 58/16/12
f 58/16/12 69/17/12 56/13/12
f 73/14/12 69/17/12 58/16/12
f 69/17/12 73/14/12 74/17/12
f 60/15/12 73/14/12 58/16/12
f 62/15/12 73/14/12 60/15/12
f 75/21/12 73/14/12 62/15/12
f 76/22/12 73/14/12 75/21/12
f 73/14/12 76/22/12 77/23/12
f 54/14/8 50/14/8 53/14/8
f 50/14/8 54/14/8 49/14/8
f 69/17/7 79/17/7 78/17/7
f 79/17/7 69/17/7 74/17/7
f 81/13/14 67/17/6 80/17/6
f 67/17/6 81/13/14 72/13/14
f 82/18/6 69/17/6 78/17/6
f 69/17/6 82/18/6 68/18/6
f 67/17/7 83/17/7 80/17/7
f 83/17/7 67/17/7 65/17/7
f 73/14/15 79/17/5 74/17/5
f 79/17/5 73/14/15 84/14/15
f 66/18/5 83/17/5 65/17/5
f 83/17/5 66/18/5 85/18/5
f 66/18/7 82/18/7 85/18/7
f 82/18/7 66/18/7 68/18/7
f 77/23/16 84/14/17 73/14/17
f 84/14/17 77/23/16 86/23/18
f 80/17/19 87/20/19 81/13/19
f 80/17/19 88/19/19 87/20/19
f 83/17/19 88/19/19 80/17/19
f 85/18/19 88/19/19 83/17/19
f 50/14/19 88/19/19 85/18/19
f 82/18/19 50/14/19 85/18/19
f 52/13/19 88/19/19 50/14/19
f 50/14/19 82/18/19 53/14/19
f 52/13/19 63/16/19 88/19/19
f 78/17/20 53/14/20 82/18/20
f 55/13/19 63/16/19 52/13/19
f 78/17/19 55/13/19 53/14/19
f 63/16/19 55/13/19 57/16/19
f 78/17/19 57/16/19 55/13/19
f 79/17/19 57/16/19 78/17/19
f 84/14/19 57/16/19 79/17/19
f 84/14/19 59/15/19 57/16/19
f 84/14/19 61/15/19 59/15/19
f 84/14/19 89/21/19 61/15/19
f 84/14/19 90/22/19 89/21/19
f 90/22/19 84/14/19 86/23/19
f 51/13/7 55/13/7 52/13/7
f 55/13/7 51/13/7 56/13/7
f 64/16/11 88/19/21 63/16/11
f 88/19/21 64/16/11 70/19/21
f 88/19/21 71/20/22 87/20/22
f 71/20/22 88/19/21 70/19/21
f 87/20/22 72/13/14 81/13/14
f 72/13/14 87/20/22 71/20/23
f 75/21/24 90/22/25 76/22/25
f 90/22/25 75/21/24 89/21/24
f 75/21/24 61/15/26 89/21/24
f 61/15/9 75/21/27 62/15/9
f 76/22/28 86/23/29 77/23/29
f 86/23/29 76/22/28 90/22/28
f 93/13/5 92/14/5 91/14/5
f 92/14/5 93/13/5 94/13/5
f 97/13/1 96/14/1 95/14/1
f 96/14/1 97/13/1 98/13/1
f 101/15/1 100/16/1 99/16/1
f 100/16/1 101/15/1 102/15/1
f 104/15/9 101/15/8 103/15/9
f 101/15/8 104/15/9 102/15/8
f 100/16/8 105/16/10 99/16/8
f 105/16/11 100/16/8 106/16/11
f 109/17/12 108/18/12 107/17/12
f 108/18/12 109/17/12 91/14/12
f 96/14/12 108/18/12 91/14/12
f 96/14/12 110/18/12 108/18/12
f 96/14/30 111/17/30 110/18/30
f 91/14/12 109/17/12 93/13/12
f 98/13/12 111/17/12 96/14/12
f 106/16/12 98/13/12 93/13/12
f 93/13/12 109/17/12 106/16/12
f 106/16/12 109/17/12 112/19/12
f 112/19/12 109/17/12 113/20/12
f 113/20/12 109/17/12 114/13/12
f 98/13/12 106/16/12 100/16/12
f 100/16/12 111/17/12 98/13/12
f 115/14/12 111/17/12 100/16/12
f 111/17/12 115/14/12 116/17/12
f 102/15/12 115/14/12 100/16/12
f 104/15/12 115/14/12 102/15/12
f 117/21/12 115/14/12 104/15/12
f 118/22/12 115/14/12 117/21/12
f 115/14/12 118/22/12 119/23/12
f 96/14/8 92/14/8 95/14/8
f 92/14/8 96/14/8 91/14/8
f 111/17/7 121/17/7 120/17/7
f 121/17/7 111/17/7 116/17/7
f 123/13/14 109/17/6 122/17/6
f 109/17/6 123/13/14 114/13/14
f 124/18/6 111/17/6 120/17/6
f 111/17/6 124/18/6 110/18/6
f 109/17/7 125/17/7 122/17/7
f 125/17/7 109/17/7 107/17/7
f 115/14/15 121/17/5 116/17/5
f 121/17/5 115/14/15 126/14/15
f 108/18/5 125/17/5 107/17/5
f 125/17/5 108/18/5 127/18/5
f 108/18/7 124/18/7 127/18/7
f 124/18/7 108/18/7 110/18/7
f 119/23/16 126/14/17 115/14/17
f 126/14/17 119/23/16 128/23/18
f 122/17/19 129/20/19 123/13/19
f 122/17/19 130/19/19 129/20/19
f 125/17/19 130/19/19 122/17/19
f 127/18/19 130/19/19 125/17/19
f 92/14/19 130/19/19 127/18/19
f 124/18/19 92/14/19 127/18/19
f 94/13/19 130/19/19 92/14/19
f 92/14/19 124/18/19 95/14/19
f 94/13/19 105/16/19 130/19/19
f 120/17/31 95/14/31 124/18/31
f 97/13/19 105/16/19 94/13/19
f 120/17/19 97/13/19 95/14/19
f 105/16/19 97/13/19 99/16/19
f 120/17/19 99/16/19 97/13/19
f 121/17/19 99/16/19 120/17/19
f 126/14/19 99/16/19 121/17/19
f 126/14/19 101/15/19 99/16/19
f 126/14/19 103/15/19 101/15/19
f 126/14/19 131/21/19 103/15/19
f 126/14/19 132/22/19 131/21/19
f 132/22/19 126/14/19 128/23/19
f 93/13/7 97/13/7 94/13/7
f 97/13/7 93/13/7 98/13/7
f 106/16/11 130/19/21 105/16/11
f 130/19/21 106/16/11 112/19/21
f 130/19/21 113/20/22 129/20/22
f 113/20/22 130/19/21 112/19/21
f 129/20/22 114/13/14 123/13/14
f 114/13/14 129/20/22 113/20/22
f 117/21/24 132/22/25 118/22/25
f 132/22/25 117/21/24 131/21/24
f 117/21/24 103/15/9 131/21/24
f 103/15/9 117/21/24 104/15/9
f 118/22/28 128/23/29 119/23/29
f 128/23/29 118/22/28 132/22/28
