# Blender 3.6.4
# www.blender.org
mtllib Cross_5.mtl
o Cross_5
v 8.839977 0.900000 -5.341814
v 8.839977 0.777500 -5.341814
v 8.907070 0.900000 -5.385386
v 8.907070 0.777500 -5.385386
v 8.914184 0.911250 -5.227545
v 8.871294 0.990000 -5.293591
v 8.981277 0.911250 -5.271117
v 8.938387 0.990000 -5.337162
v 8.968716 0.798750 -5.143573
v 8.968716 0.777500 -5.143573
v 9.035810 0.798750 -5.187145
v 9.035810 0.777500 -5.187145
v 8.908668 0.110000 -5.222085
v 8.821172 0.110000 -5.356818
v 8.902611 0.140000 -5.245367
v 8.839977 0.140000 -5.341814
v 8.773871 0.777500 -5.443608
v 8.773871 0.798750 -5.443608
v 8.840965 0.777500 -5.487179
v 8.840965 0.798750 -5.487179
v 8.902611 0.777500 -5.245367
v 8.969704 0.777500 -5.288938
v 8.969704 0.662500 -5.288938
v 8.902611 0.662500 -5.245367
v 9.035810 0.662500 -5.187145
v 8.968716 0.662500 -5.143573
v 8.974691 0.641250 -5.134372
v 9.017120 0.721125 -5.069036
v 9.041785 0.641250 -5.177943
v 9.084214 0.721125 -5.112608
v 8.773871 0.641250 -5.443608
v 8.773871 0.662500 -5.443608
v 8.840965 0.641250 -5.487179
v 8.840965 0.662500 -5.487179
v 8.902611 0.900000 -5.245367
v 8.969704 0.900000 -5.288938
v 8.768036 0.798750 -5.452593
v 8.725467 0.716681 -5.518145
v 8.835130 0.798750 -5.496164
v 8.792561 0.716681 -5.561716
v 8.974843 0.798750 -5.134139
v 8.871294 0.787500 -5.293591
v 8.908057 0.720000 -5.236980
v 8.871294 0.652500 -5.293591
v 8.968716 0.641250 -5.143573
v 8.839977 0.662500 -5.341814
v 8.834531 0.720000 -5.350201
v 8.914184 0.900000 -5.227545
v 8.828403 0.900000 -5.359636
v 8.828403 0.911250 -5.359636
v 8.767589 0.641250 -5.453282
v 9.041937 0.798750 -5.177710
v 8.895497 0.911250 -5.403207
v 9.035810 0.641250 -5.187145
v 8.895497 0.900000 -5.403207
v 8.834682 0.641250 -5.496853
v 8.907070 0.662500 -5.385386
v 8.901013 0.110000 -5.408667
v 8.907070 0.140000 -5.385386
v 8.988509 0.110000 -5.273935
v 8.969704 0.140000 -5.288938
v 8.894451 0.000000 -5.418772
v 8.995071 0.000000 -5.263830
v 8.981277 0.900000 -5.271117
v 8.814610 0.000000 -5.366923
v 8.915230 0.000000 -5.211980
v 8.901624 0.720000 -5.393772
v 8.938387 0.787500 -5.337162
v 8.938387 0.652500 -5.337162
v 8.975150 0.720000 -5.280551
v 8.955161 0.686250 -5.348054
v 8.973542 0.720000 -5.319749
v 8.936779 0.720000 -5.376360
v 8.955161 0.753750 -5.348054
v 8.836139 0.720000 -5.311003
v 8.854520 0.753750 -5.282698
v 8.872902 0.720000 -5.254393
v 8.854520 0.686250 -5.282698
vn -0.5446 -0.0000 -0.8387
vn 0.5032 0.3827 0.7748
vn 0.3851 0.7071 0.5930
vn 0.5032 0.3827 0.7749
vn -0.8130 0.2456 0.5280
vn -0.8354 0.0885 0.5425
vn 0.5446 -0.0000 0.8387
vn -0.0000 1.0000 -0.0000
vn -0.0000 -1.0000 -0.0000
vn 0.2116 -0.9215 0.3258
vn 0.3899 -0.6982 0.6004
vn -0.2145 0.9191 -0.3304
vn -0.3944 0.6897 -0.6073
vn -0.8387 -0.0000 0.5446
vn 0.2084 0.9239 0.3209
vn -0.3851 0.7071 -0.5930
vn -0.5032 0.3827 -0.7749
vn -0.5032 0.3827 -0.7748
vn -0.2053 -0.9262 -0.3161
vn -0.3803 -0.7159 -0.5856
vn -0.4334 0.6055 -0.6674
vn -0.5095 0.3532 -0.7846
vn 0.5095 0.3532 0.7846
vn 0.4334 0.6055 0.6674
vn 0.8354 0.0885 -0.5425
vn 0.8387 -0.0000 -0.5446
vn 0.8130 0.2456 -0.5280
vn 0.5414 0.1089 0.8337
vn 0.2084 0.9239 0.3210
vn -0.5414 0.1089 -0.8337
vn -0.2053 -0.9263 -0.3161
vn 0.2115 -0.9215 0.3258
vn 0.2117 -0.9215 0.3257
vn 0.8902 -0.4542 -0.0365
vn 0.3954 -0.4542 -0.7983
vn 0.8902 0.4542 -0.0365
vn 0.3954 0.4542 -0.7983
vn -0.8902 0.4542 0.0365
vn -0.3954 0.4542 0.7983
vn -0.3954 -0.4542 0.7983
vn -0.8902 -0.4542 0.0365
vt 0.595719 0.211469
vt 0.595719 0.186721
vt 0.595719 0.213741
vt 0.595719 0.229651
vt 0.595719 0.191014
vt 0.595719 0.057933
vt 0.595719 0.051873
vt 0.595719 0.163489
vt 0.595719 0.159196
vt 0.595719 0.175332
vt 0.595719 0.174435
vt 0.595719 0.188741
vt 0.595719 0.175105
vt 0.595719 0.161469
vt 0.595719 0.029651
vt -0.148353 0.174994
vt -0.148353 0.168176
vt -0.148353 0.181812
vt -0.148353 0.161358
vt -0.148353 0.188630
s 0
usemtl colormap.053
f 3/1/1 2/2/1 1/1/1
f 2/2/1 3/1/1 4/2/1
f 7/3/2 6/4/3 5/3/2
f 6/4/3 7/3/4 8/4/3
f 11/5/1 10/2/1 9/5/1
f 10/2/1 11/5/1 12/2/1
f 15/6/5 14/7/6 13/7/6
f 14/7/6 15/6/5 16/6/5
f 19/2/7 18/5/7 17/2/7
f 18/5/7 19/2/7 20/5/7
f 10/2/8 22/2/8 21/2/8
f 22/2/8 10/2/8 12/2/8
f 25/8/9 24/8/9 23/8/9
f 24/8/9 25/8/9 26/8/9
f 29/9/10 28/10/11 27/9/10
f 28/10/11 29/9/10 30/10/11
f 33/9/7 32/8/7 31/9/7
f 32/8/7 33/9/7 34/8/7
f 22/2/7 35/1/7 21/2/7
f 35/1/7 22/2/7 36/1/7
f 2/2/8 19/2/8 17/2/8
f 19/2/8 2/2/8 4/2/8
f 39/5/12 38/11/13 37/5/12
f 38/11/13 39/5/12 40/11/13
f 10/2/14 41/5/14 9/5/14
f 41/5/14 10/2/14 28/10/14
f 21/2/14 28/10/14 10/2/14
f 42/12/14 28/10/14 21/2/14
f 42/12/14 21/2/14 35/1/14
f 43/13/14 28/10/14 42/12/14
f 24/8/14 28/10/14 43/13/14
f 44/14/14 24/8/14 43/13/14
f 26/8/14 28/10/14 24/8/14
f 45/9/14 28/10/14 26/8/14
f 28/10/14 45/9/14 27/9/14
f 16/6/14 24/8/14 44/14/14
f 24/8/14 16/6/14 15/6/14
f 44/14/14 46/8/14 16/6/14
f 46/8/14 44/14/14 47/13/14
f 46/8/14 47/13/14 32/8/14
f 1/1/14 42/12/14 35/1/14
f 2/2/14 42/12/14 1/1/14
f 42/12/14 2/2/14 47/13/14
f 17/2/14 47/13/14 2/2/14
f 35/1/14 5/3/14 1/1/14
f 5/3/14 35/1/14 48/1/14
f 1/1/14 5/3/14 49/1/14
f 49/1/14 5/3/14 50/3/14
f 50/3/14 5/3/14 6/4/14
f 32/8/14 47/13/14 38/11/14
f 38/11/14 47/13/14 17/2/14
f 51/9/14 32/8/14 38/11/14
f 32/8/14 51/9/14 31/9/14
f 38/11/14 17/2/14 37/5/14
f 37/5/14 17/2/14 18/5/14
f 30/10/3 41/5/15 28/10/3
f 41/5/15 30/10/3 52/5/15
f 8/4/16 50/3/17 6/4/16
f 50/3/18 8/4/16 53/3/18
f 25/8/1 45/9/1 26/8/1
f 45/9/1 25/8/1 54/9/1
f 3/1/9 49/1/9 55/1/9
f 49/1/9 3/1/9 1/1/9
f 56/9/19 38/11/20 40/11/20
f 38/11/20 56/9/19 51/9/19
f 57/8/9 32/8/9 34/8/9
f 32/8/9 57/8/9 46/8/9
f 16/6/21 58/7/22 14/7/22
f 58/7/22 16/6/21 59/6/21
f 60/7/23 15/6/24 13/7/23
f 15/6/24 60/7/23 61/6/24
f 58/7/25 63/15/26 62/15/26
f 63/15/26 58/7/25 60/7/25
f 64/1/9 35/1/9 36/1/9
f 35/1/9 64/1/9 48/1/9
f 63/15/9 65/15/9 62/15/9
f 65/15/9 63/15/9 66/15/9
f 59/6/27 60/7/25 58/7/25
f 60/7/25 59/6/27 61/6/27
f 63/15/28 13/7/23 66/15/28
f 13/7/23 63/15/28 60/7/23
f 53/3/18 49/1/1 50/3/18
f 49/1/1 53/3/18 55/1/1
f 13/7/6 65/15/14 66/15/14
f 65/15/14 13/7/6 14/7/6
f 18/5/8 39/5/12 37/5/12
f 39/5/12 18/5/8 20/5/8
f 41/5/15 11/5/8 9/5/8
f 11/5/8 41/5/29 52/5/29
f 40/11/26 33/9/26 56/9/26
f 33/9/26 40/11/26 34/8/26
f 34/8/26 40/11/26 57/8/26
f 67/13/26 57/8/26 40/11/26
f 67/13/26 40/11/26 19/2/26
f 19/2/26 40/11/26 39/5/26
f 19/2/26 39/5/26 20/5/26
f 4/2/26 67/13/26 19/2/26
f 67/13/26 4/2/26 68/12/26
f 69/14/26 57/8/26 67/13/26
f 68/12/26 4/2/26 3/1/26
f 61/6/26 57/8/26 69/14/26
f 57/8/26 61/6/26 59/6/26
f 69/14/26 23/8/26 61/6/26
f 23/8/26 69/14/26 70/13/26
f 23/8/26 70/13/26 25/8/26
f 30/10/26 25/8/26 70/13/26
f 30/10/26 70/13/26 68/12/26
f 29/9/26 25/8/26 30/10/26
f 25/8/26 29/9/26 54/9/26
f 30/10/26 68/12/26 22/2/26
f 12/2/26 30/10/26 22/2/26
f 30/10/26 12/2/26 52/5/26
f 52/5/26 12/2/26 11/5/26
f 22/2/26 68/12/26 36/1/26
f 36/1/26 68/12/26 3/1/26
f 3/1/26 53/3/26 36/1/26
f 53/3/26 3/1/26 55/1/26
f 36/1/26 53/3/26 64/1/26
f 64/1/26 53/3/26 7/3/26
f 7/3/26 53/3/26 8/4/26
f 58/7/22 65/15/30 14/7/22
f 65/15/30 58/7/22 62/15/30
f 33/9/9 51/9/31 56/9/31
f 51/9/31 33/9/9 31/9/9
f 64/1/7 5/3/2 48/1/7
f 5/3/2 64/1/7 7/3/2
f 29/9/32 45/9/9 54/9/9
f 45/9/9 29/9/32 27/9/33
f 61/6/7 24/8/7 15/6/7
f 24/8/7 61/6/7 23/8/7
f 57/8/1 16/6/1 46/8/1
f 16/6/1 57/8/1 59/6/1
f 73/16/26 72/16/26 71/17/26
f 72/16/26 73/16/26 74/18/26
f 71/17/34 70/16/34 69/19/34
f 70/16/34 71/17/34 72/16/34
f 67/16/35 71/17/35 69/19/35
f 71/17/35 67/16/35 73/16/35
f 74/18/36 70/16/36 72/16/36
f 70/16/36 74/18/36 68/20/36
f 68/20/37 73/16/37 67/16/37
f 73/16/37 68/20/37 74/18/37
f 76/18/38 47/16/38 75/16/38
f 47/16/38 76/18/38 42/20/38
f 42/20/39 77/16/39 43/16/39
f 77/16/39 42/20/39 76/18/39
f 43/16/40 78/17/40 44/19/40
f 78/17/40 43/16/40 77/16/40
f 77/16/14 75/16/14 78/17/14
f 75/16/14 77/16/14 76/18/14
f 78/17/41 47/16/41 44/19/41
f 47/16/41 78/17/41 75/16/41
f 3/1/1 2/2/1 1/1/1
f 2/2/1 3/1/1 4/2/1
f 7/3/2 6/4/3 5/3/2
f 6/4/3 7/3/4 8/4/3
f 11/5/1 10/2/1 9/5/1
f 10/2/1 11/5/1 12/2/1
f 15/6/5 14/7/6 13/7/6
f 14/7/6 15/6/5 16/6/5
f 19/2/7 18/5/7 17/2/7
f 18/5/7 19/2/7 20/5/7
f 10/2/8 22/2/8 21/2/8
f 22/2/8 10/2/8 12/2/8
f 25/8/9 24/8/9 23/8/9
f 24/8/9 25/8/9 26/8/9
f 29/9/10 28/10/11 27/9/10
f 28/10/11 29/9/10 30/10/11
f 33/9/7 32/8/7 31/9/7
f 32/8/7 33/9/7 34/8/7
f 22/2/7 35/1/7 21/2/7
f 35/1/7 22/2/7 36/1/7
f 2/2/8 19/2/8 17/2/8
f 19/2/8 2/2/8 4/2/8
f 39/5/12 38/11/13 37/5/12
f 38/11/13 39/5/12 40/11/13
f 10/2/14 41/5/14 9/5/14
f 41/5/14 10/2/14 28/10/14
f 21/2/14 28/10/14 10/2/14
f 42/12/14 28/10/14 21/2/14
f 42/12/14 21/2/14 35/1/14
f 43/13/14 28/10/14 42/12/14
f 24/8/14 28/10/14 43/13/14
f 44/14/14 24/8/14 43/13/14
f 26/8/14 28/10/14 24/8/14
f 45/9/14 28/10/14 26/8/14
f 28/10/14 45/9/14 27/9/14
f 16/6/14 24/8/14 44/14/14
f 24/8/14 16/6/14 15/6/14
f 44/14/14 46/8/14 16/6/14
f 46/8/14 44/14/14 47/13/14
f 46/8/14 47/13/14 32/8/14
f 1/1/14 42/12/14 35/1/14
f 2/2/14 42/12/14 1/1/14
f 42/12/14 2/2/14 47/13/14
f 17/2/14 47/13/14 2/2/14
f 35/1/14 5/3/14 1/1/14
f 5/3/14 35/1/14 48/1/14
f 1/1/14 5/3/14 49/1/14
f 49/1/14 5/3/14 50/3/14
f 50/3/14 5/3/14 6/4/14
f 32/8/14 47/13/14 38/11/14
f 38/11/14 47/13/14 17/2/14
f 51/9/14 32/8/14 38/11/14
f 32/8/14 51/9/14 31/9/14
f 38/11/14 17/2/14 37/5/14
f 37/5/14 17/2/14 18/5/14
f 30/10/3 41/5/15 28/10/3
f 41/5/15 30/10/3 52/5/15
f 8/4/16 50/3/17 6/4/16
f 50/3/18 8/4/16 53/3/18
f 25/8/1 45/9/1 26/8/1
f 45/9/1 25/8/1 54/9/1
f 3/1/9 49/1/9 55/1/9
f 49/1/9 3/1/9 1/1/9
f 56/9/19 38/11/20 40/11/20
f 38/11/20 56/9/19 51/9/19
f 57/8/9 32/8/9 34/8/9
f 32/8/9 57/8/9 46/8/9
f 16/6/21 58/7/22 14/7/22
f 58/7/22 16/6/21 59/6/21
f 60/7/23 15/6/24 13/7/23
f 15/6/24 60/7/23 61/6/24
f 58/7/25 63/15/26 62/15/26
f 63/15/26 58/7/25 60/7/25
f 64/1/9 35/1/9 36/1/9
f 35/1/9 64/1/9 48/1/9
f 63/15/9 65/15/9 62/15/9
f 65/15/9 63/15/9 66/15/9
f 59/6/27 60/7/25 58/7/25
f 60/7/25 59/6/27 61/6/27
f 63/15/28 13/7/23 66/15/28
f 13/7/23 63/15/28 60/7/23
f 53/3/18 49/1/1 50/3/18
f 49/1/1 53/3/18 55/1/1
f 13/7/6 65/15/14 66/15/14
f 65/15/14 13/7/6 14/7/6
f 18/5/8 39/5/12 37/5/12
f 39/5/12 18/5/8 20/5/8
f 41/5/15 11/5/8 9/5/8
f 11/5/8 41/5/29 52/5/29
f 40/11/26 33/9/26 56/9/26
f 33/9/26 40/11/26 34/8/26
f 34/8/26 40/11/26 57/8/26
f 67/13/26 57/8/26 40/11/26
f 67/13/26 40/11/26 19/2/26
f 19/2/26 40/11/26 39/5/26
f 19/2/26 39/5/26 20/5/26
f 4/2/26 67/13/26 19/2/26
f 67/13/26 4/2/26 68/12/26
f 69/14/26 57/8/26 67/13/26
f 68/12/26 4/2/26 3/1/26
f 61/6/26 57/8/26 69/14/26
f 57/8/26 61/6/26 59/6/26
f 69/14/26 23/8/26 61/6/26
f 23/8/26 69/14/26 70/13/26
f 23/8/26 70/13/26 25/8/26
f 30/10/26 25/8/26 70/13/26
f 30/10/26 70/13/26 68/12/26
f 29/9/26 25/8/26 30/10/26
f 25/8/26 29/9/26 54/9/26
f 30/10/26 68/12/26 22/2/26
f 12/2/26 30/10/26 22/2/26
f 30/10/26 12/2/26 52/5/26
f 52/5/26 12/2/26 11/5/26
f 22/2/26 68/12/26 36/1/26
f 36/1/26 68/12/26 3/1/26
f 3/1/26 53/3/26 36/1/26
f 53/3/26 3/1/26 55/1/26
f 36/1/26 53/3/26 64/1/26
f 64/1/26 53/3/26 7/3/26
f 7/3/26 53/3/26 8/4/26
f 58/7/22 65/15/30 14/7/22
f 65/15/30 58/7/22 62/15/30
f 33/9/9 51/9/31 56/9/31
f 51/9/31 33/9/9 31/9/9
f 64/1/7 5/3/2 48/1/7
f 5/3/2 64/1/7 7/3/2
f 29/9/32 45/9/9 54/9/9
f 45/9/9 29/9/32 27/9/33
f 61/6/7 24/8/7 15/6/7
f 24/8/7 61/6/7 23/8/7
f 57/8/1 16/6/1 46/8/1
f 16/6/1 57/8/1 59/6/1
f 73/16/26 72/16/26 71/17/26
f 72/16/26 73/16/26 74/18/26
f 71/17/34 70/16/34 69/19/34
f 70/16/34 71/17/34 72/16/34
f 67/16/35 71/17/35 69/19/35
f 71/17/35 67/16/35 73/16/35
f 74/18/36 70/16/36 72/16/36
f 70/16/36 74/18/36 68/20/36
f 68/20/37 73/16/37 67/16/37
f 73/16/37 68/20/37 74/18/37
f 76/18/38 47/16/38 75/16/38
f 47/16/38 76/18/38 42/20/38
f 42/20/39 77/16/39 43/16/39
f 77/16/39 42/20/39 76/18/39
f 43/16/40 78/17/40 44/19/40
f 78/17/40 43/16/40 77/16/40
f 77/16/14 75/16/14 78/17/14
f 75/16/14 77/16/14 76/18/14
f 78/17/41 47/16/41 44/19/41
f 47/16/41 78/17/41 75/16/41
