# Blender 3.6.4
# www.blender.org
mtllib Cross_Wood_1.mtl
o Cross_Wood_1
v -10.513218 0.000000 4.843854
v -10.083218 0.000000 4.843854
v -10.513218 0.050000 4.843854
v -10.083218 0.050000 4.843854
v -10.083218 0.050000 5.273854
v -10.083218 0.000000 5.273854
v -10.513218 0.000000 5.273854
v -10.513218 0.050000 5.273854
v -10.470243 0.050000 4.886829
v -10.470243 0.310000 4.886829
v -10.470243 0.050000 5.230879
v -10.470243 0.310000 5.230879
v -10.126193 0.050000 5.230879
v -10.126193 0.310000 5.230879
v -10.126193 0.310000 4.886829
v -10.126193 0.050000 4.886829
v -10.083218 0.335000 5.273854
v -10.513218 0.335000 5.273854
v -10.513218 0.335000 4.843854
v -10.513218 0.410000 4.843854
v -10.513218 0.410000 5.273854
v -10.083218 0.335000 4.843854
v -10.083218 0.410000 4.843854
v -10.083218 0.410000 5.273854
v -10.439014 0.410000 4.918057
v -10.439014 0.380000 4.918057
v -10.439014 0.410000 5.199651
v -10.439014 0.380000 5.199651
v -10.157421 0.380000 5.199651
v -10.157421 0.410000 5.199651
v -10.157421 0.380000 4.918057
v -10.157421 0.410000 4.918057
v -10.259818 1.064800 5.030454
v -10.336617 1.064800 5.030454
v -10.259818 0.958000 5.030454
v -10.336617 0.958000 5.030454
v -10.153018 0.958000 5.030454
v -10.443418 0.958000 5.030454
v -10.153018 0.881200 5.030454
v -10.259818 0.881200 5.030454
v -10.336617 0.881200 5.030454
v -10.443418 0.881200 5.030454
v -10.259818 0.380000 5.030454
v -10.336617 0.380000 5.030454
v -10.336617 0.881200 5.087254
v -10.443418 0.881200 5.087254
v -10.259818 1.064800 5.087254
v -10.336617 1.064800 5.087254
v -10.153018 0.881200 5.087254
v -10.259818 0.881200 5.087254
v -10.259818 0.380000 5.087254
v -10.153018 0.958000 5.087254
v -10.259818 0.958000 5.087254
v -10.336617 0.958000 5.087254
v -10.443418 0.958000 5.087254
v -10.336617 0.380000 5.087254
vn -0.0000 -0.0000 -1.0000
vn 1.0000 -0.0000 -0.0000
vn -1.0000 -0.0000 -0.0000
vn -0.0000 -0.0000 1.0000
vn -0.0000 -0.8644 0.5028
vn -0.0000 -0.8644 -0.5028
vn -0.5028 -0.8644 -0.0000
vn 0.5028 -0.8644 -0.0000
vn -0.0000 -1.0000 -0.0000
vn -0.0000 1.0000 -0.0000
vt 0.843750 0.034391
vt 0.843750 0.025000
vt 0.843750 0.083227
vt 0.843750 0.087923
vt 0.843750 0.102010
vt 0.843750 0.096375
vt 0.599609 0.148299
vt 0.599609 0.168359
vt 0.599609 0.133874
vt 0.599609 0.039734
vt 0.093750 0.096375
s 0
usemtl colormap.071
f 3/1/1 2/2/1 1/2/1
f 2/2/1 3/1/1 4/1/1
f 5/1/2 2/2/2 4/1/2
f 2/2/2 5/1/2 6/2/2
f 7/2/3 3/1/3 1/2/3
f 3/1/3 7/2/3 8/1/3
f 5/1/4 7/2/4 6/2/4
f 7/2/4 5/1/4 8/1/4
f 11/1/3 10/3/3 9/1/3
f 10/3/3 11/1/3 12/3/3
f 14/3/4 11/1/4 13/1/4
f 11/1/4 14/3/4 12/3/4
f 14/3/2 16/1/2 15/3/2
f 16/1/2 14/3/2 13/1/2
f 18/4/5 14/3/5 17/4/5
f 14/3/5 18/4/5 12/3/5
f 18/4/3 20/5/3 19/4/3
f 20/5/3 18/4/3 21/5/3
f 15/3/6 19/4/6 22/4/6
f 19/4/6 15/3/6 10/3/6
f 20/5/1 22/4/1 19/4/1
f 22/4/1 20/5/1 23/5/1
f 24/5/4 18/4/4 17/4/4
f 18/4/4 24/5/4 21/5/4
f 24/5/2 22/4/2 23/5/2
f 22/4/2 24/5/2 17/4/2
f 18/4/7 10/3/7 12/3/7
f 10/3/7 18/4/7 19/4/7
f 14/3/8 22/4/8 17/4/8
f 22/4/8 14/3/8 15/3/8
f 10/3/1 16/1/1 9/1/1
f 16/1/1 10/3/1 15/3/1
f 7/2/9 2/2/9 6/2/9
f 2/2/9 7/2/9 1/2/9
f 27/5/2 26/6/2 25/5/2
f 26/6/2 27/5/2 28/6/2
f 27/5/1 29/6/1 28/6/1
f 29/6/1 27/5/1 30/5/1
f 29/6/3 32/5/3 31/6/3
f 32/5/3 29/6/3 30/5/3
f 32/5/4 26/6/4 31/6/4
f 26/6/4 32/5/4 25/5/4
f 16/1/10 3/1/10 9/1/10
f 9/1/10 3/1/10 11/1/10
f 16/1/10 4/1/10 3/1/10
f 8/1/10 11/1/10 3/1/10
f 4/1/10 16/1/10 5/1/10
f 8/1/10 13/1/10 11/1/10
f 5/1/10 13/1/10 8/1/10
f 13/1/10 5/1/10 16/1/10
f 32/5/10 20/5/10 25/5/10
f 25/5/10 20/5/10 27/5/10
f 32/5/10 23/5/10 20/5/10
f 21/5/10 27/5/10 20/5/10
f 23/5/10 32/5/10 24/5/10
f 21/5/10 30/5/10 27/5/10
f 24/5/10 30/5/10 21/5/10
f 30/5/10 24/5/10 32/5/10
f 35/7/1 34/8/1 33/8/1
f 34/8/1 35/7/1 36/7/1
f 37/7/9 36/7/9 35/7/9
f 37/7/10 38/7/10 36/7/10
f 39/9/1 38/7/1 37/7/1
f 40/9/1 38/7/1 39/9/1
f 41/9/1 38/7/1 40/9/1
f 38/7/1 41/9/1 42/9/1
f 43/10/1 41/9/1 40/9/1
f 41/9/1 43/10/1 44/10/1
f 46/9/9 41/9/9 45/9/9
f 41/9/9 46/9/9 42/9/9
f 34/8/10 47/8/10 33/8/10
f 47/8/10 34/8/10 48/8/10
f 50/9/9 39/9/9 49/9/9
f 39/9/9 50/9/9 40/9/9
f 50/9/2 43/10/2 40/9/2
f 43/10/2 50/9/2 51/10/2
f 35/7/10 52/7/10 37/7/10
f 52/7/10 35/7/10 53/7/10
f 38/7/10 54/7/10 36/7/10
f 54/7/10 38/7/10 55/7/10
f 54/7/3 34/8/3 36/7/3
f 34/8/3 54/7/3 48/8/3
f 52/7/2 39/9/2 37/7/2
f 39/9/2 52/7/2 49/9/2
f 54/7/4 47/8/4 48/8/4
f 47/8/4 54/7/4 53/7/4
f 55/7/9 53/7/9 54/7/9
f 55/7/10 52/7/10 53/7/10
f 46/9/4 52/7/4 55/7/4
f 45/9/4 52/7/4 46/9/4
f 50/9/4 52/7/4 45/9/4
f 52/7/4 50/9/4 49/9/4
f 56/10/4 50/9/4 45/9/4
f 50/9/4 56/10/4 51/10/4
f 47/8/2 35/7/2 33/8/2
f 35/7/2 47/8/2 53/7/2
f 56/10/3 41/9/3 44/10/3
f 41/9/3 56/10/3 45/9/3
f 46/9/3 38/7/3 42/9/3
f 38/7/3 46/9/3 55/7/3
f 43/11/10 26/11/10 44/11/10
f 44/11/10 26/11/10 56/11/10
f 43/11/10 31/11/10 26/11/10
f 28/11/10 56/11/10 26/11/10
f 31/11/10 43/11/10 29/11/10
f 28/11/10 51/11/10 56/11/10
f 29/11/10 51/11/10 28/11/10
f 51/11/10 29/11/10 43/11/10
f 3/1/1 2/2/1 1/2/1
f 2/2/1 3/1/1 4/1/1
f 5/1/2 2/2/2 4/1/2
f 2/2/2 5/1/2 6/2/2
f 7/2/3 3/1/3 1/2/3
f 3/1/3 7/2/3 8/1/3
f 5/1/4 7/2/4 6/2/4
f 7/2/4 5/1/4 8/1/4
f 11/1/3 10/3/3 9/1/3
f 10/3/3 11/1/3 12/3/3
f 14/3/4 11/1/4 13/1/4
f 11/1/4 14/3/4 12/3/4
f 14/3/2 16/1/2 15/3/2
f 16/1/2 14/3/2 13/1/2
f 18/4/5 14/3/5 17/4/5
f 14/3/5 18/4/5 12/3/5
f 18/4/3 20/5/3 19/4/3
f 20/5/3 18/4/3 21/5/3
f 15/3/6 19/4/6 22/4/6
f 19/4/6 15/3/6 10/3/6
f 20/5/1 22/4/1 19/4/1
f 22/4/1 20/5/1 23/5/1
f 24/5/4 18/4/4 17/4/4
f 18/4/4 24/5/4 21/5/4
f 24/5/2 22/4/2 23/5/2
f 22/4/2 24/5/2 17/4/2
f 18/4/7 10/3/7 12/3/7
f 10/3/7 18/4/7 19/4/7
f 14/3/8 22/4/8 17/4/8
f 22/4/8 14/3/8 15/3/8
f 10/3/1 16/1/1 9/1/1
f 16/1/1 10/3/1 15/3/1
f 7/2/9 2/2/9 6/2/9
f 2/2/9 7/2/9 1/2/9
f 27/5/2 26/6/2 25/5/2
f 26/6/2 27/5/2 28/6/2
f 27/5/1 29/6/1 28/6/1
f 29/6/1 27/5/1 30/5/1
f 29/6/3 32/5/3 31/6/3
f 32/5/3 29/6/3 30/5/3
f 32/5/4 26/6/4 31/6/4
f 26/6/4 32/5/4 25/5/4
f 16/1/10 3/1/10 9/1/10
f 9/1/10 3/1/10 11/1/10
f 16/1/10 4/1/10 3/1/10
f 8/1/10 11/1/10 3/1/10
f 4/1/10 16/1/10 5/1/10
f 8/1/10 13/1/10 11/1/10
f 5/1/10 13/1/10 8/1/10
f 13/1/10 5/1/10 16/1/10
f 32/5/10 20/5/10 25/5/10
f 25/5/10 20/5/10 27/5/10
f 32/5/10 23/5/10 20/5/10
f 21/5/10 27/5/10 20/5/10
f 23/5/10 32/5/10 24/5/10
f 21/5/10 30/5/10 27/5/10
f 24/5/10 30/5/10 21/5/10
f 30/5/10 24/5/10 32/5/10
f 35/7/1 34/8/1 33/8/1
f 34/8/1 35/7/1 36/7/1
f 37/7/9 36/7/9 35/7/9
f 37/7/10 38/7/10 36/7/10
f 39/9/1 38/7/1 37/7/1
f 40/9/1 38/7/1 39/9/1
f 41/9/1 38/7/1 40/9/1
f 38/7/1 41/9/1 42/9/1
f 43/10/1 41/9/1 40/9/1
f 41/9/1 43/10/1 44/10/1
f 46/9/9 41/9/9 45/9/9
f 41/9/9 46/9/9 42/9/9
f 34/8/10 47/8/10 33/8/10
f 47/8/10 34/8/10 48/8/10
f 50/9/9 39/9/9 49/9/9
f 39/9/9 50/9/9 40/9/9
f 50/9/2 43/10/2 40/9/2
f 43/10/2 50/9/2 51/10/2
f 35/7/10 52/7/10 37/7/10
f 52/7/10 35/7/10 53/7/10
f 38/7/10 54/7/10 36/7/10
f 54/7/10 38/7/10 55/7/10
f 54/7/3 34/8/3 36/7/3
f 34/8/3 54/7/3 48/8/3
f 52/7/2 39/9/2 37/7/2
f 39/9/2 52/7/2 49/9/2
f 54/7/4 47/8/4 48/8/4
f 47/8/4 54/7/4 53/7/4
f 55/7/9 53/7/9 54/7/9
f 55/7/10 52/7/10 53/7/10
f 46/9/4 52/7/4 55/7/4
f 45/9/4 52/7/4 46/9/4
f 50/9/4 52/7/4 45/9/4
f 52/7/4 50/9/4 49/9/4
f 56/10/4 50/9/4 45/9/4
f 50/9/4 56/10/4 51/10/4
f 47/8/2 35/7/2 33/8/2
f 35/7/2 47/8/2 53/7/2
f 56/10/3 41/9/3 44/10/3
f 41/9/3 56/10/3 45/9/3
f 46/9/3 38/7/3 42/9/3
f 38/7/3 46/9/3 55/7/3
f 43/11/10 26/11/10 44/11/10
f 44/11/10 26/11/10 56/11/10
f 43/11/10 31/11/10 26/11/10
f 28/11/10 56/11/10 26/11/10
f 31/11/10 43/11/10 29/11/10
f 28/11/10 51/11/10 56/11/10
f 29/11/10 51/11/10 28/11/10
f 51/11/10 29/11/10 43/11/10
