# Blender 3.6.4
# www.blender.org
mtllib Cross_Wood_4.mtl
o Cross_Wood_4
v 14.525632 0.079885 -7.358689
v 14.898023 0.079885 -7.573689
v 14.525632 0.129885 -7.358689
v 14.898023 0.129885 -7.573689
v 15.113023 0.129885 -7.201299
v 15.113023 0.079885 -7.201299
v 14.740632 0.079885 -6.986299
v 14.740632 0.129885 -6.986299
v 14.584337 0.129885 -7.342959
v 14.584337 0.389885 -7.342959
v 14.756362 0.129885 -7.045004
v 14.756362 0.389885 -7.045004
v 15.054317 0.129885 -7.217029
v 15.054317 0.389885 -7.217029
v 14.882293 0.389885 -7.514984
v 14.882293 0.129885 -7.514984
v 15.113023 0.414885 -7.201299
v 14.740632 0.414885 -6.986299
v 14.525632 0.414885 -7.358689
v 14.525632 0.489885 -7.358689
v 14.740632 0.489885 -6.986299
v 14.898023 0.414885 -7.573689
v 14.898023 0.489885 -7.573689
v 15.113023 0.489885 -7.201299
v 14.626995 0.489885 -7.331529
v 14.626995 0.459885 -7.331529
v 14.767792 0.489885 -7.087662
v 14.767792 0.459885 -7.087662
v 15.011660 0.459885 -7.228459
v 15.011660 0.489885 -7.228459
v 14.870863 0.459885 -7.472326
v 14.870863 0.489885 -7.472326
v 14.838383 1.144685 -7.323789
v 14.771872 1.144685 -7.285389
v 14.838383 1.037884 -7.323789
v 14.771872 1.037884 -7.285389
v 14.930874 1.037884 -7.377189
v 14.679380 1.037884 -7.231989
v 14.930874 0.961085 -7.377189
v 14.838383 0.961085 -7.323789
v 14.771872 0.961085 -7.285389
v 14.679380 0.961085 -7.231989
v 14.838383 0.459885 -7.323789
v 14.771872 0.459885 -7.285389
v 14.800272 0.961085 -7.236199
v 14.707781 0.961085 -7.182799
v 14.866783 1.144685 -7.274599
v 14.800272 1.144685 -7.236199
v 14.959274 0.961085 -7.327999
v 14.866783 0.961085 -7.274599
v 14.866783 0.459885 -7.274599
v 14.959274 1.037884 -7.327999
v 14.866783 1.037884 -7.274599
v 14.800272 1.037884 -7.236199
v 14.707781 1.037884 -7.182799
v 14.800272 0.459885 -7.236199
vn -0.5000 -0.0000 -0.8660
vn 0.8660 -0.0000 -0.5000
vn -0.8660 -0.0000 0.5000
vn 0.5000 -0.0000 0.8660
vn 0.2514 -0.8644 0.4355
vn -0.2514 -0.8644 -0.4355
vn -0.4355 -0.8644 0.2514
vn 0.4355 -0.8644 -0.2514
vn -0.0000 -1.0000 -0.0000
vn -0.0000 1.0000 -0.0000
vt 0.843750 0.034391
vt 0.843750 0.025000
vt 0.843750 0.083227
vt 0.843750 0.087923
vt 0.843750 0.102010
vt 0.843750 0.096375
vt 0.599609 0.148299
vt 0.599609 0.168359
vt 0.599609 0.133874
vt 0.599609 0.039734
vt 0.093750 0.096375
s 0
usemtl colormap.071
f 3/1/1 2/2/1 1/2/1
f 2/2/1 3/1/1 4/1/1
f 5/1/2 2/2/2 4/1/2
f 2/2/2 5/1/2 6/2/2
f 7/2/3 3/1/3 1/2/3
f 3/1/3 7/2/3 8/1/3
f 5/1/4 7/2/4 6/2/4
f 7/2/4 5/1/4 8/1/4
f 11/1/3 10/3/3 9/1/3
f 10/3/3 11/1/3 12/3/3
f 14/3/4 11/1/4 13/1/4
f 11/1/4 14/3/4 12/3/4
f 14/3/2 16/1/2 15/3/2
f 16/1/2 14/3/2 13/1/2
f 18/4/5 14/3/5 17/4/5
f 14/3/5 18/4/5 12/3/5
f 18/4/3 20/5/3 19/4/3
f 20/5/3 18/4/3 21/5/3
f 15/3/6 19/4/6 22/4/6
f 19/4/6 15/3/6 10/3/6
f 20/5/1 22/4/1 19/4/1
f 22/4/1 20/5/1 23/5/1
f 24/5/4 18/4/4 17/4/4
f 18/4/4 24/5/4 21/5/4
f 24/5/2 22/4/2 23/5/2
f 22/4/2 24/5/2 17/4/2
f 18/4/7 10/3/7 12/3/7
f 10/3/7 18/4/7 19/4/7
f 14/3/8 22/4/8 17/4/8
f 22/4/8 14/3/8 15/3/8
f 10/3/1 16/1/1 9/1/1
f 16/1/1 10/3/1 15/3/1
f 7/2/9 2/2/9 6/2/9
f 2/2/9 7/2/9 1/2/9
f 27/5/2 26/6/2 25/5/2
f 26/6/2 27/5/2 28/6/2
f 27/5/1 29/6/1 28/6/1
f 29/6/1 27/5/1 30/5/1
f 29/6/3 32/5/3 31/6/3
f 32/5/3 29/6/3 30/5/3
f 32/5/4 26/6/4 31/6/4
f 26/6/4 32/5/4 25/5/4
f 16/1/10 3/1/10 9/1/10
f 9/1/10 3/1/10 11/1/10
f 16/1/10 4/1/10 3/1/10
f 8/1/10 11/1/10 3/1/10
f 4/1/10 16/1/10 5/1/10
f 8/1/10 13/1/10 11/1/10
f 5/1/10 13/1/10 8/1/10
f 13/1/10 5/1/10 16/1/10
f 32/5/10 20/5/10 25/5/10
f 25/5/10 20/5/10 27/5/10
f 32/5/10 23/5/10 20/5/10
f 21/5/10 27/5/10 20/5/10
f 23/5/10 32/5/10 24/5/10
f 21/5/10 30/5/10 27/5/10
f 24/5/10 30/5/10 21/5/10
f 30/5/10 24/5/10 32/5/10
f 35/7/1 34/8/1 33/8/1
f 34/8/1 35/7/1 36/7/1
f 37/7/9 36/7/9 35/7/9
f 37/7/10 38/7/10 36/7/10
f 39/9/1 38/7/1 37/7/1
f 40/9/1 38/7/1 39/9/1
f 41/9/1 38/7/1 40/9/1
f 38/7/1 41/9/1 42/9/1
f 43/10/1 41/9/1 40/9/1
f 41/9/1 43/10/1 44/10/1
f 46/9/9 41/9/9 45/9/9
f 41/9/9 46/9/9 42/9/9
f 34/8/10 47/8/10 33/8/10
f 47/8/10 34/8/10 48/8/10
f 50/9/9 39/9/9 49/9/9
f 39/9/9 50/9/9 40/9/9
f 50/9/2 43/10/2 40/9/2
f 43/10/2 50/9/2 51/10/2
f 35/7/10 52/7/10 37/7/10
f 52/7/10 35/7/10 53/7/10
f 38/7/10 54/7/10 36/7/10
f 54/7/10 38/7/10 55/7/10
f 54/7/3 34/8/3 36/7/3
f 34/8/3 54/7/3 48/8/3
f 52/7/2 39/9/2 37/7/2
f 39/9/2 52/7/2 49/9/2
f 54/7/4 47/8/4 48/8/4
f 47/8/4 54/7/4 53/7/4
f 55/7/9 53/7/9 54/7/9
f 55/7/10 52/7/10 53/7/10
f 46/9/4 52/7/4 55/7/4
f 45/9/4 52/7/4 46/9/4
f 50/9/4 52/7/4 45/9/4
f 52/7/4 50/9/4 49/9/4
f 56/10/4 50/9/4 45/9/4
f 50/9/4 56/10/4 51/10/4
f 47/8/2 35/7/2 33/8/2
f 35/7/2 47/8/2 53/7/2
f 56/10/3 41/9/3 44/10/3
f 41/9/3 56/10/3 45/9/3
f 46/9/3 38/7/3 42/9/3
f 38/7/3 46/9/3 55/7/3
f 43/11/10 26/11/10 44/11/10
f 44/11/10 26/11/10 56/11/10
f 43/11/10 31/11/10 26/11/10
f 28/11/10 56/11/10 26/11/10
f 31/11/10 43/11/10 29/11/10
f 28/11/10 51/11/10 56/11/10
f 29/11/10 51/11/10 28/11/10
f 51/11/10 29/11/10 43/11/10
f 3/1/1 2/2/1 1/2/1
f 2/2/1 3/1/1 4/1/1
f 5/1/2 2/2/2 4/1/2
f 2/2/2 5/1/2 6/2/2
f 7/2/3 3/1/3 1/2/3
f 3/1/3 7/2/3 8/1/3
f 5/1/4 7/2/4 6/2/4
f 7/2/4 5/1/4 8/1/4
f 11/1/3 10/3/3 9/1/3
f 10/3/3 11/1/3 12/3/3
f 14/3/4 11/1/4 13/1/4
f 11/1/4 14/3/4 12/3/4
f 14/3/2 16/1/2 15/3/2
f 16/1/2 14/3/2 13/1/2
f 18/4/5 14/3/5 17/4/5
f 14/3/5 18/4/5 12/3/5
f 18/4/3 20/5/3 19/4/3
f 20/5/3 18/4/3 21/5/3
f 15/3/6 19/4/6 22/4/6
f 19/4/6 15/3/6 10/3/6
f 20/5/1 22/4/1 19/4/1
f 22/4/1 20/5/1 23/5/1
f 24/5/4 18/4/4 17/4/4
f 18/4/4 24/5/4 21/5/4
f 24/5/2 22/4/2 23/5/2
f 22/4/2 24/5/2 17/4/2
f 18/4/7 10/3/7 12/3/7
f 10/3/7 18/4/7 19/4/7
f 14/3/8 22/4/8 17/4/8
f 22/4/8 14/3/8 15/3/8
f 10/3/1 16/1/1 9/1/1
f 16/1/1 10/3/1 15/3/1
f 7/2/9 2/2/9 6/2/9
f 2/2/9 7/2/9 1/2/9
f 27/5/2 26/6/2 25/5/2
f 26/6/2 27/5/2 28/6/2
f 27/5/1 29/6/1 28/6/1
f 29/6/1 27/5/1 30/5/1
f 29/6/3 32/5/3 31/6/3
f 32/5/3 29/6/3 30/5/3
f 32/5/4 26/6/4 31/6/4
f 26/6/4 32/5/4 25/5/4
f 16/1/10 3/1/10 9/1/10
f 9/1/10 3/1/10 11/1/10
f 16/1/10 4/1/10 3/1/10
f 8/1/10 11/1/10 3/1/10
f 4/1/10 16/1/10 5/1/10
f 8/1/10 13/1/10 11/1/10
f 5/1/10 13/1/10 8/1/10
f 13/1/10 5/1/10 16/1/10
f 32/5/10 20/5/10 25/5/10
f 25/5/10 20/5/10 27/5/10
f 32/5/10 23/5/10 20/5/10
f 21/5/10 27/5/10 20/5/10
f 23/5/10 32/5/10 24/5/10
f 21/5/10 30/5/10 27/5/10
f 24/5/10 30/5/10 21/5/10
f 30/5/10 24/5/10 32/5/10
f 35/7/1 34/8/1 33/8/1
f 34/8/1 35/7/1 36/7/1
f 37/7/9 36/7/9 35/7/9
f 37/7/10 38/7/10 36/7/10
f 39/9/1 38/7/1 37/7/1
f 40/9/1 38/7/1 39/9/1
f 41/9/1 38/7/1 40/9/1
f 38/7/1 41/9/1 42/9/1
f 43/10/1 41/9/1 40/9/1
f 41/9/1 43/10/1 44/10/1
f 46/9/9 41/9/9 45/9/9
f 41/9/9 46/9/9 42/9/9
f 34/8/10 47/8/10 33/8/10
f 47/8/10 34/8/10 48/8/10
f 50/9/9 39/9/9 49/9/9
f 39/9/9 50/9/9 40/9/9
f 50/9/2 43/10/2 40/9/2
f 43/10/2 50/9/2 51/10/2
f 35/7/10 52/7/10 37/7/10
f 52/7/10 35/7/10 53/7/10
f 38/7/10 54/7/10 36/7/10
f 54/7/10 38/7/10 55/7/10
f 54/7/3 34/8/3 36/7/3
f 34/8/3 54/7/3 48/8/3
f 52/7/2 39/9/2 37/7/2
f 39/9/2 52/7/2 49/9/2
f 54/7/4 47/8/4 48/8/4
f 47/8/4 54/7/4 53/7/4
f 55/7/9 53/7/9 54/7/9
f 55/7/10 52/7/10 53/7/10
f 46/9/4 52/7/4 55/7/4
f 45/9/4 52/7/4 46/9/4
f 50/9/4 52/7/4 45/9/4
f 52/7/4 50/9/4 49/9/4
f 56/10/4 50/9/4 45/9/4
f 50/9/4 56/10/4 51/10/4
f 47/8/2 35/7/2 33/8/2
f 35/7/2 47/8/2 53/7/2
f 56/10/3 41/9/3 44/10/3
f 41/9/3 56/10/3 45/9/3
f 46/9/3 38/7/3 42/9/3
f 38/7/3 46/9/3 55/7/3
f 43/11/10 26/11/10 44/11/10
f 44/11/10 26/11/10 56/11/10
f 43/11/10 31/11/10 26/11/10
f 28/11/10 56/11/10 26/11/10
f 31/11/10 43/11/10 29/11/10
f 28/11/10 51/11/10 56/11/10
f 29/11/10 51/11/10 28/11/10
f 51/11/10 29/11/10 43/11/10
