# Blender 3.6.4
# www.blender.org
mtllib Cross_3.mtl
o Cross_3
v 3.880378 1.258657 7.896092
v 3.879259 1.136334 7.889593
v 3.953429 1.256260 7.928617
v 3.952309 1.133938 7.922118
v 3.824952 1.263796 8.020961
v 3.857767 1.345954 7.953311
v 3.898003 1.261400 8.053485
v 3.930818 1.343558 7.985836
v 3.783117 1.146981 8.106315
v 3.782923 1.125762 8.105187
v 3.856168 1.144585 8.138839
v 3.855974 1.123365 8.137712
v 3.810045 0.463866 7.976800
v 3.875519 0.471051 7.830274
v 3.826562 0.494615 7.960663
v 3.873431 0.499759 7.855773
v 3.928725 1.141763 7.778889
v 3.928920 1.162982 7.780016
v 4.001776 1.139366 7.811413
v 4.001970 1.160585 7.812541
v 3.832390 1.131191 7.994483
v 3.905441 1.128794 8.027007
v 3.904389 1.013961 8.020906
v 3.831339 1.016358 7.988382
v 3.854923 1.008532 8.131611
v 3.781872 1.010929 8.099087
v 3.777206 0.989219 8.107966
v 3.746186 1.065494 8.183258
v 3.850257 0.986822 8.140491
v 3.819237 1.063097 8.215782
v 3.927480 1.005711 7.771661
v 3.927674 1.026930 7.772788
v 4.000531 1.003314 7.804185
v 4.000725 1.024533 7.805313
v 3.833510 1.253513 8.000982
v 3.906560 1.251117 8.033506
v 3.933286 1.163461 7.770244
v 3.964391 1.085007 7.694601
v 4.006337 1.161065 7.802769
v 4.037442 1.082610 7.727125
v 3.778532 1.146478 8.116576
v 3.855916 1.143748 7.942569
v 3.827789 1.073327 8.000553
v 3.854681 1.008944 7.935407
v 3.781677 0.989710 8.097960
v 3.878207 1.021501 7.883492
v 3.882808 1.079365 7.877422
v 3.824849 1.252563 8.020364
v 3.889039 1.259607 7.876710
v 3.889142 1.270841 7.877307
v 3.932181 1.006227 7.761140
v 3.851583 1.144081 8.149100
v 3.962193 1.268444 7.909832
v 3.854728 0.987313 8.130484
v 3.962090 1.257210 7.909235
v 4.005232 1.003830 7.793664
v 3.951258 1.019104 7.916017
v 3.962450 0.468199 7.868978
v 3.946482 0.497362 7.888298
v 3.896976 0.461013 8.015504
v 3.899613 0.492218 7.993187
v 3.966355 0.358897 7.852152
v 3.891060 0.350634 8.020658
v 3.897900 1.250166 8.052888
v 3.879424 0.361749 7.813448
v 3.804129 0.353486 7.981954
v 3.955859 1.076968 7.909946
v 3.928967 1.141351 7.975093
v 3.927732 1.006547 7.967931
v 3.900840 1.070930 8.033078
v 3.946304 1.039649 7.977853
v 3.932857 1.071841 8.010427
v 3.960367 1.074860 7.948860
v 3.946921 1.107051 7.981434
v 3.850791 1.078455 7.900074
v 3.837344 1.110646 7.932647
v 3.823281 1.075436 7.961639
v 3.836727 1.043244 7.929066
vn 0.4076 0.0447 -0.9121
vn -0.3730 0.3408 0.8630
vn -0.2817 0.6745 0.6825
vn -0.3731 0.3408 0.8629
vn -0.8829 0.2743 -0.3811
vn -0.9087 0.1182 -0.4003
vn -0.9088 0.1182 -0.4003
vn -0.4076 -0.0447 0.9121
vn 0.0091 0.9985 0.0531
vn -0.0091 -0.9986 -0.0531
vn -0.1667 -0.9375 0.3054
vn -0.2981 -0.7292 0.6159
vn -0.1668 -0.9375 0.3054
vn 0.1689 0.9354 -0.3105
vn 0.3014 0.7210 -0.6239
vn 0.1690 0.9354 -0.3105
vn -0.9131 0.0300 -0.4066
vn -0.1475 0.9054 0.3981
vn -0.1475 0.9054 0.3980
vn 0.2946 0.7377 -0.6074
vn 0.3801 0.4234 -0.8223
vn 0.3800 0.4234 -0.8224
vn 0.1452 -0.9080 -0.3929
vn 0.2780 -0.6836 -0.6748
vn 0.1451 -0.9080 -0.3929
vn 0.3299 0.6402 -0.6938
vn 0.3845 0.3945 -0.8346
vn -0.3781 0.3108 0.8720
vn -0.3188 0.5690 0.7580
vn 0.9104 0.0585 0.4097
vn 0.9131 -0.0300 0.4066
vn 0.9104 0.0585 0.4096
vn 0.8874 0.2162 0.4071
vn -0.4041 0.0643 0.9124
vn -0.3780 0.3109 0.8720
vn -0.3781 0.3109 0.8720
vn 0.3800 0.4235 -0.8224
vn 0.3800 0.4235 -0.8223
vn 0.3845 0.3946 -0.8346
vn 0.4061 0.1532 -0.9009
vn 0.3845 0.3946 -0.8345
vn 0.1451 -0.9081 -0.3929
vn -0.3730 0.3408 0.8629
vn -0.1666 -0.9375 0.3055
vn 0.5106 -0.4968 0.7018
vn 0.8808 -0.4562 -0.1268
vn 0.5189 0.4103 0.7500
vn 0.8891 0.4509 -0.0786
vn -0.5106 0.4968 -0.7018
vn -0.8808 0.4562 0.1268
vn -0.8891 -0.4509 0.0786
vn -0.5189 -0.4103 -0.7500
vt 0.595719 0.211469
vt 0.595719 0.186721
vt 0.595719 0.213741
vt 0.595719 0.229651
vt 0.595719 0.191014
vt 0.595719 0.057933
vt 0.595719 0.051873
vt 0.595719 0.163489
vt 0.595719 0.159196
vt 0.595719 0.175332
vt 0.595719 0.174435
vt 0.595719 0.188741
vt 0.595719 0.175105
vt 0.595719 0.161469
vt 0.595719 0.029651
vt -0.148353 0.174994
vt -0.148353 0.168176
vt -0.148353 0.181812
vt -0.148353 0.161358
vt -0.148353 0.188630
s 0
usemtl colormap.053
f 3/1/1 2/2/1 1/1/1
f 2/2/1 3/1/1 4/2/1
f 7/3/2 6/4/3 5/3/2
f 6/4/3 7/3/4 8/4/3
f 11/5/1 10/2/1 9/5/1
f 10/2/1 11/5/1 12/2/1
f 15/6/5 14/7/6 13/7/6
f 14/7/7 15/6/5 16/6/5
f 19/2/8 18/5/8 17/2/8
f 18/5/8 19/2/8 20/5/8
f 10/2/9 22/2/9 21/2/9
f 22/2/9 10/2/9 12/2/9
f 25/8/10 24/8/10 23/8/10
f 24/8/10 25/8/10 26/8/10
f 29/9/11 28/10/12 27/9/11
f 28/10/12 29/9/13 30/10/12
f 33/9/8 32/8/8 31/9/8
f 32/8/8 33/9/8 34/8/8
f 22/2/8 35/1/8 21/2/8
f 35/1/8 22/2/8 36/1/8
f 2/2/9 19/2/9 17/2/9
f 19/2/9 2/2/9 4/2/9
f 39/5/14 38/11/15 37/5/16
f 38/11/15 39/5/14 40/11/15
f 10/2/17 41/5/17 9/5/17
f 41/5/17 10/2/17 28/10/17
f 21/2/17 28/10/17 10/2/17
f 42/12/17 28/10/17 21/2/17
f 42/12/17 21/2/17 35/1/17
f 43/13/17 28/10/17 42/12/17
f 24/8/17 28/10/17 43/13/17
f 44/14/17 24/8/17 43/13/17
f 26/8/17 28/10/17 24/8/17
f 45/9/17 28/10/17 26/8/17
f 28/10/17 45/9/17 27/9/17
f 16/6/17 24/8/17 44/14/17
f 24/8/17 16/6/17 15/6/17
f 44/14/17 46/8/17 16/6/17
f 46/8/17 44/14/17 47/13/17
f 46/8/17 47/13/17 32/8/17
f 1/1/17 42/12/17 35/1/17
f 2/2/17 42/12/17 1/1/17
f 42/12/17 2/2/17 47/13/17
f 17/2/17 47/13/17 2/2/17
f 35/1/17 5/3/17 1/1/17
f 5/3/17 35/1/17 48/1/17
f 1/1/17 5/3/17 49/1/17
f 49/1/17 5/3/17 50/3/17
f 50/3/17 5/3/17 6/4/17
f 32/8/17 47/13/17 38/11/17
f 38/11/17 47/13/17 17/2/17
f 51/9/17 32/8/17 38/11/17
f 32/8/17 51/9/17 31/9/17
f 38/11/17 17/2/17 37/5/17
f 37/5/17 17/2/17 18/5/17
f 30/10/3 41/5/18 28/10/3
f 41/5/19 30/10/3 52/5/19
f 8/4/20 50/3/21 6/4/20
f 50/3/22 8/4/20 53/3/22
f 25/8/1 45/9/1 26/8/1
f 45/9/1 25/8/1 54/9/1
f 3/1/10 49/1/10 55/1/10
f 49/1/10 3/1/10 1/1/10
f 56/9/23 38/11/24 40/11/24
f 38/11/24 56/9/25 51/9/23
f 57/8/10 32/8/10 34/8/10
f 32/8/10 57/8/10 46/8/10
f 16/6/26 58/7/27 14/7/27
f 58/7/27 16/6/26 59/6/26
f 60/7/28 15/6/29 13/7/28
f 15/6/29 60/7/28 61/6/29
f 58/7/30 63/15/31 62/15/31
f 63/15/31 58/7/32 60/7/30
f 64/1/10 35/1/10 36/1/10
f 35/1/10 64/1/10 48/1/10
f 63/15/10 65/15/10 62/15/10
f 65/15/10 63/15/10 66/15/10
f 59/6/33 60/7/32 58/7/30
f 60/7/32 59/6/33 61/6/33
f 63/15/34 13/7/28 66/15/34
f 13/7/35 63/15/34 60/7/36
f 53/3/37 49/1/1 50/3/38
f 49/1/1 53/3/37 55/1/1
f 13/7/6 65/15/17 66/15/17
f 65/15/17 13/7/6 14/7/6
f 18/5/9 39/5/14 37/5/16
f 39/5/16 18/5/9 20/5/9
f 41/5/18 11/5/9 9/5/9
f 11/5/9 41/5/18 52/5/18
f 40/11/31 33/9/31 56/9/31
f 33/9/31 40/11/31 34/8/31
f 34/8/31 40/11/31 57/8/31
f 67/13/31 57/8/31 40/11/31
f 67/13/31 40/11/31 19/2/31
f 19/2/31 40/11/31 39/5/31
f 19/2/31 39/5/31 20/5/31
f 4/2/31 67/13/31 19/2/31
f 67/13/31 4/2/31 68/12/31
f 69/14/31 57/8/31 67/13/31
f 68/12/31 4/2/31 3/1/31
f 61/6/31 57/8/31 69/14/31
f 57/8/31 61/6/31 59/6/31
f 69/14/31 23/8/31 61/6/31
f 23/8/31 69/14/31 70/13/31
f 23/8/31 70/13/31 25/8/31
f 30/10/31 25/8/31 70/13/31
f 30/10/31 70/13/31 68/12/31
f 29/9/31 25/8/31 30/10/31
f 25/8/31 29/9/31 54/9/31
f 30/10/31 68/12/31 22/2/31
f 12/2/31 30/10/31 22/2/31
f 30/10/31 12/2/31 52/5/31
f 52/5/31 12/2/31 11/5/31
f 22/2/31 68/12/31 36/1/31
f 36/1/31 68/12/31 3/1/31
f 3/1/31 53/3/31 36/1/31
f 53/3/31 3/1/31 55/1/31
f 36/1/31 53/3/31 64/1/31
f 64/1/31 53/3/31 7/3/31
f 7/3/31 53/3/31 8/4/31
f 58/7/39 65/15/40 14/7/41
f 65/15/40 58/7/27 62/15/40
f 33/9/10 51/9/42 56/9/42
f 51/9/42 33/9/10 31/9/10
f 64/1/8 5/3/2 48/1/8
f 5/3/2 64/1/8 7/3/43
f 29/9/13 45/9/10 54/9/10
f 45/9/10 29/9/13 27/9/44
f 61/6/8 24/8/8 15/6/8
f 24/8/8 61/6/8 23/8/8
f 57/8/1 16/6/1 46/8/1
f 16/6/1 57/8/1 59/6/1
f 73/16/31 72/16/31 71/17/31
f 72/16/31 73/16/31 74/18/31
f 71/17/45 70/16/45 69/19/45
f 70/16/45 71/17/45 72/16/45
f 67/16/46 71/17/46 69/19/46
f 71/17/46 67/16/46 73/16/46
f 74/18/47 70/16/47 72/16/47
f 70/16/47 74/18/47 68/20/47
f 68/20/48 73/16/48 67/16/48
f 73/16/48 68/20/48 74/18/48
f 76/18/49 47/16/49 75/16/49
f 47/16/49 76/18/49 42/20/49
f 42/20/50 77/16/50 43/16/50
f 77/16/50 42/20/50 76/18/50
f 43/16/51 78/17/51 44/19/51
f 78/17/51 43/16/51 77/16/51
f 77/16/17 75/16/17 78/17/17
f 75/16/17 77/16/17 76/18/17
f 78/17/52 47/16/52 44/19/52
f 47/16/52 78/17/52 75/16/52
f 3/1/1 2/2/1 1/1/1
f 2/2/1 3/1/1 4/2/1
f 7/3/2 6/4/3 5/3/2
f 6/4/3 7/3/4 8/4/3
f 11/5/1 10/2/1 9/5/1
f 10/2/1 11/5/1 12/2/1
f 15/6/5 14/7/6 13/7/6
f 14/7/7 15/6/5 16/6/5
f 19/2/8 18/5/8 17/2/8
f 18/5/8 19/2/8 20/5/8
f 10/2/9 22/2/9 21/2/9
f 22/2/9 10/2/9 12/2/9
f 25/8/10 24/8/10 23/8/10
f 24/8/10 25/8/10 26/8/10
f 29/9/11 28/10/12 27/9/11
f 28/10/12 29/9/13 30/10/12
f 33/9/8 32/8/8 31/9/8
f 32/8/8 33/9/8 34/8/8
f 22/2/8 35/1/8 21/2/8
f 35/1/8 22/2/8 36/1/8
f 2/2/9 19/2/9 17/2/9
f 19/2/9 2/2/9 4/2/9
f 39/5/14 38/11/15 37/5/16
f 38/11/15 39/5/14 40/11/15
f 10/2/17 41/5/17 9/5/17
f 41/5/17 10/2/17 28/10/17
f 21/2/17 28/10/17 10/2/17
f 42/12/17 28/10/17 21/2/17
f 42/12/17 21/2/17 35/1/17
f 43/13/17 28/10/17 42/12/17
f 24/8/17 28/10/17 43/13/17
f 44/14/17 24/8/17 43/13/17
f 26/8/17 28/10/17 24/8/17
f 45/9/17 28/10/17 26/8/17
f 28/10/17 45/9/17 27/9/17
f 16/6/17 24/8/17 44/14/17
f 24/8/17 16/6/17 15/6/17
f 44/14/17 46/8/17 16/6/17
f 46/8/17 44/14/17 47/13/17
f 46/8/17 47/13/17 32/8/17
f 1/1/17 42/12/17 35/1/17
f 2/2/17 42/12/17 1/1/17
f 42/12/17 2/2/17 47/13/17
f 17/2/17 47/13/17 2/2/17
f 35/1/17 5/3/17 1/1/17
f 5/3/17 35/1/17 48/1/17
f 1/1/17 5/3/17 49/1/17
f 49/1/17 5/3/17 50/3/17
f 50/3/17 5/3/17 6/4/17
f 32/8/17 47/13/17 38/11/17
f 38/11/17 47/13/17 17/2/17
f 51/9/17 32/8/17 38/11/17
f 32/8/17 51/9/17 31/9/17
f 38/11/17 17/2/17 37/5/17
f 37/5/17 17/2/17 18/5/17
f 30/10/3 41/5/18 28/10/3
f 41/5/19 30/10/3 52/5/19
f 8/4/20 50/3/21 6/4/20
f 50/3/22 8/4/20 53/3/22
f 25/8/1 45/9/1 26/8/1
f 45/9/1 25/8/1 54/9/1
f 3/1/10 49/1/10 55/1/10
f 49/1/10 3/1/10 1/1/10
f 56/9/23 38/11/24 40/11/24
f 38/11/24 56/9/25 51/9/23
f 57/8/10 32/8/10 34/8/10
f 32/8/10 57/8/10 46/8/10
f 16/6/26 58/7/27 14/7/27
f 58/7/27 16/6/26 59/6/26
f 60/7/28 15/6/29 13/7/28
f 15/6/29 60/7/28 61/6/29
f 58/7/30 63/15/31 62/15/31
f 63/15/31 58/7/32 60/7/30
f 64/1/10 35/1/10 36/1/10
f 35/1/10 64/1/10 48/1/10
f 63/15/10 65/15/10 62/15/10
f 65/15/10 63/15/10 66/15/10
f 59/6/33 60/7/32 58/7/30
f 60/7/32 59/6/33 61/6/33
f 63/15/34 13/7/28 66/15/34
f 13/7/35 63/15/34 60/7/36
f 53/3/37 49/1/1 50/3/38
f 49/1/1 53/3/37 55/1/1
f 13/7/6 65/15/17 66/15/17
f 65/15/17 13/7/6 14/7/6
f 18/5/9 39/5/14 37/5/16
f 39/5/16 18/5/9 20/5/9
f 41/5/18 11/5/9 9/5/9
f 11/5/9 41/5/18 52/5/18
f 40/11/31 33/9/31 56/9/31
f 33/9/31 40/11/31 34/8/31
f 34/8/31 40/11/31 57/8/31
f 67/13/31 57/8/31 40/11/31
f 67/13/31 40/11/31 19/2/31
f 19/2/31 40/11/31 39/5/31
f 19/2/31 39/5/31 20/5/31
f 4/2/31 67/13/31 19/2/31
f 67/13/31 4/2/31 68/12/31
f 69/14/31 57/8/31 67/13/31
f 68/12/31 4/2/31 3/1/31
f 61/6/31 57/8/31 69/14/31
f 57/8/31 61/6/31 59/6/31
f 69/14/31 23/8/31 61/6/31
f 23/8/31 69/14/31 70/13/31
f 23/8/31 70/13/31 25/8/31
f 30/10/31 25/8/31 70/13/31
f 30/10/31 70/13/31 68/12/31
f 29/9/31 25/8/31 30/10/31
f 25/8/31 29/9/31 54/9/31
f 30/10/31 68/12/31 22/2/31
f 12/2/31 30/10/31 22/2/31
f 30/10/31 12/2/31 52/5/31
f 52/5/31 12/2/31 11/5/31
f 22/2/31 68/12/31 36/1/31
f 36/1/31 68/12/31 3/1/31
f 3/1/31 53/3/31 36/1/31
f 53/3/31 3/1/31 55/1/31
f 36/1/31 53/3/31 64/1/31
f 64/1/31 53/3/31 7/3/31
f 7/3/31 53/3/31 8/4/31
f 58/7/39 65/15/40 14/7/41
f 65/15/40 58/7/27 62/15/40
f 33/9/10 51/9/42 56/9/42
f 51/9/42 33/9/10 31/9/10
f 64/1/8 5/3/2 48/1/8
f 5/3/2 64/1/8 7/3/43
f 29/9/13 45/9/10 54/9/10
f 45/9/10 29/9/13 27/9/44
f 61/6/8 24/8/8 15/6/8
f 24/8/8 61/6/8 23/8/8
f 57/8/1 16/6/1 46/8/1
f 16/6/1 57/8/1 59/6/1
f 73/16/31 72/16/31 71/17/31
f 72/16/31 73/16/31 74/18/31
f 71/17/45 70/16/45 69/19/45
f 70/16/45 71/17/45 72/16/45
f 67/16/46 71/17/46 69/19/46
f 71/17/46 67/16/46 73/16/46
f 74/18/47 70/16/47 72/16/47
f 70/16/47 74/18/47 68/20/47
f 68/20/48 73/16/48 67/16/48
f 73/16/48 68/20/48 74/18/48
f 76/18/49 47/16/49 75/16/49
f 47/16/49 76/18/49 42/20/49
f 42/20/50 77/16/50 43/16/50
f 77/16/50 42/20/50 76/18/50
f 43/16/51 78/17/51 44/19/51
f 78/17/51 43/16/51 77/16/51
f 77/16/17 75/16/17 78/17/17
f 75/16/17 77/16/17 76/18/17
f 78/17/52 47/16/52 44/19/52
f 47/16/52 78/17/52 75/16/52
