# Blender 3.6.4
# www.blender.org
mtllib Crypt_3.mtl
o Crypt_3
v 3.207052 1.252651 -3.890313
v 3.083400 0.461415 -3.755293
v 3.100620 0.457332 -3.878864
v 3.206389 1.380451 -3.768523
v 3.580276 1.291794 -6.451592
v 3.546500 1.172161 -6.326241
v 3.440068 0.376841 -6.314792
v 3.457288 0.372758 -6.438363
v 3.048627 1.474968 -3.669279
v 3.039167 1.404273 -3.668262
v 3.456475 1.378258 -6.596052
v 3.447014 1.307563 -6.595035
v 4.553514 0.267721 -3.544032
v 4.430988 0.283864 -3.561639
v 4.676502 1.186757 -3.557261
v 4.537421 1.079184 -3.573088
v 3.312358 1.240592 -3.749134
v 3.205926 0.445271 -3.737686
v 3.233146 0.370376 -3.687492
v 3.025263 0.397765 -3.717365
v 3.242607 0.441071 -3.688509
v 3.034724 0.468460 -3.718383
v 3.198869 1.455173 -3.647689
v 3.606716 1.358463 -6.574462
v 4.937403 0.108251 -6.053337
v 4.946864 0.178946 -6.054354
v 4.966619 0.101323 -6.262994
v 4.976079 0.172018 -6.264012
v 4.508009 0.271902 -3.676617
v 4.570733 0.263638 -3.667603
v 4.614441 1.067222 -3.688065
v 4.677166 1.058958 -3.679051
v 3.993055 1.800170 -3.548419
v 4.400902 1.703461 -6.475191
v 4.668983 1.261479 -3.436428
v 5.076829 1.164769 -6.363201
v 3.571203 0.358656 -6.358971
v 3.613882 0.353033 -6.352838
v 3.677635 1.153976 -6.370419
v 4.753587 0.202872 -6.189057
v 4.796266 0.197249 -6.182924
v 4.902698 0.992569 -6.194372
v 4.744126 0.132177 -6.188040
v 3.604421 0.282338 -6.351820
v 3.499869 0.368962 -6.306199
v 3.493871 0.370384 -6.263155
v 3.391391 0.383886 -6.277882
v 3.420607 0.376959 -6.487540
v 3.628490 0.349569 -6.457666
v 3.579813 0.356615 -6.420756
v 4.953889 0.986732 -6.123993
v 5.016613 0.978467 -6.114979
v 3.686245 1.151935 -6.432204
v 3.160421 0.449452 -3.870271
v 3.266853 1.244772 -3.881719
v 3.214535 0.443230 -3.799471
v 3.320968 1.238550 -3.810920
v 3.381930 0.313191 -6.276864
v 3.411146 0.306264 -6.486522
v 3.619029 0.278874 -6.456648
v 4.831998 0.122139 -6.068484
v 4.841459 0.192834 -6.069501
v 4.758734 0.128713 -6.292869
v 4.768195 0.199408 -6.293886
v 4.396919 0.287446 -3.629558
v 4.439599 0.281823 -3.623425
v 4.382311 0.290910 -3.524729
v 4.590196 0.263520 -3.494855
v 4.619412 0.256592 -3.704513
v 4.514008 0.270480 -3.719660
v 4.847457 0.191411 -6.112545
v 4.910181 0.183147 -6.103531
v 4.927401 0.179064 -6.227102
v 4.804875 0.195207 -6.244709
v 4.580736 0.192825 -3.493838
v 4.372851 0.220215 -3.523712
v 4.387459 0.216751 -3.628541
v 4.546031 1.077143 -3.634873
v 3.257215 0.437607 -3.793338
v 3.063940 0.461532 -3.928041
v 3.166420 0.448030 -3.913314
v 3.054479 0.390837 -3.927023
v 3.156959 0.377335 -3.912296
v 3.484410 0.299689 -6.262137
v 4.609951 0.185897 -3.703496
v 4.504547 0.199785 -3.718643
v 3.606301 1.164282 -6.317647
v 4.816301 1.242069 -3.415257
v 4.806840 1.171374 -3.414240
v 5.050389 1.098101 -6.240332
v 5.214687 1.074664 -6.341012
v 5.224148 1.145359 -6.342030
v 4.911307 0.990527 -6.256158
v 3.029322 0.172682 -6.815759
v 2.566850 0.282344 -3.496988
v 3.169067 0.152455 -6.921722
v 2.672156 0.270284 -3.355810
v 5.269498 -0.124286 -6.619882
v 4.772587 -0.006457 -3.053970
v 5.374804 -0.136346 -6.478703
v 4.912332 -0.026683 -3.159933
v 4.786777 0.099586 -3.055496
v 2.686347 0.376326 -3.357337
v 2.581041 0.388386 -3.498515
v 3.247754 0.366912 -3.792320
v 3.183258 0.258498 -6.923249
v 5.283689 -0.018243 -6.621408
v 3.043513 0.278724 -6.817285
v 4.661002 0.111879 -3.370776
v 2.893328 0.344778 -3.624797
v 4.670462 0.182574 -3.371794
v 2.902789 0.415473 -3.625815
v 5.388995 -0.030303 -6.480230
v 3.309034 0.246204 -6.607969
v 5.076708 0.013306 -6.353947
v 4.926523 0.079359 -3.161460
v 3.318495 0.316900 -6.608987
v 5.086168 0.084001 -6.354965
v 3.534608 0.327897 -3.835930
v 3.507020 0.334439 -3.637950
v 3.632760 0.314965 -3.821825
v 3.605172 0.321507 -3.623845
v 3.738330 1.210193 -3.735674
v 3.640178 1.223125 -3.749779
v 3.744962 1.259746 -3.736388
v 3.671348 1.269445 -3.746966
v 3.587786 1.204814 -3.756475
v 3.577839 1.130484 -3.755405
v 3.626915 1.124018 -3.748353
v 4.103881 1.062630 -3.578839
v 4.124573 1.057723 -3.727324
v 3.711273 1.114357 -3.635258
v 3.731965 1.109451 -3.783743
v 3.735413 1.108633 -3.808490
v 3.633813 1.122383 -3.797848
v 3.588185 1.128031 -3.829648
v 4.128021 1.056906 -3.752071
v 4.275249 1.037508 -3.730914
v 4.222725 1.044791 -3.713219
v 4.215827 1.046427 -3.663724
v 4.264904 1.039961 -3.656672
v 3.997780 0.269779 -3.567426
v 4.071522 0.661298 -3.721617
v 4.025368 0.263237 -3.765406
v 4.071788 0.610109 -3.770399
v 4.147915 1.205565 -3.754211
v 4.137836 1.156829 -3.728750
v 4.130938 1.158465 -3.679255
v 4.137569 1.208018 -3.679969
v 3.678914 0.713026 -3.778037
v 3.679180 0.661837 -3.826818
v 3.745227 1.208557 -3.785170
v 3.755307 1.257293 -3.810630
v 4.123520 0.250305 -3.751301
v 4.095932 0.256847 -3.553321
v 3.580762 0.725958 -3.792141
v 4.169674 0.648366 -3.707512
v 4.215296 1.148804 -3.566161
v 4.229090 1.145533 -3.665151
v 4.169940 0.597177 -3.756294
v 3.598132 1.202361 -3.830718
v 3.681693 1.266991 -3.821209
v 4.274850 1.114290 -3.657742
v 4.285196 1.111837 -3.731984
v 4.211184 1.198319 -3.669390
v 4.221529 1.195866 -3.743632
v 3.581028 0.674769 -3.840923
v 3.626384 1.226396 -3.650789
vn -0.9815 0.1293 -0.1410
vn -0.1379 0.0327 0.9899
vn 0.1326 0.9911 -0.0143
vn 0.9815 -0.1293 0.1410
vn 0.1379 -0.0327 -0.9899
vn 0.6160 0.7854 0.0599
vn -0.1326 -0.9911 0.0143
vn -0.1326 -0.9911 0.0142
vn -0.7916 0.1146 0.6002
vn -0.3881 0.9177 -0.0844
vn -0.5965 0.0683 -0.7997
vn 0.7916 -0.1146 -0.6002
vn 0.5965 -0.0683 0.7997
vn 0.1331 -0.0685 -0.9887
vn 0.2530 -0.9651 0.0671
vn -0.1753 -0.9031 0.3920
vn -0.1786 -0.8838 0.4325
vn 0.1782 0.3491 -0.9200
vn -0.8652 0.1240 -0.4859
vn -0.9885 0.1469 -0.0365
vn -0.9546 0.1398 -0.2629
vn -0.8560 0.4987 -0.1358
vn -0.2531 0.9651 -0.0672
vn 0.9576 0.2598 0.1249
vn 0.4982 0.8661 0.0408
vn 0.9576 0.2598 0.1248
vn 0.4981 0.8661 0.0408
vn -0.8561 0.4987 -0.1358
vn -0.8561 0.4987 -0.1357
vn -0.2531 0.9651 -0.0671
vn 0.1782 0.3490 -0.9200
vn -0.1834 0.0079 -0.9830
vn -0.1833 0.0079 -0.9830
vn -0.1042 -0.0004 -0.9946
vt 0.843750 0.054474
vt 0.843750 0.149210
vt 0.843750 0.163947
vt 0.843750 0.172368
vt 0.843750 0.046053
vt 0.843750 0.225000
vt 0.843750 0.025000
vt 0.843750 0.037632
vt 0.843750 0.214474
vt 0.843750 0.209211
vt 0.843750 0.193421
vt 0.843750 0.109210
vt 0.843750 0.098684
s 0
usemtl colormap.034
f 3/1/1 2/1/1 1/2/1
f 4/3/1 1/2/1 2/1/1
f 1/2/1 4/3/1 5/3/1
f 1/2/1 5/3/1 6/2/1
f 6/2/1 5/3/1 7/1/1
f 7/1/1 5/3/1 8/1/1
f 11/4/1 10/3/1 9/4/1
f 10/3/1 11/4/1 12/3/1
f 15/3/2 14/1/2 13/1/2
f 14/1/2 15/3/2 16/2/2
f 16/2/2 15/3/2 17/2/2
f 4/3/2 17/2/2 15/3/2
f 2/1/2 17/2/2 4/3/2
f 17/2/2 2/1/2 18/1/2
f 21/1/2 20/5/2 19/5/2
f 20/5/2 21/1/2 22/1/2
f 23/4/3 11/4/3 9/4/3
f 11/4/3 23/4/3 24/4/3
f 27/5/4 26/1/4 25/5/4
f 26/1/4 27/5/4 28/1/4
f 31/2/5 30/1/5 29/1/5
f 30/1/5 31/2/5 32/2/5
f 35/4/6 34/6/6 33/6/6
f 34/6/6 35/4/6 36/4/6
f 39/2/5 38/1/5 37/1/5
f 38/1/5 39/2/5 40/1/5
f 40/1/5 39/2/5 41/1/5
f 41/1/5 39/2/5 42/2/5
f 43/5/5 38/1/5 40/1/5
f 38/1/5 43/5/5 44/5/5
f 7/1/3 46/1/3 45/1/3
f 7/1/3 47/1/3 46/1/3
f 47/1/3 7/1/3 48/1/3
f 8/1/3 48/1/3 7/1/3
f 48/1/3 8/1/3 49/1/3
f 49/1/3 8/1/3 50/1/3
f 49/1/3 50/1/3 38/1/3
f 38/1/3 50/1/3 37/1/3
f 52/2/7 31/2/7 51/2/7
f 31/2/7 52/2/7 32/2/7
f 50/1/4 39/2/4 37/1/4
f 39/2/4 50/1/4 53/2/4
f 1/2/5 54/1/5 3/1/5
f 54/1/5 1/2/5 55/2/5
f 56/1/4 17/2/4 18/1/4
f 17/2/4 56/1/4 57/2/4
f 48/1/1 58/5/1 47/1/1
f 58/5/1 48/1/1 59/5/1
f 60/5/4 38/1/4 44/5/4
f 38/1/4 60/5/4 49/1/4
f 26/1/2 61/5/2 25/5/2
f 61/5/2 26/1/2 62/1/2
f 64/1/5 27/5/5 63/5/5
f 27/5/5 64/1/5 28/1/5
f 66/1/3 65/1/3 14/1/3
f 67/1/3 14/1/3 65/1/3
f 14/1/3 67/1/3 68/1/3
f 14/1/3 68/1/3 13/1/3
f 13/1/3 68/1/3 30/1/3
f 69/1/3 30/1/3 68/1/3
f 70/1/3 30/1/3 69/1/3
f 30/1/3 70/1/3 29/1/3
f 48/1/5 60/5/5 59/5/5
f 60/5/5 48/1/5 49/1/5
f 26/1/3 71/1/3 62/1/3
f 71/1/3 26/1/3 72/1/3
f 72/1/3 26/1/3 73/1/3
f 28/1/3 73/1/3 26/1/3
f 28/1/3 74/1/3 73/1/3
f 64/1/3 74/1/3 28/1/3
f 64/1/3 41/1/3 74/1/3
f 41/1/3 64/1/3 40/1/3
f 68/1/2 76/5/2 75/5/2
f 76/5/2 68/1/2 67/1/2
f 52/2/2 71/1/2 72/1/2
f 71/1/2 52/2/2 51/2/2
f 65/1/1 76/5/1 67/1/1
f 76/5/1 65/1/1 77/5/1
f 78/2/1 14/1/1 16/2/1
f 14/1/1 78/2/1 66/1/1
f 56/1/3 21/1/3 79/1/3
f 18/1/3 21/1/3 56/1/3
f 2/1/3 21/1/3 18/1/3
f 2/1/3 22/1/3 21/1/3
f 22/1/3 2/1/3 80/1/3
f 3/1/3 80/1/3 2/1/3
f 80/1/3 3/1/3 81/1/3
f 81/1/3 3/1/3 54/1/3
f 80/1/5 83/5/5 82/5/5
f 83/5/5 80/1/5 81/1/5
f 46/1/2 58/5/2 84/5/2
f 58/5/2 46/1/2 47/1/2
f 80/1/1 20/5/1 22/1/1
f 20/5/1 80/1/1 82/5/1
f 85/5/4 68/1/4 75/5/4
f 68/1/4 85/5/4 69/1/4
f 61/5/4 70/1/4 86/5/4
f 62/1/4 70/1/4 61/5/4
f 51/2/4 70/1/4 62/1/4
f 51/2/4 62/1/4 71/1/4
f 31/2/4 70/1/4 51/2/4
f 70/1/4 31/2/4 29/1/4
f 87/2/2 7/1/2 45/1/2
f 7/1/2 87/2/2 6/2/2
f 84/5/1 83/5/1 46/1/1
f 83/5/1 87/2/1 46/1/1
f 46/1/1 87/2/1 45/1/1
f 81/1/1 87/2/1 83/5/1
f 54/1/1 87/2/1 81/1/1
f 87/2/1 54/1/1 55/2/1
f 33/6/2 23/4/2 35/4/2
f 9/4/8 35/4/7 23/4/7
f 9/4/7 88/4/7 35/4/7
f 10/3/2 88/4/2 9/4/2
f 88/4/2 10/3/2 89/3/2
f 73/1/4 52/2/4 72/1/4
f 90/3/4 52/2/4 73/1/4
f 90/3/4 32/2/4 52/2/4
f 15/3/4 32/2/4 90/3/4
f 15/3/4 30/1/4 32/2/4
f 30/1/4 15/3/4 13/1/4
f 64/1/1 43/5/1 40/1/1
f 43/5/1 64/1/1 63/5/1
f 91/3/4 88/4/4 89/3/4
f 88/4/4 91/3/4 92/4/4
f 93/2/7 39/2/7 53/2/7
f 39/2/7 93/2/7 42/2/7
f 70/1/5 85/5/5 86/5/5
f 85/5/5 70/1/5 69/1/5
f 93/2/1 41/1/1 42/2/1
f 41/1/1 93/2/1 74/1/1
f 96/7/7 95/7/7 94/7/7
f 95/7/7 96/7/7 97/7/7
f 97/7/7 96/7/7 98/7/7
f 97/7/7 98/7/7 99/7/7
f 99/7/7 98/7/7 100/7/7
f 99/7/7 100/7/7 101/7/7
f 102/8/2 97/7/2 99/7/2
f 97/7/2 102/8/2 103/8/2
f 104/8/9 97/7/9 103/8/9
f 97/7/9 104/8/9 95/7/9
f 33/6/10 24/4/10 23/4/10
f 24/4/10 33/6/10 34/6/10
f 78/2/2 65/1/2 66/1/2
f 65/1/2 78/2/2 79/1/2
f 79/1/2 78/2/2 56/1/2
f 56/1/2 78/2/2 57/2/2
f 105/5/2 65/1/2 79/1/2
f 65/1/2 105/5/2 77/5/2
f 106/8/5 98/7/5 96/7/5
f 98/7/5 106/8/5 107/8/5
f 108/8/1 95/7/1 104/8/1
f 95/7/1 108/8/1 94/7/1
f 106/8/11 94/7/11 108/8/11
f 94/7/11 106/8/11 96/7/11
f 111/5/2 110/8/2 109/8/2
f 110/8/2 111/5/2 112/5/2
f 98/7/12 113/8/12 100/7/12
f 113/8/12 98/7/12 107/8/12
f 103/8/3 108/8/3 104/8/3
f 108/8/3 103/8/3 106/8/3
f 106/8/3 103/8/3 110/8/3
f 110/8/3 103/8/3 102/8/3
f 114/8/3 106/8/3 110/8/3
f 110/8/3 102/8/3 109/8/3
f 106/8/3 114/8/3 107/8/3
f 109/8/3 102/8/3 115/8/3
f 107/8/3 114/8/3 115/8/3
f 107/8/3 115/8/3 102/8/3
f 107/8/3 102/8/3 116/8/3
f 107/8/3 116/8/3 113/8/3
f 100/7/4 116/8/4 101/7/4
f 116/8/4 100/7/4 113/8/4
f 117/5/5 115/8/5 114/8/5
f 115/8/5 117/5/5 118/5/5
f 5/3/5 50/1/5 8/1/5
f 50/1/5 5/3/5 53/2/5
f 53/2/5 5/3/5 93/2/5
f 90/3/5 93/2/5 5/3/5
f 73/1/5 93/2/5 90/3/5
f 93/2/5 73/1/5 74/1/5
f 117/5/1 110/8/1 112/5/1
f 110/8/1 117/5/1 114/8/1
f 101/7/13 102/8/13 99/7/13
f 102/8/13 101/7/13 116/8/13
f 87/2/7 1/2/7 6/2/7
f 1/2/7 87/2/7 55/2/7
f 115/8/4 111/5/4 109/8/4
f 111/5/4 115/8/4 118/5/4
f 78/2/7 17/2/7 57/2/7
f 17/2/7 78/2/7 16/2/7
f 105/5/4 21/1/4 19/5/4
f 21/1/4 105/5/4 79/1/4
f 58/5/3 83/5/3 84/5/3
f 83/5/3 58/5/3 82/5/3
f 59/5/3 82/5/14 58/5/15
f 59/5/4 20/5/4 82/5/4
f 59/5/3 117/5/3 20/5/3
f 112/5/3 20/5/3 117/5/3
f 20/5/3 112/5/3 111/5/3
f 20/5/3 111/5/3 19/5/3
f 117/5/3 59/5/3 118/5/3
f 19/5/3 111/5/3 105/5/3
f 118/5/3 59/5/3 60/5/3
f 105/5/3 111/5/3 76/5/3
f 77/5/3 105/5/3 76/5/3
f 76/5/3 111/5/3 75/5/3
f 75/5/3 111/5/3 85/5/3
f 118/5/3 60/5/3 63/5/3
f 63/5/3 60/5/3 43/5/3
f 43/5/3 60/5/3 44/5/3
f 118/5/3 63/5/3 27/5/3
f 118/5/3 27/5/3 111/5/3
f 25/5/3 111/5/3 27/5/3
f 85/5/3 111/5/3 25/5/3
f 61/5/3 85/5/3 25/5/3
f 85/5/3 61/5/3 86/5/3
f 88/4/3 36/4/3 35/4/3
f 36/4/3 88/4/3 92/4/3
f 34/6/5 36/4/5 24/4/5
f 92/4/7 24/4/8 36/4/8
f 92/4/3 11/4/3 24/4/3
f 91/3/5 11/4/5 92/4/5
f 11/4/5 91/3/5 12/3/5
f 12/3/7 5/3/7 10/3/7
f 5/3/7 12/3/7 91/3/7
f 4/3/7 10/3/7 5/3/7
f 5/3/7 91/3/7 90/3/7
f 10/3/7 4/3/7 89/3/7
f 90/3/7 91/3/7 15/3/7
f 89/3/7 4/3/7 15/3/7
f 89/3/7 15/3/7 91/3/7
f 3/1/1 2/1/1 1/2/1
f 4/3/1 1/2/1 2/1/1
f 1/2/1 4/3/1 5/3/1
f 1/2/1 5/3/1 6/2/1
f 6/2/1 5/3/1 7/1/1
f 7/1/1 5/3/1 8/1/1
f 11/4/1 10/3/1 9/4/1
f 10/3/1 11/4/1 12/3/1
f 15/3/2 14/1/2 13/1/2
f 14/1/2 15/3/2 16/2/2
f 16/2/2 15/3/2 17/2/2
f 4/3/2 17/2/2 15/3/2
f 2/1/2 17/2/2 4/3/2
f 17/2/2 2/1/2 18/1/2
f 21/1/2 20/5/2 19/5/2
f 20/5/2 21/1/2 22/1/2
f 23/4/3 11/4/3 9/4/3
f 11/4/3 23/4/3 24/4/3
f 27/5/4 26/1/4 25/5/4
f 26/1/4 27/5/4 28/1/4
f 31/2/5 30/1/5 29/1/5
f 30/1/5 31/2/5 32/2/5
f 35/4/6 34/6/6 33/6/6
f 34/6/6 35/4/6 36/4/6
f 39/2/5 38/1/5 37/1/5
f 38/1/5 39/2/5 40/1/5
f 40/1/5 39/2/5 41/1/5
f 41/1/5 39/2/5 42/2/5
f 43/5/5 38/1/5 40/1/5
f 38/1/5 43/5/5 44/5/5
f 7/1/3 46/1/3 45/1/3
f 7/1/3 47/1/3 46/1/3
f 47/1/3 7/1/3 48/1/3
f 8/1/3 48/1/3 7/1/3
f 48/1/3 8/1/3 49/1/3
f 49/1/3 8/1/3 50/1/3
f 49/1/3 50/1/3 38/1/3
f 38/1/3 50/1/3 37/1/3
f 52/2/7 31/2/7 51/2/7
f 31/2/7 52/2/7 32/2/7
f 50/1/4 39/2/4 37/1/4
f 39/2/4 50/1/4 53/2/4
f 1/2/5 54/1/5 3/1/5
f 54/1/5 1/2/5 55/2/5
f 56/1/4 17/2/4 18/1/4
f 17/2/4 56/1/4 57/2/4
f 48/1/1 58/5/1 47/1/1
f 58/5/1 48/1/1 59/5/1
f 60/5/4 38/1/4 44/5/4
f 38/1/4 60/5/4 49/1/4
f 26/1/2 61/5/2 25/5/2
f 61/5/2 26/1/2 62/1/2
f 64/1/5 27/5/5 63/5/5
f 27/5/5 64/1/5 28/1/5
f 66/1/3 65/1/3 14/1/3
f 67/1/3 14/1/3 65/1/3
f 14/1/3 67/1/3 68/1/3
f 14/1/3 68/1/3 13/1/3
f 13/1/3 68/1/3 30/1/3
f 69/1/3 30/1/3 68/1/3
f 70/1/3 30/1/3 69/1/3
f 30/1/3 70/1/3 29/1/3
f 48/1/5 60/5/5 59/5/5
f 60/5/5 48/1/5 49/1/5
f 26/1/3 71/1/3 62/1/3
f 71/1/3 26/1/3 72/1/3
f 72/1/3 26/1/3 73/1/3
f 28/1/3 73/1/3 26/1/3
f 28/1/3 74/1/3 73/1/3
f 64/1/3 74/1/3 28/1/3
f 64/1/3 41/1/3 74/1/3
f 41/1/3 64/1/3 40/1/3
f 68/1/2 76/5/2 75/5/2
f 76/5/2 68/1/2 67/1/2
f 52/2/2 71/1/2 72/1/2
f 71/1/2 52/2/2 51/2/2
f 65/1/1 76/5/1 67/1/1
f 76/5/1 65/1/1 77/5/1
f 78/2/1 14/1/1 16/2/1
f 14/1/1 78/2/1 66/1/1
f 56/1/3 21/1/3 79/1/3
f 18/1/3 21/1/3 56/1/3
f 2/1/3 21/1/3 18/1/3
f 2/1/3 22/1/3 21/1/3
f 22/1/3 2/1/3 80/1/3
f 3/1/3 80/1/3 2/1/3
f 80/1/3 3/1/3 81/1/3
f 81/1/3 3/1/3 54/1/3
f 80/1/5 83/5/5 82/5/5
f 83/5/5 80/1/5 81/1/5
f 46/1/2 58/5/2 84/5/2
f 58/5/2 46/1/2 47/1/2
f 80/1/1 20/5/1 22/1/1
f 20/5/1 80/1/1 82/5/1
f 85/5/4 68/1/4 75/5/4
f 68/1/4 85/5/4 69/1/4
f 61/5/4 70/1/4 86/5/4
f 62/1/4 70/1/4 61/5/4
f 51/2/4 70/1/4 62/1/4
f 51/2/4 62/1/4 71/1/4
f 31/2/4 70/1/4 51/2/4
f 70/1/4 31/2/4 29/1/4
f 87/2/2 7/1/2 45/1/2
f 7/1/2 87/2/2 6/2/2
f 84/5/1 83/5/1 46/1/1
f 83/5/1 87/2/1 46/1/1
f 46/1/1 87/2/1 45/1/1
f 81/1/1 87/2/1 83/5/1
f 54/1/1 87/2/1 81/1/1
f 87/2/1 54/1/1 55/2/1
f 33/6/2 23/4/2 35/4/2
f 9/4/8 35/4/7 23/4/7
f 9/4/7 88/4/7 35/4/7
f 10/3/2 88/4/2 9/4/2
f 88/4/2 10/3/2 89/3/2
f 73/1/4 52/2/4 72/1/4
f 90/3/4 52/2/4 73/1/4
f 90/3/4 32/2/4 52/2/4
f 15/3/4 32/2/4 90/3/4
f 15/3/4 30/1/4 32/2/4
f 30/1/4 15/3/4 13/1/4
f 64/1/1 43/5/1 40/1/1
f 43/5/1 64/1/1 63/5/1
f 91/3/4 88/4/4 89/3/4
f 88/4/4 91/3/4 92/4/4
f 93/2/7 39/2/7 53/2/7
f 39/2/7 93/2/7 42/2/7
f 70/1/5 85/5/5 86/5/5
f 85/5/5 70/1/5 69/1/5
f 93/2/1 41/1/1 42/2/1
f 41/1/1 93/2/1 74/1/1
f 96/7/7 95/7/7 94/7/7
f 95/7/7 96/7/7 97/7/7
f 97/7/7 96/7/7 98/7/7
f 97/7/7 98/7/7 99/7/7
f 99/7/7 98/7/7 100/7/7
f 99/7/7 100/7/7 101/7/7
f 102/8/2 97/7/2 99/7/2
f 97/7/2 102/8/2 103/8/2
f 104/8/9 97/7/9 103/8/9
f 97/7/9 104/8/9 95/7/9
f 33/6/10 24/4/10 23/4/10
f 24/4/10 33/6/10 34/6/10
f 78/2/2 65/1/2 66/1/2
f 65/1/2 78/2/2 79/1/2
f 79/1/2 78/2/2 56/1/2
f 56/1/2 78/2/2 57/2/2
f 105/5/2 65/1/2 79/1/2
f 65/1/2 105/5/2 77/5/2
f 106/8/5 98/7/5 96/7/5
f 98/7/5 106/8/5 107/8/5
f 108/8/1 95/7/1 104/8/1
f 95/7/1 108/8/1 94/7/1
f 106/8/11 94/7/11 108/8/11
f 94/7/11 106/8/11 96/7/11
f 111/5/2 110/8/2 109/8/2
f 110/8/2 111/5/2 112/5/2
f 98/7/12 113/8/12 100/7/12
f 113/8/12 98/7/12 107/8/12
f 103/8/3 108/8/3 104/8/3
f 108/8/3 103/8/3 106/8/3
f 106/8/3 103/8/3 110/8/3
f 110/8/3 103/8/3 102/8/3
f 114/8/3 106/8/3 110/8/3
f 110/8/3 102/8/3 109/8/3
f 106/8/3 114/8/3 107/8/3
f 109/8/3 102/8/3 115/8/3
f 107/8/3 114/8/3 115/8/3
f 107/8/3 115/8/3 102/8/3
f 107/8/3 102/8/3 116/8/3
f 107/8/3 116/8/3 113/8/3
f 100/7/4 116/8/4 101/7/4
f 116/8/4 100/7/4 113/8/4
f 117/5/5 115/8/5 114/8/5
f 115/8/5 117/5/5 118/5/5
f 5/3/5 50/1/5 8/1/5
f 50/1/5 5/3/5 53/2/5
f 53/2/5 5/3/5 93/2/5
f 90/3/5 93/2/5 5/3/5
f 73/1/5 93/2/5 90/3/5
f 93/2/5 73/1/5 74/1/5
f 117/5/1 110/8/1 112/5/1
f 110/8/1 117/5/1 114/8/1
f 101/7/13 102/8/13 99/7/13
f 102/8/13 101/7/13 116/8/13
f 87/2/7 1/2/7 6/2/7
f 1/2/7 87/2/7 55/2/7
f 115/8/4 111/5/4 109/8/4
f 111/5/4 115/8/4 118/5/4
f 78/2/7 17/2/7 57/2/7
f 17/2/7 78/2/7 16/2/7
f 105/5/4 21/1/4 19/5/4
f 21/1/4 105/5/4 79/1/4
f 58/5/3 83/5/3 84/5/3
f 83/5/3 58/5/3 82/5/3
f 59/5/16 82/5/17 58/5/3
f 59/5/4 20/5/4 82/5/4
f 59/5/3 117/5/3 20/5/3
f 112/5/3 20/5/3 117/5/3
f 20/5/3 112/5/3 111/5/3
f 20/5/3 111/5/3 19/5/3
f 117/5/3 59/5/3 118/5/3
f 19/5/3 111/5/3 105/5/3
f 118/5/3 59/5/3 60/5/3
f 105/5/3 111/5/3 76/5/3
f 77/5/3 105/5/3 76/5/3
f 76/5/3 111/5/3 75/5/3
f 75/5/3 111/5/3 85/5/3
f 118/5/3 60/5/3 63/5/3
f 63/5/3 60/5/3 43/5/3
f 43/5/3 60/5/3 44/5/3
f 118/5/3 63/5/3 27/5/3
f 118/5/3 27/5/3 111/5/3
f 25/5/3 111/5/3 27/5/3
f 85/5/3 111/5/3 25/5/3
f 61/5/3 85/5/3 25/5/3
f 85/5/3 61/5/3 86/5/3
f 88/4/3 36/4/3 35/4/3
f 36/4/3 88/4/3 92/4/3
f 34/6/5 36/4/5 24/4/5
f 92/4/7 24/4/8 36/4/8
f 92/4/3 11/4/3 24/4/3
f 91/3/5 11/4/5 92/4/5
f 11/4/5 91/3/5 12/3/5
f 12/3/7 5/3/7 10/3/7
f 5/3/7 12/3/7 91/3/7
f 4/3/7 10/3/7 5/3/7
f 5/3/7 91/3/7 90/3/7
f 10/3/7 4/3/7 89/3/7
f 90/3/7 91/3/7 15/3/7
f 89/3/7 4/3/7 15/3/7
f 89/3/7 15/3/7 91/3/7
usemtl colormap.074
f 121/7/7 120/7/7 119/7/7
f 120/7/7 121/7/7 122/7/7
f 125/6/2 124/9/2 123/9/2
f 126/6/2 124/9/2 125/6/2
f 127/10/2 124/9/2 126/6/2
f 128/11/2 124/9/2 127/10/2
f 124/9/2 128/11/2 129/11/2
f 132/11/7 131/11/7 130/11/7
f 131/11/7 132/11/7 133/11/7
f 135/11/7 134/11/7 133/11/7
f 135/11/7 136/11/7 134/11/7
f 136/11/7 135/11/7 128/11/7
f 129/11/7 128/11/7 135/11/7
f 138/11/7 131/11/7 137/11/7
f 131/11/7 138/11/7 139/11/7
f 139/11/7 138/11/7 140/11/7
f 140/11/7 138/11/7 141/11/7
f 131/11/1 142/7/1 130/11/1
f 142/7/1 131/11/1 143/12/1
f 142/7/1 143/12/1 144/7/1
f 144/7/1 143/12/1 145/13/1
f 131/11/1 146/6/1 137/11/1
f 147/9/1 146/6/1 131/11/1
f 148/9/1 146/6/1 147/9/1
f 146/6/1 148/9/1 149/6/1
f 121/7/4 132/11/4 122/7/4
f 132/11/4 121/7/4 150/12/4
f 150/12/4 121/7/4 151/13/4
f 133/11/4 132/11/4 150/12/4
f 134/11/4 152/9/4 133/11/4
f 153/6/4 152/9/4 134/11/4
f 125/6/4 152/9/4 153/6/4
f 152/9/4 125/6/4 123/9/4
f 154/7/7 142/7/7 144/7/7
f 142/7/7 154/7/7 155/7/7
f 131/11/5 152/9/5 147/9/5
f 152/9/5 131/11/5 133/11/5
f 150/12/18 135/11/5 133/11/5
f 135/11/5 150/12/18 156/12/18
f 131/11/5 157/12/18 143/12/18
f 157/12/18 131/11/5 139/11/5
f 154/7/4 158/9/4 155/7/4
f 158/9/4 154/7/4 140/11/4
f 159/9/4 158/9/4 140/11/4
f 140/11/19 154/7/20 157/12/21
f 157/12/4 154/7/4 160/13/4
f 139/11/4 140/11/4 157/12/4
f 161/10/22 128/11/1 127/10/22
f 128/11/1 161/10/22 136/11/1
f 125/6/3 162/6/23 126/6/23
f 162/6/23 125/6/3 153/6/3
f 138/11/4 163/10/24 141/11/4
f 163/10/24 138/11/4 164/10/24
f 165/6/25 146/6/3 149/6/3
f 146/6/3 165/6/25 166/6/25
f 163/10/26 166/6/27 165/6/27
f 166/6/27 163/10/24 164/10/24
f 126/6/23 161/10/28 127/10/28
f 161/10/29 126/6/30 162/6/30
f 167/13/18 121/7/5 119/7/5
f 121/7/5 167/13/18 151/13/18
f 145/13/18 154/7/5 144/7/5
f 154/7/5 145/13/18 160/13/18
f 143/12/31 160/13/31 145/13/31
f 160/13/31 143/12/31 157/12/31
f 156/12/31 151/13/31 167/13/31
f 151/13/31 156/12/31 150/12/31
f 161/10/5 134/11/5 136/11/5
f 134/11/5 161/10/5 153/6/5
f 153/6/5 161/10/5 162/6/5
f 146/6/5 138/11/5 137/11/5
f 138/11/5 146/6/5 164/10/5
f 164/10/5 146/6/5 166/6/5
f 163/10/2 140/11/2 141/11/2
f 140/11/2 163/10/2 159/9/2
f 159/9/2 163/10/2 165/6/2
f 159/9/2 165/6/2 148/9/2
f 148/9/2 165/6/2 149/6/2
f 158/9/2 142/7/2 155/7/2
f 142/7/2 158/9/2 130/11/2
f 130/11/2 158/9/2 132/11/2
f 168/9/2 132/11/2 158/9/2
f 120/7/2 132/11/2 168/9/2
f 132/11/2 120/7/2 122/7/2
f 158/9/3 124/9/3 168/9/3
f 124/9/3 158/9/3 123/9/3
f 123/9/3 158/9/3 152/9/3
f 152/9/3 158/9/3 148/9/3
f 148/9/3 158/9/3 159/9/3
f 147/9/3 152/9/3 148/9/3
f 124/9/1 120/7/1 168/9/1
f 120/7/1 124/9/1 129/11/1
f 120/7/1 129/11/1 119/7/1
f 119/7/32 129/11/33 156/12/34
f 156/12/1 129/11/1 135/11/1
f 119/7/1 156/12/1 167/13/1
f 121/7/7 120/7/7 119/7/7
f 120/7/7 121/7/7 122/7/7
f 125/6/2 124/9/2 123/9/2
f 126/6/2 124/9/2 125/6/2
f 127/10/2 124/9/2 126/6/2
f 128/11/2 124/9/2 127/10/2
f 124/9/2 128/11/2 129/11/2
f 132/11/7 131/11/7 130/11/7
f 131/11/7 132/11/7 133/11/7
f 135/11/7 134/11/7 133/11/7
f 135/11/7 136/11/7 134/11/7
f 136/11/7 135/11/7 128/11/7
f 129/11/7 128/11/7 135/11/7
f 138/11/7 131/11/7 137/11/7
f 131/11/7 138/11/7 139/11/7
f 139/11/7 138/11/7 140/11/7
f 140/11/7 138/11/7 141/11/7
f 131/11/1 142/7/1 130/11/1
f 142/7/1 131/11/1 143/12/1
f 142/7/1 143/12/1 144/7/1
f 144/7/1 143/12/1 145/13/1
f 131/11/1 146/6/1 137/11/1
f 147/9/1 146/6/1 131/11/1
f 148/9/1 146/6/1 147/9/1
f 146/6/1 148/9/1 149/6/1
f 121/7/4 132/11/4 122/7/4
f 132/11/4 121/7/4 150/12/4
f 150/12/4 121/7/4 151/13/4
f 133/11/4 132/11/4 150/12/4
f 134/11/4 152/9/4 133/11/4
f 153/6/4 152/9/4 134/11/4
f 125/6/4 152/9/4 153/6/4
f 152/9/4 125/6/4 123/9/4
f 154/7/7 142/7/7 144/7/7
f 142/7/7 154/7/7 155/7/7
f 131/11/5 152/9/5 147/9/5
f 152/9/5 131/11/5 133/11/5
f 150/12/18 135/11/5 133/11/5
f 135/11/5 150/12/18 156/12/18
f 131/11/5 157/12/18 143/12/18
f 157/12/18 131/11/5 139/11/5
f 154/7/4 158/9/4 155/7/4
f 158/9/4 154/7/4 140/11/4
f 159/9/4 158/9/4 140/11/4
f 140/11/19 154/7/20 157/12/21
f 157/12/4 154/7/4 160/13/4
f 139/11/4 140/11/4 157/12/4
f 161/10/22 128/11/1 127/10/22
f 128/11/1 161/10/22 136/11/1
f 125/6/3 162/6/23 126/6/23
f 162/6/23 125/6/3 153/6/3
f 138/11/4 163/10/24 141/11/4
f 163/10/24 138/11/4 164/10/24
f 165/6/25 146/6/3 149/6/3
f 146/6/3 165/6/25 166/6/25
f 163/10/26 166/6/27 165/6/27
f 166/6/27 163/10/24 164/10/24
f 126/6/23 161/10/28 127/10/28
f 161/10/29 126/6/30 162/6/30
f 167/13/18 121/7/5 119/7/5
f 121/7/5 167/13/18 151/13/18
f 145/13/18 154/7/5 144/7/5
f 154/7/5 145/13/18 160/13/18
f 143/12/31 160/13/31 145/13/31
f 160/13/31 143/12/31 157/12/31
f 156/12/31 151/13/31 167/13/31
f 151/13/31 156/12/31 150/12/31
f 161/10/5 134/11/5 136/11/5
f 134/11/5 161/10/5 153/6/5
f 153/6/5 161/10/5 162/6/5
f 146/6/5 138/11/5 137/11/5
f 138/11/5 146/6/5 164/10/5
f 164/10/5 146/6/5 166/6/5
f 163/10/2 140/11/2 141/11/2
f 140/11/2 163/10/2 159/9/2
f 159/9/2 163/10/2 165/6/2
f 159/9/2 165/6/2 148/9/2
f 148/9/2 165/6/2 149/6/2
f 158/9/2 142/7/2 155/7/2
f 142/7/2 158/9/2 130/11/2
f 130/11/2 158/9/2 132/11/2
f 168/9/2 132/11/2 158/9/2
f 120/7/2 132/11/2 168/9/2
f 132/11/2 120/7/2 122/7/2
f 158/9/3 124/9/3 168/9/3
f 124/9/3 158/9/3 123/9/3
f 123/9/3 158/9/3 152/9/3
f 152/9/3 158/9/3 148/9/3
f 148/9/3 158/9/3 159/9/3
f 147/9/3 152/9/3 148/9/3
f 124/9/1 120/7/1 168/9/1
f 120/7/1 124/9/1 129/11/1
f 120/7/1 129/11/1 119/7/1
f 119/7/32 129/11/33 156/12/34
f 156/12/1 129/11/1 135/11/1
f 119/7/1 156/12/1 167/13/1
