# Blender 3.6.4
# www.blender.org
mtllib Gravestone_Round_5.mtl
o Gravestone_Round_5
v -14.762051 0.805260 4.199418
v -14.695281 0.810454 4.364680
v -14.808599 0.772805 4.219245
v -14.741829 0.778000 4.384507
v -14.844265 0.730282 4.234992
v -14.777495 0.735477 4.400253
v -14.874131 0.627106 4.250301
v -14.866617 0.680587 4.245584
v -14.807361 0.632300 4.415563
v -14.799848 0.685781 4.410846
v -14.657343 0.750038 4.351251
v -14.674414 0.748710 4.308999
v -14.688287 0.728464 4.364431
v -14.705359 0.727136 4.322179
v -14.448787 0.623022 4.221790
v -14.454659 0.663181 4.222901
v -14.431716 0.624350 4.264042
v -14.437589 0.664509 4.265152
v -14.469715 0.696491 4.227937
v -14.493599 0.725195 4.236684
v -14.452644 0.697819 4.270188
v -14.476528 0.726523 4.278936
v -14.743928 0.665833 4.339690
v -14.749551 0.625778 4.343220
v -14.726857 0.667161 4.381941
v -14.732480 0.627106 4.385472
v -14.729066 0.698868 4.332647
v -14.711995 0.700196 4.374898
v -14.621270 0.763447 4.336255
v -14.638341 0.762119 4.294003
v -14.749327 0.551962 4.345450
v -14.735929 0.553005 4.378613
v -14.732256 0.553290 4.387702
v -14.735102 0.280285 4.386851
v -14.731008 0.141084 4.400154
v -14.731289 0.234075 4.397345
v -14.757010 0.139061 4.335793
v -14.758260 0.551267 4.323342
v -14.507605 0.748666 4.290796
v -14.524675 0.747338 4.248544
v -14.582532 0.767779 4.320467
v -14.599603 0.766451 4.278216
v -14.809969 0.280971 4.417078
v -14.810796 0.553691 4.408840
v -14.431492 0.550533 4.266272
v -14.435164 0.550248 4.257183
v -14.434338 0.277528 4.265421
v -14.430243 0.138327 4.278724
v -14.430525 0.231318 4.275915
v -14.448563 0.549205 4.224020
v -14.457496 0.548510 4.201912
v -14.456246 0.136304 4.214364
v -14.833712 0.142025 4.441620
v -14.833994 0.235017 4.438810
v -14.543761 0.762737 4.304962
v -14.560832 0.761409 4.262710
v -14.327820 0.230377 4.234449
v -14.359474 0.276842 4.235196
v -14.395795 0.622721 4.057178
v -14.395557 0.544397 4.059545
v -14.329024 0.627916 4.222440
v -14.328788 0.549592 4.224806
v -14.423635 0.622977 4.068419
v -14.356866 0.628171 4.233681
v -14.901731 0.549037 4.263906
v -14.901968 0.627361 4.261540
v -14.834961 0.554232 4.429168
v -14.835198 0.632556 4.426802
v -14.360300 0.549561 4.226958
v -14.364703 0.681793 4.235162
v -14.387355 0.731901 4.242738
v -14.423284 0.775080 4.255898
v -14.470035 0.808390 4.273739
v -14.524421 0.829557 4.295047
v -14.641016 0.830626 4.342121
v -14.582742 0.837142 4.318372
v -14.419725 0.544938 4.079875
v -14.870221 0.549068 4.261757
v -14.431474 0.676598 4.069901
v -14.454124 0.726706 4.077477
v -14.490054 0.769886 4.090636
v -14.536805 0.803195 4.108478
v -14.707787 0.825431 4.176860
v -14.591191 0.824363 4.129786
v -14.649512 0.831947 4.153111
v -14.869394 0.276348 4.269995
v -14.418900 0.272219 4.088113
v -14.327538 0.137385 4.237258
v -14.900482 0.136830 4.276358
v -14.900764 0.229822 4.273549
v -14.394590 0.225182 4.069188
v -14.394308 0.132191 4.071997
v -14.457496 0.548510 4.201912
v -14.758260 0.551267 4.323342
v -14.456246 0.136304 4.214364
v -14.757010 0.139061 4.335793
vn -0.6057 0.7636 0.2235
vn -0.4049 0.9045 0.1340
vn -0.4045 0.9045 0.1351
vn -0.4055 0.9044 0.1327
vn -0.6063 0.7636 0.2221
vn -0.6067 0.7636 0.2211
vn -0.7661 0.5732 0.2908
vn -0.6039 0.7656 0.2216
vn -0.7659 0.5732 0.2914
vn -0.6042 0.7656 0.2208
vn -0.7664 0.5731 0.2900
vn -0.6045 0.7656 0.2202
vn -0.9168 0.1610 0.3654
vn -0.8909 0.2884 0.3510
vn -0.8909 0.2884 0.3509
vn 0.6067 -0.7636 -0.2211
vn 0.4025 -0.9046 -0.1404
vn 0.4045 -0.9045 -0.1350
vn 0.6087 -0.7635 -0.2158
vn -0.8808 0.3240 0.3454
vn -0.7753 0.5577 0.2964
vn -0.8807 0.3240 0.3456
vn -0.7754 0.5577 0.2961
vn -0.8809 0.3240 0.3450
vn -0.7755 0.5577 0.2958
vn -0.9159 -0.1443 0.3746
vn -0.8892 -0.2721 0.3678
vn -0.8893 -0.2721 0.3676
vn -0.7611 -0.5591 0.3288
vn -0.5998 -0.7546 0.2661
vn -0.7624 -0.5592 0.3256
vn -0.6012 -0.7547 0.2628
vn 0.8910 -0.2883 -0.3507
vn 0.9168 -0.1609 -0.3654
vn 0.8909 -0.2883 -0.3509
vn 0.7760 -0.5577 -0.2945
vn 0.8806 -0.3241 -0.3456
vn 0.7755 -0.5578 -0.2958
vn 0.8801 -0.3241 -0.3469
vn 0.6058 -0.7654 -0.2169
vn 0.7659 -0.5732 -0.2914
vn 0.6045 -0.7656 -0.2202
vn 0.7645 -0.5733 -0.2946
vn 0.4228 -0.8949 -0.1427
vn 0.1922 -0.9798 -0.0550
vn 0.1948 -0.9797 -0.0479
vn 0.4254 -0.8948 -0.1357
vn 0.9272 -0.0085 -0.3744
vn -0.8782 -0.3077 0.3660
vn -0.7723 -0.5434 0.3291
vn -0.8788 -0.3078 0.3647
vn -0.7728 -0.5435 0.3278
vn -0.3991 -0.8971 0.1894
vn -0.6042 -0.7527 0.2616
vn -0.6021 -0.7525 0.2669
vn -0.3970 -0.8969 0.1948
vn 0.2257 -0.9723 -0.0606
vn -0.0177 -0.9994 0.0294
vn -0.0147 -0.9992 0.0374
vn 0.2286 -0.9721 -0.0526
vn 0.3744 0.0291 0.9268
vn -0.9272 0.0085 0.3744
vn 0.3765 0.1325 0.9169
vn 0.3743 0.1326 0.9178
vn 0.3729 0.1134 0.9209
vn 0.0208 -0.9995 0.0230
vn -0.2227 -0.9685 0.1113
vn -0.2198 -0.9682 0.1192
vn 0.0237 -0.9992 0.0310
vn -0.1889 -0.9761 0.1070
vn -0.4200 -0.8875 0.1895
vn -0.4174 -0.8872 0.1965
vn -0.1863 -0.9759 0.1140
vn 0.3658 0.2347 0.9006
vn 0.3702 0.1327 0.9194
vn 0.3753 0.1133 0.9200
vn 0.3680 0.1328 0.9203
vn -0.0030 0.9995 -0.0302
vn 0.0030 -0.9995 0.0302
vn -0.3744 -0.0291 -0.9268
vn 0.0030 -0.9995 0.0301
vn 0.3764 0.1132 0.9195
vn 0.3746 0.1133 0.9202
vn 0.3721 0.1326 0.9187
vn -0.9023 0.2416 0.3570
vn -0.3670 0.1777 -0.9131
vn -0.3729 0.0553 -0.9262
vn -0.3758 0.0553 -0.9251
vn -0.3696 0.0553 -0.9275
vn 0.3710 0.1134 0.9217
vn 0.3655 0.1136 0.9238
vn -0.3748 0.0553 -0.9255
vn -0.3739 0.0553 -0.9258
vn -0.3734 0.0553 -0.9260
vn 0.9009 0.2250 -0.3711
vn -0.8854 0.3091 0.3471
vn -0.7807 0.5492 0.2982
vn -0.8849 0.3091 0.3485
vn -0.8861 0.3090 0.3453
vn 0.7774 0.5349 -0.3309
vn 0.8830 0.2929 -0.3669
vn 0.8835 0.2930 -0.3655
vn 0.8822 0.2929 -0.3686
vn 0.7721 0.5435 -0.3293
vn 0.8790 0.3078 -0.3641
vn 0.7722 0.5435 -0.3291
vn 0.8789 0.3078 -0.3645
vn 0.7720 0.5434 -0.3297
vn 0.8788 0.3078 -0.3647
vn 0.8892 0.2721 -0.3678
vn 0.9159 0.1442 -0.3746
vn 0.8892 0.2721 -0.3679
vn 0.5996 0.7546 -0.2667
vn 0.7630 0.5593 -0.3242
vn 0.5998 0.7546 -0.2661
vn 0.7627 0.5592 -0.3250
vn 0.5993 0.7545 -0.2675
vn 0.7624 0.5592 -0.3256
vn 0.4000 0.8972 -0.1871
vn 0.6017 0.7525 -0.2679
vn 0.6021 0.7525 -0.2669
vn 0.6011 0.7524 -0.2693
vn 0.3995 0.8972 -0.1884
vn 0.3990 0.8971 -0.1895
vn 0.1902 0.9762 -0.1039
vn 0.4169 0.8872 -0.1978
vn 0.4174 0.8872 -0.1965
vn 0.4161 0.8871 -0.1996
vn 0.1894 0.9762 -0.1057
vn 0.1889 0.9761 -0.1070
vn -0.0193 0.9996 -0.0195
vn 0.2192 0.9682 -0.1207
vn 0.2198 0.9682 -0.1192
vn 0.2183 0.9681 -0.1228
vn -0.0202 0.9996 -0.0215
vn -0.0208 0.9995 -0.0230
vn -0.2242 0.9724 0.0641
vn 0.0142 0.9991 -0.0389
vn 0.0148 0.9992 -0.0374
vn 0.0133 0.9991 -0.0409
vn -0.2251 0.9724 0.0621
vn -0.2257 0.9723 0.0606
vn -0.4215 0.8950 0.1458
vn -0.1954 0.9796 0.0466
vn -0.1948 0.9797 0.0480
vn -0.1961 0.9796 0.0448
vn -0.4223 0.8950 0.1440
vn -0.4228 0.8949 0.1427
vt 0.843750 0.207621
vt 0.843750 0.217051
vt 0.843750 0.195333
vt 0.843750 0.165667
vt 0.843750 0.181023
vt 0.843750 0.193557
vt 0.843750 0.199825
vt 0.843750 0.164374
vt 0.843750 0.175875
vt 0.843750 0.185388
vt 0.843750 0.203765
vt 0.843750 0.143206
vt 0.843750 0.065000
vt 0.843750 0.025000
vt 0.843750 0.051667
vt 0.843750 0.205109
vt 0.843750 0.222978
vt 0.843750 0.225000
vt 0.843750 0.102383
vt 0.843750 0.090630
vt 0.843750 0.108769
vt 0.843750 0.114051
vt 0.843750 0.118586
vt 0.843750 0.122066
vt 0.843750 0.124254
vt 0.843750 0.125000
s 0
usemtl colormap.037
f 3/1/1 2/2/2 1/2/3
f 2/2/4 3/1/5 4/1/6
f 6/3/7 3/1/8 5/3/9
f 3/1/10 6/3/11 4/1/12
f 9/4/13 8/5/14 7/4/13
f 8/5/15 9/4/13 10/5/15
f 13/6/16 12/7/17 11/7/18
f 12/7/18 13/6/19 14/6/16
f 10/5/20 5/3/21 8/5/22
f 5/3/23 10/5/24 6/3/25
f 17/8/26 16/9/27 15/8/26
f 16/9/28 17/8/26 18/9/27
f 21/10/29 20/6/30 19/10/31
f 20/6/32 21/10/31 22/6/30
f 25/9/33 24/8/34 23/9/35
f 24/8/34 25/9/35 26/8/34
f 28/10/36 23/9/37 27/10/38
f 23/9/39 28/10/38 25/9/37
f 13/6/40 27/10/41 14/6/42
f 27/10/43 13/6/42 28/10/41
f 11/7/44 30/11/45 29/11/46
f 30/11/46 11/7/47 12/7/44
f 26/8/48 31/12/48 24/8/48
f 31/12/48 26/8/48 32/12/48
f 32/12/48 26/8/48 33/12/48
f 34/13/48 31/12/48 32/12/48
f 35/14/48 31/12/48 34/13/48
f 35/14/48 34/13/48 36/15/48
f 37/14/48 31/12/48 35/14/48
f 31/12/48 37/14/48 38/12/48
f 18/9/49 19/10/50 16/9/51
f 19/10/52 18/9/51 21/10/50
f 39/7/53 20/6/54 22/6/55
f 20/6/55 39/7/56 40/7/53
f 29/11/57 42/16/58 41/16/59
f 42/16/59 29/11/60 30/11/57
f 32/12/61 43/13/61 34/13/61
f 43/13/61 32/12/61 44/12/61
f 17/8/62 46/12/62 45/12/62
f 15/8/62 46/12/62 17/8/62
f 46/12/62 15/8/62 47/13/62
f 15/8/62 48/14/62 47/13/62
f 47/13/62 48/14/62 49/15/62
f 50/12/62 48/14/62 15/8/62
f 51/12/62 48/14/62 50/12/62
f 48/14/62 51/12/62 52/14/62
f 36/15/63 53/14/61 35/14/61
f 53/14/61 36/15/64 54/15/65
f 41/16/66 56/11/67 55/11/68
f 56/11/68 41/16/69 42/16/66
f 55/11/70 40/7/71 39/7/72
f 40/7/72 55/11/73 56/11/70
f 58/13/74 49/15/75 57/15/76
f 49/15/77 58/13/74 47/13/74
f 61/4/48 60/12/48 59/4/48
f 60/12/48 61/4/48 62/12/48
f 63/4/78 61/4/78 59/4/78
f 61/4/78 63/4/78 64/4/78
f 67/12/62 66/4/62 65/12/62
f 66/4/62 67/12/62 68/4/62
f 66/4/78 9/4/78 7/4/78
f 9/4/78 66/4/78 68/4/78
f 69/12/61 47/13/61 58/13/61
f 47/13/61 69/12/61 46/12/61
f 61/4/61 45/12/61 62/12/61
f 45/12/61 61/4/61 17/8/61
f 17/8/61 61/4/61 64/4/61
f 17/8/61 64/4/61 18/9/61
f 18/9/61 64/4/61 70/5/61
f 18/9/61 70/5/61 21/10/61
f 21/10/61 70/5/61 71/3/61
f 21/10/61 71/3/61 22/6/61
f 22/6/61 71/3/61 39/7/61
f 39/7/61 71/3/61 72/1/61
f 39/7/61 72/1/61 55/11/61
f 55/11/61 72/1/61 41/16/61
f 4/1/61 41/16/61 72/1/61
f 4/1/61 29/11/61 41/16/61
f 4/1/61 72/1/61 73/2/61
f 4/1/61 11/7/61 29/11/61
f 4/1/61 73/2/61 2/2/61
f 2/2/61 73/2/61 74/17/61
f 2/2/61 74/17/61 75/17/61
f 75/17/61 74/17/61 76/18/61
f 6/3/61 11/7/61 4/1/61
f 6/3/61 13/6/61 11/7/61
f 6/3/61 28/10/61 13/6/61
f 10/5/61 28/10/61 6/3/61
f 10/5/61 25/9/61 28/10/61
f 9/4/61 25/9/61 10/5/61
f 25/9/61 9/4/61 26/8/61
f 68/4/61 26/8/61 9/4/61
f 67/12/61 26/8/61 68/4/61
f 26/8/61 67/12/61 33/12/61
f 69/12/79 45/12/79 46/12/79
f 69/12/79 62/12/79 45/12/79
f 62/12/79 69/12/79 60/12/79
f 77/12/79 60/12/79 69/12/79
f 60/12/79 77/12/79 65/12/79
f 65/12/79 77/12/79 78/12/79
f 65/12/79 78/12/79 67/12/79
f 44/12/79 67/12/79 78/12/79
f 32/12/79 67/12/79 44/12/79
f 67/12/79 32/12/79 33/12/79
f 66/4/80 60/12/80 65/12/80
f 60/12/80 66/4/80 59/4/80
f 59/4/78 66/4/78 7/4/78
f 59/4/79 7/4/81 63/4/81
f 8/5/80 63/4/80 7/4/80
f 63/4/80 8/5/80 79/5/80
f 79/5/80 8/5/80 5/3/80
f 79/5/80 5/3/80 80/3/80
f 80/3/80 5/3/80 3/1/80
f 80/3/80 3/1/80 81/1/80
f 81/1/80 3/1/80 1/2/80
f 81/1/80 1/2/80 82/2/80
f 82/2/80 1/2/80 83/17/80
f 82/2/80 83/17/80 84/17/80
f 84/17/80 83/17/80 85/18/80
f 78/12/80 87/13/80 86/13/80
f 87/13/80 78/12/80 77/12/80
f 57/15/82 48/14/61 88/14/61
f 48/14/61 57/15/83 49/15/84
f 53/14/62 90/15/85 89/14/62
f 90/15/85 53/14/62 54/15/85
f 86/13/86 91/15/87 90/15/88
f 91/15/89 86/13/86 87/13/86
f 34/13/74 54/15/90 36/15/84
f 54/15/91 34/13/74 43/13/74
f 90/15/92 92/14/80 89/14/80
f 92/14/80 90/15/93 91/15/94
f 69/12/48 87/13/48 77/12/48
f 87/13/48 69/12/48 58/13/48
f 57/15/95 92/14/48 91/15/95
f 92/14/48 57/15/95 88/14/48
f 43/13/62 78/12/62 86/13/62
f 78/12/62 43/13/62 44/12/62
f 54/15/96 86/13/97 90/15/98
f 86/13/97 54/15/99 43/13/97
f 87/13/100 57/15/101 91/15/102
f 57/15/103 87/13/100 58/13/100
f 71/3/104 79/5/105 80/3/106
f 79/5/107 71/3/108 70/5/109
f 53/14/79 37/14/79 35/14/79
f 89/14/79 37/14/79 53/14/79
f 89/14/79 52/14/79 37/14/79
f 92/14/79 52/14/79 89/14/79
f 92/14/79 48/14/79 52/14/79
f 48/14/79 92/14/79 88/14/79
f 70/5/110 63/4/111 79/5/110
f 63/4/111 70/5/112 64/4/111
f 72/1/113 80/3/114 81/1/115
f 80/3/116 72/1/117 71/3/118
f 82/2/119 72/1/120 81/1/121
f 72/1/122 82/2/123 73/2/124
f 84/17/125 73/2/126 82/2/127
f 73/2/128 84/17/129 74/17/130
f 85/18/131 74/17/132 84/17/133
f 74/17/134 85/18/135 76/18/136
f 83/17/137 76/18/138 85/18/139
f 76/18/140 83/17/141 75/17/142
f 1/2/143 75/17/144 83/17/145
f 75/17/146 1/2/147 2/2/148
f 15/19/61 31/20/61 50/20/61
f 31/20/61 15/19/61 24/19/61
f 24/19/61 15/19/61 16/21/61
f 24/19/61 16/21/61 23/21/61
f 23/21/61 16/21/61 19/22/61
f 23/21/61 19/22/61 27/22/61
f 27/22/61 19/22/61 20/23/61
f 27/22/61 20/23/61 14/23/61
f 14/23/61 20/23/61 40/24/61
f 14/23/61 40/24/61 12/24/61
f 12/24/61 40/24/61 56/25/61
f 12/24/61 56/25/61 30/25/61
f 30/25/61 56/25/61 42/26/61
f 31/20/79 93/20/79 50/20/79
f 93/20/79 31/20/79 94/20/79
f 93/20/61 96/14/61 95/14/61
f 96/14/61 93/20/61 94/20/61
f 3/1/1 2/2/2 1/2/3
f 2/2/4 3/1/5 4/1/6
f 6/3/7 3/1/8 5/3/9
f 3/1/10 6/3/11 4/1/12
f 9/4/13 8/5/14 7/4/13
f 8/5/15 9/4/13 10/5/15
f 13/6/16 12/7/17 11/7/18
f 12/7/18 13/6/19 14/6/16
f 10/5/20 5/3/21 8/5/22
f 5/3/23 10/5/24 6/3/25
f 17/8/26 16/9/27 15/8/26
f 16/9/28 17/8/26 18/9/27
f 21/10/29 20/6/30 19/10/31
f 20/6/32 21/10/31 22/6/30
f 25/9/33 24/8/34 23/9/35
f 24/8/34 25/9/35 26/8/34
f 28/10/36 23/9/37 27/10/38
f 23/9/39 28/10/38 25/9/37
f 13/6/40 27/10/41 14/6/42
f 27/10/43 13/6/42 28/10/41
f 11/7/44 30/11/45 29/11/46
f 30/11/46 11/7/47 12/7/44
f 26/8/48 31/12/48 24/8/48
f 31/12/48 26/8/48 32/12/48
f 32/12/48 26/8/48 33/12/48
f 34/13/48 31/12/48 32/12/48
f 35/14/48 31/12/48 34/13/48
f 35/14/48 34/13/48 36/15/48
f 37/14/48 31/12/48 35/14/48
f 31/12/48 37/14/48 38/12/48
f 18/9/49 19/10/50 16/9/51
f 19/10/52 18/9/51 21/10/50
f 39/7/53 20/6/54 22/6/55
f 20/6/55 39/7/56 40/7/53
f 29/11/57 42/16/58 41/16/59
f 42/16/59 29/11/60 30/11/57
f 32/12/61 43/13/61 34/13/61
f 43/13/61 32/12/61 44/12/61
f 17/8/62 46/12/62 45/12/62
f 15/8/62 46/12/62 17/8/62
f 46/12/62 15/8/62 47/13/62
f 15/8/62 48/14/62 47/13/62
f 47/13/62 48/14/62 49/15/62
f 50/12/62 48/14/62 15/8/62
f 51/12/62 48/14/62 50/12/62
f 48/14/62 51/12/62 52/14/62
f 36/15/63 53/14/61 35/14/61
f 53/14/61 36/15/64 54/15/65
f 41/16/66 56/11/67 55/11/68
f 56/11/68 41/16/69 42/16/66
f 55/11/70 40/7/71 39/7/72
f 40/7/72 55/11/73 56/11/70
f 58/13/74 49/15/75 57/15/76
f 49/15/77 58/13/74 47/13/74
f 61/4/48 60/12/48 59/4/48
f 60/12/48 61/4/48 62/12/48
f 63/4/78 61/4/78 59/4/78
f 61/4/78 63/4/78 64/4/78
f 67/12/62 66/4/62 65/12/62
f 66/4/62 67/12/62 68/4/62
f 66/4/78 9/4/78 7/4/78
f 9/4/78 66/4/78 68/4/78
f 69/12/61 47/13/61 58/13/61
f 47/13/61 69/12/61 46/12/61
f 61/4/61 45/12/61 62/12/61
f 45/12/61 61/4/61 17/8/61
f 17/8/61 61/4/61 64/4/61
f 17/8/61 64/4/61 18/9/61
f 18/9/61 64/4/61 70/5/61
f 18/9/61 70/5/61 21/10/61
f 21/10/61 70/5/61 71/3/61
f 21/10/61 71/3/61 22/6/61
f 22/6/61 71/3/61 39/7/61
f 39/7/61 71/3/61 72/1/61
f 39/7/61 72/1/61 55/11/61
f 55/11/61 72/1/61 41/16/61
f 4/1/61 41/16/61 72/1/61
f 4/1/61 29/11/61 41/16/61
f 4/1/61 72/1/61 73/2/61
f 4/1/61 11/7/61 29/11/61
f 4/1/61 73/2/61 2/2/61
f 2/2/61 73/2/61 74/17/61
f 2/2/61 74/17/61 75/17/61
f 75/17/61 74/17/61 76/18/61
f 6/3/61 11/7/61 4/1/61
f 6/3/61 13/6/61 11/7/61
f 6/3/61 28/10/61 13/6/61
f 10/5/61 28/10/61 6/3/61
f 10/5/61 25/9/61 28/10/61
f 9/4/61 25/9/61 10/5/61
f 25/9/61 9/4/61 26/8/61
f 68/4/61 26/8/61 9/4/61
f 67/12/61 26/8/61 68/4/61
f 26/8/61 67/12/61 33/12/61
f 69/12/79 45/12/79 46/12/79
f 69/12/79 62/12/79 45/12/79
f 62/12/79 69/12/79 60/12/79
f 77/12/79 60/12/79 69/12/79
f 60/12/79 77/12/79 65/12/79
f 65/12/79 77/12/79 78/12/79
f 65/12/79 78/12/79 67/12/79
f 44/12/79 67/12/79 78/12/79
f 32/12/79 67/12/79 44/12/79
f 67/12/79 32/12/79 33/12/79
f 66/4/80 60/12/80 65/12/80
f 60/12/80 66/4/80 59/4/80
f 59/4/78 66/4/78 7/4/78
f 59/4/79 7/4/81 63/4/81
f 8/5/80 63/4/80 7/4/80
f 63/4/80 8/5/80 79/5/80
f 79/5/80 8/5/80 5/3/80
f 79/5/80 5/3/80 80/3/80
f 80/3/80 5/3/80 3/1/80
f 80/3/80 3/1/80 81/1/80
f 81/1/80 3/1/80 1/2/80
f 81/1/80 1/2/80 82/2/80
f 82/2/80 1/2/80 83/17/80
f 82/2/80 83/17/80 84/17/80
f 84/17/80 83/17/80 85/18/80
f 78/12/80 87/13/80 86/13/80
f 87/13/80 78/12/80 77/12/80
f 57/15/82 48/14/61 88/14/61
f 48/14/61 57/15/83 49/15/84
f 53/14/62 90/15/85 89/14/62
f 90/15/85 53/14/62 54/15/85
f 86/13/86 91/15/87 90/15/88
f 91/15/89 86/13/86 87/13/86
f 34/13/74 54/15/90 36/15/84
f 54/15/91 34/13/74 43/13/74
f 90/15/92 92/14/80 89/14/80
f 92/14/80 90/15/93 91/15/94
f 69/12/48 87/13/48 77/12/48
f 87/13/48 69/12/48 58/13/48
f 57/15/95 92/14/48 91/15/95
f 92/14/48 57/15/95 88/14/48
f 43/13/62 78/12/62 86/13/62
f 78/12/62 43/13/62 44/12/62
f 54/15/96 86/13/97 90/15/98
f 86/13/97 54/15/99 43/13/97
f 87/13/100 57/15/101 91/15/102
f 57/15/103 87/13/100 58/13/100
f 71/3/104 79/5/105 80/3/106
f 79/5/107 71/3/108 70/5/109
f 53/14/79 37/14/79 35/14/79
f 89/14/79 37/14/79 53/14/79
f 89/14/79 52/14/79 37/14/79
f 92/14/79 52/14/79 89/14/79
f 92/14/79 48/14/79 52/14/79
f 48/14/79 92/14/79 88/14/79
f 70/5/110 63/4/111 79/5/110
f 63/4/111 70/5/112 64/4/111
f 72/1/113 80/3/114 81/1/115
f 80/3/116 72/1/117 71/3/118
f 82/2/119 72/1/120 81/1/121
f 72/1/122 82/2/123 73/2/124
f 84/17/125 73/2/126 82/2/127
f 73/2/128 84/17/129 74/17/130
f 85/18/131 74/17/132 84/17/133
f 74/17/134 85/18/135 76/18/136
f 83/17/137 76/18/138 85/18/139
f 76/18/140 83/17/141 75/17/142
f 1/2/143 75/17/144 83/17/145
f 75/17/146 1/2/147 2/2/148
f 15/19/61 31/20/61 50/20/61
f 31/20/61 15/19/61 24/19/61
f 24/19/61 15/19/61 16/21/61
f 24/19/61 16/21/61 23/21/61
f 23/21/61 16/21/61 19/22/61
f 23/21/61 19/22/61 27/22/61
f 27/22/61 19/22/61 20/23/61
f 27/22/61 20/23/61 14/23/61
f 14/23/61 20/23/61 40/24/61
f 14/23/61 40/24/61 12/24/61
f 12/24/61 40/24/61 56/25/61
f 12/24/61 56/25/61 30/25/61
f 30/25/61 56/25/61 42/26/61
f 31/20/79 93/20/79 50/20/79
f 93/20/79 31/20/79 94/20/79
f 93/20/61 96/14/61 95/14/61
f 96/14/61 93/20/61 94/20/61
