# Blender 3.6.4
# www.blender.org
mtllib Gravestone_Roof_7.mtl
o Gravestone_Roof_7
v -3.885033 0.000000 2.087766
v -3.698212 0.000000 1.574477
v -3.885033 0.093701 2.087766
v -3.698212 0.093701 1.574477
v -3.699204 0.530374 1.606085
v -3.699204 0.140552 1.606085
v -3.549004 0.530374 1.660753
v -3.549004 0.140552 1.660753
v -3.711119 0.564211 2.106159
v -3.861318 0.564211 2.051491
v -3.725551 0.595445 2.145812
v -3.875751 0.595445 2.091144
v -3.913255 0.595445 2.077494
v -3.819843 0.657913 1.820848
v -3.913255 0.640293 2.077494
v -3.819843 0.702761 1.820848
v -3.726433 0.640293 1.564205
v -3.726433 0.595445 1.564205
v -3.715275 0.140552 2.117580
v -3.715276 0.530374 2.117580
v -3.553161 0.564211 1.672174
v -3.538730 0.595445 1.632524
v -3.632140 0.657913 1.889166
v -3.688049 0.640293 2.159462
v -3.688049 0.595445 2.159462
v -3.688929 0.595445 1.577856
v -3.703361 0.564211 1.617505
v -3.865475 0.140552 2.062912
v -3.865475 0.530374 2.062912
v -3.782339 0.657913 1.834498
v -3.501227 0.640293 1.646174
v -3.594637 0.702761 1.902816
v -3.529448 0.093701 1.635902
v -3.716270 0.093701 2.149190
v -3.529448 0.000000 1.635902
v -3.716270 0.000000 2.149190
v -3.501227 0.595445 1.646174
v -3.594637 0.657913 1.902816
vn -0.9369 0.0844 -0.3394
vn -0.9397 -0.0000 -0.3420
vn -0.9365 0.0844 -0.3402
vn -0.9363 0.0844 -0.3408
vn 0.3420 -0.0000 -0.9397
vn -0.2035 -0.8038 0.5591
vn 0.9397 -0.0000 0.3420
vn -0.3420 -0.0000 0.9397
vn 0.2035 -0.8038 -0.5591
vn 0.2035 -0.8037 -0.5591
vn -0.9195 0.2063 -0.3347
vn -0.9362 0.0844 -0.3413
vn -0.9372 0.0844 -0.3385
vn -0.9350 0.0844 -0.3444
vn 0.0763 0.9748 -0.2095
vn -0.0763 -0.9748 0.2095
vn 0.9195 0.2063 0.3347
vn 0.9362 0.0843 0.3413
vn 0.9372 0.0844 0.3385
vn 0.9350 0.0844 0.3444
vn -0.3272 0.2984 0.8966
vn -0.2879 0.5398 0.7910
vn -0.3259 0.2984 0.8971
vn -0.3289 0.2984 0.8960
vn -0.0000 -1.0000 -0.0000
vn 0.3219 0.3380 -0.8844
vn 0.0763 -0.9748 -0.2095
vn -0.0763 0.9748 0.2095
vn -0.3325 0.2334 0.9138
vn -0.3326 0.2334 0.9137
vn 0.3326 0.2334 -0.9137
vn -0.3219 0.3380 0.8844
vn 0.2879 0.5398 -0.7910
vn 0.3257 0.2983 -0.8972
vn 0.3270 0.2983 -0.8967
vn 0.3240 0.2983 -0.8978
vn 0.9369 0.0844 0.3394
vn 0.9365 0.0844 0.3402
vn 0.9363 0.0844 0.3408
vt 0.843750 0.051667
vt 0.843750 0.025000
vt 0.843750 0.175940
vt 0.843750 0.065000
vt 0.843750 0.194459
vt 0.843750 0.185570
vt 0.843750 0.207222
vt 0.843750 0.212237
vt 0.843750 0.225000
s 0
usemtl colormap.079
f 3/1/1 2/2/2 1/2/2
f 2/2/2 3/1/3 4/1/4
f 7/3/5 6/4/5 5/3/5
f 6/4/5 7/3/5 8/4/5
f 11/5/6 10/6/6 9/6/6
f 10/6/6 11/5/6 12/5/6
f 15/7/2 14/8/2 13/5/2
f 14/8/2 15/7/2 16/9/2
f 17/7/2 14/8/2 16/9/2
f 14/8/2 17/7/2 18/5/2
f 7/3/7 19/4/7 8/4/7
f 19/4/7 7/3/7 20/3/7
f 20/3/7 7/3/7 21/6/7
f 20/3/7 21/6/7 9/6/7
f 9/6/7 21/6/7 22/5/7
f 9/6/7 22/5/7 11/5/7
f 11/5/7 22/5/7 23/8/7
f 12/5/8 15/7/8 13/5/8
f 15/7/8 12/5/8 24/7/8
f 24/7/8 12/5/8 11/5/8
f 24/7/8 11/5/8 25/5/8
f 21/6/9 26/5/9 22/5/9
f 26/5/10 21/6/10 27/6/10
f 28/4/11 4/1/12 3/1/13
f 4/1/14 28/4/11 6/4/11
f 29/3/2 6/4/2 28/4/2
f 6/4/2 29/3/2 5/3/2
f 5/3/2 29/3/2 10/6/2
f 5/3/2 10/6/2 27/6/2
f 27/6/2 10/6/2 12/5/2
f 27/6/2 12/5/2 26/5/2
f 26/5/2 12/5/2 30/8/2
f 16/9/15 31/7/15 17/7/15
f 31/7/15 16/9/15 32/9/15
f 19/4/8 29/3/8 28/4/8
f 29/3/8 19/4/8 20/3/8
f 30/8/16 18/5/16 26/5/16
f 18/5/16 30/8/16 14/8/16
f 8/4/17 34/1/18 33/1/19
f 34/1/20 8/4/17 19/4/17
f 34/1/21 28/4/22 3/1/23
f 28/4/22 34/1/24 19/4/22
f 36/2/25 2/2/25 35/2/25
f 2/2/25 36/2/25 1/2/25
f 21/6/26 5/3/26 27/6/26
f 5/3/26 21/6/26 7/3/26
f 31/7/7 38/8/7 37/5/7
f 38/8/7 31/7/7 32/9/7
f 24/7/7 38/8/7 32/9/7
f 38/8/7 24/7/7 25/5/7
f 12/5/27 14/8/27 30/8/27
f 14/8/27 12/5/27 13/5/27
f 15/7/28 32/9/28 16/9/28
f 32/9/28 15/7/28 24/7/28
f 36/2/8 3/1/29 1/2/8
f 3/1/30 36/2/8 34/1/30
f 25/5/27 23/8/27 38/8/27
f 23/8/27 25/5/27 11/5/27
f 33/1/31 2/2/5 4/1/31
f 2/2/5 33/1/31 35/2/5
f 20/3/32 10/6/32 29/3/32
f 10/6/32 20/3/32 9/6/32
f 6/4/33 33/1/34 4/1/35
f 33/1/36 6/4/33 8/4/33
f 31/7/5 18/5/5 17/7/5
f 18/5/5 31/7/5 26/5/5
f 26/5/5 31/7/5 22/5/5
f 22/5/5 31/7/5 37/5/5
f 38/8/16 22/5/16 37/5/16
f 22/5/16 38/8/16 23/8/16
f 33/1/37 36/2/7 35/2/7
f 36/2/7 33/1/38 34/1/39
f 3/1/1 2/2/2 1/2/2
f 2/2/2 3/1/3 4/1/4
f 7/3/5 6/4/5 5/3/5
f 6/4/5 7/3/5 8/4/5
f 11/5/6 10/6/6 9/6/6
f 10/6/6 11/5/6 12/5/6
f 15/7/2 14/8/2 13/5/2
f 14/8/2 15/7/2 16/9/2
f 17/7/2 14/8/2 16/9/2
f 14/8/2 17/7/2 18/5/2
f 7/3/7 19/4/7 8/4/7
f 19/4/7 7/3/7 20/3/7
f 20/3/7 7/3/7 21/6/7
f 20/3/7 21/6/7 9/6/7
f 9/6/7 21/6/7 22/5/7
f 9/6/7 22/5/7 11/5/7
f 11/5/7 22/5/7 23/8/7
f 12/5/8 15/7/8 13/5/8
f 15/7/8 12/5/8 24/7/8
f 24/7/8 12/5/8 11/5/8
f 24/7/8 11/5/8 25/5/8
f 21/6/9 26/5/9 22/5/9
f 26/5/10 21/6/10 27/6/10
f 28/4/11 4/1/12 3/1/13
f 4/1/14 28/4/11 6/4/11
f 29/3/2 6/4/2 28/4/2
f 6/4/2 29/3/2 5/3/2
f 5/3/2 29/3/2 10/6/2
f 5/3/2 10/6/2 27/6/2
f 27/6/2 10/6/2 12/5/2
f 27/6/2 12/5/2 26/5/2
f 26/5/2 12/5/2 30/8/2
f 16/9/15 31/7/15 17/7/15
f 31/7/15 16/9/15 32/9/15
f 19/4/8 29/3/8 28/4/8
f 29/3/8 19/4/8 20/3/8
f 30/8/16 18/5/16 26/5/16
f 18/5/16 30/8/16 14/8/16
f 8/4/17 34/1/18 33/1/19
f 34/1/20 8/4/17 19/4/17
f 34/1/21 28/4/22 3/1/23
f 28/4/22 34/1/24 19/4/22
f 36/2/25 2/2/25 35/2/25
f 2/2/25 36/2/25 1/2/25
f 21/6/26 5/3/26 27/6/26
f 5/3/26 21/6/26 7/3/26
f 31/7/7 38/8/7 37/5/7
f 38/8/7 31/7/7 32/9/7
f 24/7/7 38/8/7 32/9/7
f 38/8/7 24/7/7 25/5/7
f 12/5/27 14/8/27 30/8/27
f 14/8/27 12/5/27 13/5/27
f 15/7/28 32/9/28 16/9/28
f 32/9/28 15/7/28 24/7/28
f 36/2/8 3/1/29 1/2/8
f 3/1/30 36/2/8 34/1/30
f 25/5/27 23/8/27 38/8/27
f 23/8/27 25/5/27 11/5/27
f 33/1/31 2/2/5 4/1/31
f 2/2/5 33/1/31 35/2/5
f 20/3/32 10/6/32 29/3/32
f 10/6/32 20/3/32 9/6/32
f 6/4/33 33/1/34 4/1/35
f 33/1/36 6/4/33 8/4/33
f 31/7/5 18/5/5 17/7/5
f 18/5/5 31/7/5 26/5/5
f 26/5/5 31/7/5 22/5/5
f 22/5/5 31/7/5 37/5/5
f 38/8/16 22/5/16 37/5/16
f 22/5/16 38/8/16 23/8/16
f 33/1/37 36/2/7 35/2/7
f 36/2/7 33/1/38 34/1/39
