# Blender 3.6.4
# www.blender.org
mtllib Gravestone_Flat_1.mtl
o Gravestone_Flat_1
v 11.319015 0.136000 -3.424210
v 10.870614 0.136000 -3.424210
v 11.307804 0.168000 -3.448150
v 10.881824 0.168000 -3.448150
v 10.858814 0.000000 -4.531010
v 10.858814 0.064000 -4.531010
v 10.858814 0.000000 -3.399010
v 10.858814 0.064000 -3.399010
v 11.319015 0.096000 -3.424210
v 10.870614 0.096000 -3.424210
v 10.870614 0.096000 -4.505810
v 10.870614 0.136000 -4.505810
v 11.330814 0.000000 -4.531010
v 11.330814 0.064000 -4.531010
v 11.319015 0.136000 -4.505810
v 11.307804 0.168000 -4.481870
v 11.094814 0.370000 -4.481870
v 11.094814 0.370000 -3.448150
v 10.881824 0.272000 -4.481870
v 10.881824 0.272000 -3.448150
v 11.307804 0.272000 -3.448150
v 11.330814 0.064000 -3.399010
v 11.319015 0.096000 -4.505810
v 10.881824 0.168000 -4.481870
v 11.307804 0.272000 -4.481870
v 11.330814 0.000000 -3.399010
vn -0.0000 0.5990 0.8007
vn -1.0000 -0.0000 -0.0000
vn -0.9914 0.1310 -0.0000
vn -0.0000 -0.0000 1.0000
vn -0.9914 0.1309 -0.0000
vn -0.9382 0.3460 -0.0000
vn -0.0000 0.2949 -0.9555
vn -0.0000 -0.0000 -1.0000
vn 0.9438 0.3306 -0.0000
vn -0.4180 0.9085 -0.0000
vn 0.9382 0.3460 -0.0000
vn 0.9914 0.1309 -0.0000
vn -0.0000 0.6187 0.7856
vn -0.0000 0.2949 0.9555
vn 1.0000 -0.0000 -0.0000
vn -0.0000 0.6187 -0.7856
vn 0.4180 0.9085 -0.0000
vn -0.9438 0.3306 -0.0000
vn -0.0000 0.5990 -0.8007
vn -0.0000 -1.0000 -0.0000
vn 0.9914 0.1310 -0.0000
vt 0.843750 0.115811
vt 0.843750 0.098514
vt 0.843750 0.025000
vt 0.843750 0.059595
vt 0.843750 0.076892
vt 0.843750 0.172027
vt 0.843750 0.225000
s 0
usemtl colormap.085
f 3/1/1 2/2/1 1/2/1
f 2/2/1 3/1/1 4/1/1
f 7/3/2 6/4/3 5/3/2
f 6/4/3 7/3/2 8/4/3
f 1/2/4 10/5/4 9/5/4
f 10/5/4 1/2/4 2/2/4
f 8/4/5 11/5/6 6/4/5
f 11/5/6 8/4/5 10/5/6
f 10/5/2 12/2/2 11/5/2
f 12/2/2 10/5/2 2/2/2
f 6/4/7 13/3/8 5/3/8
f 13/3/8 6/4/7 14/4/7
f 16/1/9 1/2/9 15/2/9
f 1/2/9 16/1/9 3/1/9
f 19/6/10 18/7/10 17/7/10
f 18/7/10 19/6/10 20/6/10
f 21/6/4 4/1/4 3/1/4
f 4/1/4 21/6/4 20/6/4
f 20/6/4 21/6/4 18/7/4
f 23/5/11 22/4/12 14/4/12
f 22/4/12 23/5/11 9/5/11
f 9/5/13 8/4/14 22/4/14
f 8/4/14 9/5/13 10/5/13
f 19/6/8 16/1/8 24/1/8
f 16/1/8 19/6/8 25/6/8
f 25/6/8 19/6/8 17/7/8
f 1/2/15 23/5/15 15/2/15
f 23/5/15 1/2/15 9/5/15
f 4/1/2 19/6/2 24/1/2
f 19/6/2 4/1/2 20/6/2
f 11/5/16 14/4/7 6/4/7
f 14/4/7 11/5/16 23/5/16
f 17/7/17 21/6/17 25/6/17
f 21/6/17 17/7/17 18/7/17
f 2/2/18 24/1/18 12/2/18
f 24/1/18 2/2/18 4/1/18
f 24/1/19 15/2/19 12/2/19
f 15/2/19 24/1/19 16/1/19
f 7/3/20 13/3/20 26/3/20
f 13/3/20 7/3/20 5/3/20
f 12/2/8 23/5/8 11/5/8
f 23/5/8 12/2/8 15/2/8
f 21/6/15 16/1/15 25/6/15
f 16/1/15 21/6/15 3/1/15
f 22/4/14 7/3/4 26/3/4
f 7/3/4 22/4/14 8/4/14
f 22/4/21 13/3/15 14/4/21
f 13/3/15 22/4/21 26/3/15
f 3/1/1 2/2/1 1/2/1
f 2/2/1 3/1/1 4/1/1
f 7/3/2 6/4/3 5/3/2
f 6/4/3 7/3/2 8/4/3
f 1/2/4 10/5/4 9/5/4
f 10/5/4 1/2/4 2/2/4
f 8/4/5 11/5/6 6/4/5
f 11/5/6 8/4/5 10/5/6
f 10/5/2 12/2/2 11/5/2
f 12/2/2 10/5/2 2/2/2
f 6/4/7 13/3/8 5/3/8
f 13/3/8 6/4/7 14/4/7
f 16/1/9 1/2/9 15/2/9
f 1/2/9 16/1/9 3/1/9
f 19/6/10 18/7/10 17/7/10
f 18/7/10 19/6/10 20/6/10
f 21/6/4 4/1/4 3/1/4
f 4/1/4 21/6/4 20/6/4
f 20/6/4 21/6/4 18/7/4
f 23/5/11 22/4/12 14/4/12
f 22/4/12 23/5/11 9/5/11
f 9/5/13 8/4/14 22/4/14
f 8/4/14 9/5/13 10/5/13
f 19/6/8 16/1/8 24/1/8
f 16/1/8 19/6/8 25/6/8
f 25/6/8 19/6/8 17/7/8
f 1/2/15 23/5/15 15/2/15
f 23/5/15 1/2/15 9/5/15
f 4/1/2 19/6/2 24/1/2
f 19/6/2 4/1/2 20/6/2
f 11/5/16 14/4/7 6/4/7
f 14/4/7 11/5/16 23/5/16
f 17/7/17 21/6/17 25/6/17
f 21/6/17 17/7/17 18/7/17
f 2/2/18 24/1/18 12/2/18
f 24/1/18 2/2/18 4/1/18
f 24/1/19 15/2/19 12/2/19
f 15/2/19 24/1/19 16/1/19
f 7/3/20 13/3/20 26/3/20
f 13/3/20 7/3/20 5/3/20
f 12/2/8 23/5/8 11/5/8
f 23/5/8 12/2/8 15/2/8
f 21/6/15 16/1/15 25/6/15
f 16/1/15 21/6/15 3/1/15
f 22/4/14 7/3/4 26/3/4
f 7/3/4 22/4/14 8/4/14
f 22/4/21 13/3/15 14/4/21
f 13/3/15 22/4/21 26/3/15
