# Blender 3.6.4
# www.blender.org
mtllib Gravestone_Bevel_3.mtl
o Gravestone_Bevel_3
v 8.405534 0.565832 1.190455
v 8.384780 0.535181 1.280352
v 8.391674 0.565832 1.250487
v 8.399706 0.499479 1.215700
v 8.399706 0.209804 1.215700
v 8.384780 0.143450 1.280352
v 8.477418 0.209804 0.879091
v 8.492344 0.143450 0.814439
v 8.492344 0.535181 0.814439
v 8.477418 0.499479 0.879091
v 8.460136 0.499479 0.953947
v 8.423342 0.604896 1.113321
v 8.416987 0.499479 1.140845
v 8.409959 0.639243 1.171288
v 8.429774 0.633493 1.085459
v 8.438561 0.643960 1.047396
v 8.422049 0.692984 1.118924
v 8.471589 0.565832 0.904337
v 8.485449 0.565832 0.844305
v 8.453782 0.604896 0.981470
v 8.467165 0.639243 0.923503
v 8.447350 0.633493 1.009332
v 8.455075 0.692984 0.975867
v 8.438561 0.712654 1.047396
v 8.213075 0.565832 1.209254
v 8.206180 0.535181 1.239119
v 8.226934 0.565832 1.149222
v 8.238387 0.499479 1.099612
v 8.244741 0.604896 1.072088
v 8.221106 0.499479 1.174467
v 8.231359 0.639243 1.130055
v 8.251174 0.633493 1.044226
v 8.221106 0.209804 1.174467
v 8.206180 0.143450 1.239119
v 8.313745 0.143450 0.773206
v 8.298818 0.209804 0.837858
v 8.259962 0.643960 1.006163
v 8.313745 0.535181 0.773206
v 8.298818 0.499479 0.837858
v 8.281536 0.499479 0.912713
v 8.243448 0.692984 1.077691
v 8.292990 0.565832 0.863104
v 8.306849 0.565832 0.803072
v 8.275182 0.604896 0.940237
v 8.288565 0.639243 0.882270
v 8.268749 0.633493 0.968099
v 8.276476 0.692984 0.934634
v 8.259962 0.712654 1.006163
v 8.417686 0.209804 0.865301
v 8.339973 0.209804 1.201910
v 8.417686 0.499479 0.865301
v 8.400404 0.499479 0.940156
v 8.394050 0.604896 0.967680
v 8.387617 0.633493 0.995542
v 8.378829 0.643960 1.033605
v 8.370042 0.633493 1.071669
v 8.363609 0.604896 1.099531
v 8.357255 0.499479 1.127054
v 8.339973 0.499479 1.201910
v 8.280838 0.499479 1.188257
v 8.280838 0.209804 1.188257
v 8.298120 0.499479 1.113402
v 8.304474 0.604896 1.085878
v 8.310906 0.633493 1.058016
v 8.319695 0.643960 1.019953
v 8.328482 0.633493 0.981890
v 8.334914 0.604896 0.954028
v 8.341269 0.499479 0.926504
v 8.358550 0.499479 0.851649
v 8.358550 0.209804 0.851649
v 8.529105 0.000000 0.791469
v 8.290772 0.000000 0.736445
v 8.407751 0.000000 1.317113
v 8.169418 0.000000 1.262089
v 8.169418 0.095634 1.262089
v 8.290772 0.095634 0.736445
v 8.529105 0.095634 0.791469
v 8.407751 0.095634 1.317113
vn 0.9744 -0.0000 0.2250
vn -0.9744 -0.0000 -0.2250
vn -0.0861 0.9239 0.3729
vn -0.0000 1.0000 -0.0000
vn 0.1948 0.5000 -0.8438
vn 0.2173 0.2588 -0.9412
vn 0.1125 0.8660 -0.4872
vn 0.1949 0.5000 -0.8438
vn -0.1125 0.8660 0.4872
vn -0.1948 0.5000 0.8438
vn -0.1949 0.5000 0.8438
vn -0.2173 0.2588 0.9412
vn 0.0861 0.9239 -0.3729
vn -0.2250 -0.0000 0.9744
vn -0.0000 -1.0000 -0.0000
vn -0.2173 -0.2588 0.9412
vn -0.1948 -0.5000 0.8438
vn -0.1125 -0.8660 0.4872
vn 0.1125 -0.8660 -0.4872
vn 0.1948 -0.5000 -0.8438
vn 0.2173 -0.2588 -0.9412
vn 0.2250 -0.0000 -0.9744
vn 0.2078 0.3827 -0.9002
vn 0.0860 0.9239 -0.3729
vn -0.2078 0.3827 0.9002
vn -0.0860 0.9239 0.3729
vn -0.9486 0.2283 -0.2190
vn 0.8203 0.5397 0.1894
vn 0.9486 0.2283 0.2190
vn -0.2190 0.2283 0.9487
vn -0.1894 0.5397 0.8203
vn -0.2190 0.2283 0.9486
vn 0.1894 0.5397 -0.8203
vn 0.2190 0.2283 -0.9486
vn 0.2190 0.2283 -0.9487
vn -0.8203 0.5397 -0.1894
vt 0.843750 0.183796
vt 0.843750 0.175194
vt 0.843750 0.165174
vt 0.843750 0.083880
vt 0.843750 0.065258
vt 0.843750 0.194759
vt 0.843750 0.204398
vt 0.843750 0.202784
vt 0.843750 0.205722
vt 0.843750 0.219480
vt 0.843750 0.225000
vt 0.093750 0.025000
vt 0.093750 0.051839
vt 0.093750 0.065258
vt 0.093750 0.165174
vt 0.093750 0.083880
vt 0.093750 0.194759
vt 0.093750 0.202784
vt 0.093750 0.205722
s 0
usemtl colormap.052
f 3/1/1 2/2/1 1/1/1
f 4/3/1 1/1/1 2/2/1
f 2/2/1 5/4/1 4/3/1
f 6/5/1 5/4/1 2/2/1
f 5/4/1 6/5/1 7/4/1
f 8/5/1 7/4/1 6/5/1
f 7/4/1 8/5/1 9/2/1
f 7/4/1 9/2/1 10/3/1
f 10/3/1 9/2/1 11/3/1
f 4/3/1 12/6/1 1/1/1
f 12/6/1 4/3/1 13/3/1
f 1/1/1 12/6/1 14/7/1
f 14/7/1 12/6/1 15/8/1
f 14/7/1 15/8/1 16/9/1
f 14/7/1 16/9/1 17/10/1
f 11/3/1 9/2/1 18/1/1
f 18/1/1 9/2/1 19/1/1
f 11/3/1 18/1/1 20/6/1
f 20/6/1 18/1/1 21/7/1
f 20/6/1 21/7/1 22/8/1
f 22/8/1 21/7/1 16/9/1
f 16/9/1 21/7/1 23/10/1
f 17/10/1 16/9/1 23/10/1
f 17/10/1 23/10/1 24/11/1
f 27/1/2 26/2/2 25/1/2
f 28/3/2 26/2/2 27/1/2
f 28/3/2 27/1/2 29/6/2
f 30/3/2 26/2/2 28/3/2
f 29/6/2 27/1/2 31/7/2
f 29/6/2 31/7/2 32/8/2
f 33/4/2 26/2/2 30/3/2
f 33/4/2 34/5/2 26/2/2
f 34/5/2 33/4/2 35/5/2
f 36/4/2 35/5/2 33/4/2
f 32/8/2 31/7/2 37/9/2
f 35/5/2 36/4/2 38/2/2
f 38/2/2 36/4/2 39/3/2
f 38/2/2 39/3/2 40/3/2
f 37/9/2 31/7/2 41/10/2
f 38/2/2 40/3/2 42/1/2
f 38/2/2 42/1/2 43/1/2
f 42/1/2 40/3/2 44/6/2
f 42/1/2 44/6/2 45/7/2
f 45/7/2 44/6/2 46/8/2
f 45/7/2 46/8/2 37/9/2
f 45/7/2 37/9/2 47/10/2
f 47/10/2 37/9/2 41/10/2
f 47/10/2 41/10/2 48/11/2
f 25/1/3 1/1/4 27/1/4
f 1/1/4 25/1/3 3/1/3
f 21/7/5 42/1/6 45/7/5
f 42/1/6 21/7/5 18/1/6
f 47/10/7 21/7/5 45/7/8
f 21/7/5 47/10/7 23/10/7
f 48/11/4 23/10/7 47/10/7
f 23/10/7 48/11/4 24/11/4
f 41/10/9 24/11/4 48/11/4
f 24/11/4 41/10/9 17/10/9
f 31/7/10 17/10/9 41/10/9
f 17/10/9 31/7/10 14/7/11
f 1/1/12 31/7/10 27/1/12
f 31/7/10 1/1/12 14/7/10
f 42/1/4 19/1/13 43/1/13
f 19/1/13 42/1/4 18/1/4
f 50/4/4 7/4/4 49/4/4
f 7/4/4 50/4/4 5/4/4
f 7/4/14 51/3/14 49/4/14
f 51/3/14 7/4/14 10/3/14
f 11/3/15 51/3/15 10/3/15
f 51/3/15 11/3/15 52/3/15
f 11/3/16 53/6/17 52/3/16
f 53/6/17 11/3/16 20/6/17
f 22/8/18 53/6/17 20/6/17
f 53/6/17 22/8/18 54/8/18
f 16/9/15 54/8/18 22/8/18
f 54/8/18 16/9/15 55/9/15
f 15/8/19 55/9/15 16/9/15
f 55/9/15 15/8/19 56/8/19
f 15/8/19 57/6/20 56/8/19
f 57/6/20 15/8/19 12/6/20
f 12/6/20 58/3/21 57/6/20
f 58/3/21 12/6/20 13/3/21
f 4/3/15 58/3/15 13/3/15
f 58/3/15 4/3/15 59/3/15
f 4/3/22 50/4/22 59/3/22
f 50/4/22 4/3/22 5/4/22
f 60/3/22 33/4/22 30/3/22
f 33/4/22 60/3/22 61/4/22
f 60/3/15 28/3/15 62/3/15
f 28/3/15 60/3/15 30/3/15
f 63/6/20 28/3/21 29/6/20
f 28/3/21 63/6/20 62/3/21
f 63/6/20 32/8/19 64/8/19
f 32/8/19 63/6/20 29/6/20
f 64/8/19 37/9/15 65/9/15
f 37/9/15 64/8/19 32/8/19
f 65/9/15 46/8/18 66/8/18
f 46/8/18 65/9/15 37/9/15
f 66/8/18 44/6/17 67/6/17
f 44/6/17 66/8/18 46/8/18
f 68/3/16 44/6/17 40/3/16
f 44/6/17 68/3/16 67/6/17
f 68/3/15 39/3/15 69/3/15
f 39/3/15 68/3/15 40/3/15
f 70/4/14 39/3/14 36/4/14
f 39/3/14 70/4/14 69/3/14
f 33/4/4 70/4/4 36/4/4
f 70/4/4 33/4/4 61/4/4
f 9/2/23 35/5/22 38/2/23
f 35/5/22 9/2/23 8/5/22
f 43/1/13 9/2/23 38/2/23
f 9/2/23 43/1/13 19/1/24
f 6/5/14 26/2/25 34/5/14
f 26/2/25 6/5/14 2/2/25
f 26/2/25 3/1/3 25/1/26
f 3/1/3 26/2/25 2/2/25
f 73/12/15 72/12/15 71/12/15
f 72/12/15 73/12/15 74/12/15
f 75/13/27 72/12/2 74/12/2
f 72/12/2 75/13/27 76/13/27
f 8/14/28 78/13/29 77/13/29
f 78/13/29 8/14/28 6/14/28
f 78/13/30 34/14/31 75/13/30
f 34/14/31 78/13/32 6/14/31
f 73/12/14 75/13/32 74/12/14
f 75/13/32 73/12/14 78/13/32
f 35/14/33 77/13/34 76/13/34
f 77/13/35 35/14/33 8/14/33
f 34/14/36 76/13/27 75/13/27
f 76/13/27 34/14/36 35/14/36
f 77/13/29 73/12/1 71/12/1
f 73/12/1 77/13/29 78/13/29
f 77/13/34 72/12/22 76/13/34
f 72/12/22 77/13/34 71/12/22
f 51/15/1 50/16/1 49/16/1
f 50/16/1 51/15/1 58/15/1
f 59/15/1 50/16/1 58/15/1
f 58/15/4 51/15/4 52/15/4
f 58/15/1 52/15/1 57/17/1
f 57/17/1 52/15/1 53/17/1
f 57/17/1 53/17/1 54/18/1
f 57/17/1 54/18/1 56/18/1
f 56/18/1 54/18/1 55/19/1
f 60/15/2 70/16/2 61/16/2
f 70/16/2 60/15/2 69/15/2
f 69/15/15 60/15/15 62/15/15
f 69/15/15 62/15/15 68/15/15
f 68/15/2 62/15/2 63/17/2
f 68/15/2 63/17/2 67/17/2
f 67/17/2 63/17/2 64/18/2
f 67/17/2 64/18/2 66/18/2
f 66/18/2 64/18/2 65/19/2
f 3/1/1 2/2/1 1/1/1
f 4/3/1 1/1/1 2/2/1
f 2/2/1 5/4/1 4/3/1
f 6/5/1 5/4/1 2/2/1
f 5/4/1 6/5/1 7/4/1
f 8/5/1 7/4/1 6/5/1
f 7/4/1 8/5/1 9/2/1
f 7/4/1 9/2/1 10/3/1
f 10/3/1 9/2/1 11/3/1
f 4/3/1 12/6/1 1/1/1
f 12/6/1 4/3/1 13/3/1
f 1/1/1 12/6/1 14/7/1
f 14/7/1 12/6/1 15/8/1
f 14/7/1 15/8/1 16/9/1
f 14/7/1 16/9/1 17/10/1
f 11/3/1 9/2/1 18/1/1
f 18/1/1 9/2/1 19/1/1
f 11/3/1 18/1/1 20/6/1
f 20/6/1 18/1/1 21/7/1
f 20/6/1 21/7/1 22/8/1
f 22/8/1 21/7/1 16/9/1
f 16/9/1 21/7/1 23/10/1
f 17/10/1 16/9/1 23/10/1
f 17/10/1 23/10/1 24/11/1
f 27/1/2 26/2/2 25/1/2
f 28/3/2 26/2/2 27/1/2
f 28/3/2 27/1/2 29/6/2
f 30/3/2 26/2/2 28/3/2
f 29/6/2 27/1/2 31/7/2
f 29/6/2 31/7/2 32/8/2
f 33/4/2 26/2/2 30/3/2
f 33/4/2 34/5/2 26/2/2
f 34/5/2 33/4/2 35/5/2
f 36/4/2 35/5/2 33/4/2
f 32/8/2 31/7/2 37/9/2
f 35/5/2 36/4/2 38/2/2
f 38/2/2 36/4/2 39/3/2
f 38/2/2 39/3/2 40/3/2
f 37/9/2 31/7/2 41/10/2
f 38/2/2 40/3/2 42/1/2
f 38/2/2 42/1/2 43/1/2
f 42/1/2 40/3/2 44/6/2
f 42/1/2 44/6/2 45/7/2
f 45/7/2 44/6/2 46/8/2
f 45/7/2 46/8/2 37/9/2
f 45/7/2 37/9/2 47/10/2
f 47/10/2 37/9/2 41/10/2
f 47/10/2 41/10/2 48/11/2
f 25/1/3 1/1/4 27/1/4
f 1/1/4 25/1/3 3/1/3
f 21/7/5 42/1/6 45/7/5
f 42/1/6 21/7/5 18/1/6
f 47/10/7 21/7/5 45/7/8
f 21/7/5 47/10/7 23/10/7
f 48/11/4 23/10/7 47/10/7
f 23/10/7 48/11/4 24/11/4
f 41/10/9 24/11/4 48/11/4
f 24/11/4 41/10/9 17/10/9
f 31/7/10 17/10/9 41/10/9
f 17/10/9 31/7/10 14/7/11
f 1/1/12 31/7/10 27/1/12
f 31/7/10 1/1/12 14/7/10
f 42/1/4 19/1/13 43/1/13
f 19/1/13 42/1/4 18/1/4
f 50/4/4 7/4/4 49/4/4
f 7/4/4 50/4/4 5/4/4
f 7/4/14 51/3/14 49/4/14
f 51/3/14 7/4/14 10/3/14
f 11/3/15 51/3/15 10/3/15
f 51/3/15 11/3/15 52/3/15
f 11/3/16 53/6/17 52/3/16
f 53/6/17 11/3/16 20/6/17
f 22/8/18 53/6/17 20/6/17
f 53/6/17 22/8/18 54/8/18
f 16/9/15 54/8/18 22/8/18
f 54/8/18 16/9/15 55/9/15
f 15/8/19 55/9/15 16/9/15
f 55/9/15 15/8/19 56/8/19
f 15/8/19 57/6/20 56/8/19
f 57/6/20 15/8/19 12/6/20
f 12/6/20 58/3/21 57/6/20
f 58/3/21 12/6/20 13/3/21
f 4/3/15 58/3/15 13/3/15
f 58/3/15 4/3/15 59/3/15
f 4/3/22 50/4/22 59/3/22
f 50/4/22 4/3/22 5/4/22
f 60/3/22 33/4/22 30/3/22
f 33/4/22 60/3/22 61/4/22
f 60/3/15 28/3/15 62/3/15
f 28/3/15 60/3/15 30/3/15
f 63/6/20 28/3/21 29/6/20
f 28/3/21 63/6/20 62/3/21
f 63/6/20 32/8/19 64/8/19
f 32/8/19 63/6/20 29/6/20
f 64/8/19 37/9/15 65/9/15
f 37/9/15 64/8/19 32/8/19
f 65/9/15 46/8/18 66/8/18
f 46/8/18 65/9/15 37/9/15
f 66/8/18 44/6/17 67/6/17
f 44/6/17 66/8/18 46/8/18
f 68/3/16 44/6/17 40/3/16
f 44/6/17 68/3/16 67/6/17
f 68/3/15 39/3/15 69/3/15
f 39/3/15 68/3/15 40/3/15
f 70/4/14 39/3/14 36/4/14
f 39/3/14 70/4/14 69/3/14
f 33/4/4 70/4/4 36/4/4
f 70/4/4 33/4/4 61/4/4
f 9/2/23 35/5/22 38/2/23
f 35/5/22 9/2/23 8/5/22
f 43/1/13 9/2/23 38/2/23
f 9/2/23 43/1/13 19/1/24
f 6/5/14 26/2/25 34/5/14
f 26/2/25 6/5/14 2/2/25
f 26/2/25 3/1/3 25/1/26
f 3/1/3 26/2/25 2/2/25
f 73/12/15 72/12/15 71/12/15
f 72/12/15 73/12/15 74/12/15
f 75/13/27 72/12/2 74/12/2
f 72/12/2 75/13/27 76/13/27
f 8/14/28 78/13/29 77/13/29
f 78/13/29 8/14/28 6/14/28
f 78/13/30 34/14/31 75/13/30
f 34/14/31 78/13/32 6/14/31
f 73/12/14 75/13/32 74/12/14
f 75/13/32 73/12/14 78/13/32
f 35/14/33 77/13/34 76/13/34
f 77/13/35 35/14/33 8/14/33
f 34/14/36 76/13/27 75/13/27
f 76/13/27 34/14/36 35/14/36
f 77/13/29 73/12/1 71/12/1
f 73/12/1 77/13/29 78/13/29
f 77/13/34 72/12/22 76/13/34
f 72/12/22 77/13/34 71/12/22
f 51/15/1 50/16/1 49/16/1
f 50/16/1 51/15/1 58/15/1
f 59/15/1 50/16/1 58/15/1
f 58/15/4 51/15/4 52/15/4
f 58/15/1 52/15/1 57/17/1
f 57/17/1 52/15/1 53/17/1
f 57/17/1 53/17/1 54/18/1
f 57/17/1 54/18/1 56/18/1
f 56/18/1 54/18/1 55/19/1
f 60/15/2 70/16/2 61/16/2
f 70/16/2 60/15/2 69/15/2
f 69/15/15 60/15/15 62/15/15
f 69/15/15 62/15/15 68/15/15
f 68/15/2 62/15/2 63/17/2
f 68/15/2 63/17/2 67/17/2
f 67/17/2 63/17/2 64/18/2
f 67/17/2 64/18/2 66/18/2
f 66/18/2 64/18/2 65/19/2
