# Blender 3.6.4
# www.blender.org
mtllib Gravestone_Debris_2.mtl
o Gravestone_Debris_2
v -6.307843 0.078000 -8.136763
v -6.159458 0.078000 -8.118544
v -6.302296 0.117000 -8.114470
v -6.170232 0.117000 -8.098255
v -6.670917 0.166277 -8.288913
v -6.670917 0.000000 -8.288913
v -6.638296 0.166277 -8.270756
v -6.638296 0.000000 -8.270756
v -6.638296 0.133055 -8.270756
v -6.344596 0.148512 -7.769958
v -6.320328 0.148512 -7.967612
v -6.334468 0.179112 -7.852444
v -6.302296 0.251017 -8.114470
v -6.344596 0.117000 -7.769958
v -6.307843 0.000000 -8.136763
v -6.159458 0.000000 -8.118544
v -6.860587 0.000000 -7.948142
v -6.860587 0.166277 -7.948142
v -6.827967 0.000000 -7.929985
v -6.827967 0.166277 -7.929985
v -6.827967 0.133055 -7.929985
v -6.206986 0.000000 -7.731451
v -6.206986 0.078000 -7.731451
v -6.630229 0.133055 -8.231788
v -6.630229 0.000000 -8.231788
v -6.601398 0.133055 -8.225670
v -6.601398 0.000000 -8.225670
v -6.778568 0.133055 -8.125660
v -6.778568 0.166277 -8.125660
v -6.417354 0.000000 -7.953895
v -6.500522 0.000000 -7.867391
v -6.417354 0.133055 -7.953895
v -6.500522 0.133055 -7.867391
v -6.434960 0.000000 -8.133032
v -6.434960 0.133055 -8.133032
v -6.811188 0.000000 -8.143817
v -6.811188 0.166277 -8.143817
v -6.790596 0.000000 -7.943665
v -6.790596 0.133055 -7.943665
v -6.212533 0.117000 -7.753743
v -6.188264 0.148512 -7.951396
v -6.202405 0.179112 -7.836228
v -6.355372 0.078000 -7.749670
v -6.170232 0.251017 -8.098255
v -6.212533 0.148512 -7.753743
v -6.355372 0.000000 -7.749670
v -6.770205 0.000000 -7.922384
v -6.770205 0.133055 -7.922384
v -6.514201 0.000000 -7.779894
v -6.514201 0.133055 -7.779894
vn 0.1068 0.4819 -0.8697
vn 0.4863 -0.0000 -0.8738
vn 0.8738 -0.0000 0.4863
vn -0.9925 -0.0000 -0.1219
vn -0.9856 0.1178 -0.1210
vn 0.1219 -0.0000 -0.9925
vn -0.4863 -0.0000 0.8738
vn -0.8738 -0.0000 -0.4863
vn -0.0000 -1.0000 -0.0000
vn 0.9890 0.0844 0.1214
vn 0.9925 -0.0000 0.1219
vn 0.3509 -0.0000 -0.9364
vn 0.2076 -0.0000 -0.9782
vn 0.7190 -0.0000 0.6951
vn 0.7209 -0.0000 0.6931
vn 0.9952 -0.0000 -0.0978
vn -0.7190 -0.0000 -0.6951
vn 0.3437 -0.0000 0.9391
vn 0.9856 0.1178 0.1210
vn 0.9890 0.0843 0.1214
vn 0.0311 0.9669 -0.2531
vn -0.1068 0.4819 0.8697
vn 0.9792 -0.0000 -0.2027
vn -0.1219 -0.0000 0.9925
vn 0.9696 -0.0000 0.2448
vn -0.9890 0.0844 -0.1214
vn -0.6110 -0.0000 0.7916
vn -0.7220 -0.0000 0.6918
vn -0.0000 1.0000 -0.0000
vn -0.0421 0.9384 0.3430
vn -0.9696 -0.0000 -0.2448
vn -0.0694 0.8220 0.5652
vn 0.9880 -0.0000 0.1545
vn 0.3508 -0.0000 -0.9364
vn -0.0000 -0.0000 -0.0000
vt 0.843750 0.118221
vt 0.843750 0.087147
vt 0.843750 0.157483
vt 0.843750 0.025000
vt 0.843750 0.131013
vt 0.843750 0.167709
vt 0.843750 0.143328
vt 0.843750 0.225000
s 0
usemtl colormap.070
f 3/1/1 2/2/1 1/2/1
f 2/2/1 3/1/1 4/1/1
f 7/3/2 6/4/2 5/3/2
f 6/4/2 7/3/2 8/4/2
f 8/4/3 7/3/3 9/5/3
f 12/6/4 11/7/4 10/7/4
f 3/1/5 10/7/4 11/7/4
f 3/1/5 11/7/4 13/8/4
f 10/7/4 3/1/5 14/1/5
f 2/2/6 15/4/6 1/2/6
f 15/4/6 2/2/6 16/4/6
f 19/4/7 18/3/7 17/4/7
f 18/3/7 19/4/7 20/3/7
f 20/3/8 19/4/9 21/5/4
f 2/2/10 22/4/11 16/4/11
f 22/4/11 2/2/10 23/2/10
f 26/5/12 25/4/13 24/5/13
f 25/4/13 26/5/12 27/4/12
f 7/3/14 28/5/14 9/5/14
f 28/5/14 7/3/14 29/3/14
f 32/5/15 31/4/15 30/4/15
f 31/4/15 32/5/15 33/5/15
f 35/5/16 30/4/16 34/4/16
f 30/4/16 35/5/16 32/5/16
f 37/3/17 6/4/17 36/4/17
f 6/4/17 37/3/17 5/3/17
f 38/4/18 21/5/18 19/4/18
f 21/5/18 38/4/18 39/5/18
f 4/1/19 23/2/20 2/2/20
f 23/2/20 4/1/19 40/1/19
f 12/6/21 41/7/21 11/7/21
f 41/7/21 12/6/21 42/6/21
f 23/2/22 14/1/22 43/2/22
f 14/1/22 23/2/22 40/1/22
f 9/5/23 25/4/23 8/4/23
f 25/4/23 9/5/23 24/5/23
f 41/7/11 4/1/19 44/8/11
f 4/1/19 41/7/11 40/1/19
f 41/7/11 45/7/11 40/1/19
f 45/7/11 41/7/11 42/6/11
f 22/4/24 43/2/24 46/4/24
f 43/2/24 22/4/24 23/2/24
f 29/3/25 21/5/25 28/5/25
f 21/5/25 29/3/25 20/3/25
f 40/1/24 10/7/24 14/1/24
f 10/7/24 40/1/24 45/7/24
f 14/1/5 1/2/26 43/2/26
f 1/2/26 14/1/5 3/1/5
f 49/4/7 48/5/27 47/4/27
f 48/5/27 49/4/7 50/5/7
f 47/4/27 39/5/28 38/4/28
f 39/5/28 47/4/27 48/5/27
f 44/8/6 3/1/6 13/8/6
f 3/1/6 44/8/6 4/1/6
f 37/3/29 7/3/29 5/3/29
f 7/3/29 37/3/29 29/3/29
f 29/3/29 37/3/29 18/3/29
f 29/3/29 18/3/29 20/3/29
f 43/2/26 15/4/4 46/4/4
f 15/4/4 43/2/26 1/2/26
f 10/7/30 42/6/30 12/6/30
f 42/6/30 10/7/30 45/7/30
f 47/4/9 31/4/9 49/4/9
f 38/4/9 31/4/9 47/4/9
f 31/4/9 38/4/9 30/4/9
f 17/4/9 30/4/9 38/4/9
f 17/4/9 38/4/9 19/4/9
f 36/4/9 30/4/9 17/4/9
f 36/4/9 34/4/9 30/4/9
f 36/4/9 27/4/9 34/4/9
f 36/4/9 25/4/9 27/4/9
f 36/4/9 8/4/9 25/4/9
f 8/4/9 36/4/9 6/4/9
f 22/4/9 15/4/9 16/4/9
f 15/4/9 22/4/9 46/4/9
f 18/3/31 36/4/31 17/4/31
f 36/4/31 18/3/31 37/3/31
f 11/7/32 44/8/32 13/8/32
f 44/8/32 11/7/32 41/7/32
f 28/5/29 24/5/29 9/5/29
f 24/5/29 28/5/29 26/5/29
f 26/5/29 28/5/29 35/5/29
f 35/5/29 28/5/29 32/5/29
f 32/5/29 28/5/29 39/5/29
f 39/5/29 28/5/29 21/5/29
f 39/5/29 33/5/29 32/5/29
f 33/5/29 39/5/29 48/5/29
f 33/5/29 48/5/29 50/5/29
f 33/5/33 49/4/33 31/4/33
f 49/4/33 33/5/33 50/5/33
f 35/5/2 27/4/34 26/5/34
f 27/4/34 35/5/2 34/4/2
f 3/1/1 2/2/1 1/2/1
f 2/2/1 3/1/1 4/1/1
f 7/3/2 6/4/2 5/3/2
f 6/4/2 7/3/2 8/4/2
f 8/4/3 7/3/3 9/5/3
f 12/6/4 11/7/4 10/7/4
f 3/1/5 10/7/4 11/7/4
f 3/1/5 11/7/4 13/8/4
f 10/7/4 3/1/5 14/1/5
f 2/2/6 15/4/6 1/2/6
f 15/4/6 2/2/6 16/4/6
f 19/4/7 18/3/7 17/4/7
f 18/3/7 19/4/7 20/3/7
f 20/3/35 19/4/35 21/5/4
f 2/2/10 22/4/11 16/4/11
f 22/4/11 2/2/10 23/2/10
f 26/5/12 25/4/13 24/5/13
f 25/4/13 26/5/12 27/4/12
f 7/3/14 28/5/14 9/5/14
f 28/5/14 7/3/14 29/3/14
f 32/5/15 31/4/15 30/4/15
f 31/4/15 32/5/15 33/5/15
f 35/5/16 30/4/16 34/4/16
f 30/4/16 35/5/16 32/5/16
f 37/3/17 6/4/17 36/4/17
f 6/4/17 37/3/17 5/3/17
f 38/4/18 21/5/18 19/4/18
f 21/5/18 38/4/18 39/5/18
f 4/1/19 23/2/20 2/2/20
f 23/2/20 4/1/19 40/1/19
f 12/6/21 41/7/21 11/7/21
f 41/7/21 12/6/21 42/6/21
f 23/2/22 14/1/22 43/2/22
f 14/1/22 23/2/22 40/1/22
f 9/5/23 25/4/23 8/4/23
f 25/4/23 9/5/23 24/5/23
f 41/7/11 4/1/19 44/8/11
f 4/1/19 41/7/11 40/1/19
f 41/7/11 45/7/11 40/1/19
f 45/7/11 41/7/11 42/6/11
f 22/4/24 43/2/24 46/4/24
f 43/2/24 22/4/24 23/2/24
f 29/3/25 21/5/25 28/5/25
f 21/5/25 29/3/25 20/3/25
f 40/1/24 10/7/24 14/1/24
f 10/7/24 40/1/24 45/7/24
f 14/1/5 1/2/26 43/2/26
f 1/2/26 14/1/5 3/1/5
f 49/4/7 48/5/27 47/4/27
f 48/5/27 49/4/7 50/5/7
f 47/4/27 39/5/28 38/4/28
f 39/5/28 47/4/27 48/5/27
f 44/8/6 3/1/6 13/8/6
f 3/1/6 44/8/6 4/1/6
f 37/3/29 7/3/29 5/3/29
f 7/3/29 37/3/29 29/3/29
f 29/3/29 37/3/29 18/3/29
f 29/3/29 18/3/29 20/3/29
f 43/2/26 15/4/4 46/4/4
f 15/4/4 43/2/26 1/2/26
f 10/7/30 42/6/30 12/6/30
f 42/6/30 10/7/30 45/7/30
f 47/4/9 31/4/9 49/4/9
f 38/4/9 31/4/9 47/4/9
f 31/4/9 38/4/9 30/4/9
f 17/4/9 30/4/9 38/4/9
f 17/4/9 38/4/9 19/4/9
f 36/4/9 30/4/9 17/4/9
f 36/4/9 34/4/9 30/4/9
f 36/4/9 27/4/9 34/4/9
f 36/4/9 25/4/9 27/4/9
f 36/4/9 8/4/9 25/4/9
f 8/4/9 36/4/9 6/4/9
f 22/4/9 15/4/9 16/4/9
f 15/4/9 22/4/9 46/4/9
f 18/3/31 36/4/31 17/4/31
f 36/4/31 18/3/31 37/3/31
f 11/7/32 44/8/32 13/8/32
f 44/8/32 11/7/32 41/7/32
f 28/5/29 24/5/29 9/5/29
f 24/5/29 28/5/29 26/5/29
f 26/5/29 28/5/29 35/5/29
f 35/5/29 28/5/29 32/5/29
f 32/5/29 28/5/29 39/5/29
f 39/5/29 28/5/29 21/5/29
f 39/5/29 33/5/29 32/5/29
f 33/5/29 39/5/29 48/5/29
f 33/5/29 48/5/29 50/5/29
f 33/5/33 49/4/33 31/4/33
f 49/4/33 33/5/33 50/5/33
f 35/5/2 27/4/34 26/5/34
f 27/4/34 35/5/2 34/4/2
