# Blender 3.6.4
# www.blender.org
mtllib Gravestone_Round_2.mtl
o Gravestone_Round_2
v -7.032187 0.670026 -6.728097
v -6.971200 0.670026 -6.895660
v -6.984913 0.637128 -6.710891
v -6.923925 0.637128 -6.878453
v -6.948636 0.594257 -6.697688
v -6.887649 0.594257 -6.865250
v -6.918052 0.490757 -6.686556
v -6.925831 0.544333 -6.689387
v -6.857064 0.490757 -6.854118
v -6.864843 0.544333 -6.856949
v -7.009462 0.609928 -6.909586
v -7.025054 0.609928 -6.866746
v -6.978035 0.588059 -6.898148
v -6.993628 0.588059 -6.855308
v -7.253332 0.486247 -6.949832
v -7.247503 0.526372 -6.947711
v -7.237739 0.486247 -6.992672
v -7.231911 0.526372 -6.990551
v -7.232347 0.559560 -6.942194
v -7.208230 0.588059 -6.933417
v -7.216755 0.559560 -6.985034
v -7.192637 0.588059 -6.976256
v -6.954351 0.526372 -6.841012
v -6.948529 0.486247 -6.838893
v -6.938758 0.526372 -6.883852
v -6.932937 0.486247 -6.881733
v -6.969514 0.559560 -6.846531
v -6.953921 0.559560 -6.889371
v -7.046061 0.623674 -6.922907
v -7.061654 0.623674 -6.880067
v -6.948529 0.412397 -6.838893
v -6.936291 0.412397 -6.872518
v -6.932937 0.412397 -6.881733
v -6.936291 0.139552 -6.872518
v -6.932937 0.000000 -6.881733
v -6.932937 0.093034 -6.881733
v -6.956688 0.000000 -6.816477
v -6.956688 0.412397 -6.816477
v -7.161211 0.609928 -6.964818
v -7.176803 0.609928 -6.921978
v -7.085334 0.628363 -6.937201
v -7.100927 0.628363 -6.894361
v -6.860418 0.139552 -6.844903
v -6.860418 0.412397 -6.844903
v -7.237739 0.412397 -6.992672
v -7.241093 0.412397 -6.983457
v -7.241093 0.139552 -6.983457
v -7.237739 0.000000 -6.992672
v -7.237739 0.093034 -6.992672
v -7.253332 0.412397 -6.949832
v -7.261490 0.412397 -6.927416
v -7.261490 0.000000 -6.927416
v -6.828853 0.000000 -6.843850
v -6.828853 0.093034 -6.843850
v -7.124611 0.623674 -6.951497
v -7.140204 0.623674 -6.908657
v -7.341823 0.093034 -7.030556
v -7.316962 0.139552 -7.011071
v -7.402811 0.490757 -6.862993
v -7.402811 0.412397 -6.862993
v -7.341823 0.490757 -7.030556
v -7.341823 0.412397 -7.030556
v -7.374596 0.490757 -6.852724
v -7.313608 0.490757 -7.020287
v -6.889841 0.412397 -6.676288
v -6.889841 0.490757 -6.676288
v -6.828853 0.412397 -6.843850
v -6.828853 0.490757 -6.843850
v -7.316962 0.412397 -7.011071
v -7.305830 0.544333 -7.017455
v -7.283028 0.594257 -7.009156
v -7.246747 0.637128 -6.995951
v -7.199470 0.670026 -6.978743
v -7.144417 0.690704 -6.958705
v -7.026256 0.690704 -6.915699
v -7.085334 0.697758 -6.937201
v -7.371241 0.412397 -6.861940
v -6.914698 0.412397 -6.695772
v -7.366817 0.544333 -6.849893
v -7.344015 0.594257 -6.841594
v -7.307735 0.637128 -6.828389
v -7.260457 0.670026 -6.811181
v -7.087244 0.690704 -6.748137
v -7.205404 0.690704 -6.791143
v -7.146322 0.697758 -6.769639
v -6.914698 0.139552 -6.695772
v -7.371241 0.139552 -6.861941
v -7.341823 0.000000 -7.030556
v -6.889841 0.000000 -6.676288
v -6.889841 0.093034 -6.676288
v -7.402811 0.093034 -6.862994
v -7.402811 0.000000 -6.862994
v -7.261490 0.412397 -6.927416
v -6.956688 0.412397 -6.816477
v -7.261490 0.000000 -6.927416
v -6.956688 0.000000 -6.816477
vn 0.6134 0.7584 0.2206
vn 0.4069 0.9012 0.1492
vn 0.4072 0.9012 0.1482
vn 0.4064 0.9012 0.1506
vn 0.6129 0.7584 0.2219
vn 0.6125 0.7584 0.2230
vn 0.7742 0.5664 0.2825
vn 0.6108 0.7604 0.2207
vn 0.7744 0.5664 0.2819
vn 0.6105 0.7604 0.2215
vn 0.7739 0.5664 0.2833
vn 0.6103 0.7604 0.2221
vn 0.9287 0.1527 0.3380
vn 0.9020 0.2804 0.3282
vn 0.9020 0.2804 0.3283
vn -0.6125 -0.7584 -0.2229
vn -0.4093 -0.9012 -0.1429
vn -0.4072 -0.9012 -0.1482
vn -0.6105 -0.7584 -0.2283
vn 0.8914 0.3161 0.3247
vn 0.7845 0.5509 0.2849
vn 0.8915 0.3161 0.3245
vn 0.7844 0.5509 0.2852
vn 0.8913 0.3161 0.3251
vn 0.7843 0.5509 0.2855
vn 0.9287 -0.1528 0.3380
vn 0.9020 -0.2804 0.3283
vn 0.9019 -0.2804 0.3285
vn 0.7756 -0.5665 0.2786
vn 0.6102 -0.7605 0.2221
vn 0.7744 -0.5665 0.2819
vn 0.6091 -0.7604 0.2254
vn -0.9020 -0.2803 -0.3285
vn -0.9287 -0.1526 -0.3380
vn -0.9020 -0.2803 -0.3283
vn -0.7837 -0.5509 -0.2868
vn -0.8915 -0.3162 -0.3245
vn -0.7842 -0.5509 -0.2854
vn -0.8920 -0.3162 -0.3231
vn -0.6091 -0.7604 -0.2254
vn -0.7744 -0.5664 -0.2819
vn -0.6103 -0.7604 -0.2221
vn -0.7756 -0.5664 -0.2786
vn -0.4258 -0.8915 -0.1550
vn -0.1972 -0.9783 -0.0638
vn -0.1944 -0.9784 -0.0708
vn -0.4230 -0.8915 -0.1620
vn -0.9397 -0.0000 -0.3420
vn 0.8920 -0.3160 0.3232
vn 0.7843 -0.5508 0.2855
vn 0.8915 -0.3160 0.3245
vn 0.7838 -0.5508 0.2868
vn 0.4072 -0.9012 0.1482
vn 0.6105 -0.7584 0.2283
vn 0.6125 -0.7584 0.2229
vn 0.4093 -0.9012 0.1429
vn -0.2257 -0.9707 -0.0822
vn 0.0148 -0.9998 0.0144
vn 0.0180 -0.9998 0.0066
vn 0.0180 -0.9998 0.0065
vn -0.2226 -0.9707 -0.0901
vn 0.3420 -0.0000 -0.9397
vn 0.9397 -0.0000 0.3420
vn 0.3357 0.1036 -0.9362
vn 0.3380 0.1037 -0.9354
vn 0.3408 0.0844 -0.9363
vn -0.0180 -0.9998 -0.0066
vn 0.2226 -0.9708 0.0901
vn 0.2257 -0.9707 0.0822
vn -0.0148 -0.9998 -0.0145
vn 0.1944 -0.9784 0.0708
vn 0.4230 -0.8915 0.1620
vn 0.4258 -0.8915 0.1550
vn 0.1972 -0.9783 0.0638
vn 0.3347 0.2063 -0.9195
vn 0.3421 0.1037 -0.9339
vn 0.3384 0.0844 -0.9372
vn 0.3443 0.1038 -0.9331
vn -0.0000 1.0000 -0.0000
vn -0.0000 -1.0000 -0.0000
vn -0.3420 -0.0000 0.9397
vn 0.3372 0.0843 -0.9377
vn 0.3390 0.0843 -0.9370
vn 0.3402 0.1037 -0.9346
vn 0.9138 0.2334 0.3325
vn 0.9137 0.2334 0.3326
vn -0.3347 0.2063 0.9195
vn -0.3413 0.0844 0.9362
vn -0.3384 0.0844 0.9372
vn -0.3446 0.0844 0.9350
vn 0.3427 0.0843 -0.9356
vn 0.3482 0.0846 -0.9336
vn -0.3393 0.0844 0.9369
vn -0.3402 0.0844 0.9366
vn -0.3408 0.0844 0.9363
vn -0.9137 0.2334 -0.3326
vn 0.8958 0.3011 0.3269
vn 0.7895 0.5423 0.2874
vn 0.8963 0.3011 0.3256
vn 0.8951 0.3011 0.3287
vn -0.7895 0.5423 -0.2874
vn -0.8964 0.3012 -0.3253
vn -0.8959 0.3012 -0.3267
vn -0.8970 0.3012 -0.3235
vn -0.7844 0.5508 -0.2852
vn -0.8913 0.3160 -0.3251
vn -0.7843 0.5508 -0.2855
vn -0.8914 0.3160 -0.3247
vn -0.7845 0.5508 -0.2849
vn -0.8915 0.3160 -0.3245
vn -0.9020 0.2804 -0.3283
vn -0.9287 0.1527 -0.3380
vn -0.9020 0.2804 -0.3282
vn -0.6105 0.7604 -0.2215
vn -0.7739 0.5665 -0.2833
vn -0.6102 0.7605 -0.2221
vn -0.7742 0.5665 -0.2825
vn -0.6108 0.7604 -0.2207
vn -0.7744 0.5665 -0.2818
vn -0.4063 0.9012 -0.1506
vn -0.6129 0.7584 -0.2219
vn -0.6125 0.7584 -0.2230
vn -0.6133 0.7584 -0.2205
vn -0.4068 0.9012 -0.1492
vn -0.4072 0.9012 -0.1482
vn -0.1933 0.9783 -0.0739
vn -0.4262 0.8915 -0.1536
vn -0.4258 0.8915 -0.1550
vn -0.4269 0.8915 -0.1518
vn -0.1940 0.9784 -0.0721
vn -0.1945 0.9784 -0.0707
vn 0.0193 0.9998 0.0029
vn -0.2263 0.9707 -0.0807
vn -0.2257 0.9707 -0.0822
vn -0.2270 0.9707 -0.0785
vn 0.0186 0.9998 0.0051
vn 0.0180 0.9998 0.0066
vn 0.2270 0.9707 0.0785
vn -0.0186 0.9998 -0.0051
vn -0.0180 0.9998 -0.0066
vn -0.0193 0.9998 -0.0029
vn 0.2263 0.9707 0.0807
vn 0.2257 0.9707 0.0822
vn 0.4269 0.8915 0.1518
vn 0.1940 0.9784 0.0721
vn 0.1945 0.9784 0.0707
vn 0.1933 0.9783 0.0739
vn 0.4262 0.8915 0.1536
vn 0.4257 0.8915 0.1550
vt 0.843750 0.207621
vt 0.843750 0.217051
vt 0.843750 0.195333
vt 0.843750 0.165667
vt 0.843750 0.181023
vt 0.843750 0.193557
vt 0.843750 0.199825
vt 0.843750 0.164374
vt 0.843750 0.175875
vt 0.843750 0.185388
vt 0.843750 0.203765
vt 0.843750 0.143206
vt 0.843750 0.065000
vt 0.843750 0.025000
vt 0.843750 0.051667
vt 0.843750 0.205109
vt 0.843750 0.222978
vt 0.843750 0.225000
vt 0.843750 0.102383
vt 0.843750 0.090630
vt 0.843750 0.108769
vt 0.843750 0.114051
vt 0.843750 0.118586
vt 0.843750 0.122066
vt 0.843750 0.124254
vt 0.843750 0.125000
s 0
usemtl colormap.037
f 3/1/1 2/2/2 1/2/3
f 2/2/4 3/1/5 4/1/6
f 6/3/7 3/1/8 5/3/9
f 3/1/10 6/3/11 4/1/12
f 9/4/13 8/5/14 7/4/13
f 8/5/15 9/4/13 10/5/15
f 13/6/16 12/7/17 11/7/18
f 12/7/18 13/6/19 14/6/16
f 10/5/20 5/3/21 8/5/22
f 5/3/23 10/5/24 6/3/25
f 17/8/26 16/9/27 15/8/26
f 16/9/28 17/8/26 18/9/27
f 21/10/29 20/6/30 19/10/31
f 20/6/32 21/10/31 22/6/30
f 25/9/33 24/8/34 23/9/35
f 24/8/34 25/9/35 26/8/34
f 28/10/36 23/9/37 27/10/38
f 23/9/39 28/10/38 25/9/37
f 13/6/40 27/10/41 14/6/42
f 27/10/43 13/6/42 28/10/41
f 11/7/44 30/11/45 29/11/46
f 30/11/46 11/7/47 12/7/44
f 26/8/48 31/12/48 24/8/48
f 31/12/48 26/8/48 32/12/48
f 32/12/48 26/8/48 33/12/48
f 34/13/48 31/12/48 32/12/48
f 35/14/48 31/12/48 34/13/48
f 35/14/48 34/13/48 36/15/48
f 37/14/48 31/12/48 35/14/48
f 31/12/48 37/14/48 38/12/48
f 18/9/49 19/10/50 16/9/51
f 19/10/52 18/9/51 21/10/50
f 39/7/53 20/6/54 22/6/55
f 20/6/55 39/7/56 40/7/53
f 29/11/57 42/16/58 41/16/59
f 42/16/60 29/11/61 30/11/57
f 32/12/62 43/13/62 34/13/62
f 43/13/62 32/12/62 44/12/62
f 17/8/63 46/12/63 45/12/63
f 15/8/63 46/12/63 17/8/63
f 46/12/63 15/8/63 47/13/63
f 15/8/63 48/14/63 47/13/63
f 47/13/63 48/14/63 49/15/63
f 50/12/63 48/14/63 15/8/63
f 51/12/63 48/14/63 50/12/63
f 48/14/63 51/12/63 52/14/63
f 36/15/64 53/14/62 35/14/62
f 53/14/62 36/15/65 54/15/66
f 41/16/67 56/11/68 55/11/69
f 56/11/69 41/16/70 42/16/67
f 55/11/71 40/7/72 39/7/73
f 40/7/73 55/11/74 56/11/71
f 58/13/75 49/15/76 57/15/77
f 49/15/78 58/13/75 47/13/75
f 61/4/48 60/12/48 59/4/48
f 60/12/48 61/4/48 62/12/48
f 63/4/79 61/4/79 59/4/79
f 61/4/79 63/4/79 64/4/79
f 67/12/63 66/4/63 65/12/63
f 66/4/63 67/12/63 68/4/63
f 66/4/79 9/4/79 7/4/79
f 9/4/79 66/4/79 68/4/79
f 69/12/62 47/13/62 58/13/62
f 47/13/62 69/12/62 46/12/62
f 61/4/62 45/12/62 62/12/62
f 45/12/62 61/4/62 17/8/62
f 17/8/62 61/4/62 64/4/62
f 17/8/62 64/4/62 18/9/62
f 18/9/62 64/4/62 70/5/62
f 18/9/62 70/5/62 21/10/62
f 21/10/62 70/5/62 71/3/62
f 21/10/62 71/3/62 22/6/62
f 22/6/62 71/3/62 39/7/62
f 39/7/62 71/3/62 72/1/62
f 39/7/62 72/1/62 55/11/62
f 55/11/62 72/1/62 41/16/62
f 4/1/62 41/16/62 72/1/62
f 4/1/62 29/11/62 41/16/62
f 4/1/62 72/1/62 73/2/62
f 4/1/62 11/7/62 29/11/62
f 4/1/62 73/2/62 2/2/62
f 2/2/62 73/2/62 74/17/62
f 2/2/62 74/17/62 75/17/62
f 75/17/62 74/17/62 76/18/62
f 6/3/62 11/7/62 4/1/62
f 6/3/62 13/6/62 11/7/62
f 6/3/62 28/10/62 13/6/62
f 10/5/62 28/10/62 6/3/62
f 10/5/62 25/9/62 28/10/62
f 9/4/62 25/9/62 10/5/62
f 25/9/62 9/4/62 26/8/62
f 68/4/62 26/8/62 9/4/62
f 67/12/62 26/8/62 68/4/62
f 26/8/62 67/12/62 33/12/62
f 69/12/80 45/12/80 46/12/80
f 69/12/80 62/12/80 45/12/80
f 62/12/80 69/12/80 60/12/80
f 77/12/80 60/12/80 69/12/80
f 60/12/80 77/12/80 65/12/80
f 65/12/80 77/12/80 78/12/80
f 65/12/80 78/12/80 67/12/80
f 44/12/80 67/12/80 78/12/80
f 32/12/80 67/12/80 44/12/80
f 67/12/80 32/12/80 33/12/80
f 66/4/81 60/12/81 65/12/81
f 60/12/81 66/4/81 59/4/81
f 59/4/79 66/4/79 7/4/79
f 59/4/80 7/4/80 63/4/80
f 8/5/81 63/4/81 7/4/81
f 63/4/81 8/5/81 79/5/81
f 79/5/81 8/5/81 5/3/81
f 79/5/81 5/3/81 80/3/81
f 80/3/81 5/3/81 3/1/81
f 80/3/81 3/1/81 81/1/81
f 81/1/81 3/1/81 1/2/81
f 81/1/81 1/2/81 82/2/81
f 82/2/81 1/2/81 83/17/81
f 82/2/81 83/17/81 84/17/81
f 84/17/81 83/17/81 85/18/81
f 78/12/81 87/13/81 86/13/81
f 87/13/81 78/12/81 77/12/81
f 57/15/82 48/14/62 88/14/62
f 48/14/62 57/15/83 49/15/84
f 53/14/63 90/15/85 89/14/63
f 90/15/86 53/14/63 54/15/86
f 86/13/87 91/15/88 90/15/89
f 91/15/90 86/13/87 87/13/87
f 34/13/75 54/15/91 36/15/84
f 54/15/92 34/13/75 43/13/75
f 90/15/93 92/14/81 89/14/81
f 92/14/81 90/15/94 91/15/95
f 69/12/48 87/13/48 77/12/48
f 87/13/48 69/12/48 58/13/48
f 57/15/96 92/14/48 91/15/96
f 92/14/48 57/15/96 88/14/48
f 43/13/63 78/12/63 86/13/63
f 78/12/63 43/13/63 44/12/63
f 54/15/97 86/13/98 90/15/99
f 86/13/98 54/15/100 43/13/98
f 87/13/101 57/15/102 91/15/103
f 57/15/104 87/13/101 58/13/101
f 71/3/105 79/5/106 80/3/107
f 79/5/108 71/3/109 70/5/110
f 53/14/80 37/14/80 35/14/80
f 89/14/80 37/14/80 53/14/80
f 89/14/80 52/14/80 37/14/80
f 92/14/80 52/14/80 89/14/80
f 92/14/80 48/14/80 52/14/80
f 48/14/80 92/14/80 88/14/80
f 70/5/111 63/4/112 79/5/111
f 63/4/112 70/5/113 64/4/112
f 72/1/114 80/3/115 81/1/116
f 80/3/117 72/1/118 71/3/119
f 82/2/120 72/1/121 81/1/122
f 72/1/123 82/2/124 73/2/125
f 84/17/126 73/2/127 82/2/128
f 73/2/129 84/17/130 74/17/131
f 85/18/132 74/17/133 84/17/134
f 74/17/135 85/18/136 76/18/137
f 83/17/138 76/18/139 85/18/140
f 76/18/141 83/17/142 75/17/143
f 1/2/144 75/17/145 83/17/146
f 75/17/147 1/2/148 2/2/149
f 15/19/62 31/20/62 50/20/62
f 31/20/62 15/19/62 24/19/62
f 24/19/62 15/19/62 16/21/62
f 24/19/62 16/21/62 23/21/62
f 23/21/62 16/21/62 19/22/62
f 23/21/62 19/22/62 27/22/62
f 27/22/62 19/22/62 20/23/62
f 27/22/62 20/23/62 14/23/62
f 14/23/62 20/23/62 40/24/62
f 14/23/62 40/24/62 12/24/62
f 12/24/62 40/24/62 56/25/62
f 12/24/62 56/25/62 30/25/62
f 30/25/62 56/25/62 42/26/62
f 31/20/80 93/20/80 50/20/80
f 93/20/80 31/20/80 94/20/80
f 93/20/62 96/14/62 95/14/62
f 96/14/62 93/20/62 94/20/62
f 3/1/1 2/2/2 1/2/3
f 2/2/4 3/1/5 4/1/6
f 6/3/7 3/1/8 5/3/9
f 3/1/10 6/3/11 4/1/12
f 9/4/13 8/5/14 7/4/13
f 8/5/15 9/4/13 10/5/15
f 13/6/16 12/7/17 11/7/18
f 12/7/18 13/6/19 14/6/16
f 10/5/20 5/3/21 8/5/22
f 5/3/23 10/5/24 6/3/25
f 17/8/26 16/9/27 15/8/26
f 16/9/28 17/8/26 18/9/27
f 21/10/29 20/6/30 19/10/31
f 20/6/32 21/10/31 22/6/30
f 25/9/33 24/8/34 23/9/35
f 24/8/34 25/9/35 26/8/34
f 28/10/36 23/9/37 27/10/38
f 23/9/39 28/10/38 25/9/37
f 13/6/40 27/10/41 14/6/42
f 27/10/43 13/6/42 28/10/41
f 11/7/44 30/11/45 29/11/46
f 30/11/46 11/7/47 12/7/44
f 26/8/48 31/12/48 24/8/48
f 31/12/48 26/8/48 32/12/48
f 32/12/48 26/8/48 33/12/48
f 34/13/48 31/12/48 32/12/48
f 35/14/48 31/12/48 34/13/48
f 35/14/48 34/13/48 36/15/48
f 37/14/48 31/12/48 35/14/48
f 31/12/48 37/14/48 38/12/48
f 18/9/49 19/10/50 16/9/51
f 19/10/52 18/9/51 21/10/50
f 39/7/53 20/6/54 22/6/55
f 20/6/55 39/7/56 40/7/53
f 29/11/57 42/16/58 41/16/59
f 42/16/60 29/11/61 30/11/57
f 32/12/62 43/13/62 34/13/62
f 43/13/62 32/12/62 44/12/62
f 17/8/63 46/12/63 45/12/63
f 15/8/63 46/12/63 17/8/63
f 46/12/63 15/8/63 47/13/63
f 15/8/63 48/14/63 47/13/63
f 47/13/63 48/14/63 49/15/63
f 50/12/63 48/14/63 15/8/63
f 51/12/63 48/14/63 50/12/63
f 48/14/63 51/12/63 52/14/63
f 36/15/64 53/14/62 35/14/62
f 53/14/62 36/15/65 54/15/66
f 41/16/67 56/11/68 55/11/69
f 56/11/69 41/16/70 42/16/67
f 55/11/71 40/7/72 39/7/73
f 40/7/73 55/11/74 56/11/71
f 58/13/75 49/15/76 57/15/77
f 49/15/78 58/13/75 47/13/75
f 61/4/48 60/12/48 59/4/48
f 60/12/48 61/4/48 62/12/48
f 63/4/79 61/4/79 59/4/79
f 61/4/79 63/4/79 64/4/79
f 67/12/63 66/4/63 65/12/63
f 66/4/63 67/12/63 68/4/63
f 66/4/79 9/4/79 7/4/79
f 9/4/79 66/4/79 68/4/79
f 69/12/62 47/13/62 58/13/62
f 47/13/62 69/12/62 46/12/62
f 61/4/62 45/12/62 62/12/62
f 45/12/62 61/4/62 17/8/62
f 17/8/62 61/4/62 64/4/62
f 17/8/62 64/4/62 18/9/62
f 18/9/62 64/4/62 70/5/62
f 18/9/62 70/5/62 21/10/62
f 21/10/62 70/5/62 71/3/62
f 21/10/62 71/3/62 22/6/62
f 22/6/62 71/3/62 39/7/62
f 39/7/62 71/3/62 72/1/62
f 39/7/62 72/1/62 55/11/62
f 55/11/62 72/1/62 41/16/62
f 4/1/62 41/16/62 72/1/62
f 4/1/62 29/11/62 41/16/62
f 4/1/62 72/1/62 73/2/62
f 4/1/62 11/7/62 29/11/62
f 4/1/62 73/2/62 2/2/62
f 2/2/62 73/2/62 74/17/62
f 2/2/62 74/17/62 75/17/62
f 75/17/62 74/17/62 76/18/62
f 6/3/62 11/7/62 4/1/62
f 6/3/62 13/6/62 11/7/62
f 6/3/62 28/10/62 13/6/62
f 10/5/62 28/10/62 6/3/62
f 10/5/62 25/9/62 28/10/62
f 9/4/62 25/9/62 10/5/62
f 25/9/62 9/4/62 26/8/62
f 68/4/62 26/8/62 9/4/62
f 67/12/62 26/8/62 68/4/62
f 26/8/62 67/12/62 33/12/62
f 69/12/80 45/12/80 46/12/80
f 69/12/80 62/12/80 45/12/80
f 62/12/80 69/12/80 60/12/80
f 77/12/80 60/12/80 69/12/80
f 60/12/80 77/12/80 65/12/80
f 65/12/80 77/12/80 78/12/80
f 65/12/80 78/12/80 67/12/80
f 44/12/80 67/12/80 78/12/80
f 32/12/80 67/12/80 44/12/80
f 67/12/80 32/12/80 33/12/80
f 66/4/81 60/12/81 65/12/81
f 60/12/81 66/4/81 59/4/81
f 59/4/79 66/4/79 7/4/79
f 59/4/80 7/4/80 63/4/80
f 8/5/81 63/4/81 7/4/81
f 63/4/81 8/5/81 79/5/81
f 79/5/81 8/5/81 5/3/81
f 79/5/81 5/3/81 80/3/81
f 80/3/81 5/3/81 3/1/81
f 80/3/81 3/1/81 81/1/81
f 81/1/81 3/1/81 1/2/81
f 81/1/81 1/2/81 82/2/81
f 82/2/81 1/2/81 83/17/81
f 82/2/81 83/17/81 84/17/81
f 84/17/81 83/17/81 85/18/81
f 78/12/81 87/13/81 86/13/81
f 87/13/81 78/12/81 77/12/81
f 57/15/82 48/14/62 88/14/62
f 48/14/62 57/15/83 49/15/84
f 53/14/63 90/15/85 89/14/63
f 90/15/86 53/14/63 54/15/86
f 86/13/87 91/15/88 90/15/89
f 91/15/90 86/13/87 87/13/87
f 34/13/75 54/15/91 36/15/84
f 54/15/92 34/13/75 43/13/75
f 90/15/93 92/14/81 89/14/81
f 92/14/81 90/15/94 91/15/95
f 69/12/48 87/13/48 77/12/48
f 87/13/48 69/12/48 58/13/48
f 57/15/96 92/14/48 91/15/96
f 92/14/48 57/15/96 88/14/48
f 43/13/63 78/12/63 86/13/63
f 78/12/63 43/13/63 44/12/63
f 54/15/97 86/13/98 90/15/99
f 86/13/98 54/15/100 43/13/98
f 87/13/101 57/15/102 91/15/103
f 57/15/104 87/13/101 58/13/101
f 71/3/105 79/5/106 80/3/107
f 79/5/108 71/3/109 70/5/110
f 53/14/80 37/14/80 35/14/80
f 89/14/80 37/14/80 53/14/80
f 89/14/80 52/14/80 37/14/80
f 92/14/80 52/14/80 89/14/80
f 92/14/80 48/14/80 52/14/80
f 48/14/80 92/14/80 88/14/80
f 70/5/111 63/4/112 79/5/111
f 63/4/112 70/5/113 64/4/112
f 72/1/114 80/3/115 81/1/116
f 80/3/117 72/1/118 71/3/119
f 82/2/120 72/1/121 81/1/122
f 72/1/123 82/2/124 73/2/125
f 84/17/126 73/2/127 82/2/128
f 73/2/129 84/17/130 74/17/131
f 85/18/132 74/17/133 84/17/134
f 74/17/135 85/18/136 76/18/137
f 83/17/138 76/18/139 85/18/140
f 76/18/141 83/17/142 75/17/143
f 1/2/144 75/17/145 83/17/146
f 75/17/147 1/2/148 2/2/149
f 15/19/62 31/20/62 50/20/62
f 31/20/62 15/19/62 24/19/62
f 24/19/62 15/19/62 16/21/62
f 24/19/62 16/21/62 23/21/62
f 23/21/62 16/21/62 19/22/62
f 23/21/62 19/22/62 27/22/62
f 27/22/62 19/22/62 20/23/62
f 27/22/62 20/23/62 14/23/62
f 14/23/62 20/23/62 40/24/62
f 14/23/62 40/24/62 12/24/62
f 12/24/62 40/24/62 56/25/62
f 12/24/62 56/25/62 30/25/62
f 30/25/62 56/25/62 42/26/62
f 31/20/80 93/20/80 50/20/80
f 93/20/80 31/20/80 94/20/80
f 93/20/62 96/14/62 95/14/62
f 96/14/62 93/20/62 94/20/62
