# Blender 3.6.4
# www.blender.org
mtllib Gravestone_Round_4.mtl
o Gravestone_Round_4
v -0.968349 0.752782 -7.189351
v -0.898882 0.766495 -7.025696
v -1.011905 0.717349 -7.167893
v -0.942438 0.731062 -7.004239
v -1.043933 0.672609 -7.150549
v -0.974466 0.686322 -6.986895
v -1.065601 0.567828 -7.132572
v -1.062248 0.621610 -7.138502
v -0.996134 0.581541 -6.968917
v -0.992781 0.635323 -6.974847
v -0.856760 0.708831 -7.038744
v -0.874520 0.705325 -7.080585
v -0.885715 0.685276 -7.024479
v -0.903475 0.681770 -7.066320
v -0.641819 0.595130 -7.170127
v -0.650688 0.634748 -7.169682
v -0.624058 0.598636 -7.128286
v -0.632927 0.638254 -7.127841
v -0.668116 0.666932 -7.164981
v -0.693923 0.693938 -7.156290
v -0.650355 0.670438 -7.123140
v -0.676162 0.697444 -7.114449
v -0.936943 0.618127 -7.046781
v -0.939449 0.577847 -7.042342
v -0.919182 0.621633 -7.004941
v -0.921689 0.581353 -7.000501
v -0.924765 0.652029 -7.054791
v -0.907004 0.655535 -7.012950
v -0.822110 0.724592 -7.054772
v -0.839871 0.721086 -7.096613
v -0.933601 0.504321 -7.038663
v -0.919661 0.507073 -7.005823
v -0.915840 0.507827 -6.996823
v -0.898052 0.235425 -6.992233
v -0.883180 0.097239 -6.976281
v -0.890548 0.189866 -6.980915
v -0.910233 0.091899 -7.040016
v -0.942894 0.502486 -7.060557
v -0.708581 0.717435 -7.102363
v -0.726342 0.713929 -7.144204
v -0.784132 0.731487 -7.071471
v -0.801893 0.727981 -7.113312
v -0.972140 0.231123 -6.960424
v -0.993748 0.502771 -6.974014
v -0.618209 0.525109 -7.124608
v -0.622030 0.524355 -7.133608
v -0.600421 0.252707 -7.120018
v -0.585549 0.114522 -7.104066
v -0.592917 0.207148 -7.108700
v -0.635970 0.521603 -7.166449
v -0.645263 0.519769 -7.188342
v -0.612602 0.109181 -7.167800
v -0.984815 0.091338 -6.932645
v -0.992183 0.183964 -6.937279
v -0.745408 0.729046 -7.087704
v -0.763169 0.725540 -7.129545
v -0.491282 0.213050 -7.152336
v -0.526337 0.257009 -7.151825
v -0.592248 0.595314 -7.335802
v -0.586042 0.517298 -7.331898
v -0.522781 0.609027 -7.172147
v -0.516575 0.531011 -7.168244
v -0.619799 0.593714 -7.323973
v -0.550331 0.607427 -7.160318
v -1.086942 0.488212 -7.116841
v -1.093148 0.566228 -7.120745
v -1.017475 0.501925 -6.953187
v -1.023681 0.579942 -6.957090
v -0.547946 0.528657 -7.165415
v -0.562170 0.660327 -7.159726
v -0.588390 0.708740 -7.152653
v -0.627211 0.749366 -7.139578
v -0.675982 0.779438 -7.121396
v -0.731378 0.796905 -7.099346
v -0.846758 0.790205 -7.049808
v -0.789628 0.800578 -7.074928
v -0.609772 0.516452 -7.311068
v -1.055574 0.490566 -7.119667
v -0.631637 0.646614 -7.323380
v -0.657857 0.695027 -7.316308
v -0.696679 0.735653 -7.303233
v -0.745449 0.765725 -7.285051
v -0.916225 0.776492 -7.213463
v -0.800845 0.783192 -7.263000
v -0.859095 0.786865 -7.238582
v -1.033966 0.218918 -7.106077
v -0.588163 0.244804 -7.297478
v -0.483914 0.120423 -7.147702
v -1.054282 0.077624 -7.096300
v -1.061650 0.170251 -7.100934
v -0.560749 0.199336 -7.315991
v -0.553381 0.106710 -7.311357
v -0.645263 0.519769 -7.188342
v -0.942894 0.502486 -7.060557
v -0.612602 0.109181 -7.167800
v -0.910233 0.091899 -7.040016
vn -0.6572 0.7205 0.2213
vn -0.4694 0.8741 0.1249
vn -0.4690 0.8742 0.1259
vn -0.4700 0.8740 0.1235
vn -0.6578 0.7204 0.2200
vn -0.6582 0.7203 0.2190
vn -0.8013 0.5200 0.2959
vn -0.6555 0.7226 0.2194
vn -0.8010 0.5200 0.2965
vn -0.6559 0.7225 0.2186
vn -0.8016 0.5199 0.2950
vn -0.6561 0.7225 0.2180
vn -0.9189 0.0994 0.3817
vn -0.9030 0.2280 0.3643
vn -0.9030 0.2280 0.3642
vn 0.6582 -0.7203 -0.2190
vn 0.4669 -0.8746 -0.1311
vn 0.4690 -0.8742 -0.1258
vn 0.6603 -0.7199 -0.2137
vn -0.8957 0.2641 0.3578
vn -0.8092 0.5040 0.3019
vn -0.8956 0.2642 0.3580
vn -0.8093 0.5040 0.3016
vn -0.8958 0.2641 0.3574
vn -0.8094 0.5040 0.3014
vn -0.8947 -0.2048 0.3969
vn -0.8586 -0.3303 0.3921
vn -0.8586 -0.3304 0.3920
vn -0.7099 -0.6077 0.3561
vn -0.5356 -0.7917 0.2937
vn -0.7113 -0.6079 0.3529
vn -0.5370 -0.7920 0.2905
vn 0.9031 -0.2279 -0.3641
vn 0.9189 -0.0993 -0.3817
vn 0.9030 -0.2279 -0.3642
vn 0.8100 -0.5039 -0.3000
vn 0.8956 -0.2642 -0.3580
vn 0.8094 -0.5040 -0.3013
vn 0.8950 -0.2643 -0.3593
vn 0.6575 -0.7222 -0.2148
vn 0.8011 -0.5200 -0.2965
vn 0.6561 -0.7225 -0.2180
vn 0.7997 -0.5203 -0.2997
vn 0.4863 -0.8634 -0.1341
vn 0.2646 -0.9635 -0.0398
vn 0.2673 -0.9630 -0.0328
vn 0.4891 -0.8629 -0.1271
vn 0.9176 0.0533 -0.3940
vn -0.8450 -0.3650 0.3908
vn -0.7223 -0.5928 0.3563
vn -0.8455 -0.3651 0.3895
vn -0.7228 -0.5929 0.3549
vn -0.3263 -0.9204 0.2156
vn -0.5402 -0.7903 0.2893
vn -0.5380 -0.7898 0.2946
vn -0.3241 -0.9199 0.2209
vn 0.2973 -0.9537 -0.0463
vn 0.0585 -0.9971 0.0494
vn 0.0616 -0.9965 0.0573
vn 0.3004 -0.9531 -0.0384
vn 0.3896 0.0769 0.9178
vn -0.9176 -0.0533 0.3940
vn 0.3836 0.1799 0.9058
vn 0.3814 0.1798 0.9067
vn 0.3815 0.1606 0.9103
vn 0.0968 -0.9944 0.0423
vn -0.1466 -0.9799 0.1351
vn -0.1435 -0.9793 0.1430
vn 0.0998 -0.9937 0.0502
vn -0.1124 -0.9851 0.1302
vn -0.3479 -0.9123 0.2159
vn -0.3451 -0.9117 0.2229
vn -0.1096 -0.9845 0.1372
vn 0.3649 0.2806 0.8878
vn 0.3773 0.1797 0.9085
vn 0.3839 0.1608 0.9093
vn 0.3752 0.1796 0.9094
vn -0.0792 0.9956 -0.0498
vn 0.0792 -0.9956 0.0498
vn -0.3896 -0.0769 -0.9178
vn 0.0792 -0.9956 0.0499
vn 0.3850 0.1607 0.9088
vn 0.3833 0.1607 0.9095
vn 0.3793 0.1797 0.9077
vn -0.9107 0.1806 0.3715
vn -0.9107 0.1806 0.3714
vn -0.3975 0.1302 -0.9083
vn -0.3944 0.0074 -0.9189
vn -0.3972 0.0072 -0.9177
vn -0.3912 0.0076 -0.9203
vn 0.3796 0.1605 0.9111
vn 0.3742 0.1604 0.9134
vn -0.3963 0.0073 -0.9181
vn -0.3954 0.0073 -0.9185
vn -0.3949 0.0074 -0.9187
vn 0.8738 0.2842 -0.3947
vn -0.8992 0.2489 0.3599
vn -0.8139 0.4951 0.3040
vn -0.8986 0.2490 0.3612
vn -0.8999 0.2488 0.3581
vn 0.7280 0.5847 -0.3580
vn 0.8508 0.3506 -0.3914
vn 0.8514 0.3507 -0.3901
vn 0.8500 0.3505 -0.3932
vn 0.7221 0.5928 -0.3565
vn 0.8458 0.3652 -0.3889
vn 0.7222 0.5929 -0.3562
vn 0.8456 0.3652 -0.3893
vn 0.7220 0.5928 -0.3568
vn 0.8455 0.3652 -0.3895
vn 0.8586 0.3303 -0.3922
vn 0.8947 0.2047 -0.3969
vn 0.8586 0.3303 -0.3921
vn 0.5354 0.7917 -0.2943
vn 0.7119 0.6080 -0.3515
vn 0.5357 0.7917 -0.2937
vn 0.7116 0.6079 -0.3523
vn 0.5351 0.7916 -0.2951
vn 0.7113 0.6079 -0.3529
vn 0.3272 0.9206 -0.2133
vn 0.5376 0.7897 -0.2955
vn 0.5380 0.7898 -0.2945
vn 0.5370 0.7896 -0.2969
vn 0.3266 0.9205 -0.2146
vn 0.3262 0.9204 -0.2156
vn 0.1137 0.9853 -0.1272
vn 0.3446 0.9116 -0.2242
vn 0.3452 0.9117 -0.2229
vn 0.3438 0.9114 -0.2260
vn 0.1130 0.9852 -0.1290
vn 0.1124 0.9851 -0.1303
vn -0.0953 0.9947 -0.0387
vn 0.1429 0.9791 -0.1445
vn 0.1436 0.9793 -0.1429
vn 0.1420 0.9790 -0.1465
vn -0.0962 0.9945 -0.0408
vn -0.0968 0.9944 -0.0422
vn -0.2958 0.9540 0.0498
vn -0.0622 0.9963 -0.0588
vn -0.0616 0.9965 -0.0574
vn -0.0631 0.9961 -0.0609
vn -0.2967 0.9538 0.0478
vn -0.2973 0.9537 0.0462
vn -0.4850 0.8637 0.1372
vn -0.2679 0.9629 0.0315
vn -0.2673 0.9630 0.0328
vn -0.2687 0.9628 0.0297
vn -0.4858 0.8635 0.1354
vn -0.4863 0.8634 0.1341
vt 0.843750 0.207621
vt 0.843750 0.217051
vt 0.843750 0.195333
vt 0.843750 0.165667
vt 0.843750 0.181023
vt 0.843750 0.193557
vt 0.843750 0.199825
vt 0.843750 0.164374
vt 0.843750 0.175875
vt 0.843750 0.185388
vt 0.843750 0.203765
vt 0.843750 0.143206
vt 0.843750 0.065000
vt 0.843750 0.025000
vt 0.843750 0.051667
vt 0.843750 0.205109
vt 0.843750 0.222978
vt 0.843750 0.225000
vt 0.843750 0.102383
vt 0.843750 0.090630
vt 0.843750 0.108769
vt 0.843750 0.114051
vt 0.843750 0.118586
vt 0.843750 0.122066
vt 0.843750 0.124254
vt 0.843750 0.125000
s 0
usemtl colormap.037
f 3/1/1 2/2/2 1/2/3
f 2/2/4 3/1/5 4/1/6
f 6/3/7 3/1/8 5/3/9
f 3/1/10 6/3/11 4/1/12
f 9/4/13 8/5/14 7/4/13
f 8/5/15 9/4/13 10/5/15
f 13/6/16 12/7/17 11/7/18
f 12/7/18 13/6/19 14/6/16
f 10/5/20 5/3/21 8/5/22
f 5/3/23 10/5/24 6/3/25
f 17/8/26 16/9/27 15/8/26
f 16/9/28 17/8/26 18/9/27
f 21/10/29 20/6/30 19/10/31
f 20/6/32 21/10/31 22/6/30
f 25/9/33 24/8/34 23/9/35
f 24/8/34 25/9/35 26/8/34
f 28/10/36 23/9/37 27/10/38
f 23/9/39 28/10/38 25/9/37
f 13/6/40 27/10/41 14/6/42
f 27/10/43 13/6/42 28/10/41
f 11/7/44 30/11/45 29/11/46
f 30/11/46 11/7/47 12/7/44
f 26/8/48 31/12/48 24/8/48
f 31/12/48 26/8/48 32/12/48
f 32/12/48 26/8/48 33/12/48
f 34/13/48 31/12/48 32/12/48
f 35/14/48 31/12/48 34/13/48
f 35/14/48 34/13/48 36/15/48
f 37/14/48 31/12/48 35/14/48
f 31/12/48 37/14/48 38/12/48
f 18/9/49 19/10/50 16/9/51
f 19/10/52 18/9/51 21/10/50
f 39/7/53 20/6/54 22/6/55
f 20/6/55 39/7/56 40/7/53
f 29/11/57 42/16/58 41/16/59
f 42/16/59 29/11/60 30/11/57
f 32/12/61 43/13/61 34/13/61
f 43/13/61 32/12/61 44/12/61
f 17/8/62 46/12/62 45/12/62
f 15/8/62 46/12/62 17/8/62
f 46/12/62 15/8/62 47/13/62
f 15/8/62 48/14/62 47/13/62
f 47/13/62 48/14/62 49/15/62
f 50/12/62 48/14/62 15/8/62
f 51/12/62 48/14/62 50/12/62
f 48/14/62 51/12/62 52/14/62
f 36/15/63 53/14/61 35/14/61
f 53/14/61 36/15/64 54/15/65
f 41/16/66 56/11/67 55/11/68
f 56/11/68 41/16/69 42/16/66
f 55/11/70 40/7/71 39/7/72
f 40/7/72 55/11/73 56/11/70
f 58/13/74 49/15/75 57/15/76
f 49/15/77 58/13/74 47/13/74
f 61/4/48 60/12/48 59/4/48
f 60/12/48 61/4/48 62/12/48
f 63/4/78 61/4/78 59/4/78
f 61/4/78 63/4/78 64/4/78
f 67/12/62 66/4/62 65/12/62
f 66/4/62 67/12/62 68/4/62
f 66/4/78 9/4/78 7/4/78
f 9/4/78 66/4/78 68/4/78
f 69/12/61 47/13/61 58/13/61
f 47/13/61 69/12/61 46/12/61
f 61/4/61 45/12/61 62/12/61
f 45/12/61 61/4/61 17/8/61
f 17/8/61 61/4/61 64/4/61
f 17/8/61 64/4/61 18/9/61
f 18/9/61 64/4/61 70/5/61
f 18/9/61 70/5/61 21/10/61
f 21/10/61 70/5/61 71/3/61
f 21/10/61 71/3/61 22/6/61
f 22/6/61 71/3/61 39/7/61
f 39/7/61 71/3/61 72/1/61
f 39/7/61 72/1/61 55/11/61
f 55/11/61 72/1/61 41/16/61
f 4/1/61 41/16/61 72/1/61
f 4/1/61 29/11/61 41/16/61
f 4/1/61 72/1/61 73/2/61
f 4/1/61 11/7/61 29/11/61
f 4/1/61 73/2/61 2/2/61
f 2/2/61 73/2/61 74/17/61
f 2/2/61 74/17/61 75/17/61
f 75/17/61 74/17/61 76/18/61
f 6/3/61 11/7/61 4/1/61
f 6/3/61 13/6/61 11/7/61
f 6/3/61 28/10/61 13/6/61
f 10/5/61 28/10/61 6/3/61
f 10/5/61 25/9/61 28/10/61
f 9/4/61 25/9/61 10/5/61
f 25/9/61 9/4/61 26/8/61
f 68/4/61 26/8/61 9/4/61
f 67/12/61 26/8/61 68/4/61
f 26/8/61 67/12/61 33/12/61
f 69/12/79 45/12/79 46/12/79
f 69/12/79 62/12/79 45/12/79
f 62/12/79 69/12/79 60/12/79
f 77/12/79 60/12/79 69/12/79
f 60/12/79 77/12/79 65/12/79
f 65/12/79 77/12/79 78/12/79
f 65/12/79 78/12/79 67/12/79
f 44/12/79 67/12/79 78/12/79
f 32/12/79 67/12/79 44/12/79
f 67/12/79 32/12/79 33/12/79
f 66/4/80 60/12/80 65/12/80
f 60/12/80 66/4/80 59/4/80
f 59/4/78 66/4/78 7/4/78
f 59/4/81 7/4/79 63/4/79
f 8/5/80 63/4/80 7/4/80
f 63/4/80 8/5/80 79/5/80
f 79/5/80 8/5/80 5/3/80
f 79/5/80 5/3/80 80/3/80
f 80/3/80 5/3/80 3/1/80
f 80/3/80 3/1/80 81/1/80
f 81/1/80 3/1/80 1/2/80
f 81/1/80 1/2/80 82/2/80
f 82/2/80 1/2/80 83/17/80
f 82/2/80 83/17/80 84/17/80
f 84/17/80 83/17/80 85/18/80
f 78/12/80 87/13/80 86/13/80
f 87/13/80 78/12/80 77/12/80
f 57/15/82 48/14/61 88/14/61
f 48/14/61 57/15/83 49/15/84
f 53/14/62 90/15/85 89/14/62
f 90/15/86 53/14/62 54/15/86
f 86/13/87 91/15/88 90/15/89
f 91/15/90 86/13/87 87/13/87
f 34/13/74 54/15/91 36/15/84
f 54/15/92 34/13/74 43/13/74
f 90/15/93 92/14/80 89/14/80
f 92/14/80 90/15/94 91/15/95
f 69/12/48 87/13/48 77/12/48
f 87/13/48 69/12/48 58/13/48
f 57/15/96 92/14/48 91/15/96
f 92/14/48 57/15/96 88/14/48
f 43/13/62 78/12/62 86/13/62
f 78/12/62 43/13/62 44/12/62
f 54/15/97 86/13/98 90/15/99
f 86/13/98 54/15/100 43/13/98
f 87/13/101 57/15/102 91/15/103
f 57/15/104 87/13/101 58/13/101
f 71/3/105 79/5/106 80/3/107
f 79/5/108 71/3/109 70/5/110
f 53/14/79 37/14/79 35/14/79
f 89/14/79 37/14/79 53/14/79
f 89/14/79 52/14/79 37/14/79
f 92/14/79 52/14/79 89/14/79
f 92/14/79 48/14/79 52/14/79
f 48/14/79 92/14/79 88/14/79
f 70/5/111 63/4/112 79/5/113
f 63/4/112 70/5/111 64/4/112
f 72/1/114 80/3/115 81/1/116
f 80/3/117 72/1/118 71/3/119
f 82/2/120 72/1/121 81/1/122
f 72/1/123 82/2/124 73/2/125
f 84/17/126 73/2/127 82/2/128
f 73/2/129 84/17/130 74/17/131
f 85/18/132 74/17/133 84/17/134
f 74/17/135 85/18/136 76/18/137
f 83/17/138 76/18/139 85/18/140
f 76/18/141 83/17/142 75/17/143
f 1/2/144 75/17/145 83/17/146
f 75/17/147 1/2/148 2/2/149
f 15/19/61 31/20/61 50/20/61
f 31/20/61 15/19/61 24/19/61
f 24/19/61 15/19/61 16/21/61
f 24/19/61 16/21/61 23/21/61
f 23/21/61 16/21/61 19/22/61
f 23/21/61 19/22/61 27/22/61
f 27/22/61 19/22/61 20/23/61
f 27/22/61 20/23/61 14/23/61
f 14/23/61 20/23/61 40/24/61
f 14/23/61 40/24/61 12/24/61
f 12/24/61 40/24/61 56/25/61
f 12/24/61 56/25/61 30/25/61
f 30/25/61 56/25/61 42/26/61
f 31/20/79 93/20/79 50/20/79
f 93/20/79 31/20/79 94/20/79
f 93/20/61 96/14/61 95/14/61
f 96/14/61 93/20/61 94/20/61
f 3/1/1 2/2/2 1/2/3
f 2/2/4 3/1/5 4/1/6
f 6/3/7 3/1/8 5/3/9
f 3/1/10 6/3/11 4/1/12
f 9/4/13 8/5/14 7/4/13
f 8/5/15 9/4/13 10/5/15
f 13/6/16 12/7/17 11/7/18
f 12/7/18 13/6/19 14/6/16
f 10/5/20 5/3/21 8/5/22
f 5/3/23 10/5/24 6/3/25
f 17/8/26 16/9/27 15/8/26
f 16/9/28 17/8/26 18/9/27
f 21/10/29 20/6/30 19/10/31
f 20/6/32 21/10/31 22/6/30
f 25/9/33 24/8/34 23/9/35
f 24/8/34 25/9/35 26/8/34
f 28/10/36 23/9/37 27/10/38
f 23/9/39 28/10/38 25/9/37
f 13/6/40 27/10/41 14/6/42
f 27/10/43 13/6/42 28/10/41
f 11/7/44 30/11/45 29/11/46
f 30/11/46 11/7/47 12/7/44
f 26/8/48 31/12/48 24/8/48
f 31/12/48 26/8/48 32/12/48
f 32/12/48 26/8/48 33/12/48
f 34/13/48 31/12/48 32/12/48
f 35/14/48 31/12/48 34/13/48
f 35/14/48 34/13/48 36/15/48
f 37/14/48 31/12/48 35/14/48
f 31/12/48 37/14/48 38/12/48
f 18/9/49 19/10/50 16/9/51
f 19/10/52 18/9/51 21/10/50
f 39/7/53 20/6/54 22/6/55
f 20/6/55 39/7/56 40/7/53
f 29/11/57 42/16/58 41/16/59
f 42/16/59 29/11/60 30/11/57
f 32/12/61 43/13/61 34/13/61
f 43/13/61 32/12/61 44/12/61
f 17/8/62 46/12/62 45/12/62
f 15/8/62 46/12/62 17/8/62
f 46/12/62 15/8/62 47/13/62
f 15/8/62 48/14/62 47/13/62
f 47/13/62 48/14/62 49/15/62
f 50/12/62 48/14/62 15/8/62
f 51/12/62 48/14/62 50/12/62
f 48/14/62 51/12/62 52/14/62
f 36/15/63 53/14/61 35/14/61
f 53/14/61 36/15/64 54/15/65
f 41/16/66 56/11/67 55/11/68
f 56/11/68 41/16/69 42/16/66
f 55/11/70 40/7/71 39/7/72
f 40/7/72 55/11/73 56/11/70
f 58/13/74 49/15/75 57/15/76
f 49/15/77 58/13/74 47/13/74
f 61/4/48 60/12/48 59/4/48
f 60/12/48 61/4/48 62/12/48
f 63/4/78 61/4/78 59/4/78
f 61/4/78 63/4/78 64/4/78
f 67/12/62 66/4/62 65/12/62
f 66/4/62 67/12/62 68/4/62
f 66/4/78 9/4/78 7/4/78
f 9/4/78 66/4/78 68/4/78
f 69/12/61 47/13/61 58/13/61
f 47/13/61 69/12/61 46/12/61
f 61/4/61 45/12/61 62/12/61
f 45/12/61 61/4/61 17/8/61
f 17/8/61 61/4/61 64/4/61
f 17/8/61 64/4/61 18/9/61
f 18/9/61 64/4/61 70/5/61
f 18/9/61 70/5/61 21/10/61
f 21/10/61 70/5/61 71/3/61
f 21/10/61 71/3/61 22/6/61
f 22/6/61 71/3/61 39/7/61
f 39/7/61 71/3/61 72/1/61
f 39/7/61 72/1/61 55/11/61
f 55/11/61 72/1/61 41/16/61
f 4/1/61 41/16/61 72/1/61
f 4/1/61 29/11/61 41/16/61
f 4/1/61 72/1/61 73/2/61
f 4/1/61 11/7/61 29/11/61
f 4/1/61 73/2/61 2/2/61
f 2/2/61 73/2/61 74/17/61
f 2/2/61 74/17/61 75/17/61
f 75/17/61 74/17/61 76/18/61
f 6/3/61 11/7/61 4/1/61
f 6/3/61 13/6/61 11/7/61
f 6/3/61 28/10/61 13/6/61
f 10/5/61 28/10/61 6/3/61
f 10/5/61 25/9/61 28/10/61
f 9/4/61 25/9/61 10/5/61
f 25/9/61 9/4/61 26/8/61
f 68/4/61 26/8/61 9/4/61
f 67/12/61 26/8/61 68/4/61
f 26/8/61 67/12/61 33/12/61
f 69/12/79 45/12/79 46/12/79
f 69/12/79 62/12/79 45/12/79
f 62/12/79 69/12/79 60/12/79
f 77/12/79 60/12/79 69/12/79
f 60/12/79 77/12/79 65/12/79
f 65/12/79 77/12/79 78/12/79
f 65/12/79 78/12/79 67/12/79
f 44/12/79 67/12/79 78/12/79
f 32/12/79 67/12/79 44/12/79
f 67/12/79 32/12/79 33/12/79
f 66/4/80 60/12/80 65/12/80
f 60/12/80 66/4/80 59/4/80
f 59/4/78 66/4/78 7/4/78
f 59/4/81 7/4/79 63/4/79
f 8/5/80 63/4/80 7/4/80
f 63/4/80 8/5/80 79/5/80
f 79/5/80 8/5/80 5/3/80
f 79/5/80 5/3/80 80/3/80
f 80/3/80 5/3/80 3/1/80
f 80/3/80 3/1/80 81/1/80
f 81/1/80 3/1/80 1/2/80
f 81/1/80 1/2/80 82/2/80
f 82/2/80 1/2/80 83/17/80
f 82/2/80 83/17/80 84/17/80
f 84/17/80 83/17/80 85/18/80
f 78/12/80 87/13/80 86/13/80
f 87/13/80 78/12/80 77/12/80
f 57/15/82 48/14/61 88/14/61
f 48/14/61 57/15/83 49/15/84
f 53/14/62 90/15/85 89/14/62
f 90/15/86 53/14/62 54/15/86
f 86/13/87 91/15/88 90/15/89
f 91/15/90 86/13/87 87/13/87
f 34/13/74 54/15/91 36/15/84
f 54/15/92 34/13/74 43/13/74
f 90/15/93 92/14/80 89/14/80
f 92/14/80 90/15/94 91/15/95
f 69/12/48 87/13/48 77/12/48
f 87/13/48 69/12/48 58/13/48
f 57/15/96 92/14/48 91/15/96
f 92/14/48 57/15/96 88/14/48
f 43/13/62 78/12/62 86/13/62
f 78/12/62 43/13/62 44/12/62
f 54/15/97 86/13/98 90/15/99
f 86/13/98 54/15/100 43/13/98
f 87/13/101 57/15/102 91/15/103
f 57/15/104 87/13/101 58/13/101
f 71/3/105 79/5/106 80/3/107
f 79/5/108 71/3/109 70/5/110
f 53/14/79 37/14/79 35/14/79
f 89/14/79 37/14/79 53/14/79
f 89/14/79 52/14/79 37/14/79
f 92/14/79 52/14/79 89/14/79
f 92/14/79 48/14/79 52/14/79
f 48/14/79 92/14/79 88/14/79
f 70/5/111 63/4/112 79/5/113
f 63/4/112 70/5/111 64/4/112
f 72/1/114 80/3/115 81/1/116
f 80/3/117 72/1/118 71/3/119
f 82/2/120 72/1/121 81/1/122
f 72/1/123 82/2/124 73/2/125
f 84/17/126 73/2/127 82/2/128
f 73/2/129 84/17/130 74/17/131
f 85/18/132 74/17/133 84/17/134
f 74/17/135 85/18/136 76/18/137
f 83/17/138 76/18/139 85/18/140
f 76/18/141 83/17/142 75/17/143
f 1/2/144 75/17/145 83/17/146
f 75/17/147 1/2/148 2/2/149
f 15/19/61 31/20/61 50/20/61
f 31/20/61 15/19/61 24/19/61
f 24/19/61 15/19/61 16/21/61
f 24/19/61 16/21/61 23/21/61
f 23/21/61 16/21/61 19/22/61
f 23/21/61 19/22/61 27/22/61
f 27/22/61 19/22/61 20/23/61
f 27/22/61 20/23/61 14/23/61
f 14/23/61 20/23/61 40/24/61
f 14/23/61 40/24/61 12/24/61
f 12/24/61 40/24/61 56/25/61
f 12/24/61 56/25/61 30/25/61
f 30/25/61 56/25/61 42/26/61
f 31/20/79 93/20/79 50/20/79
f 93/20/79 31/20/79 94/20/79
f 93/20/61 96/14/61 95/14/61
f 96/14/61 93/20/61 94/20/61
