# Blender 3.6.4
# www.blender.org
mtllib Gravestone_Broken_3.mtl
o Gravestone_Broken_3
v 11.603052 0.000000 -6.756038
v 11.535329 0.000000 -6.371963
v 11.603052 0.078000 -6.756038
v 11.535329 0.078000 -6.371963
v 11.695676 0.040000 -6.704487
v 11.695676 0.000000 -6.704487
v 11.732385 0.040000 -6.652061
v 11.732385 0.000000 -6.652061
v 11.399923 0.117000 -6.417620
v 11.399923 0.358081 -6.417620
v 11.530956 0.117000 -6.394515
v 11.530956 0.358081 -6.394515
v 11.404984 0.358081 -6.446326
v 11.536018 0.358081 -6.423221
v 11.657023 0.000000 -6.599293
v 11.657023 0.040000 -6.599293
v 11.620314 0.000000 -6.651718
v 11.620314 0.040000 -6.651718
v 11.653579 0.000000 -6.731432
v 11.653579 0.040000 -6.731432
v 11.709823 0.000000 -6.761971
v 11.709823 0.040000 -6.761971
v 11.591229 0.117000 -6.736341
v 11.460196 0.316300 -6.759446
v 11.591229 0.316300 -6.736341
v 11.454987 0.316300 -6.729902
v 11.586020 0.316300 -6.706797
v 11.665925 0.000000 -6.842822
v 11.609680 0.000000 -6.812284
v 11.388100 0.078000 -6.397923
v 11.609680 0.040000 -6.812284
v 11.460196 0.117000 -6.759446
v 11.455823 0.078000 -6.781998
v 11.581048 0.261601 -6.678597
v 11.569267 0.226603 -6.611783
v 11.574102 0.261601 -6.639205
v 11.558847 0.226603 -6.552695
v 11.549712 0.249601 -6.500886
v 11.554922 0.249601 -6.530430
v 11.539104 0.329673 -6.440722
v 11.542577 0.329673 -6.460418
v 11.408071 0.329673 -6.463827
v 11.388100 0.000000 -6.397923
v 11.455823 0.000000 -6.781998
v 11.665925 0.040000 -6.842822
v 11.423888 0.249601 -6.553535
v 11.427814 0.226603 -6.575799
v 11.450014 0.261601 -6.701702
v 11.443069 0.261601 -6.662310
v 11.411544 0.329673 -6.483523
v 11.418679 0.249601 -6.523991
v 11.438233 0.226603 -6.634888
vn 0.9813 0.0844 0.1730
vn 0.9848 -0.0000 0.1736
vn 0.8192 -0.0000 -0.5736
vn -0.8192 -0.0000 0.5736
vn -0.1736 -0.0000 0.9848
vn -0.0000 1.0000 -0.0000
vn 0.0842 0.8747 -0.4772
vn 0.0843 0.8747 -0.4772
vn 0.0841 0.8747 -0.4772
vn 0.5736 -0.0000 0.8192
vn -0.5736 -0.0000 -0.8192
vn -0.8191 -0.0000 0.5736
vn 0.8191 -0.0000 -0.5736
vn -0.0000 -1.0000 -0.0000
vn 0.4772 -0.0000 0.8788
vn -0.4772 -0.0000 -0.8788
vn 0.9636 0.2063 0.1699
vn 0.9813 0.0843 0.1730
vn -0.0899 0.8555 0.5099
vn -0.1689 0.2334 0.9576
vn -0.1522 0.4819 0.8629
vn -0.1688 0.2334 0.9576
vn -0.8788 -0.0000 0.4772
vn 0.8788 -0.0000 -0.4772
vn 0.1736 -0.0000 -0.9848
vn 0.1522 0.4819 -0.8629
vn 0.1689 0.2334 -0.9576
vn 0.1688 0.2334 -0.9576
vn -0.9813 0.0844 -0.1730
vn -0.9848 -0.0000 -0.1736
vn 0.0671 0.9222 -0.3808
vn 0.0672 0.9222 -0.3807
vn 0.0672 0.9222 -0.3808
vn -0.0754 0.9007 0.4278
vn -0.0755 0.9007 0.4278
vn 0.0905 0.8534 -0.5134
vn 0.0905 0.8534 -0.5133
vn 0.0906 0.8534 -0.5133
vn 0.0903 0.8534 -0.5134
vn -0.9636 0.2063 -0.1699
vt 0.843750 0.068566
vt 0.843750 0.025000
vt 0.843750 0.047341
vt 0.843750 0.090348
vt 0.843750 0.225000
vt 0.843750 0.201664
vt 0.843750 0.171113
vt 0.843750 0.151565
vt 0.843750 0.164410
vt 0.843750 0.209133
s 0
usemtl colormap.068
f 3/1/1 2/2/2 1/2/2
f 2/2/2 3/1/1 4/1/1
f 7/3/3 6/2/3 5/3/3
f 6/2/3 7/3/3 8/2/3
f 5/3/4 6/2/4 7/3/4
f 8/2/4 7/3/4 6/2/4
f 11/4/5 10/5/5 9/4/5
f 10/5/5 11/4/5 12/5/5
f 10/5/6 14/5/7 13/5/8
f 14/5/9 10/5/6 12/5/6
f 8/2/10 16/3/10 15/2/10
f 16/3/10 8/2/10 7/3/10
f 15/2/11 16/3/11 8/2/11
f 7/3/11 8/2/11 16/3/11
f 15/2/12 18/3/12 17/2/12
f 18/3/12 15/2/12 16/3/12
f 17/2/13 18/3/13 15/2/13
f 16/3/13 15/2/13 18/3/13
f 8/2/14 17/2/14 6/2/14
f 17/2/14 8/2/14 15/2/14
f 6/2/6 17/2/6 8/2/6
f 15/2/6 8/2/6 17/2/6
f 21/2/15 20/3/15 19/2/15
f 20/3/15 21/2/15 22/3/15
f 19/2/16 20/3/16 21/2/16
f 22/3/16 21/2/16 20/3/16
f 23/4/17 4/1/18 3/1/18
f 4/1/18 23/4/17 11/4/17
f 26/6/19 25/6/6 24/6/6
f 25/6/6 26/6/19 27/6/19
f 21/2/14 29/2/14 28/2/14
f 29/2/14 21/2/14 19/2/14
f 28/2/6 29/2/6 21/2/6
f 19/2/6 21/2/6 29/2/6
f 4/1/20 9/4/21 30/1/20
f 9/4/21 4/1/22 11/4/21
f 20/3/23 29/2/23 19/2/23
f 29/2/23 20/3/23 31/3/23
f 19/2/24 29/2/24 20/3/24
f 31/3/24 20/3/24 29/2/24
f 25/6/25 32/4/25 24/6/25
f 32/4/25 25/6/25 23/4/25
f 18/3/11 6/2/11 17/2/11
f 6/2/11 18/3/11 5/3/11
f 17/2/10 6/2/10 18/3/10
f 5/3/10 18/3/10 6/2/10
f 32/4/26 3/1/27 33/1/28
f 3/1/27 32/4/26 23/4/26
f 34/7/2 25/6/2 27/6/2
f 34/7/2 23/4/2 25/6/2
f 35/8/2 23/4/2 34/7/2
f 36/7/2 35/8/2 34/7/2
f 23/4/2 35/8/2 11/4/2
f 37/8/2 11/4/2 35/8/2
f 38/9/2 11/4/2 37/8/2
f 38/9/2 37/8/2 39/9/2
f 11/4/2 38/9/2 12/5/2
f 12/5/2 38/9/2 40/10/2
f 40/10/2 38/9/2 41/10/2
f 12/5/2 40/10/2 14/5/2
f 14/5/7 42/10/9 13/5/7
f 42/10/7 14/5/9 40/10/9
f 30/1/29 44/2/30 43/2/30
f 44/2/30 30/1/29 33/1/29
f 2/2/5 30/1/22 43/2/5
f 30/1/20 2/2/5 4/1/20
f 31/3/6 22/3/6 45/3/6
f 22/3/6 31/3/6 20/3/6
f 45/3/14 22/3/14 31/3/14
f 20/3/14 31/3/14 22/3/14
f 3/1/27 44/2/25 33/1/27
f 44/2/25 3/1/28 1/2/25
f 39/9/31 47/8/31 46/9/32
f 47/8/31 39/9/33 37/8/31
f 49/7/34 34/7/19 48/7/19
f 34/7/19 49/7/34 36/7/35
f 41/10/36 51/9/37 50/10/37
f 51/9/38 41/10/39 38/9/37
f 42/10/9 41/10/37 50/10/37
f 41/10/37 42/10/9 40/10/9
f 2/2/14 44/2/14 1/2/14
f 44/2/14 2/2/14 43/2/14
f 47/8/31 35/8/34 52/8/34
f 35/8/34 47/8/31 37/8/31
f 51/9/37 39/9/31 46/9/33
f 39/9/31 51/9/37 38/9/37
f 45/3/16 29/2/16 31/3/16
f 29/2/16 45/3/16 28/2/16
f 31/3/15 29/2/15 45/3/15
f 28/2/15 45/3/15 29/2/15
f 45/3/24 21/2/24 28/2/24
f 21/2/24 45/3/24 22/3/24
f 28/2/23 21/2/23 45/3/23
f 22/3/23 45/3/23 21/2/23
f 35/8/35 49/7/34 52/8/34
f 49/7/35 35/8/34 36/7/35
f 34/7/19 26/6/19 48/7/19
f 26/6/19 34/7/19 27/6/19
f 9/4/40 33/1/29 30/1/29
f 33/1/29 9/4/40 32/4/40
f 18/3/6 7/3/6 5/3/6
f 7/3/6 18/3/6 16/3/6
f 5/3/14 7/3/14 18/3/14
f 16/3/14 18/3/14 7/3/14
f 42/10/30 10/5/30 13/5/30
f 51/9/30 10/5/30 42/10/30
f 50/10/30 51/9/30 42/10/30
f 51/9/30 9/4/30 10/5/30
f 9/4/30 51/9/30 32/4/30
f 32/4/30 51/9/30 47/8/30
f 46/9/30 47/8/30 51/9/30
f 52/8/30 32/4/30 47/8/30
f 48/7/30 32/4/30 52/8/30
f 48/7/30 52/8/30 49/7/30
f 32/4/30 48/7/30 24/6/30
f 24/6/30 48/7/30 26/6/30
f 3/1/1 2/2/2 1/2/2
f 2/2/2 3/1/1 4/1/1
f 7/3/3 6/2/3 5/3/3
f 6/2/3 7/3/3 8/2/3
f 5/3/4 6/2/4 7/3/4
f 8/2/4 7/3/4 6/2/4
f 11/4/5 10/5/5 9/4/5
f 10/5/5 11/4/5 12/5/5
f 10/5/6 14/5/7 13/5/8
f 14/5/9 10/5/6 12/5/6
f 8/2/10 16/3/10 15/2/10
f 16/3/10 8/2/10 7/3/10
f 15/2/11 16/3/11 8/2/11
f 7/3/11 8/2/11 16/3/11
f 15/2/12 18/3/12 17/2/12
f 18/3/12 15/2/12 16/3/12
f 17/2/13 18/3/13 15/2/13
f 16/3/13 15/2/13 18/3/13
f 8/2/14 17/2/14 6/2/14
f 17/2/14 8/2/14 15/2/14
f 6/2/6 17/2/6 8/2/6
f 15/2/6 8/2/6 17/2/6
f 21/2/15 20/3/15 19/2/15
f 20/3/15 21/2/15 22/3/15
f 19/2/16 20/3/16 21/2/16
f 22/3/16 21/2/16 20/3/16
f 23/4/17 4/1/18 3/1/18
f 4/1/18 23/4/17 11/4/17
f 26/6/19 25/6/6 24/6/6
f 25/6/6 26/6/19 27/6/19
f 21/2/14 29/2/14 28/2/14
f 29/2/14 21/2/14 19/2/14
f 28/2/6 29/2/6 21/2/6
f 19/2/6 21/2/6 29/2/6
f 4/1/20 9/4/21 30/1/20
f 9/4/21 4/1/22 11/4/21
f 20/3/23 29/2/23 19/2/23
f 29/2/23 20/3/23 31/3/23
f 19/2/24 29/2/24 20/3/24
f 31/3/24 20/3/24 29/2/24
f 25/6/25 32/4/25 24/6/25
f 32/4/25 25/6/25 23/4/25
f 18/3/11 6/2/11 17/2/11
f 6/2/11 18/3/11 5/3/11
f 17/2/10 6/2/10 18/3/10
f 5/3/10 18/3/10 6/2/10
f 32/4/26 3/1/27 33/1/28
f 3/1/27 32/4/26 23/4/26
f 34/7/2 25/6/2 27/6/2
f 34/7/2 23/4/2 25/6/2
f 35/8/2 23/4/2 34/7/2
f 36/7/2 35/8/2 34/7/2
f 23/4/2 35/8/2 11/4/2
f 37/8/2 11/4/2 35/8/2
f 38/9/2 11/4/2 37/8/2
f 38/9/2 37/8/2 39/9/2
f 11/4/2 38/9/2 12/5/2
f 12/5/2 38/9/2 40/10/2
f 40/10/2 38/9/2 41/10/2
f 12/5/2 40/10/2 14/5/2
f 14/5/7 42/10/9 13/5/7
f 42/10/7 14/5/9 40/10/9
f 30/1/29 44/2/30 43/2/30
f 44/2/30 30/1/29 33/1/29
f 2/2/5 30/1/22 43/2/5
f 30/1/20 2/2/5 4/1/20
f 31/3/6 22/3/6 45/3/6
f 22/3/6 31/3/6 20/3/6
f 45/3/14 22/3/14 31/3/14
f 20/3/14 31/3/14 22/3/14
f 3/1/27 44/2/25 33/1/27
f 44/2/25 3/1/28 1/2/25
f 39/9/31 47/8/31 46/9/32
f 47/8/31 39/9/33 37/8/31
f 49/7/34 34/7/19 48/7/19
f 34/7/19 49/7/34 36/7/35
f 41/10/36 51/9/37 50/10/37
f 51/9/38 41/10/39 38/9/37
f 42/10/9 41/10/37 50/10/37
f 41/10/37 42/10/9 40/10/9
f 2/2/14 44/2/14 1/2/14
f 44/2/14 2/2/14 43/2/14
f 47/8/31 35/8/34 52/8/34
f 35/8/34 47/8/31 37/8/31
f 51/9/37 39/9/31 46/9/33
f 39/9/31 51/9/37 38/9/37
f 45/3/16 29/2/16 31/3/16
f 29/2/16 45/3/16 28/2/16
f 31/3/15 29/2/15 45/3/15
f 28/2/15 45/3/15 29/2/15
f 45/3/24 21/2/24 28/2/24
f 21/2/24 45/3/24 22/3/24
f 28/2/23 21/2/23 45/3/23
f 22/3/23 45/3/23 21/2/23
f 35/8/35 49/7/34 52/8/34
f 49/7/35 35/8/34 36/7/35
f 34/7/19 26/6/19 48/7/19
f 26/6/19 34/7/19 27/6/19
f 9/4/40 33/1/29 30/1/29
f 33/1/29 9/4/40 32/4/40
f 18/3/6 7/3/6 5/3/6
f 7/3/6 18/3/6 16/3/6
f 5/3/14 7/3/14 18/3/14
f 16/3/14 18/3/14 7/3/14
f 42/10/30 10/5/30 13/5/30
f 51/9/30 10/5/30 42/10/30
f 50/10/30 51/9/30 42/10/30
f 51/9/30 9/4/30 10/5/30
f 9/4/30 51/9/30 32/4/30
f 32/4/30 51/9/30 47/8/30
f 46/9/30 47/8/30 51/9/30
f 52/8/30 32/4/30 47/8/30
f 48/7/30 32/4/30 52/8/30
f 48/7/30 52/8/30 49/7/30
f 32/4/30 48/7/30 24/6/30
f 24/6/30 48/7/30 26/6/30
