# Blender 3.6.4
# www.blender.org
mtllib Gravestone_Decorative_2.mtl
o Gravestone_Decorative_2
v 9.802881 0.648695 -2.243809
v 9.802881 0.593986 -2.243809
v 9.802881 0.648695 -2.064050
v 9.802881 0.593986 -2.064050
v 9.772848 0.554908 -2.233922
v 9.772848 0.140681 -2.233922
v 9.772848 0.554908 -2.073936
v 9.772848 0.140681 -2.073936
v 9.256834 0.593986 -2.243809
v 9.256834 0.593986 -2.064050
v 9.286867 0.554908 -2.233922
v 9.286867 0.554908 -2.073936
v 9.329639 0.648695 -2.243809
v 9.329639 0.648695 -2.064050
v 9.256834 0.648695 -2.243809
v 9.256834 0.648695 -2.064050
v 9.286867 0.140681 -2.233922
v 9.256834 0.000000 -2.243809
v 9.802881 0.000000 -2.243809
v 9.256834 0.093787 -2.243809
v 9.802881 0.093787 -2.243809
v 9.730076 0.625248 -2.243809
v 9.730076 0.625248 -2.064050
v 9.529858 0.703404 -2.243809
v 9.529858 0.703404 -2.064050
v 9.802881 0.093787 -2.064050
v 9.256834 0.093787 -2.064050
v 9.286867 0.140681 -2.073936
v 9.802881 0.000000 -2.064050
v 9.256834 0.000000 -2.064050
v 9.730076 0.648695 -2.243809
v 9.730076 0.648695 -2.064050
v 9.329639 0.625248 -2.064050
v 9.329639 0.625248 -2.243809
vn 1.0000 -0.0000 -0.0000
vn -0.7929 -0.6094 -0.0000
vn -0.0000 1.0000 -0.0000
vn -0.0000 -0.2453 -0.9695
vn -0.0000 -0.0000 -1.0000
vn -0.0015 0.0844 -0.9964
vn -0.0006 0.0844 -0.9964
vn -0.0000 0.0844 -0.9964
vn 0.3636 0.9315 -0.0000
vn -1.0000 -0.0000 -0.0000
vn -0.0000 -0.2453 0.9695
vn -0.0000 0.2063 -0.9785
vn 0.0005 0.0844 -0.9964
vn -0.0025 0.0844 -0.9964
vn 0.0038 0.0844 -0.9964
vn -0.0000 0.2063 0.9785
vn -0.0005 0.0843 0.9964
vn 0.0025 0.0844 0.9964
vn -0.0038 0.0844 0.9964
vn 0.0015 0.0844 0.9964
vn -0.0000 -0.0000 1.0000
vn 0.0006 0.0844 0.9964
vn -0.0000 0.0844 0.9964
vn -0.9546 0.2978 -0.0008
vn -0.8421 0.5393 -0.0000
vn -0.9546 0.2978 0.0006
vn -0.9546 0.2978 -0.0026
vn 0.7929 -0.6094 -0.0000
vn 0.8421 0.5393 -0.0000
vn 0.9546 0.2978 -0.0008
vn 0.9546 0.2978 0.0006
vn 0.9546 0.2978 -0.0026
vn -0.3636 0.9315 -0.0000
vn -0.9724 0.2334 0.0001
vn -0.9724 0.2334 -0.0000
vn 0.9724 0.2334 -0.0000
vn -0.0000 -1.0000 -0.0000
vt 0.726562 0.202609
vt 0.726562 0.187053
vt 0.726562 0.175942
vt 0.726562 0.058164
vt 0.726562 0.044831
vt 0.726562 0.018164
vt 0.726562 0.218164
vt 0.726562 0.195942
s 0
usemtl colormap.081
f 3/1/1 2/2/1 1/1/1
f 2/2/1 3/1/1 4/2/1
f 7/3/1 6/4/1 5/3/1
f 6/4/1 7/3/1 8/4/1
f 11/3/2 10/2/2 9/2/2
f 10/2/2 11/3/2 12/3/2
f 15/1/3 14/1/3 13/1/3
f 14/1/3 15/1/3 16/1/3
f 9/2/4 5/3/4 11/3/4
f 5/3/4 9/2/4 2/2/4
f 11/3/5 6/4/5 17/4/5
f 6/4/5 11/3/5 5/3/5
f 20/5/6 19/6/5 18/6/5
f 19/6/5 20/5/7 21/5/8
f 24/7/9 23/8/9 22/8/9
f 23/8/9 24/7/9 25/7/9
f 10/2/10 15/1/10 9/2/10
f 15/1/10 10/2/10 16/1/10
f 4/2/11 12/3/11 7/3/11
f 12/3/11 4/2/11 10/2/11
f 17/4/12 21/5/13 20/5/14
f 21/5/15 17/4/12 6/4/12
f 8/4/16 27/5/17 26/5/18
f 27/5/19 8/4/16 28/4/16
f 26/5/20 30/6/21 29/6/21
f 30/6/21 26/5/22 27/5/23
f 7/3/21 28/4/21 8/4/21
f 28/4/21 7/3/21 12/3/21
f 28/4/10 11/3/10 17/4/10
f 11/3/10 28/4/10 12/3/10
f 27/5/24 17/4/25 20/5/26
f 17/4/25 27/5/27 28/4/25
f 23/8/10 31/1/10 22/8/10
f 31/1/10 23/8/10 32/1/10
f 4/2/28 5/3/28 2/2/28
f 5/3/28 4/2/28 7/3/28
f 31/1/3 3/1/3 1/1/3
f 3/1/3 31/1/3 32/1/3
f 23/8/21 3/1/21 32/1/21
f 23/8/21 4/2/21 3/1/21
f 4/2/21 23/8/21 10/2/21
f 33/8/21 10/2/21 23/8/21
f 25/7/21 33/8/21 23/8/21
f 10/2/21 33/8/21 16/1/21
f 16/1/21 33/8/21 14/1/21
f 6/4/29 26/5/30 21/5/31
f 26/5/32 6/4/29 8/4/29
f 34/8/33 25/7/33 24/7/33
f 25/7/33 34/8/33 33/8/33
f 30/6/10 20/5/34 18/6/10
f 20/5/35 30/6/10 27/5/35
f 26/5/36 19/6/1 21/5/36
f 19/6/1 26/5/36 29/6/1
f 34/8/5 15/1/5 13/1/5
f 34/8/5 9/2/5 15/1/5
f 9/2/5 34/8/5 2/2/5
f 22/8/5 2/2/5 34/8/5
f 24/7/5 22/8/5 34/8/5
f 2/2/5 22/8/5 1/1/5
f 1/1/5 22/8/5 31/1/5
f 14/1/1 34/8/1 13/1/1
f 34/8/1 14/1/1 33/8/1
f 30/6/37 19/6/37 29/6/37
f 19/6/37 30/6/37 18/6/37
f 3/1/1 2/2/1 1/1/1
f 2/2/1 3/1/1 4/2/1
f 7/3/1 6/4/1 5/3/1
f 6/4/1 7/3/1 8/4/1
f 11/3/2 10/2/2 9/2/2
f 10/2/2 11/3/2 12/3/2
f 15/1/3 14/1/3 13/1/3
f 14/1/3 15/1/3 16/1/3
f 9/2/4 5/3/4 11/3/4
f 5/3/4 9/2/4 2/2/4
f 11/3/5 6/4/5 17/4/5
f 6/4/5 11/3/5 5/3/5
f 20/5/6 19/6/5 18/6/5
f 19/6/5 20/5/7 21/5/8
f 24/7/9 23/8/9 22/8/9
f 23/8/9 24/7/9 25/7/9
f 10/2/10 15/1/10 9/2/10
f 15/1/10 10/2/10 16/1/10
f 4/2/11 12/3/11 7/3/11
f 12/3/11 4/2/11 10/2/11
f 17/4/12 21/5/13 20/5/14
f 21/5/15 17/4/12 6/4/12
f 8/4/16 27/5/17 26/5/18
f 27/5/19 8/4/16 28/4/16
f 26/5/20 30/6/21 29/6/21
f 30/6/21 26/5/22 27/5/23
f 7/3/21 28/4/21 8/4/21
f 28/4/21 7/3/21 12/3/21
f 28/4/10 11/3/10 17/4/10
f 11/3/10 28/4/10 12/3/10
f 27/5/24 17/4/25 20/5/26
f 17/4/25 27/5/27 28/4/25
f 23/8/10 31/1/10 22/8/10
f 31/1/10 23/8/10 32/1/10
f 4/2/28 5/3/28 2/2/28
f 5/3/28 4/2/28 7/3/28
f 31/1/3 3/1/3 1/1/3
f 3/1/3 31/1/3 32/1/3
f 23/8/21 3/1/21 32/1/21
f 23/8/21 4/2/21 3/1/21
f 4/2/21 23/8/21 10/2/21
f 33/8/21 10/2/21 23/8/21
f 25/7/21 33/8/21 23/8/21
f 10/2/21 33/8/21 16/1/21
f 16/1/21 33/8/21 14/1/21
f 6/4/29 26/5/30 21/5/31
f 26/5/32 6/4/29 8/4/29
f 34/8/33 25/7/33 24/7/33
f 25/7/33 34/8/33 33/8/33
f 30/6/10 20/5/34 18/6/10
f 20/5/35 30/6/10 27/5/35
f 26/5/36 19/6/1 21/5/36
f 19/6/1 26/5/36 29/6/1
f 34/8/5 15/1/5 13/1/5
f 34/8/5 9/2/5 15/1/5
f 9/2/5 34/8/5 2/2/5
f 22/8/5 2/2/5 34/8/5
f 24/7/5 22/8/5 34/8/5
f 2/2/5 22/8/5 1/1/5
f 1/1/5 22/8/5 31/1/5
f 14/1/1 34/8/1 13/1/1
f 34/8/1 14/1/1 33/8/1
f 30/6/37 19/6/37 29/6/37
f 19/6/37 30/6/37 18/6/37
