# Blender 3.6.4
# www.blender.org
mtllib Gravestone_Roof_5.mtl
o Gravestone_Roof_5
v 6.484063 0.000000 -1.666081
v 6.389211 0.000000 -2.204013
v 6.484063 0.093701 -1.666081
v 6.389211 0.093701 -2.204013
v 6.404156 0.530374 -2.176144
v 6.404156 0.140552 -2.176144
v 6.561567 0.530374 -2.203900
v 6.561567 0.140552 -2.203900
v 6.643875 0.564211 -1.737109
v 6.486464 0.564211 -1.709354
v 6.651202 0.595445 -1.695552
v 6.493792 0.595445 -1.667797
v 6.454487 0.595445 -1.660866
v 6.407061 0.657913 -1.929834
v 6.454487 0.640293 -1.660866
v 6.407061 0.702761 -1.929834
v 6.359635 0.640293 -2.198798
v 6.359635 0.595445 -2.198798
v 6.645985 0.140552 -1.725140
v 6.645985 0.530374 -1.725140
v 6.563677 0.564211 -2.191931
v 6.556350 0.595445 -2.233484
v 6.603776 0.657913 -1.964520
v 6.690506 0.640293 -1.702483
v 6.690506 0.595445 -1.702483
v 6.398940 0.595445 -2.205729
v 6.406266 0.564211 -2.164175
v 6.488574 0.140552 -1.697385
v 6.488574 0.530374 -1.697385
v 6.446365 0.657913 -1.936764
v 6.595654 0.640293 -2.240414
v 6.643079 0.702761 -1.971450
v 6.566077 0.093701 -2.235199
v 6.660929 0.093701 -1.697268
v 6.566077 0.000000 -2.235199
v 6.660929 0.000000 -1.697268
v 6.595654 0.595445 -2.240414
v 6.643079 0.657913 -1.971450
vn -0.9810 0.0844 0.1745
vn -0.9848 -0.0000 0.1736
vn -0.9812 0.0844 0.1736
vn -0.9813 0.0844 0.1730
vn -0.1736 -0.0000 -0.9848
vn 0.1033 -0.8038 0.5859
vn 0.9848 -0.0000 -0.1736
vn 0.1736 -0.0000 0.9848
vn -0.1033 -0.8038 -0.5859
vn -0.1033 -0.8037 -0.5859
vn -0.9636 0.2063 0.1699
vn -0.9814 0.0844 0.1726
vn -0.9809 0.0844 0.1755
vn -0.9820 0.0844 0.1692
vn -0.0387 0.9748 -0.2196
vn 0.0387 -0.9748 0.2196
vn 0.9636 0.2063 -0.1699
vn 0.9814 0.0843 -0.1726
vn 0.9809 0.0844 -0.1755
vn 0.9820 0.0844 -0.1692
vn 0.1649 0.2984 0.9401
vn 0.1462 0.5398 0.8290
vn 0.1663 0.2984 0.9399
vn 0.1631 0.2984 0.9404
vn -0.0000 -1.0000 -0.0000
vn -0.1634 0.3380 -0.9268
vn -0.0387 -0.9748 -0.2196
vn 0.0387 0.9748 0.2196
vn 0.1689 0.2334 0.9576
vn 0.1688 0.2334 0.9576
vn -0.1688 0.2334 -0.9576
vn -0.1689 0.2334 -0.9576
vn 0.1634 0.3380 0.9268
vn -0.1462 0.5398 -0.8290
vn -0.1665 0.2983 -0.9398
vn -0.1652 0.2983 -0.9401
vn -0.1683 0.2983 -0.9395
vn 0.9810 0.0844 -0.1745
vn 0.9812 0.0844 -0.1736
vn 0.9813 0.0844 -0.1730
vt 0.843750 0.051667
vt 0.843750 0.025000
vt 0.843750 0.175940
vt 0.843750 0.065000
vt 0.843750 0.194459
vt 0.843750 0.185570
vt 0.843750 0.207222
vt 0.843750 0.212237
vt 0.843750 0.225000
s 0
usemtl colormap.079
f 3/1/1 2/2/2 1/2/2
f 2/2/2 3/1/3 4/1/4
f 7/3/5 6/4/5 5/3/5
f 6/4/5 7/3/5 8/4/5
f 11/5/6 10/6/6 9/6/6
f 10/6/6 11/5/6 12/5/6
f 15/7/2 14/8/2 13/5/2
f 14/8/2 15/7/2 16/9/2
f 17/7/2 14/8/2 16/9/2
f 14/8/2 17/7/2 18/5/2
f 7/3/7 19/4/7 8/4/7
f 19/4/7 7/3/7 20/3/7
f 20/3/7 7/3/7 21/6/7
f 20/3/7 21/6/7 9/6/7
f 9/6/7 21/6/7 22/5/7
f 9/6/7 22/5/7 11/5/7
f 11/5/7 22/5/7 23/8/7
f 12/5/8 15/7/8 13/5/8
f 15/7/8 12/5/8 24/7/8
f 24/7/8 12/5/8 11/5/8
f 24/7/8 11/5/8 25/5/8
f 21/6/9 26/5/9 22/5/9
f 26/5/10 21/6/10 27/6/10
f 28/4/11 4/1/12 3/1/13
f 4/1/14 28/4/11 6/4/11
f 29/3/2 6/4/2 28/4/2
f 6/4/2 29/3/2 5/3/2
f 5/3/2 29/3/2 10/6/2
f 5/3/2 10/6/2 27/6/2
f 27/6/2 10/6/2 12/5/2
f 27/6/2 12/5/2 26/5/2
f 26/5/2 12/5/2 30/8/2
f 16/9/15 31/7/15 17/7/15
f 31/7/15 16/9/15 32/9/15
f 19/4/8 29/3/8 28/4/8
f 29/3/8 19/4/8 20/3/8
f 30/8/16 18/5/16 26/5/16
f 18/5/16 30/8/16 14/8/16
f 8/4/17 34/1/18 33/1/19
f 34/1/20 8/4/17 19/4/17
f 34/1/21 28/4/22 3/1/23
f 28/4/22 34/1/24 19/4/22
f 36/2/25 2/2/25 35/2/25
f 2/2/25 36/2/25 1/2/25
f 21/6/26 5/3/26 27/6/26
f 5/3/26 21/6/26 7/3/26
f 31/7/7 38/8/7 37/5/7
f 38/8/7 31/7/7 32/9/7
f 24/7/7 38/8/7 32/9/7
f 38/8/7 24/7/7 25/5/7
f 12/5/27 14/8/27 30/8/27
f 14/8/27 12/5/27 13/5/27
f 15/7/28 32/9/28 16/9/28
f 32/9/28 15/7/28 24/7/28
f 36/2/8 3/1/29 1/2/8
f 3/1/30 36/2/8 34/1/30
f 25/5/27 23/8/27 38/8/27
f 23/8/27 25/5/27 11/5/27
f 33/1/31 2/2/5 4/1/31
f 2/2/5 33/1/32 35/2/5
f 20/3/33 10/6/33 29/3/33
f 10/6/33 20/3/33 9/6/33
f 6/4/34 33/1/35 4/1/36
f 33/1/37 6/4/34 8/4/34
f 31/7/5 18/5/5 17/7/5
f 18/5/5 31/7/5 26/5/5
f 26/5/5 31/7/5 22/5/5
f 22/5/5 31/7/5 37/5/5
f 38/8/16 22/5/16 37/5/16
f 22/5/16 38/8/16 23/8/16
f 33/1/38 36/2/7 35/2/7
f 36/2/7 33/1/39 34/1/40
f 3/1/1 2/2/2 1/2/2
f 2/2/2 3/1/3 4/1/4
f 7/3/5 6/4/5 5/3/5
f 6/4/5 7/3/5 8/4/5
f 11/5/6 10/6/6 9/6/6
f 10/6/6 11/5/6 12/5/6
f 15/7/2 14/8/2 13/5/2
f 14/8/2 15/7/2 16/9/2
f 17/7/2 14/8/2 16/9/2
f 14/8/2 17/7/2 18/5/2
f 7/3/7 19/4/7 8/4/7
f 19/4/7 7/3/7 20/3/7
f 20/3/7 7/3/7 21/6/7
f 20/3/7 21/6/7 9/6/7
f 9/6/7 21/6/7 22/5/7
f 9/6/7 22/5/7 11/5/7
f 11/5/7 22/5/7 23/8/7
f 12/5/8 15/7/8 13/5/8
f 15/7/8 12/5/8 24/7/8
f 24/7/8 12/5/8 11/5/8
f 24/7/8 11/5/8 25/5/8
f 21/6/9 26/5/9 22/5/9
f 26/5/10 21/6/10 27/6/10
f 28/4/11 4/1/12 3/1/13
f 4/1/14 28/4/11 6/4/11
f 29/3/2 6/4/2 28/4/2
f 6/4/2 29/3/2 5/3/2
f 5/3/2 29/3/2 10/6/2
f 5/3/2 10/6/2 27/6/2
f 27/6/2 10/6/2 12/5/2
f 27/6/2 12/5/2 26/5/2
f 26/5/2 12/5/2 30/8/2
f 16/9/15 31/7/15 17/7/15
f 31/7/15 16/9/15 32/9/15
f 19/4/8 29/3/8 28/4/8
f 29/3/8 19/4/8 20/3/8
f 30/8/16 18/5/16 26/5/16
f 18/5/16 30/8/16 14/8/16
f 8/4/17 34/1/18 33/1/19
f 34/1/20 8/4/17 19/4/17
f 34/1/21 28/4/22 3/1/23
f 28/4/22 34/1/24 19/4/22
f 36/2/25 2/2/25 35/2/25
f 2/2/25 36/2/25 1/2/25
f 21/6/26 5/3/26 27/6/26
f 5/3/26 21/6/26 7/3/26
f 31/7/7 38/8/7 37/5/7
f 38/8/7 31/7/7 32/9/7
f 24/7/7 38/8/7 32/9/7
f 38/8/7 24/7/7 25/5/7
f 12/5/27 14/8/27 30/8/27
f 14/8/27 12/5/27 13/5/27
f 15/7/28 32/9/28 16/9/28
f 32/9/28 15/7/28 24/7/28
f 36/2/8 3/1/29 1/2/8
f 3/1/30 36/2/8 34/1/30
f 25/5/27 23/8/27 38/8/27
f 23/8/27 25/5/27 11/5/27
f 33/1/31 2/2/5 4/1/31
f 2/2/5 33/1/32 35/2/5
f 20/3/33 10/6/33 29/3/33
f 10/6/33 20/3/33 9/6/33
f 6/4/34 33/1/35 4/1/36
f 33/1/37 6/4/34 8/4/34
f 31/7/5 18/5/5 17/7/5
f 18/5/5 31/7/5 26/5/5
f 26/5/5 31/7/5 22/5/5
f 22/5/5 31/7/5 37/5/5
f 38/8/16 22/5/16 37/5/16
f 22/5/16 38/8/16 23/8/16
f 33/1/38 36/2/7 35/2/7
f 36/2/7 33/1/39 34/1/40
