# Blender 3.6.4
# www.blender.org
mtllib Gravestone_Bevel_2.mtl
o Gravestone_Bevel_2
v -5.920074 0.565831 5.304741
v -6.004359 0.535179 5.342268
v -5.976358 0.565831 5.329801
v -5.943743 0.499477 5.315279
v -5.943743 0.209802 5.315279
v -6.004359 0.143449 5.342268
v -5.628147 0.209802 5.174767
v -5.567531 0.143449 5.147779
v -5.567531 0.535179 5.147779
v -5.628147 0.499477 5.174767
v -5.698329 0.499477 5.206014
v -5.847755 0.604894 5.272542
v -5.873560 0.499477 5.284032
v -5.902104 0.639241 5.296740
v -5.821632 0.633491 5.260912
v -5.785945 0.643958 5.245023
v -5.853008 0.692982 5.274882
v -5.651816 0.565831 5.185305
v -5.595532 0.565831 5.160246
v -5.724135 0.604894 5.217504
v -5.669786 0.639241 5.193306
v -5.750258 0.633491 5.229134
v -5.718882 0.692982 5.215165
v -5.785945 0.712652 5.245023
v -6.050912 0.565831 5.162350
v -6.078913 0.535179 5.174817
v -5.994627 0.565831 5.137290
v -5.948114 0.499477 5.116581
v -5.922309 0.604894 5.105092
v -6.018297 0.499477 5.147829
v -5.976658 0.639241 5.129289
v -5.896186 0.633491 5.093461
v -6.018297 0.209802 5.147829
v -6.078913 0.143449 5.174817
v -5.642085 0.143449 4.980328
v -5.702701 0.209802 5.007316
v -5.860499 0.643958 5.077572
v -5.642085 0.535179 4.980328
v -5.702701 0.499477 5.007316
v -5.772883 0.499477 5.038563
v -5.927562 0.692982 5.107431
v -5.726370 0.565831 5.017854
v -5.670086 0.565831 4.992795
v -5.798689 0.604894 5.050053
v -5.744340 0.639241 5.025855
v -5.824812 0.633491 5.061683
v -5.793436 0.692982 5.047714
v -5.860499 0.712652 5.077572
v -5.653081 0.209802 5.118763
v -5.968678 0.209802 5.259275
v -5.653081 0.499477 5.118763
v -5.723264 0.499477 5.150011
v -5.749070 0.604894 5.161500
v -5.775192 0.633491 5.173131
v -5.810879 0.643958 5.189019
v -5.846567 0.633491 5.204908
v -5.872689 0.604894 5.216539
v -5.898495 0.499477 5.228028
v -5.968678 0.499477 5.259275
v -5.993362 0.499477 5.203832
v -5.993362 0.209802 5.203832
v -5.923180 0.499477 5.172585
v -5.897375 0.604894 5.161095
v -5.871252 0.633491 5.149465
v -5.835565 0.643958 5.133576
v -5.799878 0.633491 5.117687
v -5.773755 0.604894 5.106056
v -5.747949 0.499477 5.094567
v -5.677767 0.499477 5.063320
v -5.677766 0.209802 5.063320
v -5.527062 -0.000002 5.163314
v -5.626551 -0.000002 4.939859
v -6.019893 -0.000002 5.382736
v -6.119382 -0.000002 5.159282
v -6.119382 0.095632 5.159282
v -5.626551 0.095632 4.939859
v -5.527062 0.095632 5.163314
v -6.019893 0.095632 5.382736
vn 0.4067 -0.0000 0.9135
vn -0.4067 -0.0000 -0.9135
vn -0.3496 0.9239 0.1556
vn -0.0000 1.0000 -0.0000
vn 0.7911 0.5000 -0.3523
vn 0.8824 0.2588 -0.3929
vn 0.7912 0.5000 -0.3522
vn 0.4568 0.8660 -0.2034
vn 0.7911 0.5000 -0.3522
vn -0.4568 0.8660 0.2034
vn -0.7911 0.5000 0.3522
vn -0.7911 0.5000 0.3523
vn -0.7912 0.5000 0.3522
vn -0.8824 0.2588 0.3929
vn 0.3496 0.9239 -0.1556
vn -0.9135 -0.0000 0.4067
vn -0.0000 -1.0000 -0.0000
vn -0.8824 -0.2588 0.3929
vn -0.7912 -0.5000 0.3522
vn -0.4568 -0.8660 0.2034
vn -0.7912 -0.5000 0.3523
vn 0.4568 -0.8660 -0.2034
vn 0.7912 -0.5000 -0.3522
vn 0.8824 -0.2588 -0.3929
vn 0.9135 -0.0000 -0.4067
vn 0.7912 -0.5000 -0.3523
vn 0.8440 0.3827 -0.3758
vn 0.3495 0.9239 -0.1558
vn -0.8440 0.3827 0.3758
vn -0.3495 0.9239 0.1558
vn -0.3960 0.2283 -0.8894
vn 0.3424 0.5397 0.7691
vn 0.3960 0.2283 0.8894
vn -0.8894 0.2283 0.3960
vn -0.7691 0.5397 0.3424
vn 0.7691 0.5397 -0.3424
vn 0.8894 0.2283 -0.3960
vn -0.3424 0.5397 -0.7691
vt 0.843750 0.183796
vt 0.843750 0.175194
vt 0.843750 0.165174
vt 0.843750 0.083880
vt 0.843750 0.065258
vt 0.843750 0.194759
vt 0.843750 0.204398
vt 0.843750 0.202784
vt 0.843750 0.205722
vt 0.843750 0.219480
vt 0.843750 0.225000
vt 0.093750 0.025000
vt 0.093750 0.051839
vt 0.093750 0.065258
vt 0.093750 0.165174
vt 0.093750 0.083880
vt 0.093750 0.194759
vt 0.093750 0.202784
vt 0.093750 0.205722
s 0
usemtl colormap.052
f 3/1/1 2/2/1 1/1/1
f 4/3/1 1/1/1 2/2/1
f 2/2/1 5/4/1 4/3/1
f 6/5/1 5/4/1 2/2/1
f 5/4/1 6/5/1 7/4/1
f 8/5/1 7/4/1 6/5/1
f 7/4/1 8/5/1 9/2/1
f 7/4/1 9/2/1 10/3/1
f 10/3/1 9/2/1 11/3/1
f 4/3/1 12/6/1 1/1/1
f 12/6/1 4/3/1 13/3/1
f 1/1/1 12/6/1 14/7/1
f 14/7/1 12/6/1 15/8/1
f 14/7/1 15/8/1 16/9/1
f 14/7/1 16/9/1 17/10/1
f 11/3/1 9/2/1 18/1/1
f 18/1/1 9/2/1 19/1/1
f 11/3/1 18/1/1 20/6/1
f 20/6/1 18/1/1 21/7/1
f 20/6/1 21/7/1 22/8/1
f 22/8/1 21/7/1 16/9/1
f 16/9/1 21/7/1 23/10/1
f 17/10/1 16/9/1 23/10/1
f 17/10/1 23/10/1 24/11/1
f 27/1/2 26/2/2 25/1/2
f 28/3/2 26/2/2 27/1/2
f 28/3/2 27/1/2 29/6/2
f 30/3/2 26/2/2 28/3/2
f 29/6/2 27/1/2 31/7/2
f 29/6/2 31/7/2 32/8/2
f 33/4/2 26/2/2 30/3/2
f 33/4/2 34/5/2 26/2/2
f 34/5/2 33/4/2 35/5/2
f 36/4/2 35/5/2 33/4/2
f 32/8/2 31/7/2 37/9/2
f 35/5/2 36/4/2 38/2/2
f 38/2/2 36/4/2 39/3/2
f 38/2/2 39/3/2 40/3/2
f 37/9/2 31/7/2 41/10/2
f 38/2/2 40/3/2 42/1/2
f 38/2/2 42/1/2 43/1/2
f 42/1/2 40/3/2 44/6/2
f 42/1/2 44/6/2 45/7/2
f 45/7/2 44/6/2 46/8/2
f 45/7/2 46/8/2 37/9/2
f 45/7/2 37/9/2 47/10/2
f 47/10/2 37/9/2 41/10/2
f 47/10/2 41/10/2 48/11/2
f 25/1/3 1/1/4 27/1/4
f 1/1/4 25/1/3 3/1/3
f 21/7/5 42/1/6 45/7/7
f 42/1/6 21/7/7 18/1/6
f 47/10/8 21/7/5 45/7/7
f 21/7/9 47/10/8 23/10/8
f 48/11/4 23/10/8 47/10/8
f 23/10/8 48/11/4 24/11/4
f 41/10/10 24/11/4 48/11/4
f 24/11/4 41/10/10 17/10/10
f 31/7/11 17/10/10 41/10/10
f 17/10/10 31/7/12 14/7/13
f 1/1/14 31/7/13 27/1/14
f 31/7/12 1/1/14 14/7/13
f 42/1/4 19/1/15 43/1/15
f 19/1/15 42/1/4 18/1/4
f 50/4/4 7/4/4 49/4/4
f 7/4/4 50/4/4 5/4/4
f 7/4/16 51/3/16 49/4/16
f 51/3/16 7/4/16 10/3/16
f 11/3/17 51/3/17 10/3/17
f 51/3/17 11/3/17 52/3/17
f 11/3/18 53/6/19 52/3/18
f 53/6/19 11/3/18 20/6/19
f 22/8/20 53/6/21 20/6/19
f 53/6/19 22/8/20 54/8/20
f 16/9/17 54/8/20 22/8/20
f 54/8/20 16/9/17 55/9/17
f 15/8/22 55/9/17 16/9/17
f 55/9/17 15/8/22 56/8/22
f 15/8/22 57/6/23 56/8/22
f 57/6/23 15/8/22 12/6/23
f 12/6/23 58/3/24 57/6/23
f 58/3/24 12/6/23 13/3/24
f 4/3/17 58/3/17 13/3/17
f 58/3/17 4/3/17 59/3/17
f 4/3/25 50/4/25 59/3/25
f 50/4/25 4/3/25 5/4/25
f 60/3/25 33/4/25 30/3/25
f 33/4/25 60/3/25 61/4/25
f 60/3/17 28/3/17 62/3/17
f 28/3/17 60/3/17 30/3/17
f 63/6/23 28/3/24 29/6/23
f 28/3/24 63/6/23 62/3/24
f 63/6/23 32/8/22 64/8/22
f 32/8/22 63/6/26 29/6/23
f 64/8/22 37/9/17 65/9/17
f 37/9/17 64/8/22 32/8/22
f 65/9/17 46/8/20 66/8/20
f 46/8/20 65/9/17 37/9/17
f 66/8/20 44/6/21 67/6/19
f 44/6/19 66/8/20 46/8/20
f 68/3/18 44/6/19 40/3/18
f 44/6/19 68/3/18 67/6/19
f 68/3/17 39/3/17 69/3/17
f 39/3/17 68/3/17 40/3/17
f 70/4/16 39/3/16 36/4/16
f 39/3/16 70/4/16 69/3/16
f 33/4/4 70/4/4 36/4/4
f 70/4/4 33/4/4 61/4/4
f 9/2/27 35/5/25 38/2/27
f 35/5/25 9/2/27 8/5/25
f 43/1/15 9/2/27 38/2/27
f 9/2/27 43/1/15 19/1/28
f 6/5/16 26/2/29 34/5/16
f 26/2/29 6/5/16 2/2/29
f 26/2/29 3/1/3 25/1/30
f 3/1/3 26/2/29 2/2/29
f 73/12/17 72/12/17 71/12/17
f 72/12/17 73/12/17 74/12/17
f 75/13/31 72/12/2 74/12/2
f 72/12/2 75/13/31 76/13/31
f 8/14/32 78/13/33 77/13/33
f 78/13/33 8/14/32 6/14/32
f 78/13/34 34/14/35 75/13/34
f 34/14/35 78/13/34 6/14/35
f 73/12/16 75/13/34 74/12/16
f 75/13/34 73/12/16 78/13/34
f 35/14/36 77/13/37 76/13/37
f 77/13/37 35/14/36 8/14/36
f 34/14/38 76/13/31 75/13/31
f 76/13/31 34/14/38 35/14/38
f 77/13/33 73/12/1 71/12/1
f 73/12/1 77/13/33 78/13/33
f 77/13/37 72/12/25 76/13/37
f 72/12/25 77/13/37 71/12/25
f 51/15/1 50/16/1 49/16/1
f 50/16/1 51/15/1 58/15/1
f 59/15/1 50/16/1 58/15/1
f 58/15/4 51/15/4 52/15/4
f 58/15/1 52/15/1 57/17/1
f 57/17/1 52/15/1 53/17/1
f 57/17/1 53/17/1 54/18/1
f 57/17/1 54/18/1 56/18/1
f 56/18/1 54/18/1 55/19/1
f 60/15/2 70/16/2 61/16/2
f 70/16/2 60/15/2 69/15/2
f 69/15/17 60/15/17 62/15/17
f 69/15/17 62/15/17 68/15/17
f 68/15/2 62/15/2 63/17/2
f 68/15/2 63/17/2 67/17/2
f 67/17/2 63/17/2 64/18/2
f 67/17/2 64/18/2 66/18/2
f 66/18/2 64/18/2 65/19/2
f 3/1/1 2/2/1 1/1/1
f 4/3/1 1/1/1 2/2/1
f 2/2/1 5/4/1 4/3/1
f 6/5/1 5/4/1 2/2/1
f 5/4/1 6/5/1 7/4/1
f 8/5/1 7/4/1 6/5/1
f 7/4/1 8/5/1 9/2/1
f 7/4/1 9/2/1 10/3/1
f 10/3/1 9/2/1 11/3/1
f 4/3/1 12/6/1 1/1/1
f 12/6/1 4/3/1 13/3/1
f 1/1/1 12/6/1 14/7/1
f 14/7/1 12/6/1 15/8/1
f 14/7/1 15/8/1 16/9/1
f 14/7/1 16/9/1 17/10/1
f 11/3/1 9/2/1 18/1/1
f 18/1/1 9/2/1 19/1/1
f 11/3/1 18/1/1 20/6/1
f 20/6/1 18/1/1 21/7/1
f 20/6/1 21/7/1 22/8/1
f 22/8/1 21/7/1 16/9/1
f 16/9/1 21/7/1 23/10/1
f 17/10/1 16/9/1 23/10/1
f 17/10/1 23/10/1 24/11/1
f 27/1/2 26/2/2 25/1/2
f 28/3/2 26/2/2 27/1/2
f 28/3/2 27/1/2 29/6/2
f 30/3/2 26/2/2 28/3/2
f 29/6/2 27/1/2 31/7/2
f 29/6/2 31/7/2 32/8/2
f 33/4/2 26/2/2 30/3/2
f 33/4/2 34/5/2 26/2/2
f 34/5/2 33/4/2 35/5/2
f 36/4/2 35/5/2 33/4/2
f 32/8/2 31/7/2 37/9/2
f 35/5/2 36/4/2 38/2/2
f 38/2/2 36/4/2 39/3/2
f 38/2/2 39/3/2 40/3/2
f 37/9/2 31/7/2 41/10/2
f 38/2/2 40/3/2 42/1/2
f 38/2/2 42/1/2 43/1/2
f 42/1/2 40/3/2 44/6/2
f 42/1/2 44/6/2 45/7/2
f 45/7/2 44/6/2 46/8/2
f 45/7/2 46/8/2 37/9/2
f 45/7/2 37/9/2 47/10/2
f 47/10/2 37/9/2 41/10/2
f 47/10/2 41/10/2 48/11/2
f 25/1/3 1/1/4 27/1/4
f 1/1/4 25/1/3 3/1/3
f 21/7/5 42/1/6 45/7/7
f 42/1/6 21/7/7 18/1/6
f 47/10/8 21/7/5 45/7/7
f 21/7/9 47/10/8 23/10/8
f 48/11/4 23/10/8 47/10/8
f 23/10/8 48/11/4 24/11/4
f 41/10/10 24/11/4 48/11/4
f 24/11/4 41/10/10 17/10/10
f 31/7/11 17/10/10 41/10/10
f 17/10/10 31/7/12 14/7/13
f 1/1/14 31/7/13 27/1/14
f 31/7/12 1/1/14 14/7/13
f 42/1/4 19/1/15 43/1/15
f 19/1/15 42/1/4 18/1/4
f 50/4/4 7/4/4 49/4/4
f 7/4/4 50/4/4 5/4/4
f 7/4/16 51/3/16 49/4/16
f 51/3/16 7/4/16 10/3/16
f 11/3/17 51/3/17 10/3/17
f 51/3/17 11/3/17 52/3/17
f 11/3/18 53/6/19 52/3/18
f 53/6/19 11/3/18 20/6/19
f 22/8/20 53/6/21 20/6/19
f 53/6/19 22/8/20 54/8/20
f 16/9/17 54/8/20 22/8/20
f 54/8/20 16/9/17 55/9/17
f 15/8/22 55/9/17 16/9/17
f 55/9/17 15/8/22 56/8/22
f 15/8/22 57/6/23 56/8/22
f 57/6/23 15/8/22 12/6/23
f 12/6/23 58/3/24 57/6/23
f 58/3/24 12/6/23 13/3/24
f 4/3/17 58/3/17 13/3/17
f 58/3/17 4/3/17 59/3/17
f 4/3/25 50/4/25 59/3/25
f 50/4/25 4/3/25 5/4/25
f 60/3/25 33/4/25 30/3/25
f 33/4/25 60/3/25 61/4/25
f 60/3/17 28/3/17 62/3/17
f 28/3/17 60/3/17 30/3/17
f 63/6/23 28/3/24 29/6/23
f 28/3/24 63/6/23 62/3/24
f 63/6/23 32/8/22 64/8/22
f 32/8/22 63/6/26 29/6/23
f 64/8/22 37/9/17 65/9/17
f 37/9/17 64/8/22 32/8/22
f 65/9/17 46/8/20 66/8/20
f 46/8/20 65/9/17 37/9/17
f 66/8/20 44/6/21 67/6/19
f 44/6/19 66/8/20 46/8/20
f 68/3/18 44/6/19 40/3/18
f 44/6/19 68/3/18 67/6/19
f 68/3/17 39/3/17 69/3/17
f 39/3/17 68/3/17 40/3/17
f 70/4/16 39/3/16 36/4/16
f 39/3/16 70/4/16 69/3/16
f 33/4/4 70/4/4 36/4/4
f 70/4/4 33/4/4 61/4/4
f 9/2/27 35/5/25 38/2/27
f 35/5/25 9/2/27 8/5/25
f 43/1/15 9/2/27 38/2/27
f 9/2/27 43/1/15 19/1/28
f 6/5/16 26/2/29 34/5/16
f 26/2/29 6/5/16 2/2/29
f 26/2/29 3/1/3 25/1/30
f 3/1/3 26/2/29 2/2/29
f 73/12/17 72/12/17 71/12/17
f 72/12/17 73/12/17 74/12/17
f 75/13/31 72/12/2 74/12/2
f 72/12/2 75/13/31 76/13/31
f 8/14/32 78/13/33 77/13/33
f 78/13/33 8/14/32 6/14/32
f 78/13/34 34/14/35 75/13/34
f 34/14/35 78/13/34 6/14/35
f 73/12/16 75/13/34 74/12/16
f 75/13/34 73/12/16 78/13/34
f 35/14/36 77/13/37 76/13/37
f 77/13/37 35/14/36 8/14/36
f 34/14/38 76/13/31 75/13/31
f 76/13/31 34/14/38 35/14/38
f 77/13/33 73/12/1 71/12/1
f 73/12/1 77/13/33 78/13/33
f 77/13/37 72/12/25 76/13/37
f 72/12/25 77/13/37 71/12/25
f 51/15/1 50/16/1 49/16/1
f 50/16/1 51/15/1 58/15/1
f 59/15/1 50/16/1 58/15/1
f 58/15/4 51/15/4 52/15/4
f 58/15/1 52/15/1 57/17/1
f 57/17/1 52/15/1 53/17/1
f 57/17/1 53/17/1 54/18/1
f 57/17/1 54/18/1 56/18/1
f 56/18/1 54/18/1 55/19/1
f 60/15/2 70/16/2 61/16/2
f 70/16/2 60/15/2 69/15/2
f 69/15/17 60/15/17 62/15/17
f 69/15/17 62/15/17 68/15/17
f 68/15/2 62/15/2 63/17/2
f 68/15/2 63/17/2 67/17/2
f 67/17/2 63/17/2 64/18/2
f 67/17/2 64/18/2 66/18/2
f 66/18/2 64/18/2 65/19/2
