# Blender 3.6.4
# www.blender.org
mtllib Gravestone_Round_3.mtl
o Gravestone_Round_3
v -9.476670 0.700312 6.818569
v -9.476670 0.702247 6.996875
v -9.526340 0.666461 6.818936
v -9.526340 0.668396 6.997242
v -9.564118 0.622863 6.819410
v -9.564118 0.624798 6.997715
v -9.594682 0.518765 6.820539
v -9.587429 0.572486 6.819956
v -9.594682 0.520700 6.998845
v -9.587429 0.574421 6.998262
v -9.434811 0.642942 6.997518
v -9.434811 0.642447 6.951932
v -9.467830 0.620439 6.997763
v -9.467830 0.619944 6.952176
v -9.189564 0.523439 6.953223
v -9.196532 0.563436 6.952789
v -9.189564 0.523934 6.998810
v -9.196532 0.563931 6.998376
v -9.213292 0.596308 6.952433
v -9.239497 0.624309 6.952128
v -9.213292 0.596803 6.998019
v -9.239497 0.624804 6.997715
v -9.508441 0.557474 6.952854
v -9.513868 0.517240 6.953290
v -9.508441 0.557969 6.998440
v -9.513868 0.517735 6.998877
v -9.492942 0.590962 6.952490
v -9.492942 0.591457 6.998077
v -9.396132 0.657429 6.997361
v -9.396132 0.656935 6.951775
v -9.512457 0.443407 6.954092
v -9.512457 0.443796 6.989872
v -9.512457 0.443902 6.999678
v -9.507242 0.171017 6.992833
v -9.504575 0.031605 7.004153
v -9.506352 0.124617 7.003143
v -9.504575 0.030852 6.934713
v -9.512457 0.443149 6.930238
v -9.273353 0.646028 6.997485
v -9.273353 0.645534 6.951898
v -9.354436 0.662916 6.997302
v -9.354436 0.662421 6.951715
v -9.587969 0.169474 6.992849
v -9.593184 0.442253 6.989889
v -9.188152 0.450101 6.999611
v -9.188152 0.449995 6.989805
v -9.182938 0.177216 6.992765
v -9.180270 0.037804 7.004086
v -9.182049 0.130816 7.003076
v -9.188152 0.449606 6.954024
v -9.188152 0.449348 6.930171
v -9.180270 0.037051 6.934646
v -9.615318 0.029488 7.004176
v -9.617096 0.122500 7.003166
v -9.312556 0.659027 6.997344
v -9.312556 0.658532 6.951757
v -9.071305 0.132933 7.003053
v -9.102214 0.178759 6.992748
v -9.078906 0.528624 6.820433
v -9.077409 0.450283 6.821283
v -9.078906 0.530559 6.998738
v -9.077409 0.452218 6.999588
v -9.108927 0.528050 6.820439
v -9.108927 0.529985 6.998744
v -9.623199 0.439850 6.821396
v -9.624698 0.518191 6.820546
v -9.623199 0.441785 6.999701
v -9.624698 0.520126 6.998851
v -9.107429 0.451538 6.989788
v -9.118227 0.583390 6.998165
v -9.143442 0.632839 6.997628
v -9.182862 0.674962 6.997171
v -9.233794 0.706890 6.996824
v -9.292765 0.726444 6.996612
v -9.418486 0.724041 6.996638
v -9.355762 0.732294 6.996549
v -9.107429 0.449816 6.831096
v -9.593184 0.440530 6.831197
v -9.118227 0.581455 6.819859
v -9.143442 0.630904 6.819323
v -9.182862 0.673027 6.818865
v -9.233794 0.704955 6.818519
v -9.418486 0.722106 6.818333
v -9.292765 0.724509 6.818306
v -9.355762 0.730359 6.818243
v -9.587969 0.167751 6.834157
v -9.102214 0.177037 6.834057
v -9.069527 0.039921 7.004063
v -9.615318 0.027553 6.825871
v -9.617096 0.120565 6.824861
v -9.071305 0.130998 6.824748
v -9.069527 0.037986 6.825757
v -9.188152 0.449348 6.930171
v -9.512457 0.443149 6.930238
v -9.180270 0.037051 6.934646
v -9.504575 0.030852 6.934713
vn -0.6662 0.7458 -0.0056
vn -0.4505 0.8927 -0.0108
vn -0.4505 0.8927 -0.0096
vn -0.4505 0.8927 -0.0122
vn -0.6662 0.7457 -0.0070
vn -0.6662 0.7457 -0.0081
vn -0.8348 0.5505 -0.0066
vn -0.6639 0.7478 -0.0066
vn -0.8348 0.5505 -0.0060
vn -0.6638 0.7478 -0.0075
vn -0.8348 0.5505 -0.0075
vn -0.6638 0.7478 -0.0081
vn -0.9910 0.1338 -0.0015
vn -0.9651 0.2619 -0.0028
vn 0.6662 -0.7457 0.0081
vn 0.4506 -0.8927 0.0040
vn 0.4505 -0.8927 0.0097
vn 0.6661 -0.7457 0.0138
vn -0.9546 0.2979 -0.0035
vn -0.8450 0.5348 -0.0052
vn -0.9546 0.2979 -0.0032
vn -0.8450 0.5348 -0.0055
vn -0.9546 0.2979 -0.0039
vn -0.8450 0.5348 -0.0058
vn -0.9852 -0.1716 0.0019
vn -0.9543 -0.2987 0.0032
vn -0.9543 -0.2987 0.0031
vn -0.8131 -0.5821 0.0098
vn -0.6347 -0.7727 0.0084
vn -0.8131 -0.5821 0.0063
vn -0.6348 -0.7727 0.0049
vn 0.9651 -0.2618 0.0030
vn 0.9910 -0.1337 0.0015
vn 0.9651 -0.2618 0.0028
vn 0.8449 -0.5348 0.0072
vn 0.9546 -0.2980 0.0032
vn 0.8449 -0.5348 0.0058
vn 0.9546 -0.2980 0.0018
vn 0.9546 -0.2979 0.0032
vn 0.6639 -0.7477 0.0116
vn 0.8348 -0.5505 0.0060
vn 0.6639 -0.7478 0.0081
vn 0.8348 -0.5506 0.0025
vn 0.4700 -0.8826 0.0096
vn 0.2258 -0.9742 0.0031
vn 0.2256 -0.9742 0.0106
vn 0.4698 -0.8826 0.0171
vn 0.9998 0.0191 -0.0002
vn -0.9425 -0.3340 0.0051
vn -0.8240 -0.5666 0.0061
vn -0.9426 -0.3340 0.0036
vn -0.8240 -0.5666 0.0047
vn -0.4160 -0.9093 0.0099
vn -0.6371 -0.7708 0.0026
vn -0.6372 -0.7706 0.0084
vn -0.4161 -0.9092 0.0156
vn 0.2587 -0.9659 0.0105
vn 0.0002 -1.0000 0.0024
vn -0.0000 -0.9999 0.0109
vn 0.2585 -0.9658 0.0190
vn -0.0000 0.0109 0.9999
vn -0.9998 -0.0191 0.0002
vn 0.0027 0.1144 0.9934
vn 0.0004 0.1145 0.9934
vn -0.0016 0.0952 0.9955
vn 0.0383 -0.9992 0.0108
vn -0.2213 -0.9752 0.0021
vn -0.2216 -0.9751 0.0106
vn 0.0380 -0.9991 0.0193
vn -0.1882 -0.9821 0.0107
vn -0.4357 -0.9001 0.0022
vn -0.4360 -0.8999 0.0098
vn -0.1884 -0.9819 0.0182
vn -0.0039 0.2169 0.9762
vn -0.0041 0.1145 0.9934
vn 0.0010 0.0952 0.9955
vn -0.0064 0.1145 0.9934
vn -0.0191 0.9998 -0.0108
vn 0.0191 -0.9998 0.0108
vn -0.0000 -0.0109 -0.9999
vn 0.0191 -0.9998 0.0109
vn 0.0022 0.0951 0.9955
vn 0.0003 0.0952 0.9955
vn -0.0020 0.1145 0.9934
vn -0.9767 0.2148 -0.0023
vn -0.0039 0.1956 -0.9807
vn -0.0011 0.0735 -0.9973
vn -0.0042 0.0735 -0.9973
vn 0.0024 0.0737 -0.9973
vn -0.0036 0.0951 0.9955
vn -0.0095 0.0952 0.9954
vn -0.0032 0.0735 -0.9973
vn -0.0022 0.0735 -0.9973
vn -0.0016 0.0735 -0.9973
vn 0.9677 0.2519 -0.0027
vn -0.9592 0.2828 -0.0039
vn -0.8504 0.5261 -0.0057
vn -0.9592 0.2828 -0.0025
vn -0.9592 0.2828 -0.0058
vn 0.8297 0.5582 -0.0061
vn 0.9476 0.3193 -0.0043
vn 0.9476 0.3193 -0.0029
vn 0.9476 0.3193 -0.0062
vn 0.8240 0.5666 -0.0064
vn 0.9425 0.3341 -0.0030
vn 0.8240 0.5666 -0.0061
vn 0.9425 0.3341 -0.0034
vn 0.8240 0.5666 -0.0068
vn 0.9425 0.3341 -0.0036
vn 0.9544 0.2986 -0.0033
vn 0.9852 0.1715 -0.0019
vn 0.9544 0.2986 -0.0032
vn 0.6347 0.7727 -0.0090
vn 0.8131 0.5821 -0.0048
vn 0.6347 0.7727 -0.0084
vn 0.8131 0.5821 -0.0057
vn 0.6348 0.7727 -0.0099
vn 0.8131 0.5821 -0.0063
vn 0.4160 0.9093 -0.0073
vn 0.6372 0.7707 -0.0094
vn 0.6372 0.7707 -0.0083
vn 0.6372 0.7706 -0.0109
vn 0.4160 0.9093 -0.0088
vn 0.4160 0.9093 -0.0099
vn 0.1882 0.9821 -0.0073
vn 0.4360 0.8999 -0.0112
vn 0.4360 0.8999 -0.0098
vn 0.4359 0.8999 -0.0131
vn 0.1882 0.9821 -0.0092
vn 0.1882 0.9821 -0.0107
vn -0.0382 0.9992 -0.0070
vn 0.2216 0.9751 -0.0122
vn 0.2216 0.9751 -0.0105
vn 0.2216 0.9750 -0.0144
vn -0.0383 0.9992 -0.0092
vn -0.0383 0.9992 -0.0109
vn -0.2587 0.9659 -0.0067
vn 0.0001 0.9999 -0.0125
vn 0.0001 0.9999 -0.0108
vn -0.0000 0.9999 -0.0147
vn -0.2587 0.9659 -0.0089
vn -0.2587 0.9659 -0.0105
vn -0.4700 0.8827 -0.0062
vn -0.2256 0.9742 -0.0120
vn -0.2256 0.9742 -0.0105
vn -0.2256 0.9741 -0.0139
vn -0.4700 0.8826 -0.0082
vn -0.4700 0.8826 -0.0096
vt 0.843750 0.207621
vt 0.843750 0.217051
vt 0.843750 0.195333
vt 0.843750 0.165667
vt 0.843750 0.181023
vt 0.843750 0.193557
vt 0.843750 0.199825
vt 0.843750 0.164374
vt 0.843750 0.175875
vt 0.843750 0.185388
vt 0.843750 0.203765
vt 0.843750 0.143206
vt 0.843750 0.065000
vt 0.843750 0.025000
vt 0.843750 0.051667
vt 0.843750 0.205109
vt 0.843750 0.222978
vt 0.843750 0.225000
vt 0.843750 0.102383
vt 0.843750 0.090630
vt 0.843750 0.108769
vt 0.843750 0.114051
vt 0.843750 0.118586
vt 0.843750 0.122066
vt 0.843750 0.124254
vt 0.843750 0.125000
s 0
usemtl colormap.037
f 3/1/1 2/2/2 1/2/3
f 2/2/4 3/1/5 4/1/6
f 6/3/7 3/1/8 5/3/9
f 3/1/10 6/3/11 4/1/12
f 9/4/13 8/5/14 7/4/13
f 8/5/14 9/4/13 10/5/14
f 13/6/15 12/7/16 11/7/17
f 12/7/17 13/6/18 14/6/15
f 10/5/19 5/3/20 8/5/21
f 5/3/22 10/5/23 6/3/24
f 17/8/25 16/9/26 15/8/25
f 16/9/27 17/8/25 18/9/26
f 21/10/28 20/6/29 19/10/30
f 20/6/31 21/10/30 22/6/29
f 25/9/32 24/8/33 23/9/34
f 24/8/33 25/9/34 26/8/33
f 28/10/35 23/9/36 27/10/37
f 23/9/38 28/10/37 25/9/39
f 13/6/40 27/10/41 14/6/42
f 27/10/43 13/6/42 28/10/41
f 11/7/44 30/11/45 29/11/46
f 30/11/46 11/7/47 12/7/44
f 26/8/48 31/12/48 24/8/48
f 31/12/48 26/8/48 32/12/48
f 32/12/48 26/8/48 33/12/48
f 34/13/48 31/12/48 32/12/48
f 35/14/48 31/12/48 34/13/48
f 35/14/48 34/13/48 36/15/48
f 37/14/48 31/12/48 35/14/48
f 31/12/48 37/14/48 38/12/48
f 18/9/49 19/10/50 16/9/51
f 19/10/52 18/9/51 21/10/50
f 39/7/53 20/6/54 22/6/55
f 20/6/55 39/7/56 40/7/53
f 29/11/57 42/16/58 41/16/59
f 42/16/59 29/11/60 30/11/57
f 32/12/61 43/13/61 34/13/61
f 43/13/61 32/12/61 44/12/61
f 17/8/62 46/12/62 45/12/62
f 15/8/62 46/12/62 17/8/62
f 46/12/62 15/8/62 47/13/62
f 15/8/62 48/14/62 47/13/62
f 47/13/62 48/14/62 49/15/62
f 50/12/62 48/14/62 15/8/62
f 51/12/62 48/14/62 50/12/62
f 48/14/62 51/12/62 52/14/62
f 36/15/63 53/14/61 35/14/61
f 53/14/61 36/15/64 54/15/65
f 41/16/66 56/11/67 55/11/68
f 56/11/68 41/16/69 42/16/66
f 55/11/70 40/7/71 39/7/72
f 40/7/72 55/11/73 56/11/70
f 58/13/74 49/15/75 57/15/76
f 49/15/77 58/13/74 47/13/74
f 61/4/48 60/12/48 59/4/48
f 60/12/48 61/4/48 62/12/48
f 63/4/78 61/4/78 59/4/78
f 61/4/78 63/4/78 64/4/78
f 67/12/62 66/4/62 65/12/62
f 66/4/62 67/12/62 68/4/62
f 66/4/78 9/4/78 7/4/78
f 9/4/78 66/4/78 68/4/78
f 69/12/61 47/13/61 58/13/61
f 47/13/61 69/12/61 46/12/61
f 61/4/61 45/12/61 62/12/61
f 45/12/61 61/4/61 17/8/61
f 17/8/61 61/4/61 64/4/61
f 17/8/61 64/4/61 18/9/61
f 18/9/61 64/4/61 70/5/61
f 18/9/61 70/5/61 21/10/61
f 21/10/61 70/5/61 71/3/61
f 21/10/61 71/3/61 22/6/61
f 22/6/61 71/3/61 39/7/61
f 39/7/61 71/3/61 72/1/61
f 39/7/61 72/1/61 55/11/61
f 55/11/61 72/1/61 41/16/61
f 4/1/61 41/16/61 72/1/61
f 4/1/61 29/11/61 41/16/61
f 4/1/61 72/1/61 73/2/61
f 4/1/61 11/7/61 29/11/61
f 4/1/61 73/2/61 2/2/61
f 2/2/61 73/2/61 74/17/61
f 2/2/61 74/17/61 75/17/61
f 75/17/61 74/17/61 76/18/61
f 6/3/61 11/7/61 4/1/61
f 6/3/61 13/6/61 11/7/61
f 6/3/61 28/10/61 13/6/61
f 10/5/61 28/10/61 6/3/61
f 10/5/61 25/9/61 28/10/61
f 9/4/61 25/9/61 10/5/61
f 25/9/61 9/4/61 26/8/61
f 68/4/61 26/8/61 9/4/61
f 67/12/61 26/8/61 68/4/61
f 26/8/61 67/12/61 33/12/61
f 69/12/79 45/12/79 46/12/79
f 69/12/79 62/12/79 45/12/79
f 62/12/79 69/12/79 60/12/79
f 77/12/79 60/12/79 69/12/79
f 60/12/79 77/12/79 65/12/79
f 65/12/79 77/12/79 78/12/79
f 65/12/79 78/12/79 67/12/79
f 44/12/79 67/12/79 78/12/79
f 32/12/79 67/12/79 44/12/79
f 67/12/79 32/12/79 33/12/79
f 66/4/80 60/12/80 65/12/80
f 60/12/80 66/4/80 59/4/80
f 59/4/78 66/4/78 7/4/78
f 59/4/81 7/4/79 63/4/79
f 8/5/80 63/4/80 7/4/80
f 63/4/80 8/5/80 79/5/80
f 79/5/80 8/5/80 5/3/80
f 79/5/80 5/3/80 80/3/80
f 80/3/80 5/3/80 3/1/80
f 80/3/80 3/1/80 81/1/80
f 81/1/80 3/1/80 1/2/80
f 81/1/80 1/2/80 82/2/80
f 82/2/80 1/2/80 83/17/80
f 82/2/80 83/17/80 84/17/80
f 84/17/80 83/17/80 85/18/80
f 78/12/80 87/13/80 86/13/80
f 87/13/80 78/12/80 77/12/80
f 57/15/82 48/14/61 88/14/61
f 48/14/61 57/15/83 49/15/84
f 53/14/62 90/15/85 89/14/62
f 90/15/85 53/14/62 54/15/85
f 86/13/86 91/15/87 90/15/88
f 91/15/89 86/13/86 87/13/86
f 34/13/74 54/15/90 36/15/84
f 54/15/91 34/13/74 43/13/74
f 90/15/92 92/14/80 89/14/80
f 92/14/80 90/15/93 91/15/94
f 69/12/48 87/13/48 77/12/48
f 87/13/48 69/12/48 58/13/48
f 57/15/95 92/14/48 91/15/95
f 92/14/48 57/15/95 88/14/48
f 43/13/62 78/12/62 86/13/62
f 78/12/62 43/13/62 44/12/62
f 54/15/96 86/13/97 90/15/98
f 86/13/97 54/15/99 43/13/97
f 87/13/100 57/15/101 91/15/102
f 57/15/103 87/13/100 58/13/100
f 71/3/104 79/5/105 80/3/106
f 79/5/107 71/3/108 70/5/109
f 53/14/79 37/14/79 35/14/79
f 89/14/79 37/14/79 53/14/79
f 89/14/79 52/14/79 37/14/79
f 92/14/79 52/14/79 89/14/79
f 92/14/79 48/14/79 52/14/79
f 48/14/79 92/14/79 88/14/79
f 70/5/110 63/4/111 79/5/112
f 63/4/111 70/5/110 64/4/111
f 72/1/113 80/3/114 81/1/115
f 80/3/116 72/1/117 71/3/118
f 82/2/119 72/1/120 81/1/121
f 72/1/122 82/2/123 73/2/124
f 84/17/125 73/2/126 82/2/127
f 73/2/128 84/17/129 74/17/130
f 85/18/131 74/17/132 84/17/133
f 74/17/134 85/18/135 76/18/136
f 83/17/137 76/18/138 85/18/139
f 76/18/140 83/17/141 75/17/142
f 1/2/143 75/17/144 83/17/145
f 75/17/146 1/2/147 2/2/148
f 15/19/61 31/20/61 50/20/61
f 31/20/61 15/19/61 24/19/61
f 24/19/61 15/19/61 16/21/61
f 24/19/61 16/21/61 23/21/61
f 23/21/61 16/21/61 19/22/61
f 23/21/61 19/22/61 27/22/61
f 27/22/61 19/22/61 20/23/61
f 27/22/61 20/23/61 14/23/61
f 14/23/61 20/23/61 40/24/61
f 14/23/61 40/24/61 12/24/61
f 12/24/61 40/24/61 56/25/61
f 12/24/61 56/25/61 30/25/61
f 30/25/61 56/25/61 42/26/61
f 31/20/79 93/20/79 50/20/79
f 93/20/79 31/20/79 94/20/79
f 93/20/61 96/14/61 95/14/61
f 96/14/61 93/20/61 94/20/61
f 3/1/1 2/2/2 1/2/3
f 2/2/4 3/1/5 4/1/6
f 6/3/7 3/1/8 5/3/9
f 3/1/10 6/3/11 4/1/12
f 9/4/13 8/5/14 7/4/13
f 8/5/14 9/4/13 10/5/14
f 13/6/15 12/7/16 11/7/17
f 12/7/17 13/6/18 14/6/15
f 10/5/19 5/3/20 8/5/21
f 5/3/22 10/5/23 6/3/24
f 17/8/25 16/9/26 15/8/25
f 16/9/27 17/8/25 18/9/26
f 21/10/28 20/6/29 19/10/30
f 20/6/31 21/10/30 22/6/29
f 25/9/32 24/8/33 23/9/34
f 24/8/33 25/9/34 26/8/33
f 28/10/35 23/9/36 27/10/37
f 23/9/38 28/10/37 25/9/39
f 13/6/40 27/10/41 14/6/42
f 27/10/43 13/6/42 28/10/41
f 11/7/44 30/11/45 29/11/46
f 30/11/46 11/7/47 12/7/44
f 26/8/48 31/12/48 24/8/48
f 31/12/48 26/8/48 32/12/48
f 32/12/48 26/8/48 33/12/48
f 34/13/48 31/12/48 32/12/48
f 35/14/48 31/12/48 34/13/48
f 35/14/48 34/13/48 36/15/48
f 37/14/48 31/12/48 35/14/48
f 31/12/48 37/14/48 38/12/48
f 18/9/49 19/10/50 16/9/51
f 19/10/52 18/9/51 21/10/50
f 39/7/53 20/6/54 22/6/55
f 20/6/55 39/7/56 40/7/53
f 29/11/57 42/16/58 41/16/59
f 42/16/59 29/11/60 30/11/57
f 32/12/61 43/13/61 34/13/61
f 43/13/61 32/12/61 44/12/61
f 17/8/62 46/12/62 45/12/62
f 15/8/62 46/12/62 17/8/62
f 46/12/62 15/8/62 47/13/62
f 15/8/62 48/14/62 47/13/62
f 47/13/62 48/14/62 49/15/62
f 50/12/62 48/14/62 15/8/62
f 51/12/62 48/14/62 50/12/62
f 48/14/62 51/12/62 52/14/62
f 36/15/63 53/14/61 35/14/61
f 53/14/61 36/15/64 54/15/65
f 41/16/66 56/11/67 55/11/68
f 56/11/68 41/16/69 42/16/66
f 55/11/70 40/7/71 39/7/72
f 40/7/72 55/11/73 56/11/70
f 58/13/74 49/15/75 57/15/76
f 49/15/77 58/13/74 47/13/74
f 61/4/48 60/12/48 59/4/48
f 60/12/48 61/4/48 62/12/48
f 63/4/78 61/4/78 59/4/78
f 61/4/78 63/4/78 64/4/78
f 67/12/62 66/4/62 65/12/62
f 66/4/62 67/12/62 68/4/62
f 66/4/78 9/4/78 7/4/78
f 9/4/78 66/4/78 68/4/78
f 69/12/61 47/13/61 58/13/61
f 47/13/61 69/12/61 46/12/61
f 61/4/61 45/12/61 62/12/61
f 45/12/61 61/4/61 17/8/61
f 17/8/61 61/4/61 64/4/61
f 17/8/61 64/4/61 18/9/61
f 18/9/61 64/4/61 70/5/61
f 18/9/61 70/5/61 21/10/61
f 21/10/61 70/5/61 71/3/61
f 21/10/61 71/3/61 22/6/61
f 22/6/61 71/3/61 39/7/61
f 39/7/61 71/3/61 72/1/61
f 39/7/61 72/1/61 55/11/61
f 55/11/61 72/1/61 41/16/61
f 4/1/61 41/16/61 72/1/61
f 4/1/61 29/11/61 41/16/61
f 4/1/61 72/1/61 73/2/61
f 4/1/61 11/7/61 29/11/61
f 4/1/61 73/2/61 2/2/61
f 2/2/61 73/2/61 74/17/61
f 2/2/61 74/17/61 75/17/61
f 75/17/61 74/17/61 76/18/61
f 6/3/61 11/7/61 4/1/61
f 6/3/61 13/6/61 11/7/61
f 6/3/61 28/10/61 13/6/61
f 10/5/61 28/10/61 6/3/61
f 10/5/61 25/9/61 28/10/61
f 9/4/61 25/9/61 10/5/61
f 25/9/61 9/4/61 26/8/61
f 68/4/61 26/8/61 9/4/61
f 67/12/61 26/8/61 68/4/61
f 26/8/61 67/12/61 33/12/61
f 69/12/79 45/12/79 46/12/79
f 69/12/79 62/12/79 45/12/79
f 62/12/79 69/12/79 60/12/79
f 77/12/79 60/12/79 69/12/79
f 60/12/79 77/12/79 65/12/79
f 65/12/79 77/12/79 78/12/79
f 65/12/79 78/12/79 67/12/79
f 44/12/79 67/12/79 78/12/79
f 32/12/79 67/12/79 44/12/79
f 67/12/79 32/12/79 33/12/79
f 66/4/80 60/12/80 65/12/80
f 60/12/80 66/4/80 59/4/80
f 59/4/78 66/4/78 7/4/78
f 59/4/81 7/4/79 63/4/79
f 8/5/80 63/4/80 7/4/80
f 63/4/80 8/5/80 79/5/80
f 79/5/80 8/5/80 5/3/80
f 79/5/80 5/3/80 80/3/80
f 80/3/80 5/3/80 3/1/80
f 80/3/80 3/1/80 81/1/80
f 81/1/80 3/1/80 1/2/80
f 81/1/80 1/2/80 82/2/80
f 82/2/80 1/2/80 83/17/80
f 82/2/80 83/17/80 84/17/80
f 84/17/80 83/17/80 85/18/80
f 78/12/80 87/13/80 86/13/80
f 87/13/80 78/12/80 77/12/80
f 57/15/82 48/14/61 88/14/61
f 48/14/61 57/15/83 49/15/84
f 53/14/62 90/15/85 89/14/62
f 90/15/85 53/14/62 54/15/85
f 86/13/86 91/15/87 90/15/88
f 91/15/89 86/13/86 87/13/86
f 34/13/74 54/15/90 36/15/84
f 54/15/91 34/13/74 43/13/74
f 90/15/92 92/14/80 89/14/80
f 92/14/80 90/15/93 91/15/94
f 69/12/48 87/13/48 77/12/48
f 87/13/48 69/12/48 58/13/48
f 57/15/95 92/14/48 91/15/95
f 92/14/48 57/15/95 88/14/48
f 43/13/62 78/12/62 86/13/62
f 78/12/62 43/13/62 44/12/62
f 54/15/96 86/13/97 90/15/98
f 86/13/97 54/15/99 43/13/97
f 87/13/100 57/15/101 91/15/102
f 57/15/103 87/13/100 58/13/100
f 71/3/104 79/5/105 80/3/106
f 79/5/107 71/3/108 70/5/109
f 53/14/79 37/14/79 35/14/79
f 89/14/79 37/14/79 53/14/79
f 89/14/79 52/14/79 37/14/79
f 92/14/79 52/14/79 89/14/79
f 92/14/79 48/14/79 52/14/79
f 48/14/79 92/14/79 88/14/79
f 70/5/110 63/4/111 79/5/112
f 63/4/111 70/5/110 64/4/111
f 72/1/113 80/3/114 81/1/115
f 80/3/116 72/1/117 71/3/118
f 82/2/119 72/1/120 81/1/121
f 72/1/122 82/2/123 73/2/124
f 84/17/125 73/2/126 82/2/127
f 73/2/128 84/17/129 74/17/130
f 85/18/131 74/17/132 84/17/133
f 74/17/134 85/18/135 76/18/136
f 83/17/137 76/18/138 85/18/139
f 76/18/140 83/17/141 75/17/142
f 1/2/143 75/17/144 83/17/145
f 75/17/146 1/2/147 2/2/148
f 15/19/61 31/20/61 50/20/61
f 31/20/61 15/19/61 24/19/61
f 24/19/61 15/19/61 16/21/61
f 24/19/61 16/21/61 23/21/61
f 23/21/61 16/21/61 19/22/61
f 23/21/61 19/22/61 27/22/61
f 27/22/61 19/22/61 20/23/61
f 27/22/61 20/23/61 14/23/61
f 14/23/61 20/23/61 40/24/61
f 14/23/61 40/24/61 12/24/61
f 12/24/61 40/24/61 56/25/61
f 12/24/61 56/25/61 30/25/61
f 30/25/61 56/25/61 42/26/61
f 31/20/79 93/20/79 50/20/79
f 93/20/79 31/20/79 94/20/79
f 93/20/61 96/14/61 95/14/61
f 96/14/61 93/20/61 94/20/61
