# Blender 3.6.4
# www.blender.org
mtllib Gravestone_Flat_5.mtl
o Gravestone_Flat_5
v -9.032022 0.123672 -7.362329
v -9.253075 0.188804 -6.977678
v -9.055581 0.157283 -7.368491
v -9.265582 0.219159 -7.003074
v -10.228786 0.071044 -7.504711
v -10.223390 0.134359 -7.512331
v -9.248535 0.055630 -6.938764
v -9.243140 0.118945 -6.946384
v -9.035394 0.084100 -7.357565
v -9.256447 0.149232 -6.972916
v -10.193053 0.163959 -7.513665
v -10.189681 0.203531 -7.518428
v -9.996098 0.002484 -7.909606
v -9.990702 0.065799 -7.917226
v -9.968628 0.138399 -7.903078
v -9.950726 0.171359 -7.885303
v -10.038697 0.402136 -7.726646
v -9.143553 0.388060 -7.209835
v -10.151959 0.336122 -7.532269
v -9.256815 0.322046 -7.015457
v -9.046814 0.260171 -7.380875
v -9.010452 0.050385 -7.351279
v -9.972000 0.098827 -7.898315
v -10.160727 0.233235 -7.519886
v -9.941958 0.274247 -7.897686
v -9.015847 -0.012930 -7.343658
vn 0.7439 0.5817 0.3290
vn -0.4930 0.1453 0.8578
vn -0.4777 0.2736 0.8348
vn 0.8659 -0.0136 0.5000
vn -0.4334 0.4786 0.7637
vn -0.8026 0.3048 -0.5128
vn -0.8659 0.0136 -0.5000
vn 0.4931 0.1900 -0.8490
vn -0.1295 0.9594 0.2504
vn 0.4917 0.2060 -0.8460
vn 0.4998 -0.0145 -0.8660
vn 0.7325 0.6014 0.3191
vn 0.8523 0.2788 0.4426
vn 0.4930 -0.1453 -0.8578
vn -0.6282 0.6228 -0.4664
vn 0.2826 0.8380 -0.4667
vn -0.4374 0.4642 0.7702
vn -0.6429 0.6035 -0.4717
vn -0.0843 -0.9893 0.1191
vn 0.4998 -0.0144 -0.8660
vt 0.843750 0.115811
vt 0.843750 0.098514
vt 0.843750 0.025000
vt 0.843750 0.059595
vt 0.843750 0.076892
vt 0.843750 0.172027
vt 0.843750 0.225000
s 0
usemtl colormap.085
f 3/1/1 2/2/1 1/2/1
f 2/2/1 3/1/1 4/1/1
f 7/3/2 6/4/3 5/3/2
f 6/4/3 7/3/2 8/4/3
f 1/2/4 10/5/4 9/5/4
f 10/5/4 1/2/4 2/2/4
f 8/4/3 11/5/5 6/4/3
f 11/5/5 8/4/3 10/5/5
f 10/5/2 12/2/2 11/5/2
f 12/2/2 10/5/2 2/2/2
f 6/4/6 13/3/7 5/3/7
f 13/3/7 6/4/6 14/4/6
f 16/1/8 1/2/8 15/2/8
f 1/2/8 16/1/8 3/1/8
f 19/6/9 18/7/9 17/7/9
f 18/7/9 19/6/9 20/6/9
f 21/6/4 4/1/4 3/1/4
f 4/1/4 21/6/4 20/6/4
f 20/6/4 21/6/4 18/7/4
f 23/5/10 22/4/11 14/4/11
f 22/4/11 23/5/10 9/5/10
f 9/5/12 8/4/13 22/4/13
f 8/4/13 9/5/12 10/5/12
f 19/6/7 16/1/7 24/1/7
f 16/1/7 19/6/7 25/6/7
f 25/6/7 19/6/7 17/7/7
f 1/2/14 23/5/14 15/2/14
f 23/5/14 1/2/14 9/5/14
f 4/1/2 19/6/2 24/1/2
f 19/6/2 4/1/2 20/6/2
f 11/5/15 14/4/6 6/4/6
f 14/4/6 11/5/15 23/5/15
f 17/7/16 21/6/16 25/6/16
f 21/6/16 17/7/16 18/7/16
f 2/2/17 24/1/17 12/2/17
f 24/1/17 2/2/17 4/1/17
f 24/1/18 15/2/18 12/2/18
f 15/2/18 24/1/18 16/1/18
f 7/3/19 13/3/19 26/3/19
f 13/3/19 7/3/19 5/3/19
f 12/2/7 23/5/7 11/5/7
f 23/5/7 12/2/7 15/2/7
f 21/6/14 16/1/14 25/6/14
f 16/1/14 21/6/14 3/1/14
f 22/4/13 7/3/4 26/3/4
f 7/3/4 22/4/13 8/4/13
f 22/4/20 13/3/14 14/4/20
f 13/3/14 22/4/20 26/3/14
f 3/1/1 2/2/1 1/2/1
f 2/2/1 3/1/1 4/1/1
f 7/3/2 6/4/3 5/3/2
f 6/4/3 7/3/2 8/4/3
f 1/2/4 10/5/4 9/5/4
f 10/5/4 1/2/4 2/2/4
f 8/4/3 11/5/5 6/4/3
f 11/5/5 8/4/3 10/5/5
f 10/5/2 12/2/2 11/5/2
f 12/2/2 10/5/2 2/2/2
f 6/4/6 13/3/7 5/3/7
f 13/3/7 6/4/6 14/4/6
f 16/1/8 1/2/8 15/2/8
f 1/2/8 16/1/8 3/1/8
f 19/6/9 18/7/9 17/7/9
f 18/7/9 19/6/9 20/6/9
f 21/6/4 4/1/4 3/1/4
f 4/1/4 21/6/4 20/6/4
f 20/6/4 21/6/4 18/7/4
f 23/5/10 22/4/11 14/4/11
f 22/4/11 23/5/10 9/5/10
f 9/5/12 8/4/13 22/4/13
f 8/4/13 9/5/12 10/5/12
f 19/6/7 16/1/7 24/1/7
f 16/1/7 19/6/7 25/6/7
f 25/6/7 19/6/7 17/7/7
f 1/2/14 23/5/14 15/2/14
f 23/5/14 1/2/14 9/5/14
f 4/1/2 19/6/2 24/1/2
f 19/6/2 4/1/2 20/6/2
f 11/5/15 14/4/6 6/4/6
f 14/4/6 11/5/15 23/5/15
f 17/7/16 21/6/16 25/6/16
f 21/6/16 17/7/16 18/7/16
f 2/2/17 24/1/17 12/2/17
f 24/1/17 2/2/17 4/1/17
f 24/1/18 15/2/18 12/2/18
f 15/2/18 24/1/18 16/1/18
f 7/3/19 13/3/19 26/3/19
f 13/3/19 7/3/19 5/3/19
f 12/2/7 23/5/7 11/5/7
f 23/5/7 12/2/7 15/2/7
f 21/6/14 16/1/14 25/6/14
f 16/1/14 21/6/14 3/1/14
f 22/4/13 7/3/4 26/3/4
f 7/3/4 22/4/13 8/4/13
f 22/4/20 13/3/14 14/4/20
f 13/3/14 22/4/20 26/3/14
