# Blender 3.6.4
# www.blender.org
mtllib Gravestone_Debris_1.mtl
o Gravestone_Debris_1
v -1.959671 0.123458 -5.992115
v -1.959671 0.126989 -5.842656
v -1.984553 0.160548 -5.984766
v -1.984553 0.163690 -5.851748
v -1.861303 0.212032 -6.373223
v -1.846302 0.046479 -6.369312
v -1.875292 0.211582 -6.338611
v -1.860291 0.046029 -6.334701
v -1.872295 0.178505 -6.337830
v -2.333080 0.160616 -5.984767
v -2.134754 0.178577 -5.985191
v -2.253075 0.198578 -5.985664
v -1.996643 0.293981 -5.987917
v -2.330237 0.129241 -5.984026
v -1.952634 0.045798 -5.990280
v -1.952634 0.049329 -5.840822
v -2.206174 0.010423 -6.515228
v -2.221176 0.175976 -6.519139
v -2.220163 0.009973 -6.480618
v -2.235164 0.175526 -6.484529
v -2.232167 0.142448 -6.483747
v -2.341044 0.014153 -5.839991
v -2.348081 0.091813 -5.841825
v -1.909836 0.175406 -6.324998
v -1.897832 0.042931 -6.321869
v -1.912383 0.175869 -6.295639
v -1.900379 0.043393 -6.292510
v -2.032747 0.161103 -6.458997
v -2.035744 0.194181 -6.459778
v -2.146691 0.026183 -6.076249
v -2.242294 0.015824 -6.148030
v -2.158695 0.158658 -6.079378
v -2.254298 0.148300 -6.151160
v -1.971751 0.041098 -6.115919
v -1.983755 0.173573 -6.119049
v -2.006754 0.029078 -6.490478
v -2.021755 0.194631 -6.494389
v -2.202105 0.012445 -6.445241
v -2.214109 0.144920 -6.448370
v -2.330237 0.132384 -5.851008
v -2.134754 0.181720 -5.852173
v -2.253075 0.201721 -5.852646
v -2.348081 0.088282 -5.991283
v -1.996643 0.297123 -5.854899
v -2.333080 0.163758 -5.851749
v -2.341044 0.010622 -5.989449
v -2.220666 0.011303 -6.422376
v -2.232670 0.143779 -6.425505
v -2.330445 0.007772 -6.150755
v -2.342449 0.140248 -6.153884
vn 0.8292 0.5588 -0.0132
vn 0.9227 0.0925 0.3741
vn -0.3747 -0.0121 0.9271
vn -0.3747 -0.0120 0.9271
vn -0.0000 -0.0236 -0.9997
vn -0.0106 0.0938 -0.9955
vn 0.9959 0.0902 -0.0021
vn -0.9227 -0.0925 -0.3742
vn -0.0000 -0.0000 -0.0000
vn 0.6404 0.7679 -0.0181
vn -0.0076 0.1075 0.9942
vn -0.0000 0.0236 0.9997
vn 0.9682 0.0932 0.2320
vn 0.9922 0.0919 0.0846
vn -0.5998 -0.0355 0.7994
vn -0.5976 -0.0352 0.8010
vn 0.2175 0.0427 0.9751
vn 0.5998 0.0355 -0.7994
vn -0.8865 -0.0695 0.4574
vn -0.0106 0.1407 0.9900
vn 0.1667 0.9857 -0.0233
vn -0.9161 0.4008 -0.0095
vn 0.3192 0.0513 0.9463
vn -0.9959 -0.0902 0.0021
vn -0.1243 0.0122 0.9922
vn -0.0076 0.0605 -0.9981
vn -0.9228 -0.0925 -0.3741
vn -0.8567 -0.0896 -0.5080
vn -0.7715 -0.0848 -0.6305
vn -0.0902 0.9956 -0.0235
vn -0.4288 0.9032 -0.0213
vn 0.0902 -0.9956 0.0235
vn 0.1243 -0.0122 -0.9922
vn -0.6413 0.7671 -0.0181
vn -0.0328 0.0206 0.9992
vn 0.9228 0.0925 0.3741
vt 0.719480 0.112069
vt 0.719480 0.080995
vt 0.719480 0.151331
vt 0.719480 0.018848
vt 0.843750 0.025000
vt 0.843750 0.157483
vt 0.843750 0.131013
vt 0.719480 0.161557
vt 0.719480 0.137176
vt 0.843750 0.118221
vt 0.843750 0.143328
vt 0.719480 0.218848
vt 0.843750 0.087147
vt 0.719480 0.124861
s 0
usemtl colormap.070
f 3/1/1 2/2/1 1/2/1
f 2/2/1 3/1/1 4/1/1
f 7/3/2 6/4/2 5/3/2
f 6/5/2 7/6/2 8/5/2
f 8/5/3 7/6/4 9/7/4
f 12/8/5 11/9/5 10/9/5
f 3/10/6 10/11/5 11/11/5
f 3/1/6 11/9/5 13/12/5
f 10/11/5 3/10/6 14/10/6
f 2/13/7 15/5/7 1/13/7
f 15/4/7 2/2/7 16/4/7
f 19/5/8 18/6/8 17/5/8
f 18/6/8 19/5/8 20/6/8
f 20/6/9 19/5/10 21/7/5
f 2/2/11 22/4/12 16/4/12
f 22/4/12 2/2/11 23/2/11
f 26/14/13 25/4/14 24/14/14
f 25/4/14 26/14/13 27/4/13
f 7/3/15 28/14/15 9/14/15
f 28/7/15 7/6/15 29/6/15
f 32/14/16 31/4/16 30/4/16
f 31/4/16 32/14/16 33/14/16
f 35/14/17 30/4/17 34/4/17
f 30/4/17 35/14/17 32/14/17
f 37/6/18 6/5/18 36/5/18
f 6/5/18 37/6/18 5/6/18
f 38/5/19 21/7/19 19/5/19
f 21/7/19 38/5/19 39/7/19
f 4/1/20 23/2/11 2/2/11
f 23/2/11 4/1/20 40/1/20
f 12/8/21 41/9/21 11/9/21
f 41/9/21 12/8/21 42/8/21
f 23/13/22 14/10/22 43/13/22
f 14/10/22 23/13/22 40/10/22
f 9/14/23 25/4/23 8/4/23
f 25/4/23 9/14/23 24/14/23
f 41/9/12 4/1/20 44/12/12
f 4/1/20 41/9/12 40/1/20
f 41/9/12 45/9/12 40/1/20
f 45/9/12 41/9/12 42/8/12
f 22/5/24 43/13/24 46/5/24
f 43/13/24 22/5/24 23/13/24
f 29/6/25 21/7/25 28/7/25
f 21/14/25 29/3/25 20/3/25
f 40/10/24 10/11/24 14/10/24
f 10/11/24 40/10/24 45/11/24
f 14/10/6 1/13/26 43/13/26
f 1/13/26 14/10/6 3/10/6
f 49/5/27 48/7/28 47/5/28
f 48/7/28 49/5/27 50/7/27
f 47/5/28 39/7/29 38/5/29
f 39/7/29 47/5/28 48/7/28
f 44/12/7 3/1/7 13/12/7
f 3/1/7 44/12/7 4/1/7
f 37/3/30 7/3/30 5/3/30
f 7/3/30 37/3/30 29/3/30
f 29/3/30 37/3/30 18/3/30
f 29/3/30 18/3/30 20/3/30
f 43/13/26 15/5/5 46/5/5
f 15/5/5 43/13/26 1/13/26
f 10/9/31 42/8/31 12/8/31
f 42/8/31 10/9/31 45/9/31
f 47/5/32 31/5/32 49/5/32
f 38/5/32 31/5/32 47/5/32
f 31/5/32 38/5/32 30/5/32
f 17/5/32 30/5/32 38/5/32
f 17/5/32 38/5/32 19/5/32
f 36/5/32 30/5/32 17/5/32
f 36/5/32 34/5/32 30/5/32
f 36/5/32 27/5/32 34/5/32
f 36/5/32 25/5/32 27/5/32
f 36/5/32 8/5/32 25/5/32
f 8/5/32 36/5/32 6/5/32
f 22/5/32 15/5/32 16/5/32
f 15/5/32 22/5/32 46/5/32
f 18/6/33 36/5/33 17/5/33
f 36/5/33 18/6/33 37/6/33
f 11/9/34 44/12/34 13/12/34
f 44/12/34 11/9/34 41/9/34
f 28/14/30 24/14/30 9/14/30
f 24/14/30 28/14/30 26/14/30
f 26/14/30 28/14/30 35/14/30
f 35/14/30 28/14/30 32/14/30
f 32/14/30 28/14/30 39/14/30
f 39/14/30 28/14/30 21/14/30
f 39/14/30 33/14/30 32/14/30
f 33/14/30 39/14/30 48/14/30
f 33/14/30 48/14/30 50/14/30
f 33/14/35 49/4/35 31/4/35
f 49/4/35 33/14/35 50/14/35
f 35/14/36 27/4/13 26/14/13
f 27/4/13 35/14/36 34/4/36
f 3/1/1 2/2/1 1/2/1
f 2/2/1 3/1/1 4/1/1
f 7/3/2 6/4/2 5/3/2
f 6/5/2 7/6/2 8/5/2
f 8/5/3 7/6/4 9/7/4
f 12/8/5 11/9/5 10/9/5
f 3/10/6 10/11/5 11/11/5
f 3/1/6 11/9/5 13/12/5
f 10/11/5 3/10/6 14/10/6
f 2/13/7 15/5/7 1/13/7
f 15/4/7 2/2/7 16/4/7
f 19/5/8 18/6/8 17/5/8
f 18/6/8 19/5/8 20/6/8
f 20/6/9 19/5/7 21/7/9
f 2/2/11 22/4/12 16/4/12
f 22/4/12 2/2/11 23/2/11
f 26/14/13 25/4/14 24/14/14
f 25/4/14 26/14/13 27/4/13
f 7/3/15 28/14/15 9/14/15
f 28/7/15 7/6/15 29/6/15
f 32/14/16 31/4/16 30/4/16
f 31/4/16 32/14/16 33/14/16
f 35/14/17 30/4/17 34/4/17
f 30/4/17 35/14/17 32/14/17
f 37/6/18 6/5/18 36/5/18
f 6/5/18 37/6/18 5/6/18
f 38/5/19 21/7/19 19/5/19
f 21/7/19 38/5/19 39/7/19
f 4/1/20 23/2/11 2/2/11
f 23/2/11 4/1/20 40/1/20
f 12/8/21 41/9/21 11/9/21
f 41/9/21 12/8/21 42/8/21
f 23/13/22 14/10/22 43/13/22
f 14/10/22 23/13/22 40/10/22
f 9/14/23 25/4/23 8/4/23
f 25/4/23 9/14/23 24/14/23
f 41/9/12 4/1/20 44/12/12
f 4/1/20 41/9/12 40/1/20
f 41/9/12 45/9/12 40/1/20
f 45/9/12 41/9/12 42/8/12
f 22/5/24 43/13/24 46/5/24
f 43/13/24 22/5/24 23/13/24
f 29/6/25 21/7/25 28/7/25
f 21/14/25 29/3/25 20/3/25
f 40/10/24 10/11/24 14/10/24
f 10/11/24 40/10/24 45/11/24
f 14/10/6 1/13/26 43/13/26
f 1/13/26 14/10/6 3/10/6
f 49/5/27 48/7/28 47/5/28
f 48/7/28 49/5/27 50/7/27
f 47/5/28 39/7/29 38/5/29
f 39/7/29 47/5/28 48/7/28
f 44/12/7 3/1/7 13/12/7
f 3/1/7 44/12/7 4/1/7
f 37/3/30 7/3/30 5/3/30
f 7/3/30 37/3/30 29/3/30
f 29/3/30 37/3/30 18/3/30
f 29/3/30 18/3/30 20/3/30
f 43/13/26 15/5/5 46/5/5
f 15/5/5 43/13/26 1/13/26
f 10/9/31 42/8/31 12/8/31
f 42/8/31 10/9/31 45/9/31
f 47/5/32 31/5/32 49/5/32
f 38/5/32 31/5/32 47/5/32
f 31/5/32 38/5/32 30/5/32
f 17/5/32 30/5/32 38/5/32
f 17/5/32 38/5/32 19/5/32
f 36/5/32 30/5/32 17/5/32
f 36/5/32 34/5/32 30/5/32
f 36/5/32 27/5/32 34/5/32
f 36/5/32 25/5/32 27/5/32
f 36/5/32 8/5/32 25/5/32
f 8/5/32 36/5/32 6/5/32
f 22/5/32 15/5/32 16/5/32
f 15/5/32 22/5/32 46/5/32
f 18/6/33 36/5/33 17/5/33
f 36/5/33 18/6/33 37/6/33
f 11/9/34 44/12/34 13/12/34
f 44/12/34 11/9/34 41/9/34
f 28/14/30 24/14/30 9/14/30
f 24/14/30 28/14/30 26/14/30
f 26/14/30 28/14/30 35/14/30
f 35/14/30 28/14/30 32/14/30
f 32/14/30 28/14/30 39/14/30
f 39/14/30 28/14/30 21/14/30
f 39/14/30 33/14/30 32/14/30
f 33/14/30 39/14/30 48/14/30
f 33/14/30 48/14/30 50/14/30
f 33/14/35 49/4/35 31/4/35
f 49/4/35 33/14/35 50/14/35
f 35/14/36 27/4/13 26/14/13
f 27/4/13 35/14/36 34/4/36
