# Blender 3.6.4
# www.blender.org
mtllib Gravestone_Broken_1.mtl
o Gravestone_Broken_1
v -1.762192 0.079866 -5.295194
v -2.150283 0.041321 -5.294734
v -1.769902 0.157479 -5.296120
v -2.157992 0.118934 -5.295660
v -1.800660 0.117436 -5.195466
v -1.796707 0.077634 -5.194991
v -1.845694 0.113503 -5.150161
v -1.841740 0.073702 -5.149685
v -2.140502 0.158173 -5.437416
v -2.164331 0.398057 -5.440279
v -2.140502 0.159762 -5.304370
v -2.164331 0.399645 -5.307234
v -2.135324 0.400938 -5.440314
v -2.135324 0.402526 -5.307268
v -1.906475 0.066496 -5.214658
v -1.910428 0.106297 -5.215133
v -1.861442 0.070428 -5.259964
v -1.865396 0.110229 -5.260438
v -1.777575 0.078984 -5.241147
v -1.781528 0.118785 -5.241622
v -1.737929 0.083519 -5.191111
v -1.741883 0.123321 -5.191586
v -1.795102 0.194067 -5.304780
v -1.814801 0.390789 -5.440193
v -1.814801 0.392377 -5.307147
v -1.844654 0.387824 -5.440157
v -1.844654 0.389412 -5.307112
v -1.666281 0.089952 -5.248463
v -1.705927 0.085416 -5.298499
v -2.157992 0.117149 -5.445149
v -1.709881 0.125217 -5.298974
v -1.795102 0.192479 -5.437825
v -1.769902 0.155694 -5.445610
v -1.867742 0.332155 -5.306428
v -1.931796 0.290625 -5.305933
v -1.907546 0.328201 -5.306381
v -1.991502 0.284695 -5.305861
v -2.046125 0.302379 -5.306073
v -2.016272 0.305344 -5.306108
v -2.114833 0.376016 -5.306952
v -2.094931 0.377992 -5.306975
v -2.114833 0.374427 -5.439997
v -2.150283 0.039536 -5.444222
v -1.762192 0.078082 -5.444683
v -1.670235 0.129753 -5.248938
v -2.016272 0.303756 -5.439154
v -1.991502 0.283107 -5.438907
v -1.867742 0.330566 -5.439474
v -1.907546 0.326613 -5.439426
v -2.094931 0.376404 -5.440021
v -2.046125 0.300791 -5.439118
v -1.931796 0.289037 -5.438978
vn -0.0083 0.0958 0.9954
vn -0.0000 0.0119 0.9999
vn 0.7036 0.0783 0.7062
vn -0.7036 -0.0783 -0.7062
vn -0.9951 -0.0988 0.0012
vn -0.0988 0.9950 -0.0119
vn 0.3958 0.9183 -0.0110
vn 0.3958 0.9183 -0.0108
vn -0.7036 -0.0614 0.7079
vn 0.7036 0.0614 -0.7079
vn -0.7037 -0.0783 -0.7062
vn 0.7037 0.0783 0.7062
vn 0.0988 -0.9950 0.0119
vn -0.7788 -0.0699 0.6234
vn 0.7788 0.0699 -0.6234
vn -0.0204 0.2169 0.9760
vn -0.5998 0.8001 -0.0095
vn -0.5998 0.8001 -0.0096
vn -0.9907 0.1362 -0.0016
vn -0.9196 0.3929 -0.0047
vn -0.6195 -0.0709 -0.7818
vn 0.6195 0.0709 0.7818
vn 0.9951 0.0988 -0.0012
vn 0.8243 0.5661 -0.0068
vn 0.9445 0.3284 -0.0039
vn 0.3958 0.9183 -0.0109
vn -0.0083 0.0721 -0.9974
vn -0.0000 -0.0119 -0.9999
vn -0.9907 0.1361 -0.0015
vn -0.9907 0.1361 -0.0016
vn 0.9446 0.3283 -0.0039
vn 0.2936 0.9559 -0.0114
vn -0.5213 0.8533 -0.0102
vn 0.4344 0.9007 -0.0108
vn 0.4344 0.9007 -0.0107
vn 0.4344 0.9007 -0.0109
vn -0.0204 0.1936 -0.9809
vn -0.0083 0.0720 -0.9974
vt 0.719480 0.062414
vt 0.719480 0.018848
vt 0.719480 0.041189
vt 0.843750 0.090348
vt 0.843750 0.225000
vt 0.719480 0.218848
vt 0.843750 0.025000
vt 0.843750 0.047341
vt 0.719480 0.084196
vt 0.719480 0.195512
vt 0.843750 0.068566
vt 0.719480 0.164961
vt 0.843750 0.151565
vt 0.843750 0.171113
vt 0.719480 0.145413
vt 0.719480 0.158258
vt 0.719480 0.202981
vt 0.843750 0.209133
vt 0.843750 0.164410
vt 0.843750 0.201664
s 0
usemtl colormap.068
f 3/1/1 2/2/2 1/2/2
f 2/2/2 3/1/1 4/1/1
f 7/3/3 6/2/3 5/3/3
f 6/2/3 7/3/3 8/2/3
f 5/3/4 6/2/4 7/3/4
f 8/2/4 7/3/4 6/2/4
f 11/4/5 10/5/5 9/4/5
f 10/5/5 11/4/5 12/5/5
f 10/5/6 14/5/7 13/5/8
f 14/6/7 10/6/6 12/6/6
f 8/7/9 16/8/9 15/7/9
f 16/3/9 8/2/9 7/3/9
f 15/7/10 16/8/10 8/7/10
f 7/3/10 8/2/10 16/3/10
f 15/7/11 18/8/11 17/7/11
f 18/8/11 15/7/11 16/8/11
f 17/7/12 18/8/12 15/7/12
f 16/8/12 15/7/12 18/8/12
f 8/7/13 17/7/13 6/7/13
f 17/7/13 8/7/13 15/7/13
f 6/7/6 17/7/6 8/7/6
f 15/7/6 8/7/6 17/7/6
f 21/7/14 20/8/14 19/7/14
f 20/3/14 21/2/14 22/3/14
f 19/7/15 20/8/15 21/7/15
f 22/3/15 21/2/15 20/3/15
f 23/9/16 4/1/1 3/1/1
f 4/1/1 23/9/16 11/9/16
f 26/10/17 25/10/6 24/10/6
f 25/10/6 26/10/17 27/10/18
f 21/7/13 29/7/13 28/7/13
f 29/7/13 21/7/13 19/7/13
f 28/7/6 29/7/6 21/7/6
f 19/7/6 21/7/6 29/7/6
f 4/11/19 9/4/20 30/11/19
f 9/4/20 4/11/19 11/4/20
f 20/8/21 29/7/21 19/7/21
f 29/7/21 20/8/21 31/8/21
f 19/7/22 29/7/22 20/8/22
f 31/8/22 20/8/22 29/7/22
f 25/10/23 32/9/23 24/10/23
f 32/9/23 25/10/23 23/9/23
f 18/8/10 6/7/10 17/7/10
f 6/7/10 18/8/10 5/8/10
f 17/7/9 6/7/9 18/8/9
f 5/8/9 18/8/9 6/7/9
f 32/9/24 3/1/25 33/1/25
f 3/1/25 32/9/24 23/9/24
f 34/12/2 25/10/2 27/10/2
f 34/12/2 23/9/2 25/10/2
f 35/13/2 23/4/2 34/14/2
f 36/14/2 35/13/2 34/14/2
f 23/9/2 35/15/2 11/9/2
f 37/15/2 11/9/2 35/15/2
f 38/16/2 11/9/2 37/15/2
f 38/16/2 37/15/2 39/16/2
f 11/9/2 38/16/2 12/6/2
f 12/6/2 38/16/2 40/17/2
f 40/17/2 38/16/2 41/17/2
f 12/6/2 40/17/2 14/6/2
f 14/6/26 42/17/7 13/6/26
f 42/17/26 14/6/7 40/17/7
f 30/11/27 44/7/28 43/7/28
f 44/7/28 30/11/27 33/11/27
f 2/7/5 30/11/29 43/7/5
f 30/11/30 2/7/5 4/11/30
f 31/3/6 22/3/6 45/3/6
f 22/3/6 31/3/6 20/3/6
f 45/3/13 22/3/13 31/3/13
f 20/3/13 31/3/13 22/3/13
f 3/1/31 44/2/23 33/1/31
f 44/2/23 3/1/31 1/2/23
f 39/16/32 47/15/32 46/16/32
f 47/15/32 39/16/32 37/15/32
f 49/12/33 34/12/17 48/12/18
f 34/12/18 49/12/33 36/12/33
f 41/17/34 51/16/34 50/17/35
f 51/16/35 41/17/36 38/16/34
f 42/18/7 41/18/34 50/18/35
f 41/17/35 42/17/7 40/17/7
f 2/7/13 44/7/13 1/7/13
f 44/7/13 2/7/13 43/7/13
f 47/15/32 35/15/33 52/15/33
f 35/15/33 47/15/32 37/15/32
f 51/16/34 39/16/32 46/16/32
f 39/16/32 51/16/34 38/16/34
f 45/8/15 29/7/15 31/8/15
f 29/7/15 45/8/15 28/7/15
f 31/8/14 29/7/14 45/8/14
f 28/7/14 45/8/14 29/7/14
f 45/3/22 21/2/22 28/2/22
f 21/2/22 45/3/22 22/3/22
f 28/2/21 21/2/21 45/3/21
f 22/3/21 45/3/21 21/2/21
f 35/15/33 49/12/33 52/15/33
f 49/12/33 35/15/33 36/12/33
f 34/12/18 26/10/17 48/12/18
f 26/10/17 34/12/18 27/10/18
f 9/4/37 33/11/38 30/11/38
f 33/11/38 9/4/37 32/4/37
f 18/3/6 7/3/6 5/3/6
f 7/3/6 18/3/6 16/3/6
f 5/3/13 7/3/13 18/3/13
f 16/3/13 18/3/13 7/3/13
f 42/18/28 10/5/28 13/5/28
f 51/19/28 10/5/28 42/18/28
f 50/18/28 51/19/28 42/18/28
f 51/19/28 9/4/28 10/5/28
f 9/4/28 51/19/28 32/4/28
f 32/4/28 51/19/28 47/13/28
f 46/19/28 47/13/28 51/19/28
f 52/13/28 32/4/28 47/13/28
f 48/14/28 32/4/28 52/13/28
f 48/14/28 52/13/28 49/14/28
f 32/4/28 48/14/28 24/20/28
f 24/20/28 48/14/28 26/20/28
f 3/1/1 2/2/2 1/2/2
f 2/2/2 3/1/1 4/1/1
f 7/3/3 6/2/3 5/3/3
f 6/2/3 7/3/3 8/2/3
f 5/3/4 6/2/4 7/3/4
f 8/2/4 7/3/4 6/2/4
f 11/4/5 10/5/5 9/4/5
f 10/5/5 11/4/5 12/5/5
f 10/5/6 14/5/7 13/5/8
f 14/6/7 10/6/6 12/6/6
f 8/7/9 16/8/9 15/7/9
f 16/3/9 8/2/9 7/3/9
f 15/7/10 16/8/10 8/7/10
f 7/3/10 8/2/10 16/3/10
f 15/7/11 18/8/11 17/7/11
f 18/8/11 15/7/11 16/8/11
f 17/7/12 18/8/12 15/7/12
f 16/8/12 15/7/12 18/8/12
f 8/7/13 17/7/13 6/7/13
f 17/7/13 8/7/13 15/7/13
f 6/7/6 17/7/6 8/7/6
f 15/7/6 8/7/6 17/7/6
f 21/7/14 20/8/14 19/7/14
f 20/3/14 21/2/14 22/3/14
f 19/7/15 20/8/15 21/7/15
f 22/3/15 21/2/15 20/3/15
f 23/9/16 4/1/1 3/1/1
f 4/1/1 23/9/16 11/9/16
f 26/10/17 25/10/6 24/10/6
f 25/10/6 26/10/17 27/10/18
f 21/7/13 29/7/13 28/7/13
f 29/7/13 21/7/13 19/7/13
f 28/7/6 29/7/6 21/7/6
f 19/7/6 21/7/6 29/7/6
f 4/11/19 9/4/20 30/11/19
f 9/4/20 4/11/19 11/4/20
f 20/8/21 29/7/21 19/7/21
f 29/7/21 20/8/21 31/8/21
f 19/7/22 29/7/22 20/8/22
f 31/8/22 20/8/22 29/7/22
f 25/10/23 32/9/23 24/10/23
f 32/9/23 25/10/23 23/9/23
f 18/8/10 6/7/10 17/7/10
f 6/7/10 18/8/10 5/8/10
f 17/7/9 6/7/9 18/8/9
f 5/8/9 18/8/9 6/7/9
f 32/9/24 3/1/25 33/1/25
f 3/1/25 32/9/24 23/9/24
f 34/12/2 25/10/2 27/10/2
f 34/12/2 23/9/2 25/10/2
f 35/13/2 23/4/2 34/14/2
f 36/14/2 35/13/2 34/14/2
f 23/9/2 35/15/2 11/9/2
f 37/15/2 11/9/2 35/15/2
f 38/16/2 11/9/2 37/15/2
f 38/16/2 37/15/2 39/16/2
f 11/9/2 38/16/2 12/6/2
f 12/6/2 38/16/2 40/17/2
f 40/17/2 38/16/2 41/17/2
f 12/6/2 40/17/2 14/6/2
f 14/6/26 42/17/7 13/6/26
f 42/17/26 14/6/7 40/17/7
f 30/11/27 44/7/28 43/7/28
f 44/7/28 30/11/27 33/11/27
f 2/7/5 30/11/29 43/7/5
f 30/11/30 2/7/5 4/11/30
f 31/3/6 22/3/6 45/3/6
f 22/3/6 31/3/6 20/3/6
f 45/3/13 22/3/13 31/3/13
f 20/3/13 31/3/13 22/3/13
f 3/1/31 44/2/23 33/1/31
f 44/2/23 3/1/31 1/2/23
f 39/16/32 47/15/32 46/16/32
f 47/15/32 39/16/32 37/15/32
f 49/12/33 34/12/17 48/12/18
f 34/12/18 49/12/33 36/12/33
f 41/17/34 51/16/34 50/17/35
f 51/16/35 41/17/36 38/16/34
f 42/18/7 41/18/34 50/18/35
f 41/17/35 42/17/7 40/17/7
f 2/7/13 44/7/13 1/7/13
f 44/7/13 2/7/13 43/7/13
f 47/15/32 35/15/33 52/15/33
f 35/15/33 47/15/32 37/15/32
f 51/16/34 39/16/32 46/16/32
f 39/16/32 51/16/34 38/16/34
f 45/8/15 29/7/15 31/8/15
f 29/7/15 45/8/15 28/7/15
f 31/8/14 29/7/14 45/8/14
f 28/7/14 45/8/14 29/7/14
f 45/3/22 21/2/22 28/2/22
f 21/2/22 45/3/22 22/3/22
f 28/2/21 21/2/21 45/3/21
f 22/3/21 45/3/21 21/2/21
f 35/15/33 49/12/33 52/15/33
f 49/12/33 35/15/33 36/12/33
f 34/12/18 26/10/17 48/12/18
f 26/10/17 34/12/18 27/10/18
f 9/4/37 33/11/38 30/11/38
f 33/11/38 9/4/37 32/4/37
f 18/3/6 7/3/6 5/3/6
f 7/3/6 18/3/6 16/3/6
f 5/3/13 7/3/13 18/3/13
f 16/3/13 18/3/13 7/3/13
f 42/18/28 10/5/28 13/5/28
f 51/19/28 10/5/28 42/18/28
f 50/18/28 51/19/28 42/18/28
f 51/19/28 9/4/28 10/5/28
f 9/4/28 51/19/28 32/4/28
f 32/4/28 51/19/28 47/13/28
f 46/19/28 47/13/28 51/19/28
f 52/13/28 32/4/28 47/13/28
f 48/14/28 32/4/28 52/13/28
f 48/14/28 52/13/28 49/14/28
f 32/4/28 48/14/28 24/20/28
f 24/20/28 48/14/28 26/20/28
