# Blender 3.6.4
# www.blender.org
mtllib Trunk1.mtl
o Trunk_1
v -14.553880 0.274161 0.645536
v -14.315625 0.271200 0.783635
v -14.556841 0.333321 0.704089
v -14.363855 0.330923 0.815949
v -14.710354 1.503050 0.988796
v -14.703465 1.353217 0.973698
v -14.710354 1.491605 1.102374
v -14.692562 1.116091 0.949804
v -14.692562 1.104647 1.063382
v -14.696822 1.197305 1.072719
v -14.598065 1.196078 1.129961
v -14.593805 1.103419 1.120624
v -14.598065 1.193097 1.159540
v -14.593805 1.100439 1.150203
v -14.400127 0.510163 1.042520
v -14.566095 0.492991 1.137197
v -14.469329 1.113317 1.079195
v -14.566095 0.496965 1.097758
v -14.434421 0.510589 1.022642
v -14.495049 1.113637 1.064288
v -14.488558 1.545936 0.978178
v -14.488558 1.531510 1.121335
v -14.514277 1.543275 0.992849
v -14.514277 1.531830 1.106428
v -14.749826 0.313354 0.814179
v -14.732063 0.514287 0.850120
v -14.749826 0.290989 1.036129
v -14.732063 0.495053 1.040997
v -14.729184 1.353536 0.958791
v -14.736073 1.503370 0.973889
v -14.604709 1.366415 0.887782
v -14.604709 1.363434 0.917362
v -14.315625 0.243589 1.057648
v -14.553880 0.218938 1.193561
v -14.792134 0.221899 1.055462
v -14.792134 0.249510 0.781450
v -14.363855 0.308558 1.037899
v -14.566095 0.527485 0.794882
v -14.697771 0.513861 0.869998
v -14.593805 1.126309 0.893468
v -14.485456 1.478473 0.971380
v -14.511175 1.475812 0.986051
v -14.609932 1.480020 0.899230
v -14.609932 1.477040 0.928809
v -14.400127 0.529397 0.851643
v -14.556841 0.288591 1.147989
v -14.722542 1.194644 1.087390
v -14.736073 1.488944 1.117046
v -14.434421 0.525848 0.871205
v -14.495049 1.125082 0.950710
v -14.718282 1.116411 0.934896
v -14.718282 1.101986 1.078053
v -14.697771 0.498601 1.021434
v -14.566095 0.531459 0.755443
v -14.593805 1.129290 0.863888
v -14.469329 1.127743 0.936038
v -14.547217 0.960808 1.124290
v -14.474623 0.953439 1.232582
v -14.542434 0.901049 1.121838
v -14.471227 0.911011 1.230840
v -14.434373 0.914824 1.209817
v -14.437769 0.957253 1.211558
v -14.495310 0.966178 1.094679
v -14.490526 0.906419 1.092227
v -14.374644 0.374630 0.978639
v -14.389339 0.456309 0.980511
v -14.313739 0.403678 0.963554
v -14.322703 0.453502 0.964696
v -14.322703 0.458349 0.916597
v -14.389339 0.464255 0.901660
v -14.374644 0.383844 0.887200
v -14.313739 0.409299 0.907776
v -14.412599 0.801947 0.654268
v -14.504807 0.779328 0.842777
v -14.438553 0.802270 0.639224
v -14.556715 0.779973 0.812691
v -14.436161 0.772746 0.634465
v -14.551931 0.720926 0.803172
v -14.410208 0.772423 0.649508
v -14.500024 0.720281 0.833259
v -14.767333 0.387133 0.723046
v -14.766459 0.428153 0.732020
v -14.725194 0.358026 0.809875
v -14.723945 0.416628 0.822693
v -14.730998 0.390892 0.702320
v -14.730124 0.431913 0.711292
v -14.673286 0.363396 0.780264
v -14.672037 0.421998 0.793082
v -14.729352 0.621388 0.979339
v -14.728218 0.671123 0.984351
v -14.869106 0.632821 0.989788
v -14.868392 0.664154 0.992945
v -14.729352 0.616375 1.029088
v -14.869106 0.629663 1.021129
v -14.728218 0.666110 1.034099
v -14.868392 0.660996 1.024287
vn 0.3831 0.6594 -0.6469
vn 0.9990 0.0455 0.0046
vn 0.9998 0.0182 0.0018
vn -0.9968 -0.0760 0.0253
vn -0.9984 -0.0487 0.0281
vn 0.4952 0.0040 0.8688
vn 0.4923 0.0372 0.8697
vn 0.4922 0.0372 0.8697
vn -0.4963 0.0101 -0.8681
vn -0.0457 0.9939 0.1002
vn -0.9962 0.0865 0.0087
vn -0.9984 0.0557 0.0056
vn 0.4995 0.1096 -0.8594
vn -0.4995 -0.1096 0.8594
vn 0.0457 -0.9939 -0.1002
vn 0.7924 0.6069 0.0612
vn 0.5005 -0.0913 0.8609
vn 0.5012 -0.1179 0.8572
vn 0.9891 0.1462 0.0147
vn 0.9841 0.1767 0.0178
vn 0.3831 0.5171 0.7654
vn 0.4995 -0.0641 0.8640
vn -0.4355 0.6221 -0.6506
vn -0.5015 -0.0080 0.8651
vn -0.5011 0.0230 0.8651
vn -0.4995 0.0641 -0.8640
vn -0.9950 -0.0993 -0.0100
vn -0.9973 -0.0727 -0.0073
vn -0.9999 -0.0110 -0.0011
vn -0.4355 0.4798 0.7616
vn -0.9990 -0.0455 -0.0046
vn 0.5005 0.0823 -0.8618
vn -0.8448 0.5323 0.0536
vn -0.0327 0.0987 -0.9946
vn -0.0344 0.1330 -0.9905
vn -0.0328 0.0987 -0.9946
vn -0.5015 0.1647 -0.8493
vn -0.5011 0.1951 -0.8431
vn -0.5008 0.0984 -0.8600
vn 0.4890 0.0681 0.8696
vn 1.0000 -0.0085 -0.0009
vn 0.5012 0.0555 -0.8635
vn -0.4980 -0.1368 0.8563
vn 0.9968 0.0799 0.0080
vn 0.9968 0.0799 0.0081
vn -0.5008 -0.0751 0.8623
vn 0.4923 0.2100 -0.8448
vn 0.4890 0.2402 -0.8385
vn 0.4976 0.1439 -0.8554
vn 0.4923 0.2100 -0.8447
vn 0.4922 0.2100 -0.8448
vn -0.4963 -0.1633 0.8527
vn 0.9968 0.0798 0.0080
vn -0.5062 -0.7638 0.4005
vn -0.6185 0.6385 0.4580
vn 0.5995 0.7645 -0.2368
vn 0.7118 -0.6378 -0.2944
vn 0.7118 -0.6377 -0.2943
vn 0.5996 0.7645 -0.2367
vn 0.7118 -0.6377 -0.2944
vn 0.4567 -0.6328 0.6252
vn 0.1979 0.6709 0.7147
vn 0.4561 -0.6298 0.6287
vn 0.4567 -0.6328 0.6253
vn 0.1973 0.6743 0.7116
vn 0.1979 0.8000 -0.5665
vn 0.1973 0.8027 -0.5628
vn 0.4567 -0.4953 -0.7390
vn 0.4561 -0.4918 -0.7417
vn 0.4566 -0.4954 -0.7390
vn 0.4561 -0.6299 0.6287
vn 0.4567 -0.4953 -0.7389
vn -0.6150 0.7177 -0.3266
vn 0.6023 0.7026 0.3790
vn 0.6023 0.7026 0.3789
vn -0.5028 -0.6670 -0.5498
vn -0.5028 -0.6670 -0.5499
vn -0.5027 -0.6670 -0.5499
vn 0.4952 0.1772 -0.8505
vn 0.7145 -0.6821 0.1557
vn 0.7145 -0.6821 0.1556
vn -0.6847 -0.7233 0.0899
vn -0.6555 0.6470 0.3895
vn -0.6847 -0.7232 0.0898
vn -0.6555 0.6470 0.3896
vn -0.6847 -0.7233 0.0898
vn 0.5581 0.7725 -0.3028
vn 0.5289 -0.5977 -0.6025
vn 0.5582 0.7725 -0.3027
vn 0.5582 0.7725 -0.3028
vn 0.5290 -0.5977 -0.6025
vn -0.6847 -0.7232 0.0899
vn -0.6555 0.6469 0.3896
vn -0.6555 0.6469 0.3895
vn -0.1090 -0.6276 -0.7709
vn -0.0770 0.7730 -0.6297
vn -0.1089 -0.6276 -0.7709
vn -0.1090 -0.7688 0.6301
vn -0.1089 -0.6276 -0.7708
vn -0.1089 -0.7688 0.6301
vn -0.1090 -0.6276 -0.7708
vn -0.0771 0.7730 -0.6297
vn -0.0770 0.6318 0.7713
vn -0.9997 0.0226 0.0023
vt 0.093750 0.285013
vt 0.093750 0.275000
vt 0.093750 0.470144
vt 0.093750 0.446851
vt 0.093750 0.409988
vt 0.093750 0.424392
vt 0.093750 0.316302
vt 0.093750 0.475000
vt 0.093750 0.464512
vt 0.093750 0.325000
vt 0.093750 0.425000
vt 0.093750 0.424659
vt 0.093750 0.354242
vt 0.093750 0.354957
vt 0.093750 0.415956
vt 0.093750 0.423977
vt 0.093750 0.373976
vt 0.093750 0.359739
vt 0.093750 0.418232
vt 0.093750 0.362427
vt 0.093750 0.424323
s 0
usemtl colormap.035
f 3/1/1 2/2/1 1/2/1
f 2/2/1 3/1/1 4/1/1
f 7/3/2 6/4/2 5/3/2
f 6/4/2 7/3/2 8/5/3
f 8/5/3 7/3/2 9/5/3
f 9/5/4 7/3/5 10/6/5
f 13/6/2 12/5/2 11/6/2
f 12/5/2 13/6/2 14/5/2
f 17/5/6 16/7/7 15/7/7
f 16/7/8 17/5/6 14/5/6
f 12/5/9 19/7/9 18/7/9
f 19/7/9 12/5/9 20/5/9
f 20/5/10 14/5/10 17/5/10
f 14/5/10 20/5/10 12/5/10
f 23/8/10 22/8/10 21/8/10
f 22/8/10 23/8/10 24/8/10
f 27/1/11 26/7/12 25/1/11
f 26/7/12 27/1/11 28/7/12
f 30/3/13 6/4/13 29/4/13
f 6/4/13 30/3/13 5/3/13
f 29/4/10 32/4/10 31/4/10
f 32/4/10 29/4/10 6/4/10
f 22/8/14 20/5/14 17/5/14
f 20/5/14 22/8/14 24/8/14
f 34/2/15 2/2/15 33/2/15
f 2/2/15 34/2/15 1/2/15
f 1/2/15 34/2/15 35/2/15
f 1/2/15 35/2/15 36/2/15
f 4/1/16 33/2/16 2/2/16
f 33/2/16 4/1/16 37/1/16
f 40/5/17 39/7/18 38/7/18
f 39/7/18 40/5/17 8/5/17
f 43/9/10 42/9/10 41/9/10
f 42/9/10 43/9/10 44/9/10
f 45/7/19 37/1/20 4/1/20
f 37/1/20 45/7/19 15/7/19
f 37/1/21 34/2/21 33/2/21
f 34/2/21 37/1/21 46/1/21
f 32/4/22 8/5/17 40/5/17
f 8/5/17 32/4/22 6/4/22
f 7/3/22 47/6/22 10/6/22
f 47/6/22 7/3/22 48/3/22
f 25/1/23 1/2/23 36/2/23
f 1/2/23 25/1/23 3/1/23
f 16/7/24 27/1/25 46/1/25
f 27/1/25 16/7/24 28/7/24
f 23/8/26 41/9/26 42/9/26
f 41/9/26 23/8/26 21/8/26
f 19/7/27 50/5/28 49/7/27
f 50/5/28 19/7/27 20/5/28
f 28/7/12 51/5/29 26/7/12
f 51/5/29 28/7/12 52/5/29
f 46/1/30 35/2/30 34/2/30
f 35/2/30 46/1/30 27/1/30
f 32/4/31 43/9/31 31/4/31
f 43/9/31 32/4/31 44/9/31
f 30/3/10 7/3/10 5/3/10
f 7/3/10 30/3/10 48/3/10
f 38/7/10 19/7/10 49/7/10
f 19/7/10 38/7/10 18/7/10
f 18/7/10 38/7/10 39/7/10
f 18/7/10 39/7/10 53/7/10
f 10/6/13 12/5/32 9/5/32
f 12/5/32 10/6/13 11/6/13
f 35/2/33 25/1/33 36/2/33
f 25/1/33 35/2/33 27/1/33
f 10/6/10 13/6/10 11/6/10
f 13/6/10 10/6/10 47/6/10
f 52/5/29 29/4/31 51/5/29
f 29/4/31 52/5/29 30/3/31
f 30/3/31 52/5/29 48/3/31
f 48/3/34 52/5/35 47/6/36
f 26/7/37 3/1/38 25/1/38
f 3/1/38 26/7/37 54/7/37
f 20/5/28 42/9/31 50/5/28
f 42/9/31 20/5/28 23/8/31
f 23/8/31 20/5/28 24/8/31
f 29/4/26 55/5/39 51/5/39
f 55/5/39 29/4/26 31/4/26
f 15/7/7 46/1/40 37/1/40
f 46/1/40 15/7/7 16/7/7
f 8/5/3 53/7/41 39/7/41
f 53/7/41 8/5/3 9/5/3
f 9/5/32 18/7/42 53/7/42
f 18/7/42 9/5/32 12/5/32
f 42/9/14 40/5/43 50/5/43
f 40/5/43 42/9/14 32/4/14
f 32/4/14 42/9/14 44/9/14
f 56/5/44 15/7/19 45/7/19
f 15/7/19 56/5/45 17/5/44
f 13/6/14 52/5/46 14/5/46
f 52/5/46 13/6/14 47/6/14
f 54/7/47 4/1/48 3/1/48
f 4/1/48 54/7/47 45/7/47
f 55/5/49 45/7/50 54/7/47
f 45/7/51 55/5/49 56/5/49
f 50/5/43 38/7/52 49/7/52
f 38/7/52 50/5/43 40/5/43
f 31/4/13 56/5/49 55/5/49
f 56/5/49 31/4/13 41/9/13
f 41/9/13 31/4/13 43/9/13
f 51/5/39 54/7/37 26/7/37
f 54/7/37 51/5/39 55/5/39
f 14/5/46 28/7/24 16/7/24
f 28/7/24 14/5/46 52/5/46
f 22/8/2 41/9/2 21/8/2
f 41/9/2 22/8/2 56/5/53
f 56/5/53 22/8/2 17/5/53
f 59/10/54 58/11/55 57/12/55
f 58/11/55 59/10/54 60/13/54
f 61/13/6 58/11/6 60/13/6
f 58/11/6 61/13/6 62/11/6
f 62/11/56 64/10/57 63/12/56
f 64/10/57 62/11/56 61/13/58
f 63/12/56 58/11/55 62/11/56
f 58/11/55 63/12/59 57/12/55
f 60/13/54 64/10/60 61/13/58
f 64/10/58 60/13/54 59/10/54
f 67/14/61 66/11/62 65/10/63
f 66/11/62 67/14/64 68/15/65
f 70/11/66 68/15/65 69/15/67
f 68/15/65 70/11/66 66/11/62
f 70/11/66 72/14/68 71/10/69
f 72/14/70 70/11/66 69/15/67
f 65/10/71 72/14/72 67/14/64
f 72/14/68 65/10/63 71/10/69
f 69/15/20 67/14/20 72/14/20
f 67/14/20 69/15/20 68/15/20
f 75/16/73 74/11/74 73/16/75
f 74/11/75 75/16/73 76/11/73
f 78/10/76 75/16/73 77/17/77
f 75/16/73 78/10/78 76/11/73
f 75/16/79 79/17/79 77/17/79
f 79/17/79 75/16/79 73/16/79
f 80/10/80 77/17/77 79/17/80
f 77/17/77 80/10/81 78/10/77
f 73/16/75 80/10/80 79/17/80
f 80/10/80 73/16/75 74/11/75
f 83/10/82 82/11/83 81/18/84
f 82/11/85 83/10/86 84/19/85
f 82/11/38 85/18/38 81/18/38
f 85/18/38 82/11/38 86/11/38
f 86/11/87 87/10/88 85/18/88
f 87/10/88 86/11/89 88/19/90
f 83/10/84 85/18/91 87/10/91
f 85/18/88 83/10/92 81/18/84
f 86/11/89 84/19/93 88/19/90
f 84/19/93 86/11/90 82/11/94
f 91/20/95 90/21/96 89/10/95
f 90/21/96 91/20/97 92/11/96
f 94/20/98 89/10/99 93/10/98
f 89/10/99 94/20/100 91/20/101
f 92/11/102 95/21/103 90/21/96
f 95/21/103 92/11/96 96/11/103
f 95/21/103 94/20/98 93/10/98
f 94/20/100 95/21/103 96/11/103
f 94/20/104 92/11/104 91/20/104
f 92/11/104 94/20/104 96/11/104
f 3/1/1 2/2/1 1/2/1
f 2/2/1 3/1/1 4/1/1
f 7/3/2 6/4/2 5/3/2
f 6/4/2 7/3/2 8/5/3
f 8/5/3 7/3/2 9/5/3
f 9/5/4 7/3/5 10/6/5
f 13/6/2 12/5/2 11/6/2
f 12/5/2 13/6/2 14/5/2
f 17/5/6 16/7/7 15/7/7
f 16/7/8 17/5/6 14/5/6
f 12/5/9 19/7/9 18/7/9
f 19/7/9 12/5/9 20/5/9
f 20/5/10 14/5/10 17/5/10
f 14/5/10 20/5/10 12/5/10
f 23/8/10 22/8/10 21/8/10
f 22/8/10 23/8/10 24/8/10
f 27/1/11 26/7/12 25/1/11
f 26/7/12 27/1/11 28/7/12
f 30/3/13 6/4/13 29/4/13
f 6/4/13 30/3/13 5/3/13
f 29/4/10 32/4/10 31/4/10
f 32/4/10 29/4/10 6/4/10
f 22/8/14 20/5/14 17/5/14
f 20/5/14 22/8/14 24/8/14
f 34/2/15 2/2/15 33/2/15
f 2/2/15 34/2/15 1/2/15
f 1/2/15 34/2/15 35/2/15
f 1/2/15 35/2/15 36/2/15
f 4/1/16 33/2/16 2/2/16
f 33/2/16 4/1/16 37/1/16
f 40/5/17 39/7/18 38/7/18
f 39/7/18 40/5/17 8/5/17
f 43/9/10 42/9/10 41/9/10
f 42/9/10 43/9/10 44/9/10
f 45/7/19 37/1/20 4/1/20
f 37/1/20 45/7/19 15/7/19
f 37/1/21 34/2/21 33/2/21
f 34/2/21 37/1/21 46/1/21
f 32/4/22 8/5/17 40/5/17
f 8/5/17 32/4/22 6/4/22
f 7/3/22 47/6/22 10/6/22
f 47/6/22 7/3/22 48/3/22
f 25/1/23 1/2/23 36/2/23
f 1/2/23 25/1/23 3/1/23
f 16/7/24 27/1/25 46/1/25
f 27/1/25 16/7/24 28/7/24
f 23/8/26 41/9/26 42/9/26
f 41/9/26 23/8/26 21/8/26
f 19/7/27 50/5/28 49/7/27
f 50/5/28 19/7/27 20/5/28
f 28/7/12 51/5/29 26/7/12
f 51/5/29 28/7/12 52/5/29
f 46/1/30 35/2/30 34/2/30
f 35/2/30 46/1/30 27/1/30
f 32/4/31 43/9/31 31/4/31
f 43/9/31 32/4/31 44/9/31
f 30/3/10 7/3/10 5/3/10
f 7/3/10 30/3/10 48/3/10
f 38/7/10 19/7/10 49/7/10
f 19/7/10 38/7/10 18/7/10
f 18/7/10 38/7/10 39/7/10
f 18/7/10 39/7/10 53/7/10
f 10/6/13 12/5/32 9/5/32
f 12/5/32 10/6/13 11/6/13
f 35/2/33 25/1/33 36/2/33
f 25/1/33 35/2/33 27/1/33
f 10/6/10 13/6/10 11/6/10
f 13/6/10 10/6/10 47/6/10
f 52/5/29 29/4/31 51/5/29
f 29/4/31 52/5/29 30/3/31
f 30/3/31 52/5/29 48/3/31
f 48/3/34 52/5/35 47/6/36
f 26/7/37 3/1/38 25/1/38
f 3/1/38 26/7/37 54/7/37
f 20/5/28 42/9/31 50/5/28
f 42/9/31 20/5/28 23/8/31
f 23/8/31 20/5/28 24/8/31
f 29/4/26 55/5/39 51/5/39
f 55/5/39 29/4/26 31/4/26
f 15/7/7 46/1/40 37/1/40
f 46/1/40 15/7/7 16/7/7
f 8/5/3 53/7/41 39/7/41
f 53/7/41 8/5/3 9/5/3
f 9/5/32 18/7/42 53/7/42
f 18/7/42 9/5/32 12/5/32
f 42/9/14 40/5/43 50/5/43
f 40/5/43 42/9/14 32/4/14
f 32/4/14 42/9/14 44/9/14
f 56/5/44 15/7/19 45/7/19
f 15/7/19 56/5/45 17/5/44
f 13/6/14 52/5/46 14/5/46
f 52/5/46 13/6/14 47/6/14
f 54/7/47 4/1/48 3/1/48
f 4/1/48 54/7/47 45/7/47
f 55/5/49 45/7/50 54/7/47
f 45/7/51 55/5/49 56/5/49
f 50/5/43 38/7/52 49/7/52
f 38/7/52 50/5/43 40/5/43
f 31/4/13 56/5/49 55/5/49
f 56/5/49 31/4/13 41/9/13
f 41/9/13 31/4/13 43/9/13
f 51/5/39 54/7/37 26/7/37
f 54/7/37 51/5/39 55/5/39
f 14/5/46 28/7/24 16/7/24
f 28/7/24 14/5/46 52/5/46
f 22/8/2 41/9/2 21/8/2
f 41/9/2 22/8/2 56/5/53
f 56/5/53 22/8/2 17/5/53
f 59/10/54 58/11/55 57/12/55
f 58/11/55 59/10/54 60/13/54
f 61/13/6 58/11/6 60/13/6
f 58/11/6 61/13/6 62/11/6
f 62/11/56 64/10/57 63/12/56
f 64/10/57 62/11/56 61/13/58
f 63/12/56 58/11/55 62/11/56
f 58/11/55 63/12/59 57/12/55
f 60/13/54 64/10/60 61/13/58
f 64/10/58 60/13/54 59/10/54
f 67/14/61 66/11/62 65/10/63
f 66/11/62 67/14/64 68/15/65
f 70/11/66 68/15/65 69/15/67
f 68/15/65 70/11/66 66/11/62
f 70/11/66 72/14/68 71/10/69
f 72/14/70 70/11/66 69/15/67
f 65/10/71 72/14/72 67/14/64
f 72/14/68 65/10/63 71/10/69
f 69/15/20 67/14/20 72/14/20
f 67/14/20 69/15/20 68/15/20
f 75/16/73 74/11/74 73/16/75
f 74/11/75 75/16/73 76/11/73
f 78/10/76 75/16/73 77/17/77
f 75/16/73 78/10/78 76/11/73
f 75/16/79 79/17/79 77/17/79
f 79/17/79 75/16/79 73/16/79
f 80/10/80 77/17/77 79/17/80
f 77/17/77 80/10/81 78/10/77
f 73/16/75 80/10/80 79/17/80
f 80/10/80 73/16/75 74/11/75
f 83/10/82 82/11/83 81/18/84
f 82/11/85 83/10/86 84/19/85
f 82/11/38 85/18/38 81/18/38
f 85/18/38 82/11/38 86/11/38
f 86/11/87 87/10/88 85/18/88
f 87/10/88 86/11/89 88/19/90
f 83/10/84 85/18/91 87/10/91
f 85/18/88 83/10/92 81/18/84
f 86/11/89 84/19/93 88/19/90
f 84/19/93 86/11/90 82/11/94
f 91/20/95 90/21/96 89/10/95
f 90/21/96 91/20/97 92/11/96
f 94/20/98 89/10/99 93/10/98
f 89/10/99 94/20/100 91/20/101
f 92/11/102 95/21/103 90/21/96
f 95/21/103 92/11/96 96/11/103
f 95/21/103 94/20/98 93/10/98
f 94/20/100 95/21/103 96/11/103
f 94/20/104 92/11/104 91/20/104
f 92/11/104 94/20/104 96/11/104
