# Blender 3.6.4
# www.blender.org
mtllib Trunk_2.mtl
o Trunk_2
v 15.242686 0.238338 5.759799
v 15.480675 0.211156 5.895696
v 15.246945 0.298376 5.817369
v 15.439714 0.276358 5.927446
v 15.227046 1.482249 6.083715
v 15.217137 1.332356 6.071084
v 15.227046 1.472664 6.197465
v 15.201458 1.095137 6.051095
v 15.201458 1.085552 6.164845
v 15.207585 1.178247 6.172656
v 15.306231 1.166980 6.228985
v 15.300104 1.074285 6.221174
v 15.306231 1.164484 6.258610
v 15.300104 1.071789 6.250799
v 15.426037 0.462058 6.151289
v 15.260254 0.464884 6.247788
v 15.424440 1.069669 6.178423
v 15.260254 0.468213 6.208289
v 15.391782 0.465971 6.131728
v 15.398749 1.072603 6.163754
v 15.452094 1.500108 6.070303
v 15.452094 1.488027 6.213676
v 15.426403 1.500546 6.085257
v 15.426403 1.490961 6.199007
v 15.054175 0.301662 5.929578
v 15.094472 0.499928 5.961956
v 15.054175 0.282931 6.151865
v 15.094472 0.483820 6.153122
v 15.191447 1.335291 6.056414
v 15.201355 1.485183 6.069045
v 15.315784 1.333171 5.984039
v 15.315784 1.330674 6.013663
v 15.480675 0.188031 6.170124
v 15.242686 0.192088 6.308653
v 15.004698 0.219271 6.172756
v 15.004698 0.242395 5.898328
v 15.439714 0.257627 6.149732
v 15.260254 0.493774 5.904955
v 15.128726 0.496016 5.981516
v 15.300104 1.093456 5.993674
v 15.447633 1.432619 6.064616
v 15.421942 1.433057 6.079570
v 15.323296 1.446821 5.993616
v 15.323296 1.444324 6.023240
v 15.426037 0.478167 5.960122
v 15.246945 0.260914 6.261941
v 15.181894 1.178685 6.187610
v 15.201355 1.473102 6.212419
v 15.391782 0.478751 5.980062
v 15.398749 1.082189 6.050004
v 15.175767 1.098072 6.036425
v 15.175767 1.085990 6.179799
v 15.128726 0.483236 6.133183
v 15.260254 0.497102 5.865456
v 15.300104 1.095952 5.964049
v 15.424440 1.081751 6.035049
v 15.330657 0.927463 6.226811
v 15.403193 0.913797 6.334530
v 15.328769 0.867511 6.225324
v 15.401852 0.871231 6.333473
v 15.438664 0.870604 6.312045
v 15.440005 0.913170 6.313101
v 15.382506 0.926579 6.196630
v 15.380617 0.866627 6.195143
v 15.435647 0.323548 6.089469
v 15.430104 0.406372 6.090099
v 15.499221 0.345423 6.073328
v 15.495840 0.395945 6.073712
v 15.495840 0.400005 6.025541
v 15.430104 0.413026 6.011129
v 15.435647 0.331265 5.997891
v 15.499221 0.350130 6.017466
v 15.441611 0.747280 5.758301
v 15.349574 0.737992 5.948018
v 15.415687 0.750241 5.743496
v 15.297725 0.743914 5.918411
v 15.414742 0.720562 5.739214
v 15.295836 0.684559 5.909846
v 15.440666 0.717601 5.754018
v 15.347686 0.678637 5.939453
v 15.043928 0.375484 5.837381
v 15.049438 0.416291 5.845653
v 15.083552 0.343254 5.924291
v 15.091424 0.401551 5.936107
v 15.080223 0.374865 5.816256
v 15.085732 0.415672 5.824526
v 15.135402 0.342370 5.894110
v 15.143273 0.400667 5.905926
v 15.110463 0.608089 6.089318
v 15.117151 0.657465 6.093478
v 14.972959 0.635108 6.100877
v 14.977173 0.666215 6.103498
v 15.110463 0.603890 6.139142
v 14.972959 0.632463 6.132266
v 15.117151 0.653266 6.143302
v 14.977173 0.663570 6.134888
vn 0.4465 0.6026 -0.6614
vn 0.9978 -0.0655 -0.0055
vn 0.9957 -0.0927 -0.0078
vn -0.9987 0.0354 0.0359
vn -0.9973 0.0627 0.0382
vn 0.5022 -0.0373 0.8639
vn 0.5030 -0.0039 0.8643
vn -0.5018 0.0513 -0.8635
vn 0.0657 0.9943 0.0838
vn -0.9804 0.1965 0.0166
vn -0.9860 0.1662 0.0140
vn 0.4989 0.0400 -0.8657
vn -0.4989 -0.0400 0.8657
vn -0.0657 -0.9943 -0.0838
vn 0.8554 0.5162 0.0435
vn 0.4969 -0.1327 0.8576
vn 0.4946 -0.1593 0.8544
vn 0.9994 0.0359 0.0030
vn 0.9978 0.0667 0.0056
vn 0.4465 0.4834 0.7530
vn 0.4989 -0.1055 0.8602
vn -0.3712 0.6563 -0.6569
vn -0.4897 0.0612 0.8698
vn -0.4858 0.0920 0.8692
vn -0.4989 0.1055 -0.8602
vn -0.9999 0.0114 0.0010
vn -0.9993 0.0382 0.0032
vn -0.9950 0.0999 0.0084
vn -0.3712 0.5371 0.7575
vn -0.9978 0.0655 0.0055
vn 0.4969 0.0127 -0.8677
vn -0.7801 0.6235 0.0525
vn -0.0327 0.0861 -0.9958
vn -0.0305 0.1204 -0.9923
vn -0.0328 0.0861 -0.9957
vn -0.4897 0.2059 -0.8472
vn -0.4858 0.2362 -0.8415
vn -0.4963 0.1398 -0.8568
vn 0.5032 0.0271 0.8637
vn 0.9928 -0.1194 -0.0101
vn 0.4946 -0.0140 -0.8690
vn -0.5005 -0.0672 0.8631
vn 0.9995 -0.0310 -0.0026
vn -0.4963 -0.0055 0.8681
vn 0.5030 0.1408 -0.8527
vn 0.5032 0.1713 -0.8470
vn 0.5009 0.0743 -0.8623
vn -0.5018 -0.0939 0.8599
vn 0.5009 0.0744 -0.8623
vn -0.4963 -0.0056 0.8681
vn -0.5831 -0.6965 0.4181
vn -0.5389 0.7103 0.4529
vn -0.5389 0.7103 0.4530
vn -0.5832 -0.6965 0.4180
vn 0.5023 -0.0373 0.8639
vn 0.6778 0.6895 -0.2553
vn 0.6335 -0.7173 -0.2902
vn 0.6778 0.6895 -0.2552
vn 0.6335 -0.7173 -0.2901
vn 0.3908 -0.6696 0.6315
vn 0.2789 0.6560 0.7014
vn 0.3906 -0.6666 0.6349
vn 0.3908 -0.6696 0.6316
vn 0.2787 0.6593 0.6983
vn 0.2789 0.7641 -0.5817
vn 0.2786 0.7669 -0.5781
vn 0.2789 0.6559 0.7014
vn 0.3908 -0.5545 -0.7347
vn 0.3906 -0.5509 -0.7375
vn 0.3907 -0.5545 -0.7347
vn 0.2787 0.7669 -0.5781
vn 0.3905 -0.5509 -0.7375
vn -0.5354 0.7762 -0.3330
vn 0.6806 0.6373 0.3614
vn 0.6806 0.6374 0.3613
vn -0.5353 0.7763 -0.3329
vn -0.5796 -0.6157 -0.5338
vn 0.5023 0.1078 -0.8580
vn 0.6363 -0.7546 0.1605
vn 0.6806 0.6374 0.3614
vn 0.6805 0.6374 0.3614
vn -0.7595 -0.6414 0.1084
vn -0.5755 0.7217 0.3847
vn -0.5754 0.7217 0.3847
vn -0.4858 0.2362 -0.8416
vn 0.6368 0.7010 -0.3210
vn 0.4528 -0.6621 -0.5972
vn 0.4528 -0.6620 -0.5973
vn 0.4528 -0.6620 -0.5972
vn 0.6369 0.7010 -0.3209
vn -0.7595 -0.6414 0.1085
vn -0.7596 -0.6413 0.1084
vn 0.6369 0.7010 -0.3210
vn -0.1864 -0.6237 -0.7591
vn 0.0020 0.7668 -0.6419
vn -0.1863 -0.6237 -0.7591
vn -0.1864 -0.7420 0.6440
vn -0.1863 -0.7420 0.6440
vn 0.0020 0.6485 0.7612
vn -0.9910 0.1333 0.0112
vt 0.093750 0.285013
vt 0.093750 0.275000
vt 0.093750 0.470144
vt 0.093750 0.446851
vt 0.093750 0.409988
vt 0.093750 0.424392
vt 0.093750 0.316302
vt 0.093750 0.475000
vt 0.093750 0.464512
vt 0.093750 0.325000
vt 0.093750 0.425000
vt 0.093750 0.424659
vt 0.093750 0.354242
vt 0.093750 0.354957
vt 0.093750 0.415956
vt 0.093750 0.423977
vt 0.093750 0.373976
vt 0.093750 0.359739
vt 0.093750 0.418232
vt 0.093750 0.362427
vt 0.093750 0.424323
s 0
usemtl colormap.035
f 3/1/1 2/2/1 1/2/1
f 2/2/1 3/1/1 4/1/1
f 7/3/2 6/4/2 5/3/2
f 6/4/2 7/3/2 8/5/3
f 8/5/3 7/3/2 9/5/3
f 9/5/4 7/3/5 10/6/5
f 13/6/2 12/5/2 11/6/2
f 12/5/2 13/6/2 14/5/2
f 17/5/6 16/7/7 15/7/7
f 16/7/7 17/5/6 14/5/6
f 12/5/8 19/7/8 18/7/8
f 19/7/8 12/5/8 20/5/8
f 20/5/9 14/5/9 17/5/9
f 14/5/9 20/5/9 12/5/9
f 23/8/9 22/8/9 21/8/9
f 22/8/9 23/8/9 24/8/9
f 27/1/10 26/7/11 25/1/10
f 26/7/11 27/1/10 28/7/11
f 30/3/12 6/4/12 29/4/12
f 6/4/12 30/3/12 5/3/12
f 29/4/9 32/4/9 31/4/9
f 32/4/9 29/4/9 6/4/9
f 22/8/13 20/5/13 17/5/13
f 20/5/13 22/8/13 24/8/13
f 34/2/14 2/2/14 33/2/14
f 2/2/14 34/2/14 1/2/14
f 1/2/14 34/2/14 35/2/14
f 1/2/14 35/2/14 36/2/14
f 4/1/15 33/2/15 2/2/15
f 33/2/15 4/1/15 37/1/15
f 40/5/16 39/7/17 38/7/17
f 39/7/17 40/5/16 8/5/16
f 43/9/9 42/9/9 41/9/9
f 42/9/9 43/9/9 44/9/9
f 45/7/18 37/1/19 4/1/19
f 37/1/19 45/7/18 15/7/18
f 37/1/20 34/2/20 33/2/20
f 34/2/20 37/1/20 46/1/20
f 32/4/21 8/5/16 40/5/16
f 8/5/16 32/4/21 6/4/21
f 7/3/21 47/6/21 10/6/21
f 47/6/21 7/3/21 48/3/21
f 25/1/22 1/2/22 36/2/22
f 1/2/22 25/1/22 3/1/22
f 16/7/23 27/1/24 46/1/24
f 27/1/24 16/7/23 28/7/23
f 23/8/25 41/9/25 42/9/25
f 41/9/25 23/8/25 21/8/25
f 19/7/26 50/5/27 49/7/26
f 50/5/27 19/7/26 20/5/27
f 28/7/11 51/5/28 26/7/11
f 51/5/28 28/7/11 52/5/28
f 46/1/29 35/2/29 34/2/29
f 35/2/29 46/1/29 27/1/29
f 32/4/30 43/9/30 31/4/30
f 43/9/30 32/4/30 44/9/30
f 30/3/9 7/3/9 5/3/9
f 7/3/9 30/3/9 48/3/9
f 38/7/9 19/7/9 49/7/9
f 19/7/9 38/7/9 18/7/9
f 18/7/9 38/7/9 39/7/9
f 18/7/9 39/7/9 53/7/9
f 10/6/12 12/5/31 9/5/31
f 12/5/31 10/6/12 11/6/12
f 35/2/32 25/1/32 36/2/32
f 25/1/32 35/2/32 27/1/32
f 10/6/9 13/6/9 11/6/9
f 13/6/9 10/6/9 47/6/9
f 52/5/28 29/4/30 51/5/28
f 29/4/30 52/5/28 30/3/30
f 30/3/30 52/5/28 48/3/30
f 48/3/33 52/5/34 47/6/35
f 26/7/36 3/1/37 25/1/37
f 3/1/37 26/7/36 54/7/36
f 20/5/27 42/9/30 50/5/27
f 42/9/30 20/5/27 23/8/30
f 23/8/30 20/5/27 24/8/30
f 29/4/25 55/5/38 51/5/38
f 55/5/38 29/4/25 31/4/25
f 15/7/7 46/1/39 37/1/39
f 46/1/39 15/7/7 16/7/7
f 8/5/3 53/7/40 39/7/40
f 53/7/40 8/5/3 9/5/3
f 9/5/31 18/7/41 53/7/41
f 18/7/41 9/5/31 12/5/31
f 42/9/13 40/5/42 50/5/42
f 40/5/42 42/9/13 32/4/13
f 32/4/13 42/9/13 44/9/13
f 56/5/43 15/7/18 45/7/18
f 15/7/18 56/5/43 17/5/43
f 13/6/13 52/5/44 14/5/44
f 52/5/44 13/6/13 47/6/13
f 54/7/45 4/1/46 3/1/46
f 4/1/46 54/7/45 45/7/45
f 55/5/47 45/7/45 54/7/45
f 45/7/45 55/5/47 56/5/47
f 50/5/42 38/7/48 49/7/48
f 38/7/48 50/5/42 40/5/42
f 31/4/12 56/5/49 55/5/49
f 56/5/49 31/4/12 41/9/12
f 41/9/12 31/4/12 43/9/12
f 51/5/38 54/7/36 26/7/36
f 54/7/36 51/5/38 55/5/38
f 14/5/50 28/7/23 16/7/23
f 28/7/23 14/5/50 52/5/50
f 22/8/2 41/9/2 21/8/2
f 41/9/2 22/8/2 56/5/43
f 56/5/43 22/8/2 17/5/43
f 59/10/51 58/11/52 57/12/53
f 58/11/52 59/10/54 60/13/54
f 61/13/6 58/11/6 60/13/6
f 58/11/55 61/13/55 62/11/55
f 62/11/56 64/10/57 63/12/58
f 64/10/57 62/11/56 61/13/57
f 63/12/56 58/11/52 62/11/56
f 58/11/52 63/12/58 57/12/53
f 60/13/54 64/10/57 61/13/57
f 64/10/59 60/13/54 59/10/54
f 67/14/60 66/11/61 65/10/62
f 66/11/61 67/14/63 68/15/64
f 70/11/65 68/15/64 69/15/66
f 68/15/64 70/11/65 66/11/67
f 70/11/65 72/14/68 71/10/69
f 72/14/70 70/11/65 69/15/71
f 65/10/62 72/14/68 67/14/63
f 72/14/68 65/10/62 71/10/72
f 69/15/19 67/14/19 72/14/19
f 67/14/19 69/15/19 68/15/19
f 75/16/73 74/11/74 73/16/75
f 74/11/75 75/16/76 76/11/73
f 78/10/77 75/16/73 77/17/77
f 75/16/76 78/10/77 76/11/76
f 75/16/78 79/17/78 77/17/78
f 79/17/78 75/16/78 73/16/78
f 80/10/79 77/17/77 79/17/79
f 77/17/77 80/10/79 78/10/77
f 73/16/80 80/10/79 79/17/79
f 80/10/79 73/16/81 74/11/80
f 83/10/82 82/11/83 81/18/82
f 82/11/84 83/10/82 84/19/83
f 82/11/85 85/18/85 81/18/85
f 85/18/37 82/11/37 86/11/37
f 86/11/86 87/10/87 85/18/88
f 87/10/89 86/11/90 88/19/86
f 83/10/82 85/18/89 87/10/89
f 85/18/88 83/10/91 81/18/92
f 86/11/90 84/19/83 88/19/93
f 84/19/83 86/11/86 82/11/83
f 91/20/94 90/21/95 89/10/94
f 90/21/95 91/20/96 92/11/95
f 94/20/97 89/10/96 93/10/97
f 89/10/96 94/20/98 91/20/94
f 92/11/95 95/21/99 90/21/95
f 95/21/99 92/11/95 96/11/99
f 95/21/99 94/20/97 93/10/97
f 94/20/98 95/21/99 96/11/99
f 94/20/100 92/11/100 91/20/100
f 92/11/100 94/20/100 96/11/100
f 3/1/1 2/2/1 1/2/1
f 2/2/1 3/1/1 4/1/1
f 7/3/2 6/4/2 5/3/2
f 6/4/2 7/3/2 8/5/3
f 8/5/3 7/3/2 9/5/3
f 9/5/4 7/3/5 10/6/5
f 13/6/2 12/5/2 11/6/2
f 12/5/2 13/6/2 14/5/2
f 17/5/6 16/7/7 15/7/7
f 16/7/7 17/5/6 14/5/6
f 12/5/8 19/7/8 18/7/8
f 19/7/8 12/5/8 20/5/8
f 20/5/9 14/5/9 17/5/9
f 14/5/9 20/5/9 12/5/9
f 23/8/9 22/8/9 21/8/9
f 22/8/9 23/8/9 24/8/9
f 27/1/10 26/7/11 25/1/10
f 26/7/11 27/1/10 28/7/11
f 30/3/12 6/4/12 29/4/12
f 6/4/12 30/3/12 5/3/12
f 29/4/9 32/4/9 31/4/9
f 32/4/9 29/4/9 6/4/9
f 22/8/13 20/5/13 17/5/13
f 20/5/13 22/8/13 24/8/13
f 34/2/14 2/2/14 33/2/14
f 2/2/14 34/2/14 1/2/14
f 1/2/14 34/2/14 35/2/14
f 1/2/14 35/2/14 36/2/14
f 4/1/15 33/2/15 2/2/15
f 33/2/15 4/1/15 37/1/15
f 40/5/16 39/7/17 38/7/17
f 39/7/17 40/5/16 8/5/16
f 43/9/9 42/9/9 41/9/9
f 42/9/9 43/9/9 44/9/9
f 45/7/18 37/1/19 4/1/19
f 37/1/19 45/7/18 15/7/18
f 37/1/20 34/2/20 33/2/20
f 34/2/20 37/1/20 46/1/20
f 32/4/21 8/5/16 40/5/16
f 8/5/16 32/4/21 6/4/21
f 7/3/21 47/6/21 10/6/21
f 47/6/21 7/3/21 48/3/21
f 25/1/22 1/2/22 36/2/22
f 1/2/22 25/1/22 3/1/22
f 16/7/23 27/1/24 46/1/24
f 27/1/24 16/7/23 28/7/23
f 23/8/25 41/9/25 42/9/25
f 41/9/25 23/8/25 21/8/25
f 19/7/26 50/5/27 49/7/26
f 50/5/27 19/7/26 20/5/27
f 28/7/11 51/5/28 26/7/11
f 51/5/28 28/7/11 52/5/28
f 46/1/29 35/2/29 34/2/29
f 35/2/29 46/1/29 27/1/29
f 32/4/30 43/9/30 31/4/30
f 43/9/30 32/4/30 44/9/30
f 30/3/9 7/3/9 5/3/9
f 7/3/9 30/3/9 48/3/9
f 38/7/9 19/7/9 49/7/9
f 19/7/9 38/7/9 18/7/9
f 18/7/9 38/7/9 39/7/9
f 18/7/9 39/7/9 53/7/9
f 10/6/12 12/5/31 9/5/31
f 12/5/31 10/6/12 11/6/12
f 35/2/32 25/1/32 36/2/32
f 25/1/32 35/2/32 27/1/32
f 10/6/9 13/6/9 11/6/9
f 13/6/9 10/6/9 47/6/9
f 52/5/28 29/4/30 51/5/28
f 29/4/30 52/5/28 30/3/30
f 30/3/30 52/5/28 48/3/30
f 48/3/33 52/5/34 47/6/35
f 26/7/36 3/1/37 25/1/37
f 3/1/37 26/7/36 54/7/36
f 20/5/27 42/9/30 50/5/27
f 42/9/30 20/5/27 23/8/30
f 23/8/30 20/5/27 24/8/30
f 29/4/25 55/5/38 51/5/38
f 55/5/38 29/4/25 31/4/25
f 15/7/7 46/1/39 37/1/39
f 46/1/39 15/7/7 16/7/7
f 8/5/3 53/7/40 39/7/40
f 53/7/40 8/5/3 9/5/3
f 9/5/31 18/7/41 53/7/41
f 18/7/41 9/5/31 12/5/31
f 42/9/13 40/5/42 50/5/42
f 40/5/42 42/9/13 32/4/13
f 32/4/13 42/9/13 44/9/13
f 56/5/43 15/7/18 45/7/18
f 15/7/18 56/5/43 17/5/43
f 13/6/13 52/5/44 14/5/44
f 52/5/44 13/6/13 47/6/13
f 54/7/45 4/1/46 3/1/46
f 4/1/46 54/7/45 45/7/45
f 55/5/47 45/7/45 54/7/45
f 45/7/45 55/5/47 56/5/47
f 50/5/42 38/7/48 49/7/48
f 38/7/48 50/5/42 40/5/42
f 31/4/12 56/5/49 55/5/49
f 56/5/49 31/4/12 41/9/12
f 41/9/12 31/4/12 43/9/12
f 51/5/38 54/7/36 26/7/36
f 54/7/36 51/5/38 55/5/38
f 14/5/50 28/7/23 16/7/23
f 28/7/23 14/5/50 52/5/50
f 22/8/2 41/9/2 21/8/2
f 41/9/2 22/8/2 56/5/43
f 56/5/43 22/8/2 17/5/43
f 59/10/51 58/11/52 57/12/53
f 58/11/52 59/10/54 60/13/54
f 61/13/6 58/11/6 60/13/6
f 58/11/55 61/13/55 62/11/55
f 62/11/56 64/10/57 63/12/58
f 64/10/57 62/11/56 61/13/57
f 63/12/56 58/11/52 62/11/56
f 58/11/52 63/12/58 57/12/53
f 60/13/54 64/10/57 61/13/57
f 64/10/59 60/13/54 59/10/54
f 67/14/60 66/11/61 65/10/62
f 66/11/61 67/14/63 68/15/64
f 70/11/65 68/15/64 69/15/66
f 68/15/64 70/11/65 66/11/67
f 70/11/65 72/14/68 71/10/69
f 72/14/70 70/11/65 69/15/71
f 65/10/62 72/14/68 67/14/63
f 72/14/68 65/10/62 71/10/72
f 69/15/19 67/14/19 72/14/19
f 67/14/19 69/15/19 68/15/19
f 75/16/73 74/11/74 73/16/75
f 74/11/75 75/16/76 76/11/73
f 78/10/77 75/16/73 77/17/77
f 75/16/76 78/10/77 76/11/76
f 75/16/78 79/17/78 77/17/78
f 79/17/78 75/16/78 73/16/78
f 80/10/79 77/17/77 79/17/79
f 77/17/77 80/10/79 78/10/77
f 73/16/80 80/10/79 79/17/79
f 80/10/79 73/16/81 74/11/80
f 83/10/82 82/11/83 81/18/82
f 82/11/84 83/10/82 84/19/83
f 82/11/85 85/18/85 81/18/85
f 85/18/37 82/11/37 86/11/37
f 86/11/86 87/10/87 85/18/88
f 87/10/89 86/11/90 88/19/86
f 83/10/82 85/18/89 87/10/89
f 85/18/88 83/10/91 81/18/92
f 86/11/90 84/19/83 88/19/93
f 84/19/83 86/11/86 82/11/83
f 91/20/94 90/21/95 89/10/94
f 90/21/95 91/20/96 92/11/95
f 94/20/97 89/10/96 93/10/97
f 89/10/96 94/20/98 91/20/94
f 92/11/95 95/21/99 90/21/95
f 95/21/99 92/11/95 96/11/99
f 95/21/99 94/20/97 93/10/97
f 94/20/98 95/21/99 96/11/99
f 94/20/100 92/11/100 91/20/100
f 92/11/100 94/20/100 96/11/100
