# Blender 3.6.4
# www.blender.org
mtllib Coffin.mtl
o Coffin_1
v -9.718095 0.538256 -0.239083
v -9.727330 0.538256 -0.207008
v -9.718095 0.689556 -0.239083
v -9.727330 0.689556 -0.207008
v -10.049997 0.689556 -0.297021
v -10.007780 0.689556 -0.289651
v -10.092215 0.689556 -0.274912
v -10.007780 0.689556 -0.256781
v -10.092215 0.689556 -0.256781
v -10.377349 0.538256 -0.104065
v -10.377349 0.689556 -0.104065
v -10.292914 0.538256 -0.104065
v -10.292914 0.689556 -0.104065
v -10.092215 0.538256 -0.256781
v -10.092215 0.538256 -0.274912
v -10.092215 0.689556 0.261261
v -10.092215 0.538256 0.261261
v -10.007780 0.689556 0.261261
v -10.007780 0.538256 0.261261
v -10.007780 0.538256 0.294131
v -10.007780 0.689556 0.294131
v -10.007780 0.538256 -0.289651
v -10.007780 0.538256 -0.256781
v -9.827947 0.689556 -0.258259
v -9.837182 0.689556 -0.226184
v -9.837182 0.538256 -0.226184
v -9.827947 0.538256 -0.258259
v -10.092215 0.689556 0.279392
v -10.049997 0.689556 0.301501
v -10.092215 0.538256 0.279392
v -9.827947 0.538256 0.262739
v -9.837182 0.538256 0.230664
v -9.827947 0.689556 0.262739
v -9.837182 0.689556 0.230664
v -9.064817 0.538256 -0.058606
v -9.064817 0.689556 -0.058606
v -9.031338 0.538256 -0.058606
v -9.031338 0.689556 -0.058606
v -9.064817 0.538256 -0.125043
v -9.064817 0.689556 -0.125043
v -9.031338 0.689556 -0.119199
v -9.727330 0.538256 0.211488
v -9.718095 0.538256 0.243563
v -9.727330 0.689556 0.211488
v -9.718095 0.689556 0.243563
v -10.377349 0.689556 0.105010
v -10.377349 0.538256 0.105010
v -10.299664 0.689556 0.105010
v -10.299664 0.538256 0.105010
v -9.064817 0.689556 0.063086
v -9.031338 0.689556 0.063086
v -9.064817 0.689556 0.129523
v -9.031338 0.689556 0.123679
v -9.064817 0.538256 0.063086
v -9.031338 0.538256 0.063086
v -10.292914 0.689556 -0.169807
v -10.377349 0.689556 -0.125589
v -9.064817 0.538256 0.129523
v -10.377349 0.689556 0.130069
v -10.299664 0.689556 0.170752
v -10.292914 0.538256 -0.169807
v -10.299664 0.538256 0.170752
v -10.407962 0.503056 0.142763
v -10.407962 0.708256 0.142763
v -10.056152 0.503056 0.327003
v -10.056152 0.708256 0.327003
v -10.407962 0.708256 -0.138283
v -10.407962 0.503056 -0.138283
v -10.056152 0.708256 -0.322523
v -10.056152 0.503056 -0.322523
v -9.000725 0.708256 -0.138283
v -9.000725 0.503056 -0.138283
v -10.049997 0.708256 0.301501
v -9.031338 0.708256 0.123679
v -9.031338 0.708256 -0.119199
v -10.049997 0.708256 -0.297021
v -9.000725 0.503056 0.142762
v -9.000725 0.708256 0.142762
v -10.377349 0.708256 -0.125589
v -10.377349 0.708256 0.130069
v -10.056153 0.747244 -0.322523
v -10.056153 0.708256 -0.322523
v -9.000725 0.747244 -0.138283
v -9.000725 0.747244 0.142762
v -10.407963 0.708256 0.142763
v -10.407963 0.747244 0.142763
v -10.056153 0.708256 0.327003
v -10.056153 0.747244 0.327003
v -10.407963 0.747244 -0.138283
v -10.407963 0.708256 -0.138283
v -10.056153 0.777244 -0.307142
v -9.888738 0.777244 -0.277918
v -10.056153 0.777244 0.311623
v -9.888738 0.777244 0.282398
v -9.888738 0.747244 -0.277918
v -9.888738 0.747244 0.282398
v -10.056153 0.747244 0.311623
v -10.056153 0.747244 -0.307142
v -9.426674 0.777244 -0.197258
v -9.266403 0.777244 -0.169280
v -9.426674 0.777244 0.201738
v -9.266403 0.777244 0.173760
v -9.426674 0.747244 0.201738
v -9.426674 0.747244 -0.197258
v -9.266403 0.747244 -0.169280
v -9.266403 0.747244 0.173760
vn 0.9610 -0.0000 0.2767
vn -0.0000 1.0000 -0.0000
vn -0.0000 -0.0000 1.0000
vn -1.0000 -0.0000 -0.0000
vn -0.0000 -0.0000 -1.0000
vn 1.0000 -0.0000 -0.0000
vn -0.9610 -0.0000 -0.2767
vn -0.9610 -0.0000 0.2767
vn 0.9610 -0.0000 -0.2767
vn -0.1720 -0.0000 -0.9851
vn -0.1720 -0.0000 0.9851
vn -0.0000 -1.0000 -0.0000
vn -0.4639 -0.0000 0.8859
vn 0.4639 -0.0000 -0.8859
vn -0.4639 -0.0000 -0.8859
vn 0.4639 -0.0000 0.8859
vn 0.1720 -0.0000 -0.9851
vn -0.1720 -0.0002 -0.9851
vn 0.1720 -0.0000 0.9851
vn 0.1720 0.0002 0.9851
vn -0.1720 -0.0002 0.9851
vn 0.1720 0.0002 -0.9851
vn 0.1767 -0.0000 -0.9843
vn -0.4742 -0.0000 0.8804
vn -0.4742 -0.0000 -0.8804
vn 0.1767 -0.0000 0.9843
vt 0.218750 0.456774
vt 0.218750 0.309308
vt 0.093750 0.309308
vt 0.093750 0.456774
vt 0.093750 0.275000
vt 0.093750 0.475000
vt 0.093750 0.388028
s 0
usemtl colormap.019
f 3/1/1 2/2/1 1/2/1
f 2/2/1 3/1/1 4/1/1
f 7/1/2 6/1/2 5/1/2
f 6/1/2 7/1/2 8/1/2
f 8/1/2 7/1/2 9/1/2
f 12/2/3 11/1/3 10/2/3
f 11/1/3 12/2/3 13/1/3
f 9/1/4 15/2/4 14/2/4
f 15/2/4 9/1/4 7/1/4
f 18/1/5 17/2/5 16/1/5
f 17/2/5 18/1/5 19/2/5
f 18/1/6 20/2/6 19/2/6
f 20/2/6 18/1/6 21/1/6
f 6/1/6 23/2/6 22/2/6
f 23/2/6 6/1/6 8/1/6
f 25/1/2 3/1/2 24/1/2
f 3/1/2 25/1/2 4/1/2
f 25/1/7 27/2/7 26/2/7
f 27/2/7 25/1/7 24/1/7
f 28/1/2 18/1/2 16/1/2
f 18/1/2 28/1/2 21/1/2
f 21/1/2 28/1/2 29/1/2
f 23/2/3 9/1/3 14/2/3
f 9/1/3 23/2/3 8/1/3
f 28/1/4 17/2/4 30/2/4
f 17/2/4 28/1/4 16/1/4
f 33/1/8 32/2/8 31/2/8
f 32/2/8 33/1/8 34/1/8
f 37/2/3 36/1/3 35/2/3
f 36/1/3 37/2/3 38/1/3
f 36/1/4 39/2/4 35/2/4
f 39/2/4 36/1/4 40/1/4
f 36/1/2 41/1/2 40/1/2
f 41/1/2 36/1/2 38/1/2
f 44/1/9 43/2/9 42/2/9
f 43/2/9 44/1/9 45/1/9
f 44/1/10 32/2/10 34/1/10
f 32/2/10 44/1/10 42/2/10
f 48/1/5 47/2/5 46/1/5
f 47/2/5 48/1/5 49/2/5
f 52/1/2 51/1/2 50/1/2
f 51/1/2 52/1/2 53/1/2
f 2/2/11 25/1/11 26/2/11
f 25/1/11 2/2/11 4/1/11
f 51/1/5 54/2/5 50/1/5
f 54/2/5 51/1/5 55/2/5
f 34/1/2 45/1/2 44/1/2
f 45/1/2 34/1/2 33/1/2
f 57/1/2 13/1/2 56/1/2
f 13/1/2 57/1/2 11/1/2
f 52/1/4 54/2/4 58/2/4
f 54/2/4 52/1/4 50/1/4
f 59/1/2 48/1/2 46/1/2
f 48/1/2 59/1/2 60/1/2
f 56/1/6 12/2/6 61/2/6
f 12/2/6 56/1/6 13/1/6
f 48/1/6 62/2/6 49/2/6
f 62/2/6 48/1/6 60/1/6
f 1/3/7 2/3/7 3/4/7
f 4/4/7 3/4/7 2/3/7
f 5/4/12 6/4/12 7/4/12
f 8/4/12 7/4/12 6/4/12
f 9/4/12 7/4/12 8/4/12
f 10/3/5 11/4/5 12/3/5
f 13/4/5 12/3/5 11/4/5
f 65/5/13 64/6/13 63/5/13
f 64/6/13 65/5/13 66/6/13
f 63/5/14 64/6/14 65/5/14
f 66/6/14 65/5/14 64/6/14
f 69/6/15 68/5/15 67/6/15
f 68/5/15 69/6/15 70/5/15
f 67/6/16 68/5/16 69/6/16
f 70/5/16 69/6/16 68/5/16
f 14/3/6 15/3/6 9/4/6
f 7/4/6 9/4/6 15/3/6
f 16/4/3 17/3/3 18/4/3
f 19/3/3 18/4/3 17/3/3
f 19/3/4 20/3/4 18/4/4
f 21/4/4 18/4/4 20/3/4
f 22/3/4 23/3/4 6/4/4
f 8/4/4 6/4/4 23/3/4
f 24/4/12 3/4/12 25/4/12
f 4/4/12 25/4/12 3/4/12
f 71/6/17 70/5/17 69/6/17
f 70/5/17 71/6/17 72/5/17
f 69/6/11 70/5/11 71/6/11
f 72/5/11 71/6/11 70/5/11
f 26/3/1 27/3/1 25/4/1
f 24/4/1 25/4/1 27/3/1
f 16/4/12 18/4/12 28/4/12
f 21/4/12 28/4/12 18/4/12
f 29/4/12 28/4/12 21/4/12
f 14/3/5 9/4/5 23/3/5
f 8/4/5 23/3/5 9/4/5
f 74/6/10 29/4/10 73/6/10
f 29/4/10 74/6/10 21/4/10
f 21/4/10 74/6/10 33/4/10
f 21/4/10 33/4/10 20/3/10
f 31/3/10 20/3/10 33/4/10
f 33/4/18 74/6/18 45/4/18
f 45/4/10 74/6/10 43/3/10
f 43/3/10 74/6/10 52/4/10
f 52/4/10 74/6/10 53/4/10
f 58/3/10 43/3/10 52/4/10
f 73/6/19 29/4/19 74/6/19
f 21/4/19 74/6/19 29/4/19
f 33/4/19 74/6/19 21/4/19
f 20/3/19 33/4/19 21/4/19
f 33/4/19 20/3/19 31/3/19
f 45/4/20 74/6/20 33/4/20
f 43/3/19 74/6/19 45/4/19
f 52/4/19 74/6/19 43/3/19
f 52/4/19 43/3/19 58/3/19
f 53/4/19 74/6/19 52/4/19
f 27/3/11 6/4/11 22/3/11
f 24/4/11 6/4/11 27/3/11
f 75/6/11 6/4/11 24/4/11
f 75/6/21 24/4/21 3/4/21
f 76/6/11 6/4/11 75/6/11
f 6/4/11 76/6/11 5/4/11
f 75/6/11 3/4/11 40/4/11
f 75/6/11 40/4/11 41/4/11
f 40/4/11 3/4/11 39/3/11
f 39/3/11 3/4/11 1/3/11
f 22/3/17 6/4/17 27/3/17
f 27/3/17 6/4/17 24/4/17
f 24/4/17 6/4/17 75/6/17
f 3/4/22 24/4/22 75/6/22
f 75/6/17 6/4/17 76/6/17
f 5/4/17 76/6/17 6/4/17
f 40/4/17 3/4/17 75/6/17
f 41/4/17 40/4/17 75/6/17
f 39/3/17 3/4/17 40/4/17
f 1/3/17 3/4/17 39/3/17
f 30/3/6 17/3/6 28/4/6
f 16/4/6 28/4/6 17/3/6
f 31/3/9 32/3/9 33/4/9
f 34/4/9 33/4/9 32/3/9
f 35/3/5 36/4/5 37/3/5
f 38/4/5 37/3/5 36/4/5
f 71/6/6 77/5/6 72/5/6
f 77/5/6 71/6/6 78/6/6
f 72/5/4 77/5/4 71/6/4
f 78/6/4 71/6/4 77/5/4
f 35/3/6 39/3/6 36/4/6
f 40/4/6 36/4/6 39/3/6
f 64/6/4 68/5/4 63/5/4
f 68/5/4 64/6/4 67/6/4
f 63/5/6 68/5/6 64/6/6
f 67/6/6 64/6/6 68/5/6
f 40/4/12 41/4/12 36/4/12
f 38/4/12 36/4/12 41/4/12
f 42/3/8 43/3/8 44/4/8
f 45/4/8 44/4/8 43/3/8
f 34/4/19 32/3/19 44/4/19
f 42/3/19 44/4/19 32/3/19
f 74/6/4 51/4/4 53/4/4
f 51/4/4 74/6/4 38/4/4
f 38/4/4 74/6/4 41/4/4
f 41/4/4 74/6/4 75/6/4
f 37/3/4 51/4/4 38/4/4
f 51/4/4 37/3/4 55/3/4
f 53/4/6 51/4/6 74/6/6
f 38/4/6 74/6/6 51/4/6
f 38/4/6 51/4/6 37/3/6
f 55/3/6 37/3/6 51/4/6
f 41/4/6 74/6/6 38/4/6
f 75/6/6 74/6/6 41/4/6
f 46/4/3 47/3/3 48/4/3
f 49/3/3 48/4/3 47/3/3
f 79/6/6 11/4/6 57/4/6
f 11/4/6 79/6/6 46/4/6
f 46/4/6 79/6/6 59/4/6
f 59/4/6 79/6/6 80/6/6
f 47/3/6 11/4/6 46/4/6
f 11/4/6 47/3/6 10/3/6
f 57/4/4 11/4/4 79/6/4
f 46/4/4 79/6/4 11/4/4
f 46/4/4 11/4/4 47/3/4
f 10/3/4 47/3/4 11/4/4
f 59/4/4 79/6/4 46/4/4
f 80/6/4 79/6/4 59/4/4
f 50/4/12 51/4/12 52/4/12
f 53/4/12 52/4/12 51/4/12
f 26/3/17 25/4/17 2/3/17
f 4/4/17 2/3/17 25/4/17
f 72/5/12 68/5/12 70/5/12
f 68/5/12 72/5/12 77/5/12
f 68/5/12 77/5/12 63/5/12
f 63/5/12 77/5/12 65/5/12
f 70/5/2 68/5/2 72/5/2
f 77/5/2 72/5/2 68/5/2
f 63/5/2 77/5/2 68/5/2
f 65/5/2 77/5/2 63/5/2
f 77/5/19 66/6/19 65/5/19
f 66/6/19 77/5/19 78/6/19
f 65/5/10 66/6/10 77/5/10
f 78/6/10 77/5/10 66/6/10
f 15/3/16 56/4/16 61/3/16
f 7/4/16 56/4/16 15/3/16
f 76/6/16 56/4/16 7/4/16
f 76/6/16 7/4/16 5/4/16
f 79/6/16 56/4/16 76/6/16
f 56/4/16 79/6/16 57/4/16
f 61/3/15 56/4/15 15/3/15
f 15/3/15 56/4/15 7/4/15
f 7/4/15 56/4/15 76/6/15
f 5/4/15 7/4/15 76/6/15
f 76/6/15 56/4/15 79/6/15
f 57/4/15 79/6/15 56/4/15
f 50/4/3 54/3/3 51/4/3
f 55/3/3 51/4/3 54/3/3
f 44/4/12 45/4/12 34/4/12
f 33/4/12 34/4/12 45/4/12
f 61/3/2 14/3/2 15/3/2
f 14/3/2 61/3/2 23/3/2
f 23/3/2 61/3/2 26/3/2
f 27/3/2 23/3/2 26/3/2
f 23/3/2 27/3/2 22/3/2
f 26/3/2 61/3/2 2/3/2
f 39/3/2 2/3/2 61/3/2
f 2/3/2 39/3/2 1/3/2
f 39/3/2 61/3/2 12/3/2
f 39/3/2 12/3/2 35/3/2
f 12/3/2 47/3/2 35/3/2
f 47/3/2 12/3/2 10/3/2
f 35/3/2 47/3/2 37/3/2
f 37/3/2 47/3/2 54/3/2
f 55/3/2 37/3/2 54/3/2
f 54/3/2 47/3/2 49/3/2
f 54/3/2 49/3/2 58/3/2
f 58/3/2 49/3/2 62/3/2
f 58/3/2 62/3/2 42/3/2
f 58/3/2 42/3/2 43/3/2
f 62/3/2 17/3/2 42/3/2
f 17/3/2 62/3/2 30/3/2
f 42/3/2 17/3/2 32/3/2
f 19/3/2 32/3/2 17/3/2
f 32/3/2 19/3/2 31/3/2
f 31/3/2 19/3/2 20/3/2
f 15/3/12 14/3/12 61/3/12
f 23/3/12 61/3/12 14/3/12
f 26/3/12 61/3/12 23/3/12
f 26/3/12 23/3/12 27/3/12
f 22/3/12 27/3/12 23/3/12
f 2/3/12 61/3/12 26/3/12
f 61/3/12 2/3/12 39/3/12
f 1/3/12 39/3/12 2/3/12
f 12/3/12 61/3/12 39/3/12
f 35/3/12 12/3/12 39/3/12
f 35/3/12 47/3/12 12/3/12
f 10/3/12 12/3/12 47/3/12
f 37/3/12 47/3/12 35/3/12
f 54/3/12 47/3/12 37/3/12
f 54/3/12 37/3/12 55/3/12
f 49/3/12 47/3/12 54/3/12
f 58/3/12 49/3/12 54/3/12
f 62/3/12 49/3/12 58/3/12
f 42/3/12 62/3/12 58/3/12
f 43/3/12 42/3/12 58/3/12
f 42/3/12 17/3/12 62/3/12
f 30/3/12 62/3/12 17/3/12
f 32/3/12 17/3/12 42/3/12
f 17/3/12 32/3/12 19/3/12
f 31/3/12 19/3/12 32/3/12
f 20/3/12 19/3/12 31/3/12
f 56/4/12 13/4/12 57/4/12
f 11/4/12 57/4/12 13/4/12
f 58/3/6 54/3/6 52/4/6
f 50/4/6 52/4/6 54/3/6
f 46/4/12 48/4/12 59/4/12
f 60/4/12 59/4/12 48/4/12
f 73/6/14 59/4/14 80/6/14
f 59/4/14 73/6/14 60/4/14
f 60/4/14 73/6/14 28/4/14
f 28/4/14 73/6/14 29/4/14
f 60/4/14 28/4/14 62/3/14
f 30/3/14 62/3/14 28/4/14
f 80/6/13 59/4/13 73/6/13
f 60/4/13 73/6/13 59/4/13
f 28/4/13 73/6/13 60/4/13
f 29/4/13 73/6/13 28/4/13
f 62/3/13 28/4/13 60/4/13
f 28/4/13 62/3/13 30/3/13
f 61/3/4 12/3/4 56/4/4
f 13/4/4 56/4/4 12/3/4
f 49/3/4 62/3/4 48/4/4
f 60/4/4 48/4/4 62/3/4
f 74/6/12 75/6/12 78/6/12
f 73/6/12 74/6/12 78/6/12
f 78/6/12 75/6/12 71/6/12
f 66/6/12 73/6/12 78/6/12
f 75/6/12 76/6/12 71/6/12
f 69/6/12 71/6/12 76/6/12
f 69/6/12 76/6/12 67/6/12
f 79/6/12 67/6/12 76/6/12
f 66/6/12 64/6/12 73/6/12
f 64/6/12 67/6/12 79/6/12
f 73/6/12 64/6/12 80/6/12
f 80/6/12 64/6/12 79/6/12
f 78/6/2 75/6/2 74/6/2
f 78/6/2 74/6/2 73/6/2
f 71/6/2 75/6/2 78/6/2
f 78/6/2 73/6/2 66/6/2
f 71/6/2 76/6/2 75/6/2
f 76/6/2 71/6/2 69/6/2
f 67/6/2 76/6/2 69/6/2
f 76/6/2 67/6/2 79/6/2
f 73/6/2 64/6/2 66/6/2
f 79/6/2 67/6/2 64/6/2
f 80/6/2 64/6/2 73/6/2
f 79/6/2 64/6/2 80/6/2
f 3/1/1 2/2/1 1/2/1
f 2/2/1 3/1/1 4/1/1
f 7/1/2 6/1/2 5/1/2
f 6/1/2 7/1/2 8/1/2
f 8/1/2 7/1/2 9/1/2
f 12/2/3 11/1/3 10/2/3
f 11/1/3 12/2/3 13/1/3
f 9/1/4 15/2/4 14/2/4
f 15/2/4 9/1/4 7/1/4
f 18/1/5 17/2/5 16/1/5
f 17/2/5 18/1/5 19/2/5
f 18/1/6 20/2/6 19/2/6
f 20/2/6 18/1/6 21/1/6
f 6/1/6 23/2/6 22/2/6
f 23/2/6 6/1/6 8/1/6
f 25/1/2 3/1/2 24/1/2
f 3/1/2 25/1/2 4/1/2
f 25/1/7 27/2/7 26/2/7
f 27/2/7 25/1/7 24/1/7
f 28/1/2 18/1/2 16/1/2
f 18/1/2 28/1/2 21/1/2
f 21/1/2 28/1/2 29/1/2
f 23/2/3 9/1/3 14/2/3
f 9/1/3 23/2/3 8/1/3
f 28/1/4 17/2/4 30/2/4
f 17/2/4 28/1/4 16/1/4
f 33/1/8 32/2/8 31/2/8
f 32/2/8 33/1/8 34/1/8
f 37/2/3 36/1/3 35/2/3
f 36/1/3 37/2/3 38/1/3
f 36/1/4 39/2/4 35/2/4
f 39/2/4 36/1/4 40/1/4
f 36/1/2 41/1/2 40/1/2
f 41/1/2 36/1/2 38/1/2
f 44/1/9 43/2/9 42/2/9
f 43/2/9 44/1/9 45/1/9
f 44/1/10 32/2/10 34/1/10
f 32/2/10 44/1/10 42/2/10
f 48/1/5 47/2/5 46/1/5
f 47/2/5 48/1/5 49/2/5
f 52/1/2 51/1/2 50/1/2
f 51/1/2 52/1/2 53/1/2
f 2/2/11 25/1/11 26/2/11
f 25/1/11 2/2/11 4/1/11
f 51/1/5 54/2/5 50/1/5
f 54/2/5 51/1/5 55/2/5
f 34/1/2 45/1/2 44/1/2
f 45/1/2 34/1/2 33/1/2
f 57/1/2 13/1/2 56/1/2
f 13/1/2 57/1/2 11/1/2
f 52/1/4 54/2/4 58/2/4
f 54/2/4 52/1/4 50/1/4
f 59/1/2 48/1/2 46/1/2
f 48/1/2 59/1/2 60/1/2
f 56/1/6 12/2/6 61/2/6
f 12/2/6 56/1/6 13/1/6
f 48/1/6 62/2/6 49/2/6
f 62/2/6 48/1/6 60/1/6
f 1/3/7 2/3/7 3/4/7
f 4/4/7 3/4/7 2/3/7
f 5/4/12 6/4/12 7/4/12
f 8/4/12 7/4/12 6/4/12
f 9/4/12 7/4/12 8/4/12
f 10/3/5 11/4/5 12/3/5
f 13/4/5 12/3/5 11/4/5
f 65/5/13 64/6/13 63/5/13
f 64/6/13 65/5/13 66/6/13
f 63/5/14 64/6/14 65/5/14
f 66/6/14 65/5/14 64/6/14
f 69/6/15 68/5/15 67/6/15
f 68/5/15 69/6/15 70/5/15
f 67/6/16 68/5/16 69/6/16
f 70/5/16 69/6/16 68/5/16
f 14/3/6 15/3/6 9/4/6
f 7/4/6 9/4/6 15/3/6
f 16/4/3 17/3/3 18/4/3
f 19/3/3 18/4/3 17/3/3
f 19/3/4 20/3/4 18/4/4
f 21/4/4 18/4/4 20/3/4
f 22/3/4 23/3/4 6/4/4
f 8/4/4 6/4/4 23/3/4
f 24/4/12 3/4/12 25/4/12
f 4/4/12 25/4/12 3/4/12
f 71/6/17 70/5/17 69/6/17
f 70/5/17 71/6/17 72/5/17
f 69/6/11 70/5/11 71/6/11
f 72/5/11 71/6/11 70/5/11
f 26/3/1 27/3/1 25/4/1
f 24/4/1 25/4/1 27/3/1
f 16/4/12 18/4/12 28/4/12
f 21/4/12 28/4/12 18/4/12
f 29/4/12 28/4/12 21/4/12
f 14/3/5 9/4/5 23/3/5
f 8/4/5 23/3/5 9/4/5
f 74/6/10 29/4/10 73/6/10
f 29/4/10 74/6/10 21/4/10
f 21/4/10 74/6/10 33/4/10
f 21/4/10 33/4/10 20/3/10
f 31/3/10 20/3/10 33/4/10
f 33/4/18 74/6/18 45/4/18
f 45/4/10 74/6/10 43/3/10
f 43/3/10 74/6/10 52/4/10
f 52/4/10 74/6/10 53/4/10
f 58/3/10 43/3/10 52/4/10
f 73/6/19 29/4/19 74/6/19
f 21/4/19 74/6/19 29/4/19
f 33/4/19 74/6/19 21/4/19
f 20/3/19 33/4/19 21/4/19
f 33/4/19 20/3/19 31/3/19
f 45/4/20 74/6/20 33/4/20
f 43/3/19 74/6/19 45/4/19
f 52/4/19 74/6/19 43/3/19
f 52/4/19 43/3/19 58/3/19
f 53/4/19 74/6/19 52/4/19
f 27/3/11 6/4/11 22/3/11
f 24/4/11 6/4/11 27/3/11
f 75/6/11 6/4/11 24/4/11
f 75/6/21 24/4/21 3/4/21
f 76/6/11 6/4/11 75/6/11
f 6/4/11 76/6/11 5/4/11
f 75/6/11 3/4/11 40/4/11
f 75/6/11 40/4/11 41/4/11
f 40/4/11 3/4/11 39/3/11
f 39/3/11 3/4/11 1/3/11
f 22/3/17 6/4/17 27/3/17
f 27/3/17 6/4/17 24/4/17
f 24/4/17 6/4/17 75/6/17
f 3/4/22 24/4/22 75/6/22
f 75/6/17 6/4/17 76/6/17
f 5/4/17 76/6/17 6/4/17
f 40/4/17 3/4/17 75/6/17
f 41/4/17 40/4/17 75/6/17
f 39/3/17 3/4/17 40/4/17
f 1/3/17 3/4/17 39/3/17
f 30/3/6 17/3/6 28/4/6
f 16/4/6 28/4/6 17/3/6
f 31/3/9 32/3/9 33/4/9
f 34/4/9 33/4/9 32/3/9
f 35/3/5 36/4/5 37/3/5
f 38/4/5 37/3/5 36/4/5
f 71/6/6 77/5/6 72/5/6
f 77/5/6 71/6/6 78/6/6
f 72/5/4 77/5/4 71/6/4
f 78/6/4 71/6/4 77/5/4
f 35/3/6 39/3/6 36/4/6
f 40/4/6 36/4/6 39/3/6
f 64/6/4 68/5/4 63/5/4
f 68/5/4 64/6/4 67/6/4
f 63/5/6 68/5/6 64/6/6
f 67/6/6 64/6/6 68/5/6
f 40/4/12 41/4/12 36/4/12
f 38/4/12 36/4/12 41/4/12
f 42/3/8 43/3/8 44/4/8
f 45/4/8 44/4/8 43/3/8
f 34/4/19 32/3/19 44/4/19
f 42/3/19 44/4/19 32/3/19
f 74/6/4 51/4/4 53/4/4
f 51/4/4 74/6/4 38/4/4
f 38/4/4 74/6/4 41/4/4
f 41/4/4 74/6/4 75/6/4
f 37/3/4 51/4/4 38/4/4
f 51/4/4 37/3/4 55/3/4
f 53/4/6 51/4/6 74/6/6
f 38/4/6 74/6/6 51/4/6
f 38/4/6 51/4/6 37/3/6
f 55/3/6 37/3/6 51/4/6
f 41/4/6 74/6/6 38/4/6
f 75/6/6 74/6/6 41/4/6
f 46/4/3 47/3/3 48/4/3
f 49/3/3 48/4/3 47/3/3
f 79/6/6 11/4/6 57/4/6
f 11/4/6 79/6/6 46/4/6
f 46/4/6 79/6/6 59/4/6
f 59/4/6 79/6/6 80/6/6
f 47/3/6 11/4/6 46/4/6
f 11/4/6 47/3/6 10/3/6
f 57/4/4 11/4/4 79/6/4
f 46/4/4 79/6/4 11/4/4
f 46/4/4 11/4/4 47/3/4
f 10/3/4 47/3/4 11/4/4
f 59/4/4 79/6/4 46/4/4
f 80/6/4 79/6/4 59/4/4
f 50/4/12 51/4/12 52/4/12
f 53/4/12 52/4/12 51/4/12
f 26/3/17 25/4/17 2/3/17
f 4/4/17 2/3/17 25/4/17
f 72/5/12 68/5/12 70/5/12
f 68/5/12 72/5/12 77/5/12
f 68/5/12 77/5/12 63/5/12
f 63/5/12 77/5/12 65/5/12
f 70/5/2 68/5/2 72/5/2
f 77/5/2 72/5/2 68/5/2
f 63/5/2 77/5/2 68/5/2
f 65/5/2 77/5/2 63/5/2
f 77/5/19 66/6/19 65/5/19
f 66/6/19 77/5/19 78/6/19
f 65/5/10 66/6/10 77/5/10
f 78/6/10 77/5/10 66/6/10
f 15/3/16 56/4/16 61/3/16
f 7/4/16 56/4/16 15/3/16
f 76/6/16 56/4/16 7/4/16
f 76/6/16 7/4/16 5/4/16
f 79/6/16 56/4/16 76/6/16
f 56/4/16 79/6/16 57/4/16
f 61/3/15 56/4/15 15/3/15
f 15/3/15 56/4/15 7/4/15
f 7/4/15 56/4/15 76/6/15
f 5/4/15 7/4/15 76/6/15
f 76/6/15 56/4/15 79/6/15
f 57/4/15 79/6/15 56/4/15
f 50/4/3 54/3/3 51/4/3
f 55/3/3 51/4/3 54/3/3
f 44/4/12 45/4/12 34/4/12
f 33/4/12 34/4/12 45/4/12
f 61/3/2 14/3/2 15/3/2
f 14/3/2 61/3/2 23/3/2
f 23/3/2 61/3/2 26/3/2
f 27/3/2 23/3/2 26/3/2
f 23/3/2 27/3/2 22/3/2
f 26/3/2 61/3/2 2/3/2
f 39/3/2 2/3/2 61/3/2
f 2/3/2 39/3/2 1/3/2
f 39/3/2 61/3/2 12/3/2
f 39/3/2 12/3/2 35/3/2
f 12/3/2 47/3/2 35/3/2
f 47/3/2 12/3/2 10/3/2
f 35/3/2 47/3/2 37/3/2
f 37/3/2 47/3/2 54/3/2
f 55/3/2 37/3/2 54/3/2
f 54/3/2 47/3/2 49/3/2
f 54/3/2 49/3/2 58/3/2
f 58/3/2 49/3/2 62/3/2
f 58/3/2 62/3/2 42/3/2
f 58/3/2 42/3/2 43/3/2
f 62/3/2 17/3/2 42/3/2
f 17/3/2 62/3/2 30/3/2
f 42/3/2 17/3/2 32/3/2
f 19/3/2 32/3/2 17/3/2
f 32/3/2 19/3/2 31/3/2
f 31/3/2 19/3/2 20/3/2
f 15/3/12 14/3/12 61/3/12
f 23/3/12 61/3/12 14/3/12
f 26/3/12 61/3/12 23/3/12
f 26/3/12 23/3/12 27/3/12
f 22/3/12 27/3/12 23/3/12
f 2/3/12 61/3/12 26/3/12
f 61/3/12 2/3/12 39/3/12
f 1/3/12 39/3/12 2/3/12
f 12/3/12 61/3/12 39/3/12
f 35/3/12 12/3/12 39/3/12
f 35/3/12 47/3/12 12/3/12
f 10/3/12 12/3/12 47/3/12
f 37/3/12 47/3/12 35/3/12
f 54/3/12 47/3/12 37/3/12
f 54/3/12 37/3/12 55/3/12
f 49/3/12 47/3/12 54/3/12
f 58/3/12 49/3/12 54/3/12
f 62/3/12 49/3/12 58/3/12
f 42/3/12 62/3/12 58/3/12
f 43/3/12 42/3/12 58/3/12
f 42/3/12 17/3/12 62/3/12
f 30/3/12 62/3/12 17/3/12
f 32/3/12 17/3/12 42/3/12
f 17/3/12 32/3/12 19/3/12
f 31/3/12 19/3/12 32/3/12
f 20/3/12 19/3/12 31/3/12
f 56/4/12 13/4/12 57/4/12
f 11/4/12 57/4/12 13/4/12
f 58/3/6 54/3/6 52/4/6
f 50/4/6 52/4/6 54/3/6
f 46/4/12 48/4/12 59/4/12
f 60/4/12 59/4/12 48/4/12
f 73/6/14 59/4/14 80/6/14
f 59/4/14 73/6/14 60/4/14
f 60/4/14 73/6/14 28/4/14
f 28/4/14 73/6/14 29/4/14
f 60/4/14 28/4/14 62/3/14
f 30/3/14 62/3/14 28/4/14
f 80/6/13 59/4/13 73/6/13
f 60/4/13 73/6/13 59/4/13
f 28/4/13 73/6/13 60/4/13
f 29/4/13 73/6/13 28/4/13
f 62/3/13 28/4/13 60/4/13
f 28/4/13 62/3/13 30/3/13
f 61/3/4 12/3/4 56/4/4
f 13/4/4 56/4/4 12/3/4
f 49/3/4 62/3/4 48/4/4
f 60/4/4 48/4/4 62/3/4
f 74/6/12 75/6/12 78/6/12
f 73/6/12 74/6/12 78/6/12
f 78/6/12 75/6/12 71/6/12
f 66/6/12 73/6/12 78/6/12
f 75/6/12 76/6/12 71/6/12
f 69/6/12 71/6/12 76/6/12
f 69/6/12 76/6/12 67/6/12
f 79/6/12 67/6/12 76/6/12
f 66/6/12 64/6/12 73/6/12
f 64/6/12 67/6/12 79/6/12
f 73/6/12 64/6/12 80/6/12
f 80/6/12 64/6/12 79/6/12
f 78/6/2 75/6/2 74/6/2
f 78/6/2 74/6/2 73/6/2
f 71/6/2 75/6/2 78/6/2
f 78/6/2 73/6/2 66/6/2
f 71/6/2 76/6/2 75/6/2
f 76/6/2 71/6/2 69/6/2
f 67/6/2 76/6/2 69/6/2
f 76/6/2 67/6/2 79/6/2
f 73/6/2 64/6/2 66/6/2
f 79/6/2 67/6/2 64/6/2
f 80/6/2 64/6/2 73/6/2
f 79/6/2 64/6/2 80/6/2
f 83/7/23 82/5/23 81/7/23
f 82/5/23 83/7/23 71/5/23
f 83/7/6 78/5/6 71/5/6
f 78/5/6 83/7/6 84/7/6
f 87/5/24 86/7/24 85/5/24
f 86/7/24 87/5/24 88/7/24
f 81/7/25 90/5/25 89/7/25
f 90/5/25 81/7/25 82/5/25
f 86/7/4 90/5/4 85/5/4
f 90/5/4 86/7/4 89/7/4
f 71/5/12 90/5/12 82/5/12
f 90/5/12 71/5/12 78/5/12
f 90/5/12 78/5/12 85/5/12
f 85/5/12 78/5/12 87/5/12
f 93/6/2 92/6/2 91/6/2
f 92/6/2 93/6/2 94/6/2
f 92/6/6 96/7/6 95/7/6
f 96/7/6 92/6/6 94/6/6
f 93/6/4 98/7/4 97/7/4
f 98/7/4 93/6/4 91/6/4
f 101/6/2 100/6/2 99/6/2
f 100/6/2 101/6/2 102/6/2
f 101/6/4 104/7/4 103/7/4
f 104/7/4 101/6/4 99/6/4
f 100/6/6 106/7/6 105/7/6
f 106/7/6 100/6/6 102/6/6
f 78/5/26 88/7/26 87/5/26
f 88/7/26 78/5/26 84/7/26
f 100/6/23 104/7/23 99/6/23
f 104/7/23 100/6/23 105/7/23
f 106/7/26 101/6/26 103/7/26
f 101/6/26 106/7/26 102/6/26
f 92/6/23 98/7/23 91/6/23
f 98/7/23 92/6/23 95/7/23
f 96/7/26 93/6/26 97/7/26
f 93/6/26 96/7/26 94/6/26
f 83/7/2 106/7/2 84/7/2
f 84/7/2 106/7/2 88/7/2
f 83/7/2 105/7/2 106/7/2
f 88/7/2 106/7/2 103/7/2
f 83/7/2 104/7/2 105/7/2
f 104/7/2 96/7/2 103/7/2
f 88/7/2 103/7/2 96/7/2
f 96/7/2 104/7/2 95/7/2
f 83/7/2 95/7/2 104/7/2
f 88/7/2 96/7/2 97/7/2
f 97/7/2 86/7/2 88/7/2
f 97/7/2 89/7/2 86/7/2
f 83/7/2 98/7/2 95/7/2
f 98/7/2 89/7/2 97/7/2
f 98/7/2 83/7/2 81/7/2
f 89/7/2 98/7/2 81/7/2
